<svg xmlns="http://www.w3.org/2000/svg" width="1048" height="1027" viewBox="0 0 1048 1027">
  <g id="Grupo_11551" data-name="Grupo 11551" transform="translate(-450 -2049)">
    <g id="Rectángulo_2240" data-name="Rectángulo 2240" transform="translate(450 2177)" fill="#fff" stroke="#8de2ed" stroke-width="2">
      <rect width="500" height="101" rx="50.5" stroke="none"/>
      <rect x="1" y="1" width="498" height="99" rx="49.5" fill="none"/>
    </g>
    <path id="Trazado_21547" data-name="Trazado 21547" d="M-156.936.288a8.632,8.632,0,0,0,6.936-3l-2.5-2.3a5.354,5.354,0,0,1-4.224,1.992A5.154,5.154,0,0,1-162.1-8.4a5.154,5.154,0,0,1,5.376-5.376,5.405,5.405,0,0,1,4.224,1.968l2.5-2.3a8.673,8.673,0,0,0-6.912-2.976c-5.232,0-9.12,3.624-9.12,8.688S-162.144.288-156.936.288Zm18.216-13.2v6.384c0,2.376-1.248,3.48-2.976,3.48-1.656,0-2.616-.96-2.616-3.12v-6.744h-3.744v7.3c0,3.984,2.28,5.808,5.52,5.808a5.224,5.224,0,0,0,4.008-1.728V0h3.552V-12.912ZM-131.5,0h3.744V-17.808H-131.5Zm15.48-3.264a2.523,2.523,0,0,1-1.512.48,1.506,1.506,0,0,1-1.608-1.7V-9.744h3.216v-2.88h-3.216v-3.144h-3.744v3.144h-1.992v2.88h1.992v5.3c0,3.072,1.776,4.632,4.824,4.632a5.351,5.351,0,0,0,3.048-.816Zm12.384-9.648v6.384c0,2.376-1.248,3.48-2.976,3.48-1.656,0-2.616-.96-2.616-3.12v-6.744h-3.744v7.3c0,3.984,2.28,5.808,5.52,5.808a5.224,5.224,0,0,0,4.008-1.728V0h3.552V-12.912Zm10.8,1.7v-1.7h-3.576V0h3.744V-6.1c0-2.472,1.368-3.6,3.432-3.6.288,0,.528.024.84.048V-13.1A5.211,5.211,0,0,0-92.832-11.208Zm11.808-1.9a9.926,9.926,0,0,0-5.568,1.56l1.344,2.616a6.208,6.208,0,0,1,3.72-1.2c2.016,0,2.976.936,2.976,2.544h-2.976c-3.936,0-5.544,1.584-5.544,3.864,0,2.232,1.8,3.912,4.824,3.912,1.9,0,3.24-.624,3.936-1.8V0h3.5V-7.368C-74.808-11.28-77.088-13.1-81.024-13.1Zm-.288,10.776c-1.32,0-2.112-.624-2.112-1.56,0-.864.552-1.512,2.3-1.512h2.568v1.32A2.759,2.759,0,0,1-81.312-2.328ZM-71.424,0h3.744V-17.808h-3.744Zm8.664-4.464a2.224,2.224,0,0,0-2.328,2.3,2.082,2.082,0,0,0,1.3,2.04L-64.848,3.7h2.376L-61.1.24a5.58,5.58,0,0,0,.648-2.4A2.2,2.2,0,0,0-62.76-4.464ZM-46.776.192c3.864,0,6.1-1.7,6.1-4.1,0-5.088-7.8-2.952-7.8-5.16,0-.672.72-1.2,2.4-1.2a7.415,7.415,0,0,1,3.72.96l1.248-2.664A10.617,10.617,0,0,0-46.08-13.1c-3.768,0-5.976,1.728-5.976,4.176,0,5.16,7.8,3,7.8,5.112,0,.72-.648,1.176-2.376,1.176A8.834,8.834,0,0,1-51.12-3.888L-52.368-1.2A11.084,11.084,0,0,0-46.776.192Zm14.544,0c4.1,0,7.08-2.76,7.08-6.648s-2.976-6.648-7.08-6.648-7.1,2.76-7.1,6.648S-36.336.192-32.232.192Zm0-3.072a3.276,3.276,0,0,1-3.312-3.576,3.276,3.276,0,0,1,3.312-3.576,3.259,3.259,0,0,1,3.288,3.576A3.259,3.259,0,0,1-32.232-2.88ZM-16.416.192c2.712,0,4.848-1.2,5.784-3.264l-2.9-1.584a3.177,3.177,0,0,1-2.9,1.776,3.3,3.3,0,0,1-3.384-3.576,3.3,3.3,0,0,1,3.384-3.576,3.22,3.22,0,0,1,2.9,1.776l2.9-1.56c-.936-2.112-3.072-3.288-5.784-3.288-4.2,0-7.2,2.76-7.2,6.648S-20.616.192-16.416.192Zm9.816-14.9a2.153,2.153,0,0,0,2.328-2.16A2.1,2.1,0,0,0-6.6-18.888,2.14,2.14,0,0,0-8.928-16.8,2.14,2.14,0,0,0-6.6-14.712ZM-8.472,0h3.744V-12.912H-8.472ZM3.96-13.1a9.926,9.926,0,0,0-5.568,1.56L-.264-8.928a6.208,6.208,0,0,1,3.72-1.2c2.016,0,2.976.936,2.976,2.544H3.456C-.48-7.584-2.088-6-2.088-3.72c0,2.232,1.8,3.912,4.824,3.912,1.9,0,3.24-.624,3.936-1.8V0h3.5V-7.368C10.176-11.28,7.9-13.1,3.96-13.1ZM3.672-2.328c-1.32,0-2.112-.624-2.112-1.56,0-.864.552-1.512,2.3-1.512H6.432v1.32A2.759,2.759,0,0,1,3.672-2.328ZM13.56,0H17.3V-17.808H13.56ZM36.792-12.912l-3.648,8.76-3.624-8.76H25.656L31.248.1,31.2.216c-.5,1.152-1.08,1.608-2.112,1.608a3.319,3.319,0,0,1-2.112-.816L25.608,3.672a5.734,5.734,0,0,0,3.6,1.176c2.328,0,4.1-.936,5.352-4.056l5.832-13.7ZM54.96.192c2.712,0,4.848-1.2,5.784-3.264l-2.9-1.584a3.177,3.177,0,0,1-2.9,1.776,3.3,3.3,0,0,1-3.384-3.576,3.3,3.3,0,0,1,3.384-3.576,3.22,3.22,0,0,1,2.9,1.776l2.9-1.56c-.936-2.112-3.072-3.288-5.784-3.288-4.2,0-7.2,2.76-7.2,6.648S50.76.192,54.96.192Zm13.92,0c4.1,0,7.08-2.76,7.08-6.648S72.984-13.1,68.88-13.1s-7.1,2.76-7.1,6.648S64.776.192,68.88.192Zm0-3.072a3.276,3.276,0,0,1-3.312-3.576,3.276,3.276,0,0,1,3.312-3.576,3.259,3.259,0,0,1,3.288,3.576A3.259,3.259,0,0,1,68.88-2.88ZM78.456,0H82.2V-17.808H78.456ZM98.328-6.408a6.392,6.392,0,0,0-6.72-6.7A6.574,6.574,0,0,0,84.72-6.456c0,3.84,2.9,6.648,7.368,6.648A6.763,6.763,0,0,0,97.416-1.9l-1.992-2.16a4.377,4.377,0,0,1-3.24,1.248,3.443,3.443,0,0,1-3.7-2.592h9.768C98.28-5.712,98.328-6.12,98.328-6.408Zm-6.7-3.864A3.068,3.068,0,0,1,94.8-7.584H88.44A3.057,3.057,0,0,1,91.632-10.272ZM107.064.192c2.712,0,4.848-1.2,5.784-3.264l-2.9-1.584a3.177,3.177,0,0,1-2.9,1.776,3.3,3.3,0,0,1-3.384-3.576,3.3,3.3,0,0,1,3.384-3.576,3.22,3.22,0,0,1,2.9,1.776l2.9-1.56c-.936-2.112-3.072-3.288-5.784-3.288-4.2,0-7.2,2.76-7.2,6.648S102.864.192,107.064.192ZM122.52-3.264a2.523,2.523,0,0,1-1.512.48,1.506,1.506,0,0,1-1.608-1.7V-9.744h3.216v-2.88H119.4v-3.144h-3.744v3.144h-1.992v2.88h1.992v5.3c0,3.072,1.776,4.632,4.824,4.632a5.351,5.351,0,0,0,3.048-.816Zm4.992-11.448a2.153,2.153,0,0,0,2.328-2.16,2.1,2.1,0,0,0-2.328-2.016,2.14,2.14,0,0,0-2.328,2.088A2.14,2.14,0,0,0,127.512-14.712ZM125.64,0h3.744V-12.912H125.64Zm16.44-12.912-3.7,8.784-3.576-8.784h-3.864L136.368,0h3.864l5.448-12.912ZM153,.192c4.1,0,7.08-2.76,7.08-6.648S157.1-13.1,153-13.1s-7.1,2.76-7.1,6.648S148.9.192,153,.192Zm0-3.072a3.276,3.276,0,0,1-3.312-3.576A3.276,3.276,0,0,1,153-10.032a3.259,3.259,0,0,1,3.288,3.576A3.259,3.259,0,0,1,153-2.88ZM163.824.192a2.291,2.291,0,0,0,2.328-2.352,2.237,2.237,0,0,0-2.328-2.3,2.237,2.237,0,0,0-2.328,2.3A2.291,2.291,0,0,0,163.824.192Z" transform="translate(699 2236)" fill="#148e9f"/>
    <g id="Rectángulo_2241" data-name="Rectángulo 2241" transform="translate(450 2437)" fill="#fff" stroke="#8de2ed" stroke-width="2">
      <rect width="500" height="101" rx="50.5" stroke="none"/>
      <rect x="1" y="1" width="498" height="99" rx="49.5" fill="none"/>
    </g>
    <path id="Trazado_21549" data-name="Trazado 21549" d="M-159.324.288a8.632,8.632,0,0,0,6.936-3l-2.5-2.3a5.354,5.354,0,0,1-4.224,1.992A5.154,5.154,0,0,1-164.484-8.4a5.154,5.154,0,0,1,5.376-5.376,5.405,5.405,0,0,1,4.224,1.968l2.5-2.3a8.673,8.673,0,0,0-6.912-2.976c-5.232,0-9.12,3.624-9.12,8.688S-164.532.288-159.324.288Zm14.976-.1c4.1,0,7.08-2.76,7.08-6.648s-2.976-6.648-7.08-6.648-7.1,2.76-7.1,6.648S-148.452.192-144.348.192Zm0-3.072a3.276,3.276,0,0,1-3.312-3.576,3.276,3.276,0,0,1,3.312-3.576,3.259,3.259,0,0,1,3.288,3.576A3.259,3.259,0,0,1-144.348-2.88Zm15.72,3.072c4.1,0,7.08-2.76,7.08-6.648s-2.976-6.648-7.08-6.648-7.1,2.76-7.1,6.648S-132.732.192-128.628.192Zm0-3.072a3.276,3.276,0,0,1-3.312-3.576,3.276,3.276,0,0,1,3.312-3.576,3.259,3.259,0,0,1,3.288,3.576A3.259,3.259,0,0,1-128.628-2.88ZM-111.42-13.1a5.017,5.017,0,0,0-4.056,1.68v-1.488h-3.576V4.656h3.744V-1.368A5.013,5.013,0,0,0-111.42.192a6.271,6.271,0,0,0,6.432-6.648A6.271,6.271,0,0,0-111.42-13.1Zm-.648,10.224a3.259,3.259,0,0,1-3.288-3.576,3.259,3.259,0,0,1,3.288-3.576,3.259,3.259,0,0,1,3.288,3.576A3.259,3.259,0,0,1-112.068-2.88Zm22.224-3.528a6.392,6.392,0,0,0-6.72-6.7,6.574,6.574,0,0,0-6.888,6.648c0,3.84,2.9,6.648,7.368,6.648A6.763,6.763,0,0,0-90.756-1.9l-1.992-2.16a4.377,4.377,0,0,1-3.24,1.248,3.443,3.443,0,0,1-3.7-2.592h9.768C-89.892-5.712-89.844-6.12-89.844-6.408Zm-6.7-3.864a3.068,3.068,0,0,1,3.168,2.688h-6.36A3.057,3.057,0,0,1-96.54-10.272Zm12.768-.936v-1.7h-3.576V0H-83.6V-6.1c0-2.472,1.368-3.6,3.432-3.6.288,0,.528.024.84.048V-13.1A5.211,5.211,0,0,0-83.772-11.208Zm11.808-1.9a9.926,9.926,0,0,0-5.568,1.56l1.344,2.616a6.208,6.208,0,0,1,3.72-1.2c2.016,0,2.976.936,2.976,2.544h-2.976C-76.4-7.584-78.012-6-78.012-3.72c0,2.232,1.8,3.912,4.824,3.912,1.9,0,3.24-.624,3.936-1.8V0h3.5V-7.368C-65.748-11.28-68.028-13.1-71.964-13.1Zm-.288,10.776c-1.32,0-2.112-.624-2.112-1.56,0-.864.552-1.512,2.3-1.512h2.568v1.32A2.759,2.759,0,0,1-72.252-2.328ZM-55.98.192c2.712,0,4.848-1.2,5.784-3.264l-2.9-1.584A3.177,3.177,0,0,1-56-2.88a3.3,3.3,0,0,1-3.384-3.576A3.3,3.3,0,0,1-56-10.032a3.22,3.22,0,0,1,2.9,1.776l2.9-1.56c-.936-2.112-3.072-3.288-5.784-3.288-4.2,0-7.2,2.76-7.2,6.648S-60.18.192-55.98.192Zm9.816-14.9a2.153,2.153,0,0,0,2.328-2.16,2.1,2.1,0,0,0-2.328-2.016A2.14,2.14,0,0,0-48.492-16.8,2.14,2.14,0,0,0-46.164-14.712ZM-48.036,0h3.744V-12.912h-3.744ZM-36.9-14.568h2.928l4.344-3.456H-33.66ZM-34.668.192c4.1,0,7.08-2.76,7.08-6.648s-2.976-6.648-7.08-6.648-7.1,2.76-7.1,6.648S-38.772.192-34.668.192Zm0-3.072A3.276,3.276,0,0,1-37.98-6.456a3.276,3.276,0,0,1,3.312-3.576A3.259,3.259,0,0,1-31.38-6.456,3.259,3.259,0,0,1-34.668-2.88ZM-17.244-13.1a5.653,5.653,0,0,0-4.272,1.7v-1.512h-3.576V0h3.744V-6.384c0-2.376,1.3-3.48,3.1-3.48,1.656,0,2.616.96,2.616,3.048V0h3.744V-7.392C-11.892-11.328-14.2-13.1-17.244-13.1Zm17.4-1.608a2.153,2.153,0,0,0,2.328-2.16A2.1,2.1,0,0,0,.156-18.888,2.14,2.14,0,0,0-2.172-16.8,2.14,2.14,0,0,0,.156-14.712ZM-1.716,0H2.028V-12.912H-1.716ZM13.356-13.1a5.653,5.653,0,0,0-4.272,1.7v-1.512H5.508V0H9.252V-6.384c0-2.376,1.3-3.48,3.1-3.48,1.656,0,2.616.96,2.616,3.048V0h3.744V-7.392C18.708-11.328,16.4-13.1,13.356-13.1Zm16.056,9.84a2.523,2.523,0,0,1-1.512.48,1.506,1.506,0,0,1-1.608-1.7V-9.744h3.216v-2.88H26.292v-3.144H22.548v3.144H20.556v2.88h1.992v5.3c0,3.072,1.776,4.632,4.824,4.632A5.351,5.351,0,0,0,30.42-.624Zm15.36-3.144a6.392,6.392,0,0,0-6.72-6.7,6.574,6.574,0,0,0-6.888,6.648c0,3.84,2.9,6.648,7.368,6.648A6.763,6.763,0,0,0,43.86-1.9l-1.992-2.16a4.377,4.377,0,0,1-3.24,1.248,3.443,3.443,0,0,1-3.7-2.592H44.7C44.724-5.712,44.772-6.12,44.772-6.408Zm-6.7-3.864a3.068,3.068,0,0,1,3.168,2.688h-6.36A3.057,3.057,0,0,1,38.076-10.272Zm12.768-.936v-1.7H47.268V0h3.744V-6.1c0-2.472,1.368-3.6,3.432-3.6.288,0,.528.024.84.048V-13.1A5.211,5.211,0,0,0,50.844-11.208Zm14.52-1.9a5.653,5.653,0,0,0-4.272,1.7v-1.512H57.516V0H61.26V-6.384c0-2.376,1.3-3.48,3.1-3.48,1.656,0,2.616.96,2.616,3.048V0h3.744V-7.392C70.716-11.328,68.412-13.1,65.364-13.1Zm13.944,0a9.926,9.926,0,0,0-5.568,1.56l1.344,2.616a6.208,6.208,0,0,1,3.72-1.2c2.016,0,2.976.936,2.976,2.544H78.8C74.868-7.584,73.26-6,73.26-3.72c0,2.232,1.8,3.912,4.824,3.912,1.9,0,3.24-.624,3.936-1.8V0h3.5V-7.368C85.524-11.28,83.244-13.1,79.308-13.1ZM79.02-2.328c-1.32,0-2.112-.624-2.112-1.56,0-.864.552-1.512,2.3-1.512H81.78v1.32A2.759,2.759,0,0,1,79.02-2.328ZM95.292.192c2.712,0,4.848-1.2,5.784-3.264l-2.9-1.584a3.177,3.177,0,0,1-2.9,1.776,3.3,3.3,0,0,1-3.384-3.576,3.3,3.3,0,0,1,3.384-3.576,3.22,3.22,0,0,1,2.9,1.776l2.9-1.56C100.14-11.928,98-13.1,95.292-13.1c-4.2,0-7.2,2.76-7.2,6.648S91.092.192,95.292.192Zm9.816-14.9a2.153,2.153,0,0,0,2.328-2.16,2.1,2.1,0,0,0-2.328-2.016A2.14,2.14,0,0,0,102.78-16.8,2.14,2.14,0,0,0,105.108-14.712ZM103.236,0h3.744V-12.912h-3.744ZM116.6.192c4.1,0,7.08-2.76,7.08-6.648S120.708-13.1,116.6-13.1s-7.1,2.76-7.1,6.648S112.5.192,116.6.192Zm0-3.072a3.276,3.276,0,0,1-3.312-3.576,3.276,3.276,0,0,1,3.312-3.576,3.259,3.259,0,0,1,3.288,3.576A3.259,3.259,0,0,1,116.6-2.88ZM134.028-13.1a5.653,5.653,0,0,0-4.272,1.7v-1.512H126.18V0h3.744V-6.384c0-2.376,1.3-3.48,3.1-3.48,1.656,0,2.616.96,2.616,3.048V0h3.744V-7.392C139.38-11.328,137.076-13.1,134.028-13.1Zm13.944,0a9.926,9.926,0,0,0-5.568,1.56l1.344,2.616a6.208,6.208,0,0,1,3.72-1.2c2.016,0,2.976.936,2.976,2.544h-2.976c-3.936,0-5.544,1.584-5.544,3.864,0,2.232,1.8,3.912,4.824,3.912,1.9,0,3.24-.624,3.936-1.8V0h3.5V-7.368C154.188-11.28,151.908-13.1,147.972-13.1Zm-.288,10.776c-1.32,0-2.112-.624-2.112-1.56,0-.864.552-1.512,2.3-1.512h2.568v1.32A2.759,2.759,0,0,1,147.684-2.328ZM157.572,0h3.744V-17.808h-3.744Zm8.64.192A2.291,2.291,0,0,0,168.54-2.16a2.237,2.237,0,0,0-2.328-2.3,2.237,2.237,0,0,0-2.328,2.3A2.291,2.291,0,0,0,166.212.192Z" transform="translate(700 2496)" fill="#148e9f"/>
    <g id="Rectángulo_2242" data-name="Rectángulo 2242" transform="translate(996 2177)" fill="#fff" stroke="#8de2ed" stroke-width="2">
      <rect width="500" height="101" rx="50.5" stroke="none"/>
      <rect x="1" y="1" width="498" height="99" rx="49.5" fill="none"/>
    </g>
    <path id="Trazado_21548" data-name="Trazado 21548" d="M-134.112-3.12V-7.008h7.8v-3.024h-7.8V-13.68h8.832V-16.8h-12.7V0h13.008V-3.12ZM-105.6-13.1a5.806,5.806,0,0,0-4.656,2.112A4.82,4.82,0,0,0-114.5-13.1a5.229,5.229,0,0,0-4.056,1.68v-1.488h-3.576V0h3.744V-6.48c0-2.3,1.176-3.384,2.832-3.384,1.56,0,2.448.96,2.448,3.048V0h3.744V-6.48c0-2.3,1.176-3.384,2.856-3.384,1.512,0,2.448.96,2.448,3.048V0h3.744V-7.392C-100.32-11.328-102.528-13.1-105.6-13.1Zm21.432,6.7a6.392,6.392,0,0,0-6.72-6.7,6.574,6.574,0,0,0-6.888,6.648c0,3.84,2.9,6.648,7.368,6.648A6.763,6.763,0,0,0-85.08-1.9l-1.992-2.16a4.377,4.377,0,0,1-3.24,1.248,3.443,3.443,0,0,1-3.7-2.592h9.768C-84.216-5.712-84.168-6.12-84.168-6.408Zm-6.7-3.864A3.068,3.068,0,0,1-87.7-7.584h-6.36A3.057,3.057,0,0,1-90.864-10.272Zm12.768-.936v-1.7h-3.576V0h3.744V-6.1c0-2.472,1.368-3.6,3.432-3.6.288,0,.528.024.84.048V-13.1A5.211,5.211,0,0,0-78.1-11.208Zm16.32-1.7v1.656A5.183,5.183,0,0,0-66.048-13.1,6.147,6.147,0,0,0-72.5-6.864a6.147,6.147,0,0,0,6.456,6.24,5.316,5.316,0,0,0,4.08-1.608v.552c0,2.328-1.152,3.528-3.792,3.528A7.717,7.717,0,0,1-70.32.384l-1.488,2.688a10.637,10.637,0,0,0,6.336,1.776c4.656,0,7.248-2.208,7.248-7.008V-12.912ZM-65.3-3.7a3.155,3.155,0,0,1-3.408-3.168A3.155,3.155,0,0,1-65.3-10.032,3.135,3.135,0,0,1-61.92-6.864,3.135,3.135,0,0,1-65.3-3.7ZM-42.1-6.408a6.392,6.392,0,0,0-6.72-6.7A6.573,6.573,0,0,0-55.7-6.456c0,3.84,2.9,6.648,7.368,6.648A6.763,6.763,0,0,0-43.008-1.9L-45-4.056a4.377,4.377,0,0,1-3.24,1.248,3.443,3.443,0,0,1-3.7-2.592h9.768C-42.144-5.712-42.1-6.12-42.1-6.408Zm-6.7-3.864a3.068,3.068,0,0,1,3.168,2.688h-6.36A3.057,3.057,0,0,1-48.792-10.272Zm17.04-2.832a5.653,5.653,0,0,0-4.272,1.7v-1.512H-39.6V0h3.744V-6.384c0-2.376,1.3-3.48,3.1-3.48,1.656,0,2.616.96,2.616,3.048V0H-26.4V-7.392C-26.4-11.328-28.7-13.1-31.752-13.1Zm15.12,13.3c2.712,0,4.848-1.2,5.784-3.264l-2.9-1.584a3.177,3.177,0,0,1-2.9,1.776A3.3,3.3,0,0,1-20.04-6.456a3.3,3.3,0,0,1,3.384-3.576,3.22,3.22,0,0,1,2.9,1.776l2.9-1.56c-.936-2.112-3.072-3.288-5.784-3.288-4.2,0-7.2,2.76-7.2,6.648S-20.832.192-16.632.192Zm9.816-14.9a2.153,2.153,0,0,0,2.328-2.16,2.1,2.1,0,0,0-2.328-2.016A2.14,2.14,0,0,0-9.144-16.8,2.14,2.14,0,0,0-6.816-14.712ZM-8.688,0h3.744V-12.912H-8.688ZM3.744-13.1a9.926,9.926,0,0,0-5.568,1.56L-.48-8.928a6.208,6.208,0,0,1,3.72-1.2c2.016,0,2.976.936,2.976,2.544H3.24C-.7-7.584-2.3-6-2.3-3.72-2.3-1.488-.5.192,2.52.192c1.9,0,3.24-.624,3.936-1.8V0h3.5V-7.368C9.96-11.28,7.68-13.1,3.744-13.1ZM3.456-2.328c-1.32,0-2.112-.624-2.112-1.56,0-.864.552-1.512,2.3-1.512H6.216v1.32A2.759,2.759,0,0,1,3.456-2.328Zm25.9-10.584L25.7-4.152l-3.624-8.76H18.216L23.808.1l-.048.12c-.5,1.152-1.08,1.608-2.112,1.608a3.319,3.319,0,0,1-2.112-.816L18.168,3.672a5.734,5.734,0,0,0,3.6,1.176c2.328,0,4.1-.936,5.352-4.056l5.832-13.7ZM45.624.192c3.864,0,6.1-1.7,6.1-4.1,0-5.088-7.8-2.952-7.8-5.16,0-.672.72-1.2,2.4-1.2a7.415,7.415,0,0,1,3.72.96l1.248-2.664A10.617,10.617,0,0,0,46.32-13.1c-3.768,0-5.976,1.728-5.976,4.176,0,5.16,7.8,3,7.8,5.112,0,.72-.648,1.176-2.376,1.176A8.834,8.834,0,0,1,41.28-3.888L40.032-1.2A11.084,11.084,0,0,0,45.624.192Zm14.544,0c4.1,0,7.08-2.76,7.08-6.648S64.272-13.1,60.168-13.1s-7.1,2.76-7.1,6.648S56.064.192,60.168.192Zm0-3.072a3.276,3.276,0,0,1-3.312-3.576,3.276,3.276,0,0,1,3.312-3.576,3.259,3.259,0,0,1,3.288,3.576A3.259,3.259,0,0,1,60.168-2.88ZM75.984.192c2.712,0,4.848-1.2,5.784-3.264l-2.9-1.584a3.177,3.177,0,0,1-2.9,1.776,3.3,3.3,0,0,1-3.384-3.576,3.3,3.3,0,0,1,3.384-3.576,3.22,3.22,0,0,1,2.9,1.776l2.9-1.56C80.832-11.928,78.7-13.1,75.984-13.1c-4.2,0-7.2,2.76-7.2,6.648S71.784.192,75.984.192Zm13.92,0c4.1,0,7.08-2.76,7.08-6.648S94.008-13.1,89.9-13.1s-7.1,2.76-7.1,6.648S85.8.192,89.9.192Zm0-3.072a3.276,3.276,0,0,1-3.312-3.576A3.276,3.276,0,0,1,89.9-10.032a3.259,3.259,0,0,1,3.288,3.576A3.259,3.259,0,0,1,89.9-2.88Zm13.152-8.328v-1.7H99.48V0h3.744V-6.1c0-2.472,1.368-3.6,3.432-3.6.288,0,.528.024.84.048V-13.1A5.211,5.211,0,0,0,103.056-11.208Zm10.248,0v-1.7h-3.576V0h3.744V-6.1c0-2.472,1.368-3.6,3.432-3.6.288,0,.528.024.84.048V-13.1A5.211,5.211,0,0,0,113.3-11.208ZM126,.192c4.1,0,7.08-2.76,7.08-6.648S130.1-13.1,126-13.1s-7.1,2.76-7.1,6.648S121.9.192,126,.192Zm0-3.072a3.276,3.276,0,0,1-3.312-3.576A3.276,3.276,0,0,1,126-10.032a3.259,3.259,0,0,1,3.288,3.576A3.259,3.259,0,0,1,126-2.88ZM136.824.192a2.291,2.291,0,0,0,2.328-2.352,2.237,2.237,0,0,0-2.328-2.3,2.237,2.237,0,0,0-2.328,2.3A2.291,2.291,0,0,0,136.824.192Z" transform="translate(1246 2236)" fill="#148e9f"/>
    <g id="Rectángulo_2243" data-name="Rectángulo 2243" transform="translate(710 2975)" fill="#fff" stroke="#8de2ed" stroke-width="2">
      <rect width="500" height="101" rx="50.5" stroke="none"/>
      <rect x="1" y="1" width="498" height="99" rx="49.5" fill="none"/>
    </g>
    <path id="Trazado_21553" data-name="Trazado 21553" d="M-159.636-16.8h-7.272V0h3.888V-4.632h3.384c4.488,0,7.3-2.328,7.3-6.072C-152.34-14.472-155.148-16.8-159.636-16.8Zm-.216,9h-3.168v-5.832h3.168c2.376,0,3.576,1.08,3.576,2.928C-156.276-8.88-157.476-7.8-159.852-7.8Zm13.584-3.408v-1.7h-3.576V0h3.744V-6.1c0-2.472,1.368-3.6,3.432-3.6.288,0,.528.024.84.048V-13.1A5.211,5.211,0,0,0-146.268-11.208Zm12.7,11.4c4.1,0,7.08-2.76,7.08-6.648s-2.976-6.648-7.08-6.648-7.1,2.76-7.1,6.648S-137.676.192-133.572.192Zm0-3.072a3.276,3.276,0,0,1-3.312-3.576,3.276,3.276,0,0,1,3.312-3.576,3.259,3.259,0,0,1,3.288,3.576A3.259,3.259,0,0,1-133.572-2.88ZM-107.46-13.1a5.806,5.806,0,0,0-4.656,2.112,4.82,4.82,0,0,0-4.248-2.112,5.229,5.229,0,0,0-4.056,1.68v-1.488H-124V0h3.744V-6.48c0-2.3,1.176-3.384,2.832-3.384,1.56,0,2.448.96,2.448,3.048V0h3.744V-6.48c0-2.3,1.176-3.384,2.856-3.384,1.512,0,2.448.96,2.448,3.048V0h3.744V-7.392C-102.18-11.328-104.388-13.1-107.46-13.1ZM-92.532.192c4.1,0,7.08-2.76,7.08-6.648s-2.976-6.648-7.08-6.648-7.1,2.76-7.1,6.648S-96.636.192-92.532.192Zm0-3.072a3.276,3.276,0,0,1-3.312-3.576,3.276,3.276,0,0,1,3.312-3.576,3.259,3.259,0,0,1,3.288,3.576A3.259,3.259,0,0,1-92.532-2.88ZM-76.716.192c2.712,0,4.848-1.2,5.784-3.264l-2.9-1.584a3.177,3.177,0,0,1-2.9,1.776,3.3,3.3,0,0,1-3.384-3.576,3.3,3.3,0,0,1,3.384-3.576,3.22,3.22,0,0,1,2.9,1.776l2.9-1.56C-71.868-11.928-74-13.1-76.716-13.1c-4.2,0-7.2,2.76-7.2,6.648S-80.916.192-76.716.192Zm9.816-14.9a2.153,2.153,0,0,0,2.328-2.16A2.1,2.1,0,0,0-66.9-18.888,2.14,2.14,0,0,0-69.228-16.8,2.14,2.14,0,0,0-66.9-14.712ZM-68.772,0h3.744V-12.912h-3.744Zm11.136-14.568h2.928l4.344-3.456H-54.4ZM-55.4.192c4.1,0,7.08-2.76,7.08-6.648S-51.3-13.1-55.4-13.1s-7.1,2.76-7.1,6.648S-59.508.192-55.4.192Zm0-3.072a3.276,3.276,0,0,1-3.312-3.576A3.276,3.276,0,0,1-55.4-10.032a3.259,3.259,0,0,1,3.288,3.576A3.259,3.259,0,0,1-55.4-2.88ZM-37.98-13.1a5.653,5.653,0,0,0-4.272,1.7v-1.512h-3.576V0h3.744V-6.384c0-2.376,1.3-3.48,3.1-3.48,1.656,0,2.616.96,2.616,3.048V0h3.744V-7.392C-32.628-11.328-34.932-13.1-37.98-13.1Zm24.936-4.7v6.264a4.961,4.961,0,0,0-3.864-1.56,6.277,6.277,0,0,0-6.456,6.648A6.277,6.277,0,0,0-16.908.192a4.967,4.967,0,0,0,4.032-1.68V0H-9.3V-17.808ZM-16.26-2.88a3.276,3.276,0,0,1-3.312-3.576,3.276,3.276,0,0,1,3.312-3.576,3.271,3.271,0,0,1,3.288,3.576A3.271,3.271,0,0,1-16.26-2.88ZM6.8-6.408a6.392,6.392,0,0,0-6.72-6.7A6.573,6.573,0,0,0-6.8-6.456C-6.8-2.616-3.9.192.564.192A6.763,6.763,0,0,0,5.892-1.9L3.9-4.056A4.377,4.377,0,0,1,.66-2.808,3.443,3.443,0,0,1-3.036-5.4H6.732C6.756-5.712,6.8-6.12,6.8-6.408Zm-6.7-3.864A3.068,3.068,0,0,1,3.276-7.584h-6.36A3.057,3.057,0,0,1,.108-10.272ZM22.332.192c2.712,0,4.848-1.2,5.784-3.264l-2.9-1.584a3.177,3.177,0,0,1-2.9,1.776,3.3,3.3,0,0,1-3.384-3.576,3.3,3.3,0,0,1,3.384-3.576,3.22,3.22,0,0,1,2.9,1.776l2.9-1.56c-.936-2.112-3.072-3.288-5.784-3.288-4.2,0-7.2,2.76-7.2,6.648S18.132.192,22.332.192Zm13.92,0c4.1,0,7.08-2.76,7.08-6.648S40.356-13.1,36.252-13.1s-7.1,2.76-7.1,6.648S32.148.192,36.252.192Zm0-3.072A3.276,3.276,0,0,1,32.94-6.456a3.276,3.276,0,0,1,3.312-3.576A3.259,3.259,0,0,1,39.54-6.456,3.259,3.259,0,0,1,36.252-2.88ZM45.828,0h3.744V-17.808H45.828ZM65.7-6.408a6.392,6.392,0,0,0-6.72-6.7,6.573,6.573,0,0,0-6.888,6.648c0,3.84,2.9,6.648,7.368,6.648A6.763,6.763,0,0,0,64.788-1.9L62.8-4.056a4.377,4.377,0,0,1-3.24,1.248A3.443,3.443,0,0,1,55.86-5.4h9.768C65.652-5.712,65.7-6.12,65.7-6.408ZM59-10.272a3.068,3.068,0,0,1,3.168,2.688h-6.36A3.057,3.057,0,0,1,59-10.272ZM74.436.192c2.712,0,4.848-1.2,5.784-3.264l-2.9-1.584a3.177,3.177,0,0,1-2.9,1.776,3.3,3.3,0,0,1-3.384-3.576,3.3,3.3,0,0,1,3.384-3.576,3.22,3.22,0,0,1,2.9,1.776l2.9-1.56c-.936-2.112-3.072-3.288-5.784-3.288-4.2,0-7.2,2.76-7.2,6.648S70.236.192,74.436.192ZM89.892-3.264a2.523,2.523,0,0,1-1.512.48,1.506,1.506,0,0,1-1.608-1.7V-9.744h3.216v-2.88H86.772v-3.144H83.028v3.144H81.036v2.88h1.992v5.3c0,3.072,1.776,4.632,4.824,4.632A5.351,5.351,0,0,0,90.9-.624Zm4.992-11.448a2.153,2.153,0,0,0,2.328-2.16,2.1,2.1,0,0,0-2.328-2.016A2.14,2.14,0,0,0,92.556-16.8,2.14,2.14,0,0,0,94.884-14.712ZM93.012,0h3.744V-12.912H93.012Zm16.44-12.912-3.7,8.784-3.576-8.784H98.316L103.74,0H107.6l5.448-12.912Zm10.92,13.1c4.1,0,7.08-2.76,7.08-6.648s-2.976-6.648-7.08-6.648-7.1,2.76-7.1,6.648S116.268.192,120.372.192Zm0-3.072a3.276,3.276,0,0,1-3.312-3.576,3.276,3.276,0,0,1,3.312-3.576,3.259,3.259,0,0,1,3.288,3.576A3.259,3.259,0,0,1,120.372-2.88ZM134.292.192c3.864,0,6.1-1.7,6.1-4.1,0-5.088-7.8-2.952-7.8-5.16,0-.672.72-1.2,2.4-1.2a7.415,7.415,0,0,1,3.72.96l1.248-2.664a10.617,10.617,0,0,0-4.968-1.128c-3.768,0-5.976,1.728-5.976,4.176,0,5.16,7.8,3,7.8,5.112,0,.72-.648,1.176-2.376,1.176a8.834,8.834,0,0,1-4.488-1.248L128.7-1.2A11.085,11.085,0,0,0,134.292.192Zm24.408-13.1-3.648,8.76-3.624-8.76h-3.864L153.156.1l-.048.12c-.5,1.152-1.08,1.608-2.112,1.608a3.319,3.319,0,0,1-2.112-.816l-1.368,2.664a5.734,5.734,0,0,0,3.6,1.176c2.328,0,4.1-.936,5.352-4.056l5.832-13.7Zm-271.38,24.1v6.264a4.961,4.961,0,0,0-3.864-1.56A6.277,6.277,0,0,0-123,22.544a6.277,6.277,0,0,0,6.456,6.648,4.967,4.967,0,0,0,4.032-1.68V29h3.576V11.192ZM-115.9,26.12a3.276,3.276,0,0,1-3.312-3.576,3.276,3.276,0,0,1,3.312-3.576,3.271,3.271,0,0,1,3.288,3.576A3.271,3.271,0,0,1-115.9,26.12Zm23.064-3.528a6.392,6.392,0,0,0-6.72-6.7,6.574,6.574,0,0,0-6.888,6.648c0,3.84,2.9,6.648,7.368,6.648A6.763,6.763,0,0,0-93.744,27.1l-1.992-2.16a4.377,4.377,0,0,1-3.24,1.248,3.443,3.443,0,0,1-3.7-2.592H-92.9C-92.88,23.288-92.832,22.88-92.832,22.592Zm-6.7-3.864a3.068,3.068,0,0,1,3.168,2.688h-6.36A3.057,3.057,0,0,1-99.528,18.728Zm12.768-.936v-1.7h-3.576V29h3.744V22.9c0-2.472,1.368-3.6,3.432-3.6.288,0,.528.024.84.048V15.9A5.211,5.211,0,0,0-86.76,17.792Zm19.2,4.8a6.392,6.392,0,0,0-6.72-6.7,6.574,6.574,0,0,0-6.888,6.648c0,3.84,2.9,6.648,7.368,6.648A6.763,6.763,0,0,0-68.472,27.1l-1.992-2.16a4.377,4.377,0,0,1-3.24,1.248A3.443,3.443,0,0,1-77.4,23.6h9.768C-67.608,23.288-67.56,22.88-67.56,22.592Zm-6.7-3.864a3.068,3.068,0,0,1,3.168,2.688h-6.36A3.057,3.057,0,0,1-74.256,18.728Zm15.432,10.464c2.712,0,4.848-1.2,5.784-3.264l-2.9-1.584a3.177,3.177,0,0,1-2.9,1.776,3.3,3.3,0,0,1-3.384-3.576,3.3,3.3,0,0,1,3.384-3.576,3.22,3.22,0,0,1,2.9,1.776l2.9-1.56c-.936-2.112-3.072-3.288-5.784-3.288-4.2,0-7.2,2.76-7.2,6.648S-63.024,29.192-58.824,29.192Zm15.7-13.3a5.675,5.675,0,0,0-4.1,1.536v-6.24h-3.744V29h3.744V22.616c0-2.376,1.3-3.48,3.1-3.48,1.656,0,2.616.96,2.616,3.048V29h3.744V21.608C-37.776,17.672-40.08,15.9-43.128,15.9Zm15.024,13.3c4.1,0,7.08-2.76,7.08-6.648S-24,15.9-28.1,15.9s-7.1,2.76-7.1,6.648S-32.208,29.192-28.1,29.192Zm0-3.072a3.276,3.276,0,0,1-3.312-3.576A3.276,3.276,0,0,1-28.1,18.968a3.259,3.259,0,0,1,3.288,3.576A3.259,3.259,0,0,1-28.1,26.12Zm13.92,3.072c3.864,0,6.1-1.7,6.1-4.1,0-5.088-7.8-2.952-7.8-5.16,0-.672.72-1.2,2.4-1.2a7.415,7.415,0,0,1,3.72.96l1.248-2.664A10.617,10.617,0,0,0-13.488,15.9c-3.768,0-5.976,1.728-5.976,4.176,0,5.16,7.8,3,7.8,5.112,0,.72-.648,1.176-2.376,1.176a8.834,8.834,0,0,1-4.488-1.248L-19.776,27.8A11.085,11.085,0,0,0-14.184,29.192ZM8.856,15.9a5.675,5.675,0,0,0-4.1,1.536v-6.24H1.008V29H4.752V22.616c0-2.376,1.3-3.48,3.1-3.48,1.656,0,2.616.96,2.616,3.048V29h3.744V21.608C14.208,17.672,11.9,15.9,8.856,15.9Zm18,.192v6.384c0,2.376-1.248,3.48-2.976,3.48-1.656,0-2.616-.96-2.616-3.12V16.088H17.52v7.3c0,3.984,2.28,5.808,5.52,5.808a5.224,5.224,0,0,0,4.008-1.728V29H30.6V16.088Zm23.76-.192a5.806,5.806,0,0,0-4.656,2.112A4.82,4.82,0,0,0,41.712,15.9a5.229,5.229,0,0,0-4.056,1.68V16.088H34.08V29h3.744V22.52c0-2.3,1.176-3.384,2.832-3.384,1.56,0,2.448.96,2.448,3.048V29h3.744V22.52c0-2.3,1.176-3.384,2.856-3.384,1.512,0,2.448.96,2.448,3.048V29H55.9V21.608C55.9,17.672,53.688,15.9,50.616,15.9Zm13.848,0a9.926,9.926,0,0,0-5.568,1.56l1.344,2.616a6.208,6.208,0,0,1,3.72-1.2c2.016,0,2.976.936,2.976,2.544H63.96c-3.936,0-5.544,1.584-5.544,3.864,0,2.232,1.8,3.912,4.824,3.912,1.9,0,3.24-.624,3.936-1.8V29h3.5V21.632C70.68,17.72,68.4,15.9,64.464,15.9Zm-.288,10.776c-1.32,0-2.112-.624-2.112-1.56,0-.864.552-1.512,2.3-1.512h2.568v1.32A2.759,2.759,0,0,1,64.176,26.672ZM81.912,15.9a5.653,5.653,0,0,0-4.272,1.7V16.088H74.064V29h3.744V22.616c0-2.376,1.3-3.48,3.1-3.48,1.656,0,2.616.96,2.616,3.048V29h3.744V21.608C87.264,17.672,84.96,15.9,81.912,15.9Zm15.024,13.3c4.1,0,7.08-2.76,7.08-6.648S101.04,15.9,96.936,15.9s-7.1,2.76-7.1,6.648S92.832,29.192,96.936,29.192Zm0-3.072a3.276,3.276,0,0,1-3.312-3.576,3.311,3.311,0,1,1,6.6,0A3.259,3.259,0,0,1,96.936,26.12Zm13.92,3.072c3.864,0,6.1-1.7,6.1-4.1,0-5.088-7.8-2.952-7.8-5.16,0-.672.72-1.2,2.4-1.2a7.415,7.415,0,0,1,3.72.96l1.248-2.664a10.617,10.617,0,0,0-4.968-1.128c-3.768,0-5.976,1.728-5.976,4.176,0,5.16,7.8,3,7.8,5.112,0,.72-.648,1.176-2.376,1.176a8.834,8.834,0,0,1-4.488-1.248L105.264,27.8A11.084,11.084,0,0,0,110.856,29.192Zm9.816,0A2.291,2.291,0,0,0,123,26.84a2.328,2.328,0,0,0-4.656,0A2.291,2.291,0,0,0,120.672,29.192Z" transform="translate(960 3020)" fill="#148e9f"/>
    <g id="Rectángulo_2244" data-name="Rectángulo 2244" transform="translate(998 2437)" fill="#fff" stroke="#8de2ed" stroke-width="2">
      <rect width="500" height="101" rx="50.5" stroke="none"/>
      <rect x="1" y="1" width="498" height="99" rx="49.5" fill="none"/>
    </g>
    <path id="Trazado_21550" data-name="Trazado 21550" d="M-132.66,0l-.048-16.8H-135.9l-6.192,10.44L-148.38-16.8H-151.6V0h3.648V-9.864l4.92,8.088h1.752l4.944-8.3L-136.308,0Zm16.368-6.408a6.392,6.392,0,0,0-6.72-6.7A6.573,6.573,0,0,0-129.9-6.456c0,3.84,2.9,6.648,7.368,6.648A6.763,6.763,0,0,0-117.2-1.9l-1.992-2.16a4.377,4.377,0,0,1-3.24,1.248,3.443,3.443,0,0,1-3.7-2.592h9.768C-116.34-5.712-116.292-6.12-116.292-6.408Zm-6.7-3.864a3.068,3.068,0,0,1,3.168,2.688h-6.36A3.057,3.057,0,0,1-122.988-10.272Zm18.6-7.536v6.264a4.961,4.961,0,0,0-3.864-1.56,6.277,6.277,0,0,0-6.456,6.648A6.277,6.277,0,0,0-108.252.192a4.967,4.967,0,0,0,4.032-1.68V0h3.576V-17.808ZM-107.6-2.88a3.276,3.276,0,0,1-3.312-3.576,3.276,3.276,0,0,1,3.312-3.576,3.271,3.271,0,0,1,3.288,3.576A3.271,3.271,0,0,1-107.6-2.88Zm12.288-11.832a2.153,2.153,0,0,0,2.328-2.16,2.1,2.1,0,0,0-2.328-2.016A2.14,2.14,0,0,0-97.644-16.8,2.14,2.14,0,0,0-95.316-14.712ZM-97.188,0h3.744V-12.912h-3.744ZM-83.82.192c4.1,0,7.08-2.76,7.08-6.648S-79.716-13.1-83.82-13.1s-7.1,2.76-7.1,6.648S-87.924.192-83.82.192Zm0-3.072a3.276,3.276,0,0,1-3.312-3.576,3.276,3.276,0,0,1,3.312-3.576,3.259,3.259,0,0,1,3.288,3.576A3.259,3.259,0,0,1-83.82-2.88ZM-62.244-13.1a9.926,9.926,0,0,0-5.568,1.56l1.344,2.616a6.208,6.208,0,0,1,3.72-1.2c2.016,0,2.976.936,2.976,2.544h-2.976c-3.936,0-5.544,1.584-5.544,3.864,0,2.232,1.8,3.912,4.824,3.912,1.9,0,3.24-.624,3.936-1.8V0h3.5V-7.368C-56.028-11.28-58.308-13.1-62.244-13.1Zm-.288,10.776c-1.32,0-2.112-.624-2.112-1.56,0-.864.552-1.512,2.3-1.512h2.568v1.32A2.759,2.759,0,0,1-62.532-2.328ZM-36.108-13.1a5.806,5.806,0,0,0-4.656,2.112A4.82,4.82,0,0,0-45.012-13.1a5.229,5.229,0,0,0-4.056,1.68v-1.488h-3.576V0H-48.9V-6.48c0-2.3,1.176-3.384,2.832-3.384,1.56,0,2.448.96,2.448,3.048V0h3.744V-6.48c0-2.3,1.176-3.384,2.856-3.384,1.512,0,2.448.96,2.448,3.048V0h3.744V-7.392C-30.828-11.328-33.036-13.1-36.108-13.1Zm16.272,0a5.013,5.013,0,0,0-3.888,1.56v-6.264h-3.744V0h3.576V-1.488A5.017,5.017,0,0,0-19.836.192,6.271,6.271,0,0,0-13.4-6.456,6.271,6.271,0,0,0-19.836-13.1ZM-20.484-2.88a3.259,3.259,0,0,1-3.288-3.576,3.259,3.259,0,0,1,3.288-3.576A3.259,3.259,0,0,1-17.2-6.456,3.259,3.259,0,0,1-20.484-2.88ZM-9.036-14.712a2.153,2.153,0,0,0,2.328-2.16,2.1,2.1,0,0,0-2.328-2.016A2.14,2.14,0,0,0-11.364-16.8,2.14,2.14,0,0,0-9.036-14.712ZM-10.908,0h3.744V-12.912h-3.744ZM8.964-6.408a6.392,6.392,0,0,0-6.72-6.7A6.573,6.573,0,0,0-4.644-6.456c0,3.84,2.9,6.648,7.368,6.648A6.763,6.763,0,0,0,8.052-1.9L6.06-4.056A4.377,4.377,0,0,1,2.82-2.808,3.443,3.443,0,0,1-.876-5.4H8.892C8.916-5.712,8.964-6.12,8.964-6.408Zm-6.7-3.864A3.068,3.068,0,0,1,5.436-7.584H-.924A3.057,3.057,0,0,1,2.268-10.272ZM19.308-13.1a5.653,5.653,0,0,0-4.272,1.7v-1.512H11.46V0H15.2V-6.384c0-2.376,1.3-3.48,3.1-3.48,1.656,0,2.616.96,2.616,3.048V0H24.66V-7.392C24.66-11.328,22.356-13.1,19.308-13.1Zm16.056,9.84a2.523,2.523,0,0,1-1.512.48,1.506,1.506,0,0,1-1.608-1.7V-9.744H35.46v-2.88H32.244v-3.144H28.5v3.144H26.508v2.88H28.5v5.3c0,3.072,1.776,4.632,4.824,4.632a5.351,5.351,0,0,0,3.048-.816Zm15.36-3.144A6.392,6.392,0,0,0,44-13.1a6.573,6.573,0,0,0-6.888,6.648c0,3.84,2.9,6.648,7.368,6.648A6.763,6.763,0,0,0,49.812-1.9L47.82-4.056a4.377,4.377,0,0,1-3.24,1.248,3.443,3.443,0,0,1-3.7-2.592h9.768C50.676-5.712,50.724-6.12,50.724-6.408Zm-6.7-3.864A3.068,3.068,0,0,1,47.2-7.584h-6.36A3.057,3.057,0,0,1,44.028-10.272Zm25.2-2.64L65.58-4.152l-3.624-8.76H58.092L63.684.1l-.048.12c-.5,1.152-1.08,1.608-2.112,1.608a3.319,3.319,0,0,1-2.112-.816L58.044,3.672a5.734,5.734,0,0,0,3.6,1.176c2.328,0,4.1-.936,5.352-4.056l5.832-13.7ZM85.5.192c3.864,0,6.1-1.7,6.1-4.1,0-5.088-7.8-2.952-7.8-5.16,0-.672.72-1.2,2.4-1.2a7.415,7.415,0,0,1,3.72.96l1.248-2.664A10.617,10.617,0,0,0,86.2-13.1c-3.768,0-5.976,1.728-5.976,4.176,0,5.16,7.8,3,7.8,5.112,0,.72-.648,1.176-2.376,1.176a8.834,8.834,0,0,1-4.488-1.248L79.908-1.2A11.084,11.084,0,0,0,85.5.192ZM99.108-13.1a9.926,9.926,0,0,0-5.568,1.56l1.344,2.616a6.208,6.208,0,0,1,3.72-1.2c2.016,0,2.976.936,2.976,2.544H98.6C94.668-7.584,93.06-6,93.06-3.72c0,2.232,1.8,3.912,4.824,3.912,1.9,0,3.24-.624,3.936-1.8V0h3.5V-7.368C105.324-11.28,103.044-13.1,99.108-13.1ZM98.82-2.328c-1.32,0-2.112-.624-2.112-1.56,0-.864.552-1.512,2.3-1.512h2.568v1.32A2.759,2.759,0,0,1,98.82-2.328ZM108.708,0h3.744V-17.808h-3.744ZM125.2-12.912v6.384c0,2.376-1.248,3.48-2.976,3.48-1.656,0-2.616-.96-2.616-3.12v-6.744H115.86v7.3c0,3.984,2.28,5.808,5.52,5.808a5.224,5.224,0,0,0,4.008-1.728V0h3.552V-12.912Zm16.632-4.9v6.264a4.961,4.961,0,0,0-3.864-1.56,6.277,6.277,0,0,0-6.456,6.648A6.277,6.277,0,0,0,137.964.192,4.967,4.967,0,0,0,142-1.488V0h3.576V-17.808ZM138.612-2.88A3.276,3.276,0,0,1,135.3-6.456a3.276,3.276,0,0,1,3.312-3.576A3.271,3.271,0,0,1,141.9-6.456,3.271,3.271,0,0,1,138.612-2.88ZM150.444.192a2.291,2.291,0,0,0,2.328-2.352,2.237,2.237,0,0,0-2.328-2.3,2.237,2.237,0,0,0-2.328,2.3A2.291,2.291,0,0,0,150.444.192Z" transform="translate(1248 2496)" fill="#148e9f"/>
    <g id="Rectángulo_2245" data-name="Rectángulo 2245" transform="translate(998 2697)" fill="#fff" stroke="#8de2ed" stroke-width="2">
      <rect width="500" height="101" rx="50.5" stroke="none"/>
      <rect x="1" y="1" width="498" height="99" rx="49.5" fill="none"/>
    </g>
    <path id="Trazado_21552" data-name="Trazado 21552" d="M-171.72,0h7.632c5.5,0,9.264-3.312,9.264-8.4s-3.768-8.4-9.264-8.4h-7.632Zm3.888-3.192V-13.608h3.552c3.336,0,5.52,1.992,5.52,5.208s-2.184,5.208-5.52,5.208Zm28.32-3.216a6.392,6.392,0,0,0-6.72-6.7,6.573,6.573,0,0,0-6.888,6.648c0,3.84,2.9,6.648,7.368,6.648A6.763,6.763,0,0,0-140.424-1.9l-1.992-2.16a4.377,4.377,0,0,1-3.24,1.248,3.443,3.443,0,0,1-3.7-2.592h9.768C-139.56-5.712-139.512-6.12-139.512-6.408Zm-6.7-3.864a3.068,3.068,0,0,1,3.168,2.688h-6.36A3.057,3.057,0,0,1-146.208-10.272ZM-132.672.192c3.864,0,6.1-1.7,6.1-4.1,0-5.088-7.8-2.952-7.8-5.16,0-.672.72-1.2,2.4-1.2a7.415,7.415,0,0,1,3.72.96l1.248-2.664a10.617,10.617,0,0,0-4.968-1.128c-3.768,0-5.976,1.728-5.976,4.176,0,5.16,7.8,3,7.8,5.112,0,.72-.648,1.176-2.376,1.176a8.834,8.834,0,0,1-4.488-1.248L-138.264-1.2A11.085,11.085,0,0,0-132.672.192Zm13.608-13.3a9.926,9.926,0,0,0-5.568,1.56l1.344,2.616a6.208,6.208,0,0,1,3.72-1.2c2.016,0,2.976.936,2.976,2.544h-2.976c-3.936,0-5.544,1.584-5.544,3.864,0,2.232,1.8,3.912,4.824,3.912,1.9,0,3.24-.624,3.936-1.8V0h3.5V-7.368C-112.848-11.28-115.128-13.1-119.064-13.1Zm-.288,10.776c-1.32,0-2.112-.624-2.112-1.56,0-.864.552-1.512,2.3-1.512h2.568v1.32A2.759,2.759,0,0,1-119.352-2.328Zm13.464-8.88v-1.7h-3.576V0h3.744V-6.1c0-2.472,1.368-3.6,3.432-3.6.288,0,.528.024.84.048V-13.1A5.211,5.211,0,0,0-105.888-11.208Zm10.248,0v-1.7h-3.576V0h3.744V-6.1c0-2.472,1.368-3.6,3.432-3.6.288,0,.528.024.84.048V-13.1A5.211,5.211,0,0,0-95.64-11.208Zm12.7,11.4c4.1,0,7.08-2.76,7.08-6.648S-78.84-13.1-82.944-13.1s-7.1,2.76-7.1,6.648S-87.048.192-82.944.192Zm0-3.072a3.276,3.276,0,0,1-3.312-3.576,3.276,3.276,0,0,1,3.312-3.576,3.259,3.259,0,0,1,3.288,3.576A3.259,3.259,0,0,1-82.944-2.88ZM-73.368,0h3.744V-17.808h-3.744Zm7.224,0H-62.4V-17.808h-3.744Zm13.368.192c4.1,0,7.08-2.76,7.08-6.648s-2.976-6.648-7.08-6.648-7.1,2.76-7.1,6.648S-56.88.192-52.776.192Zm0-3.072a3.276,3.276,0,0,1-3.312-3.576,3.276,3.276,0,0,1,3.312-3.576,3.259,3.259,0,0,1,3.288,3.576A3.259,3.259,0,0,1-52.776-2.88ZM-32.064.192c3.864,0,6.1-1.7,6.1-4.1,0-5.088-7.8-2.952-7.8-5.16,0-.672.72-1.2,2.4-1.2a7.415,7.415,0,0,1,3.72.96l1.248-2.664A10.617,10.617,0,0,0-31.368-13.1c-3.768,0-5.976,1.728-5.976,4.176,0,5.16,7.8,3,7.8,5.112,0,.72-.648,1.176-2.376,1.176a8.834,8.834,0,0,1-4.488-1.248L-37.656-1.2A11.084,11.084,0,0,0-32.064.192Zm14.544,0c4.1,0,7.08-2.76,7.08-6.648S-13.416-13.1-17.52-13.1s-7.1,2.76-7.1,6.648S-21.624.192-17.52.192Zm0-3.072a3.276,3.276,0,0,1-3.312-3.576,3.276,3.276,0,0,1,3.312-3.576,3.259,3.259,0,0,1,3.288,3.576A3.259,3.259,0,0,1-17.52-2.88ZM-1.7.192c2.712,0,4.848-1.2,5.784-3.264l-2.9-1.584a3.177,3.177,0,0,1-2.9,1.776A3.3,3.3,0,0,1-5.112-6.456a3.3,3.3,0,0,1,3.384-3.576,3.22,3.22,0,0,1,2.9,1.776l2.9-1.56C3.144-11.928,1.008-13.1-1.7-13.1c-4.2,0-7.2,2.76-7.2,6.648S-5.9.192-1.7.192Zm9.816-14.9a2.153,2.153,0,0,0,2.328-2.16,2.1,2.1,0,0,0-2.328-2.016A2.14,2.14,0,0,0,5.784-16.8,2.14,2.14,0,0,0,8.112-14.712ZM6.24,0H9.984V-12.912H6.24ZM19.608.192c4.1,0,7.08-2.76,7.08-6.648S23.712-13.1,19.608-13.1s-7.1,2.76-7.1,6.648S15.5.192,19.608.192Zm0-3.072A3.276,3.276,0,0,1,16.3-6.456a3.276,3.276,0,0,1,3.312-3.576A3.259,3.259,0,0,1,22.9-6.456,3.259,3.259,0,0,1,19.608-2.88ZM41.832-6.408a6.392,6.392,0,0,0-6.72-6.7,6.573,6.573,0,0,0-6.888,6.648c0,3.84,2.9,6.648,7.368,6.648A6.763,6.763,0,0,0,40.92-1.9l-1.992-2.16a4.377,4.377,0,0,1-3.24,1.248,3.443,3.443,0,0,1-3.7-2.592H41.76C41.784-5.712,41.832-6.12,41.832-6.408Zm-6.7-3.864A3.068,3.068,0,0,1,38.3-7.584h-6.36A3.057,3.057,0,0,1,35.136-10.272ZM50.568.192c2.712,0,4.848-1.2,5.784-3.264l-2.9-1.584a3.177,3.177,0,0,1-2.9,1.776A3.3,3.3,0,0,1,47.16-6.456a3.3,3.3,0,0,1,3.384-3.576,3.22,3.22,0,0,1,2.9,1.776l2.9-1.56c-.936-2.112-3.072-3.288-5.784-3.288-4.2,0-7.2,2.76-7.2,6.648S46.368.192,50.568.192Zm13.92,0c4.1,0,7.08-2.76,7.08-6.648S68.592-13.1,64.488-13.1s-7.1,2.76-7.1,6.648S60.384.192,64.488.192Zm0-3.072a3.276,3.276,0,0,1-3.312-3.576,3.276,3.276,0,0,1,3.312-3.576,3.259,3.259,0,0,1,3.288,3.576A3.259,3.259,0,0,1,64.488-2.88ZM81.912-13.1a5.653,5.653,0,0,0-4.272,1.7v-1.512H74.064V0h3.744V-6.384c0-2.376,1.3-3.48,3.1-3.48,1.656,0,2.616.96,2.616,3.048V0h3.744V-7.392C87.264-11.328,84.96-13.1,81.912-13.1ZM94.7-14.568h2.928l4.344-3.456H97.944ZM96.936.192c4.1,0,7.08-2.76,7.08-6.648S101.04-13.1,96.936-13.1s-7.1,2.76-7.1,6.648S92.832.192,96.936.192Zm0-3.072a3.276,3.276,0,0,1-3.312-3.576,3.276,3.276,0,0,1,3.312-3.576,3.259,3.259,0,0,1,3.288,3.576A3.259,3.259,0,0,1,96.936-2.88ZM123.048-13.1a5.806,5.806,0,0,0-4.656,2.112,4.82,4.82,0,0,0-4.248-2.112,5.229,5.229,0,0,0-4.056,1.68v-1.488h-3.576V0h3.744V-6.48c0-2.3,1.176-3.384,2.832-3.384,1.56,0,2.448.96,2.448,3.048V0h3.744V-6.48c0-2.3,1.176-3.384,2.856-3.384,1.512,0,2.448.96,2.448,3.048V0h3.744V-7.392C128.328-11.328,126.12-13.1,123.048-13.1Zm10.512-1.608a2.153,2.153,0,0,0,2.328-2.16,2.1,2.1,0,0,0-2.328-2.016,2.14,2.14,0,0,0-2.328,2.088A2.14,2.14,0,0,0,133.56-14.712ZM131.688,0h3.744V-12.912h-3.744Zm13.464.192c2.712,0,4.848-1.2,5.784-3.264l-2.9-1.584a3.177,3.177,0,0,1-2.9,1.776,3.3,3.3,0,0,1-3.384-3.576,3.3,3.3,0,0,1,3.384-3.576,3.22,3.22,0,0,1,2.9,1.776l2.9-1.56c-.936-2.112-3.072-3.288-5.784-3.288-4.2,0-7.2,2.76-7.2,6.648S140.952.192,145.152.192Zm13.92,0c4.1,0,7.08-2.76,7.08-6.648s-2.976-6.648-7.08-6.648-7.1,2.76-7.1,6.648S154.968.192,159.072.192Zm0-3.072a3.276,3.276,0,0,1-3.312-3.576,3.276,3.276,0,0,1,3.312-3.576,3.259,3.259,0,0,1,3.288,3.576A3.259,3.259,0,0,1,159.072-2.88ZM-79.44,16.088l-3.648,8.76-3.624-8.76h-3.864L-84.984,29.1l-.048.12c-.5,1.152-1.08,1.608-2.112,1.608a3.319,3.319,0,0,1-2.112-.816l-1.368,2.664a5.734,5.734,0,0,0,3.6,1.176c2.328,0,4.1-.936,5.352-4.056l5.832-13.7Zm19.248,9.648a2.523,2.523,0,0,1-1.512.48,1.506,1.506,0,0,1-1.608-1.7V19.256H-60.1v-2.88h-3.216V13.232h-3.744v3.144h-1.992v2.88h1.992v5.3c0,3.072,1.776,4.632,4.824,4.632a5.351,5.351,0,0,0,3.048-.816ZM-55.2,14.288a2.153,2.153,0,0,0,2.328-2.16A2.1,2.1,0,0,0-55.2,10.112,2.14,2.14,0,0,0-57.528,12.2,2.14,2.14,0,0,0-55.2,14.288ZM-57.072,29h3.744V16.088h-3.744ZM-37.2,22.592a6.392,6.392,0,0,0-6.72-6.7,6.573,6.573,0,0,0-6.888,6.648c0,3.84,2.9,6.648,7.368,6.648A6.763,6.763,0,0,0-38.112,27.1l-1.992-2.16a4.377,4.377,0,0,1-3.24,1.248,3.443,3.443,0,0,1-3.7-2.592h9.768C-37.248,23.288-37.2,22.88-37.2,22.592Zm-6.7-3.864a3.068,3.068,0,0,1,3.168,2.688h-6.36A3.057,3.057,0,0,1-43.9,18.728ZM-18.168,15.9a5.806,5.806,0,0,0-4.656,2.112A4.82,4.82,0,0,0-27.072,15.9a5.229,5.229,0,0,0-4.056,1.68V16.088H-34.7V29h3.744V22.52c0-2.3,1.176-3.384,2.832-3.384,1.56,0,2.448.96,2.448,3.048V29h3.744V22.52c0-2.3,1.176-3.384,2.856-3.384,1.512,0,2.448.96,2.448,3.048V29h3.744V21.608C-12.888,17.672-15.1,15.9-18.168,15.9Zm16.272,0a5.017,5.017,0,0,0-4.056,1.68V16.088H-9.528V33.656h3.744V27.632A5.013,5.013,0,0,0-1.9,29.192a6.271,6.271,0,0,0,6.432-6.648A6.271,6.271,0,0,0-1.9,15.9ZM-2.544,26.12a3.259,3.259,0,0,1-3.288-3.576,3.259,3.259,0,0,1,3.288-3.576A3.259,3.259,0,0,1,.744,22.544,3.259,3.259,0,0,1-2.544,26.12Zm15.72,3.072c4.1,0,7.08-2.76,7.08-6.648S17.28,15.9,13.176,15.9s-7.1,2.76-7.1,6.648S9.072,29.192,13.176,29.192Zm0-3.072a3.276,3.276,0,0,1-3.312-3.576,3.311,3.311,0,1,1,6.6,0A3.259,3.259,0,0,1,13.176,26.12ZM29.544,29h3.744V11.192H29.544Zm9.1-14.712a2.153,2.153,0,0,0,2.328-2.16,2.1,2.1,0,0,0-2.328-2.016,2.1,2.1,0,1,0,0,4.176ZM36.768,29h3.744V16.088H36.768ZM51.624,15.9a5.013,5.013,0,0,0-3.888,1.56V11.192H43.992V29h3.576V27.512a5.017,5.017,0,0,0,4.056,1.68,6.271,6.271,0,0,0,6.432-6.648A6.271,6.271,0,0,0,51.624,15.9ZM50.976,26.12a3.259,3.259,0,0,1-3.288-3.576,3.3,3.3,0,1,1,6.576,0A3.259,3.259,0,0,1,50.976,26.12Zm13.152-8.328v-1.7H60.552V29H64.3V22.9c0-2.472,1.368-3.6,3.432-3.6.288,0,.528.024.84.048V15.9A5.211,5.211,0,0,0,64.128,17.792Zm19.2,4.8a6.392,6.392,0,0,0-6.72-6.7,6.574,6.574,0,0,0-6.888,6.648c0,3.84,2.9,6.648,7.368,6.648A6.763,6.763,0,0,0,82.416,27.1l-1.992-2.16a4.377,4.377,0,0,1-3.24,1.248,3.443,3.443,0,0,1-3.7-2.592h9.768C83.28,23.288,83.328,22.88,83.328,22.592Zm-6.7-3.864A3.068,3.068,0,0,1,79.8,21.416H73.44A3.057,3.057,0,0,1,76.632,18.728ZM87.24,29.192a2.291,2.291,0,0,0,2.328-2.352,2.328,2.328,0,0,0-4.656,0A2.291,2.291,0,0,0,87.24,29.192Z" transform="translate(1251 2742)" fill="#148e9f"/>
    <g id="Rectángulo_2246" data-name="Rectángulo 2246" transform="translate(450 2697)" fill="#fff" stroke="#8de2ed" stroke-width="2">
      <rect width="500" height="101" rx="50.5" stroke="none"/>
      <rect x="1" y="1" width="498" height="99" rx="49.5" fill="none"/>
    </g>
    <path id="Trazado_21551" data-name="Trazado 21551" d="M-209.076-16.8h-7.272V0h3.888V-4.632h3.384c4.488,0,7.3-2.328,7.3-6.072C-201.78-14.472-204.588-16.8-209.076-16.8Zm-.216,9h-3.168v-5.832h3.168c2.376,0,3.576,1.08,3.576,2.928C-205.716-8.88-206.916-7.8-209.292-7.8Zm15.1-5.3a9.926,9.926,0,0,0-5.568,1.56l1.344,2.616a6.208,6.208,0,0,1,3.72-1.2c2.016,0,2.976.936,2.976,2.544H-194.7c-3.936,0-5.544,1.584-5.544,3.864,0,2.232,1.8,3.912,4.824,3.912,1.9,0,3.24-.624,3.936-1.8V0h3.5V-7.368C-187.98-11.28-190.26-13.1-194.2-13.1Zm-.288,10.776c-1.32,0-2.112-.624-2.112-1.56,0-.864.552-1.512,2.3-1.512h2.568v1.32A2.759,2.759,0,0,1-194.484-2.328Zm13.464-8.88v-1.7H-184.6V0h3.744V-6.1c0-2.472,1.368-3.6,3.432-3.6.288,0,.528.024.84.048V-13.1A5.211,5.211,0,0,0-181.02-11.208Zm14.448,7.944a2.523,2.523,0,0,1-1.512.48,1.506,1.506,0,0,1-1.608-1.7V-9.744h3.216v-2.88h-3.216v-3.144h-3.744v3.144h-1.992v2.88h1.992v5.3c0,3.072,1.776,4.632,4.824,4.632a5.351,5.351,0,0,0,3.048-.816Zm4.992-11.448a2.153,2.153,0,0,0,2.328-2.16,2.1,2.1,0,0,0-2.328-2.016,2.14,2.14,0,0,0-2.328,2.088A2.14,2.14,0,0,0-161.58-14.712ZM-163.452,0h3.744V-12.912h-3.744Zm13.464.192c2.712,0,4.848-1.2,5.784-3.264l-2.9-1.584a3.177,3.177,0,0,1-2.9,1.776A3.3,3.3,0,0,1-153.4-6.456a3.3,3.3,0,0,1,3.384-3.576,3.22,3.22,0,0,1,2.9,1.776l2.9-1.56c-.936-2.112-3.072-3.288-5.784-3.288-4.2,0-7.2,2.76-7.2,6.648S-154.188.192-149.988.192Zm9.816-14.9a2.153,2.153,0,0,0,2.328-2.16,2.1,2.1,0,0,0-2.328-2.016A2.14,2.14,0,0,0-142.5-16.8,2.14,2.14,0,0,0-140.172-14.712ZM-142.044,0h3.744V-12.912h-3.744Zm14.856-13.1a5.017,5.017,0,0,0-4.056,1.68v-1.488h-3.576V4.656h3.744V-1.368a5.013,5.013,0,0,0,3.888,1.56,6.271,6.271,0,0,0,6.432-6.648A6.271,6.271,0,0,0-127.188-13.1Zm-.648,10.224a3.259,3.259,0,0,1-3.288-3.576,3.259,3.259,0,0,1,3.288-3.576,3.259,3.259,0,0,1,3.288,3.576A3.259,3.259,0,0,1-127.836-2.88ZM-113.268-13.1a9.926,9.926,0,0,0-5.568,1.56l1.344,2.616a6.208,6.208,0,0,1,3.72-1.2c2.016,0,2.976.936,2.976,2.544h-2.976c-3.936,0-5.544,1.584-5.544,3.864,0,2.232,1.8,3.912,4.824,3.912,1.9,0,3.24-.624,3.936-1.8V0h3.5V-7.368C-107.052-11.28-109.332-13.1-113.268-13.1Zm-.288,10.776c-1.32,0-2.112-.624-2.112-1.56,0-.864.552-1.512,2.3-1.512h2.568v1.32A2.759,2.759,0,0,1-113.556-2.328ZM-97.284.192c2.712,0,4.848-1.2,5.784-3.264l-2.9-1.584a3.177,3.177,0,0,1-2.9,1.776,3.3,3.3,0,0,1-3.384-3.576,3.3,3.3,0,0,1,3.384-3.576,3.22,3.22,0,0,1,2.9,1.776l2.9-1.56c-.936-2.112-3.072-3.288-5.784-3.288-4.2,0-7.2,2.76-7.2,6.648S-101.484.192-97.284.192Zm9.816-14.9a2.153,2.153,0,0,0,2.328-2.16,2.1,2.1,0,0,0-2.328-2.016A2.14,2.14,0,0,0-89.8-16.8,2.14,2.14,0,0,0-87.468-14.712ZM-89.34,0H-85.6V-12.912H-89.34ZM-78.2-14.568h2.928l4.344-3.456h-4.032ZM-75.972.192c4.1,0,7.08-2.76,7.08-6.648s-2.976-6.648-7.08-6.648-7.1,2.76-7.1,6.648S-80.076.192-75.972.192Zm0-3.072a3.276,3.276,0,0,1-3.312-3.576,3.276,3.276,0,0,1,3.312-3.576,3.259,3.259,0,0,1,3.288,3.576A3.259,3.259,0,0,1-75.972-2.88ZM-58.548-13.1a5.653,5.653,0,0,0-4.272,1.7v-1.512H-66.4V0h3.744V-6.384c0-2.376,1.3-3.48,3.1-3.48,1.656,0,2.616.96,2.616,3.048V0H-53.2V-7.392C-53.2-11.328-55.5-13.1-58.548-13.1ZM-36.78.192c2.712,0,4.848-1.2,5.784-3.264l-2.9-1.584A3.177,3.177,0,0,1-36.8-2.88a3.3,3.3,0,0,1-3.384-3.576A3.3,3.3,0,0,1-36.8-10.032a3.22,3.22,0,0,1,2.9,1.776l2.9-1.56c-.936-2.112-3.072-3.288-5.784-3.288-4.2,0-7.2,2.76-7.2,6.648S-40.98.192-36.78.192Zm9.816-14.9a2.153,2.153,0,0,0,2.328-2.16,2.1,2.1,0,0,0-2.328-2.016A2.14,2.14,0,0,0-29.292-16.8,2.14,2.14,0,0,0-26.964-14.712ZM-28.836,0h3.744V-12.912h-3.744Zm16.488-12.912v6.384c0,2.376-1.248,3.48-2.976,3.48-1.656,0-2.616-.96-2.616-3.12v-6.744h-3.744v7.3c0,3.984,2.28,5.808,5.52,5.808a5.224,5.224,0,0,0,4.008-1.728V0H-8.6V-12.912Zm16.632-4.9v6.264A4.961,4.961,0,0,0,.42-13.1,6.277,6.277,0,0,0-6.036-6.456,6.277,6.277,0,0,0,.42.192a4.967,4.967,0,0,0,4.032-1.68V0H8.028V-17.808ZM1.068-2.88A3.276,3.276,0,0,1-2.244-6.456a3.276,3.276,0,0,1,3.312-3.576A3.271,3.271,0,0,1,4.356-6.456,3.271,3.271,0,0,1,1.068-2.88ZM16.692-13.1a9.926,9.926,0,0,0-5.568,1.56l1.344,2.616a6.208,6.208,0,0,1,3.72-1.2c2.016,0,2.976.936,2.976,2.544H16.188c-3.936,0-5.544,1.584-5.544,3.864,0,2.232,1.8,3.912,4.824,3.912,1.9,0,3.24-.624,3.936-1.8V0h3.5V-7.368C22.908-11.28,20.628-13.1,16.692-13.1ZM16.4-2.328c-1.32,0-2.112-.624-2.112-1.56,0-.864.552-1.512,2.3-1.512h2.568v1.32A2.759,2.759,0,0,1,16.4-2.328Zm19.44-15.48v6.264A4.961,4.961,0,0,0,31.98-13.1a6.277,6.277,0,0,0-6.456,6.648A6.277,6.277,0,0,0,31.98.192a4.967,4.967,0,0,0,4.032-1.68V0h3.576V-17.808ZM32.628-2.88a3.276,3.276,0,0,1-3.312-3.576,3.276,3.276,0,0,1,3.312-3.576,3.271,3.271,0,0,1,3.288,3.576A3.271,3.271,0,0,1,32.628-2.88ZM48.252-13.1a9.926,9.926,0,0,0-5.568,1.56l1.344,2.616a6.208,6.208,0,0,1,3.72-1.2c2.016,0,2.976.936,2.976,2.544H47.748C43.812-7.584,42.2-6,42.2-3.72,42.2-1.488,44,.192,47.028.192c1.9,0,3.24-.624,3.936-1.8V0h3.5V-7.368C54.468-11.28,52.188-13.1,48.252-13.1ZM47.964-2.328c-1.32,0-2.112-.624-2.112-1.56,0-.864.552-1.512,2.3-1.512h2.568v1.32A2.759,2.759,0,0,1,47.964-2.328ZM65.7-13.1a5.653,5.653,0,0,0-4.272,1.7v-1.512H57.852V0H61.6V-6.384c0-2.376,1.3-3.48,3.1-3.48,1.656,0,2.616.96,2.616,3.048V0h3.744V-7.392C71.052-11.328,68.748-13.1,65.7-13.1Zm13.944,0a9.926,9.926,0,0,0-5.568,1.56L75.42-8.928a6.208,6.208,0,0,1,3.72-1.2c2.016,0,2.976.936,2.976,2.544H79.14C75.2-7.584,73.6-6,73.6-3.72,73.6-1.488,75.4.192,78.42.192c1.9,0,3.24-.624,3.936-1.8V0h3.5V-7.368C85.86-11.28,83.58-13.1,79.644-13.1ZM79.356-2.328c-1.32,0-2.112-.624-2.112-1.56,0-.864.552-1.512,2.3-1.512h2.568v1.32A2.759,2.759,0,0,1,79.356-2.328Zm25.9-10.584L101.6-4.152l-3.624-8.76H94.116L99.708.1l-.048.12c-.5,1.152-1.08,1.608-2.112,1.608a3.319,3.319,0,0,1-2.112-.816L94.068,3.672a5.734,5.734,0,0,0,3.6,1.176c2.328,0,4.1-.936,5.352-4.056l5.832-13.7ZM123.42.192c2.712,0,4.848-1.2,5.784-3.264l-2.9-1.584a3.177,3.177,0,0,1-2.9,1.776,3.3,3.3,0,0,1-3.384-3.576,3.3,3.3,0,0,1,3.384-3.576,3.22,3.22,0,0,1,2.9,1.776l2.9-1.56c-.936-2.112-3.072-3.288-5.784-3.288-4.2,0-7.2,2.76-7.2,6.648S119.22.192,123.42.192Zm9.816-14.9a2.153,2.153,0,0,0,2.328-2.16,2.1,2.1,0,0,0-2.328-2.016,2.14,2.14,0,0,0-2.328,2.088A2.14,2.14,0,0,0,133.236-14.712ZM131.364,0h3.744V-12.912h-3.744ZM147.8-12.912l-3.7,8.784-3.576-8.784h-3.864L142.092,0h3.864L151.4-12.912Zm7.008-1.8a2.153,2.153,0,0,0,2.328-2.16,2.1,2.1,0,0,0-2.328-2.016,2.14,2.14,0,0,0-2.328,2.088A2.14,2.14,0,0,0,154.812-14.712ZM152.94,0h3.744V-12.912H152.94Zm11.568.192c3.864,0,6.1-1.7,6.1-4.1,0-5.088-7.8-2.952-7.8-5.16,0-.672.72-1.2,2.4-1.2a7.415,7.415,0,0,1,3.72.96l1.248-2.664A10.617,10.617,0,0,0,165.2-13.1c-3.768,0-5.976,1.728-5.976,4.176,0,5.16,7.8,3,7.8,5.112,0,.72-.648,1.176-2.376,1.176a8.834,8.834,0,0,1-4.488-1.248L158.916-1.2A11.085,11.085,0,0,0,164.508.192Zm24.936-13.3a5.806,5.806,0,0,0-4.656,2.112A4.82,4.82,0,0,0,180.54-13.1a5.229,5.229,0,0,0-4.056,1.68v-1.488h-3.576V0h3.744V-6.48c0-2.3,1.176-3.384,2.832-3.384,1.56,0,2.448.96,2.448,3.048V0h3.744V-6.48c0-2.3,1.176-3.384,2.856-3.384,1.512,0,2.448.96,2.448,3.048V0h3.744V-7.392C194.724-11.328,192.516-13.1,189.444-13.1ZM204.372.192c4.1,0,7.08-2.76,7.08-6.648s-2.976-6.648-7.08-6.648-7.1,2.76-7.1,6.648S200.268.192,204.372.192Zm0-3.072a3.276,3.276,0,0,1-3.312-3.576,3.276,3.276,0,0,1,3.312-3.576,3.259,3.259,0,0,1,3.288,3.576A3.259,3.259,0,0,1,204.372-2.88ZM215.2.192a2.291,2.291,0,0,0,2.328-2.352,2.237,2.237,0,0,0-2.328-2.3,2.237,2.237,0,0,0-2.328,2.3A2.291,2.291,0,0,0,215.2.192Z" transform="translate(700 2756)" fill="#148e9f"/>
    <g id="Grupo_10659" data-name="Grupo 10659" transform="translate(76 159)">
      <g id="Grupo_10635" data-name="Grupo 10635" transform="translate(506 1798)">
        <g id="Grupo_10622" data-name="Grupo 10622">
          <g id="Grupo_10621" data-name="Grupo 10621">
            <circle id="Elipse_558" data-name="Elipse 558" cx="38" cy="38" r="38" transform="translate(80 354)" fill="#fff"/>
          </g>
        </g>
        <g id="Grupo_10624" data-name="Grupo 10624">
          <g id="Grupo_10623" data-name="Grupo 10623">
            <circle id="Elipse_559" data-name="Elipse 559" cx="32" cy="32" r="32" transform="translate(86 360)" fill="#b4f0e0"/>
          </g>
        </g>
        <g id="Grupo_10626" data-name="Grupo 10626">
          <g id="Grupo_10625" data-name="Grupo 10625">
            <path id="Trazado_20328" data-name="Trazado 20328" d="M118,432a40,40,0,1,1,40-40A40.045,40.045,0,0,1,118,432Zm0-76a36,36,0,1,0,36,36A36.04,36.04,0,0,0,118,356Z" fill="#2d2d2e"/>
          </g>
        </g>
        <g id="Grupo_10628" data-name="Grupo 10628">
          <g id="Grupo_10627" data-name="Grupo 10627">
            <path id="Trazado_20329" data-name="Trazado 20329" d="M118,432c-15.44,0-28-17.944-28-40s12.56-40,28-40,28,17.944,28,40S133.44,432,118,432Zm0-76c-13.233,0-24,16.149-24,36s10.767,36,24,36,24-16.149,24-36S131.233,356,118,356Z" fill="#2d2d2e"/>
          </g>
        </g>
        <g id="Grupo_10630" data-name="Grupo 10630">
          <g id="Grupo_10629" data-name="Grupo 10629">
            <path id="Trazado_20330" data-name="Trazado 20330" d="M118,432c-10.393,0-16-20.609-16-40s5.607-40,16-40,16,20.609,16,40S128.393,432,118,432Zm0-76c-5.676,0-12,14.784-12,36s6.324,36,12,36,12-14.784,12-36S123.676,356,118,356Z" fill="#2d2d2e"/>
          </g>
        </g>
        <g id="Grupo_10632" data-name="Grupo 10632">
          <g id="Grupo_10631" data-name="Grupo 10631">
            <rect id="Rectángulo_2247" data-name="Rectángulo 2247" width="4" height="76" transform="translate(116 354)" fill="#2d2d2e"/>
          </g>
        </g>
        <g id="Grupo_10634" data-name="Grupo 10634">
          <g id="Grupo_10633" data-name="Grupo 10633">
            <rect id="Rectángulo_2248" data-name="Rectángulo 2248" width="76" height="4" transform="translate(80 390)" fill="#2d2d2e"/>
          </g>
        </g>
      </g>
      <g id="Grupo_10637" data-name="Grupo 10637" transform="translate(506 1798)">
        <g id="Grupo_10636" data-name="Grupo 10636">
          <path id="Trazado_20331" data-name="Trazado 20331" d="M176,386h-2a4,4,0,0,0-4,4v28l-3.293,4.322A5.963,5.963,0,0,0,162,420l-18,18c-4,4-4,10-4,10v14h20v-2s0-4,4-8l12-12c4-4,4-10,4-10V390A4,4,0,0,0,176,386Z" fill="#f7f7f7"/>
        </g>
      </g>
      <g id="Grupo_10640" data-name="Grupo 10640" transform="translate(506 1798)">
        <g id="Grupo_10639" data-name="Grupo 10639">
          <g id="Grupo_10638" data-name="Grupo 10638">
            <rect id="Rectángulo_2249" data-name="Rectángulo 2249" width="32" height="16" transform="translate(134 464)" fill="#fed147"/>
          </g>
        </g>
      </g>
      <g id="Grupo_10642" data-name="Grupo 10642" transform="translate(506 1798)">
        <g id="Grupo_10641" data-name="Grupo 10641">
          <path id="Trazado_20332" data-name="Trazado 20332" d="M142,460h-4V448c0-.279.052-6.881,4.586-11.414L161.172,418H162a8.009,8.009,0,0,1,8,8v.631l-14.361,20.516-3.278-2.293,13.6-19.426a4.008,4.008,0,0,0-3.2-3.356l-17.343,17.342C142.039,442.789,142,447.948,142,448Z" fill="#2d2d2e"/>
        </g>
      </g>
      <g id="Grupo_10644" data-name="Grupo 10644" transform="translate(506 1798)">
        <g id="Grupo_10643" data-name="Grupo 10643">
          <rect id="Rectángulo_2250" data-name="Rectángulo 2250" width="4" height="4" transform="translate(158 468)" fill="#2d2d2e"/>
        </g>
      </g>
      <g id="Grupo_10646" data-name="Grupo 10646" transform="translate(506 1798)">
        <g id="Grupo_10645" data-name="Grupo 10645">
          <path id="Trazado_20333" data-name="Trazado 20333" d="M162,464H134v-4h24c0-.2.052-4.881,4.586-9.414l12-12C177.961,435.211,178,430.052,178,430V390a2,2,0,0,0-2-2h-2a2,2,0,0,0-2,2v28h-4V390a6.006,6.006,0,0,1,6-6h2a6.006,6.006,0,0,1,6,6v40c0,.279-.052,6.881-4.586,11.414l-12,12c-3.3,3.3-3.411,6.475-3.414,6.609Z" fill="#2d2d2e"/>
        </g>
      </g>
      <g id="Grupo_10649" data-name="Grupo 10649" transform="translate(506 1798)">
        <g id="Grupo_10648" data-name="Grupo 10648">
          <path id="Trazado_20334" data-name="Trazado 20334" d="M60,386h2a4,4,0,0,1,4,4v28l3.293,4.322A5.963,5.963,0,0,1,74,420l18,18c4,4,4,10,4,10v14H76v-2s0-4-4-8L60,440c-4-4-4-10-4-10V390A4,4,0,0,1,60,386Z" fill="#f7f7f7"/>
        </g>
      </g>
      <g id="Grupo_10652" data-name="Grupo 10652" transform="translate(506 1798)">
        <g id="Grupo_10651" data-name="Grupo 10651">
          <g id="Grupo_10650" data-name="Grupo 10650">
            <rect id="Rectángulo_2251" data-name="Rectángulo 2251" width="32" height="16" transform="translate(70 464)" fill="#fed147"/>
          </g>
        </g>
      </g>
      <g id="Grupo_10654" data-name="Grupo 10654" transform="translate(506 1798)">
        <g id="Grupo_10653" data-name="Grupo 10653">
          <path id="Trazado_20335" data-name="Trazado 20335" d="M98,460H94V448c0-.046-.072-5.244-3.414-8.586L73.243,422.072a4.008,4.008,0,0,0-3.2,3.356l13.6,19.426-3.278,2.293L66,426.631V426a8.009,8.009,0,0,1,8-8h.828l18.586,18.586C97.948,441.119,98,447.721,98,448Z" fill="#2d2d2e"/>
        </g>
      </g>
      <g id="Grupo_10656" data-name="Grupo 10656" transform="translate(506 1798)">
        <g id="Grupo_10655" data-name="Grupo 10655">
          <rect id="Rectángulo_2252" data-name="Rectángulo 2252" width="4" height="4" transform="translate(74 468)" fill="#2d2d2e"/>
        </g>
      </g>
      <g id="Grupo_10658" data-name="Grupo 10658" transform="translate(506 1798)">
        <g id="Grupo_10657" data-name="Grupo 10657">
          <path id="Trazado_20336" data-name="Trazado 20336" d="M102,464H74v-4c0-.111-.112-3.284-3.414-6.586l-12-12C54.052,436.881,54,430.279,54,430V390a6.006,6.006,0,0,1,6-6h2a6.006,6.006,0,0,1,6,6v28H64V390a2,2,0,0,0-2-2H60a2,2,0,0,0-2,2v40c0,.046.072,5.244,3.414,8.586l12,12C77.948,455.119,78,459.8,78,460h24Z" fill="#2d2d2e"/>
        </g>
      </g>
    </g>
    <g id="Grupo_10683" data-name="Grupo 10683" transform="translate(619 1690)">
      <g id="Grupo_10661" data-name="Grupo 10661">
        <g id="Grupo_10660" data-name="Grupo 10660">
          <circle id="Elipse_560" data-name="Elipse 560" cx="56" cy="56" r="56" transform="translate(573 627)" fill="#b4f0e0"/>
        </g>
      </g>
      <g id="Grupo_10663" data-name="Grupo 10663">
        <g id="Grupo_10662" data-name="Grupo 10662">
          <circle id="Elipse_561" data-name="Elipse 561" cx="52" cy="52" r="52" transform="translate(577 631)" fill="#fff"/>
        </g>
      </g>
      <g id="Grupo_10665" data-name="Grupo 10665">
        <g id="Grupo_10664" data-name="Grupo 10664">
          <path id="Trazado_20337" data-name="Trazado 20337" d="M682.678,717.867l-3.354-2.181a60,60,0,0,0-96.17-71.395l-3.054-2.582a64.006,64.006,0,0,1,102.578,76.158Z" fill="#2d2d2e"/>
        </g>
      </g>
      <g id="Grupo_10667" data-name="Grupo 10667">
        <g id="Grupo_10666" data-name="Grupo 10666">
          <path id="Trazado_20338" data-name="Trazado 20338" d="M629,747a64.01,64.01,0,0,1-53.525-99.1l3.343,2.2a60,60,0,0,0,96.028,71.61l3.054,2.582A63.909,63.909,0,0,1,629,747Z" fill="#2d2d2e"/>
        </g>
      </g>
      <g id="Grupo_10669" data-name="Grupo 10669">
        <g id="Grupo_10668" data-name="Grupo 10668">
          <path id="Trazado_20339" data-name="Trazado 20339" d="M593,645H579V631h4v10h10Z" fill="#2d2d2e"/>
        </g>
      </g>
      <g id="Grupo_10671" data-name="Grupo 10671">
        <g id="Grupo_10670" data-name="Grupo 10670">
          <path id="Trazado_20340" data-name="Trazado 20340" d="M679,735h-4V725H665v-4h14Z" fill="#2d2d2e"/>
        </g>
      </g>
      <g id="Grupo_10682" data-name="Grupo 10682">
        <g id="Grupo_10673" data-name="Grupo 10673">
          <g id="Grupo_10672" data-name="Grupo 10672">
            <path id="Trazado_20341" data-name="Trazado 20341" d="M647,679c0,18.777-18,34-18,34s-18-15.223-18-34,18-34,18-34S647,660.223,647,679Z" fill="#fed147"/>
          </g>
        </g>
        <g id="Grupo_10675" data-name="Grupo 10675">
          <g id="Grupo_10674" data-name="Grupo 10674">
            <rect id="Rectángulo_2253" data-name="Rectángulo 2253" width="4" height="64" transform="translate(627 659)" fill="#2d2d2e"/>
          </g>
        </g>
        <g id="Grupo_10677" data-name="Grupo 10677">
          <g id="Grupo_10676" data-name="Grupo 10676">
            <rect id="Rectángulo_2254" data-name="Rectángulo 2254" width="14.142" height="4" transform="translate(627.586 685.586) rotate(-45)" fill="#2d2d2e"/>
          </g>
        </g>
        <g id="Grupo_10679" data-name="Grupo 10679">
          <g id="Grupo_10678" data-name="Grupo 10678">
            <rect id="Rectángulo_2255" data-name="Rectángulo 2255" width="4" height="14.142" transform="translate(617.586 686.414) rotate(-45)" fill="#2d2d2e"/>
          </g>
        </g>
        <g id="Grupo_10681" data-name="Grupo 10681">
          <g id="Grupo_10680" data-name="Grupo 10680">
            <path id="Trazado_20342" data-name="Trazado 20342" d="M629,715.619l-1.291-1.092C626.944,713.881,609,698.481,609,679a37.937,37.937,0,0,1,4.208-16.889l1.237-2.494,15.969,15.969-2.828,2.828-11.96-11.96A32.771,32.771,0,0,0,613,679c0,14.763,11.981,27.45,16,31.288,4.015-3.843,16-16.555,16-31.288,0-14.766-11.986-27.455-16-31.29a64.54,64.54,0,0,0-8.769,10.4l-3.322-2.228a65.335,65.335,0,0,1,10.8-12.413L629,642.381l1.291,1.092C631.056,644.119,649,659.519,649,679s-17.944,34.881-18.709,35.527Z" fill="#2d2d2e"/>
          </g>
        </g>
      </g>
    </g>
    <g id="Grupo_10705" data-name="Grupo 10705" transform="translate(766 1761)">
      <g id="Grupo_10684" data-name="Grupo 10684" transform="translate(418.098 290.098)">
        <circle id="Elipse_562" data-name="Elipse 562" cx="62" cy="62" r="62" transform="translate(-0.098 -0.098)" fill="#e8e6e4"/>
      </g>
      <g id="Grupo_10685" data-name="Grupo 10685" transform="translate(495.484 290.152)">
        <path id="Trazado_20343" data-name="Trazado 20343" d="M504.258,350.924h-4a60.052,60.052,0,0,0-44.516-57.984l1.03-3.864A64.058,64.058,0,0,1,504.258,350.924Z" transform="translate(-455.742 -289.076)" fill="#2d2d2e"/>
      </g>
      <g id="Grupo_10686" data-name="Grupo 10686" transform="translate(418.152 288)">
        <path id="Trazado_20344" data-name="Trazado 20344" d="M420.94,336.516l-3.864-1.028A64.057,64.057,0,0,1,478.924,288v4A60.054,60.054,0,0,0,420.94,336.516Z" transform="translate(-417.076 -288)" fill="#2d2d2e"/>
      </g>
      <g id="Grupo_10687" data-name="Grupo 10687" transform="translate(416 352)">
        <path id="Trazado_20345" data-name="Trazado 20345" d="M463.486,381.848A64.052,64.052,0,0,1,416,320h4a60.05,60.05,0,0,0,44.514,57.984Z" transform="translate(-416 -320)" fill="#2d2d2e"/>
      </g>
      <g id="Grupo_10688" data-name="Grupo 10688" transform="translate(480 367.484)">
        <path id="Trazado_20346" data-name="Trazado 20346" d="M448,376.258v-4a60.054,60.054,0,0,0,57.984-44.516l3.864,1.03A64.056,64.056,0,0,1,448,376.258Z" transform="translate(-448 -327.742)" fill="#2d2d2e"/>
      </g>
      <g id="Grupo_10689" data-name="Grupo 10689" transform="translate(469.508 290.098)">
        <circle id="Elipse_563" data-name="Elipse 563" cx="10" cy="10" r="10" transform="translate(0.492 -0.098)" fill="#fff"/>
      </g>
      <g id="Grupo_10690" data-name="Grupo 10690" transform="translate(521.967 341.508)">
        <circle id="Elipse_564" data-name="Elipse 564" cx="10" cy="10" r="10" transform="translate(0.033 0.492)" fill="#fff"/>
      </g>
      <g id="Grupo_10691" data-name="Grupo 10691" transform="translate(469.508 393.967)">
        <circle id="Elipse_565" data-name="Elipse 565" cx="10" cy="10" r="10" transform="translate(0.492 0.033)" fill="#fff"/>
      </g>
      <g id="Grupo_10692" data-name="Grupo 10692" transform="translate(418.098 341.508)">
        <circle id="Elipse_566" data-name="Elipse 566" cx="10" cy="10" r="10" transform="translate(-0.098 0.492)" fill="#fff"/>
      </g>
      <g id="Grupo_10693" data-name="Grupo 10693" transform="translate(468 288)">
        <path id="Trazado_20347" data-name="Trazado 20347" d="M454,312a12,12,0,1,1,12-12A12.012,12.012,0,0,1,454,312Zm0-20a8,8,0,1,0,8,8A8.008,8.008,0,0,0,454,292Z" transform="translate(-442 -288)" fill="#2d2d2e"/>
      </g>
      <g id="Grupo_10694" data-name="Grupo 10694" transform="translate(520 340)">
        <path id="Trazado_20348" data-name="Trazado 20348" d="M480,338a12,12,0,1,1,12-12A12.012,12.012,0,0,1,480,338Zm0-20a8,8,0,1,0,8,8A8.008,8.008,0,0,0,480,318Z" transform="translate(-468 -314)" fill="#2d2d2e"/>
      </g>
      <g id="Grupo_10695" data-name="Grupo 10695" transform="translate(468 392)">
        <path id="Trazado_20349" data-name="Trazado 20349" d="M454,364a12,12,0,1,1,12-12A12.012,12.012,0,0,1,454,364Zm0-20a8,8,0,1,0,8,8A8.008,8.008,0,0,0,454,344Z" transform="translate(-442 -340)" fill="#2d2d2e"/>
      </g>
      <g id="Grupo_10696" data-name="Grupo 10696" transform="translate(416 340)">
        <path id="Trazado_20350" data-name="Trazado 20350" d="M428,338a12,12,0,1,1,12-12A12.012,12.012,0,0,1,428,338Zm0-20a8,8,0,1,0,8,8A8.008,8.008,0,0,0,428,318Z" transform="translate(-416 -314)" fill="#2d2d2e"/>
      </g>
      <g id="Grupo_10697" data-name="Grupo 10697" transform="translate(438.033 310.033)">
        <circle id="Elipse_567" data-name="Elipse 567" cx="42" cy="42" r="42" transform="translate(-0.033 -0.033)" fill="#fff"/>
      </g>
      <g id="Grupo_10698" data-name="Grupo 10698" transform="translate(444.328 316.328)">
        <circle id="Elipse_568" data-name="Elipse 568" cx="36" cy="36" r="36" transform="translate(-0.328 -0.328)" fill="#fed147"/>
      </g>
      <g id="Grupo_10703" data-name="Grupo 10703" transform="translate(458 330)">
        <g id="Grupo_10699" data-name="Grupo 10699" transform="translate(2 24)">
          <path id="Trazado_20351" data-name="Trazado 20351" d="M452,321l-14,8v4a6,6,0,0,0,6,6h28a6,6,0,0,0,6-6v-4l-14-8Z" transform="translate(-438 -321)" fill="#b4f0e0"/>
        </g>
        <g id="Grupo_10700" data-name="Grupo 10700" transform="translate(0 22.264)">
          <path id="Trazado_20352" data-name="Trazado 20352" d="M473,341.868H445a8.008,8.008,0,0,1-8-8v-5.16l15.008-8.576,1.984,3.472L441,331.028v2.84a4,4,0,0,0,4,4h28a4,4,0,0,0,4-4v-2.84L464.008,323.6l1.984-3.472L481,328.708v5.16A8.008,8.008,0,0,1,473,341.868Z" transform="translate(-437 -320.132)" fill="#2d2d2e"/>
        </g>
        <g id="Grupo_10701" data-name="Grupo 10701" transform="translate(12 2)">
          <path id="Trazado_20353" data-name="Trazado 20353" d="M463,320c0-4-2-10-10-10s-10,6-10,10v2c0,6,4,12,10,12s10-6,10-12Z" transform="translate(-443 -310)" fill="#fff"/>
        </g>
        <g id="Grupo_10702" data-name="Grupo 10702" transform="translate(10)">
          <path id="Trazado_20354" data-name="Trazado 20354" d="M454,337c-7.412,0-12-7.266-12-14v-2c0-5.536,3.142-12,12-12s12,6.464,12,12v2C466,329.734,461.412,337,454,337Zm0-24c-7.22,0-8,5.594-8,8v2c0,4.81,3.058,10,8,10s8-5.19,8-10v-2C462,318.594,461.22,313,454,313Z" transform="translate(-442 -309)" fill="#2d2d2e"/>
        </g>
      </g>
      <g id="Grupo_10704" data-name="Grupo 10704" transform="translate(436 308)">
        <path id="Trazado_20355" data-name="Trazado 20355" d="M470,386a44,44,0,1,1,44-44A44.049,44.049,0,0,1,470,386Zm0-84a40,40,0,1,0,40,40A40.045,40.045,0,0,0,470,302Z" transform="translate(-426 -298)" fill="#2d2d2e"/>
      </g>
    </g>
    <g id="Grupo_10734" data-name="Grupo 10734" transform="translate(572 1985)">
      <g id="Grupo_10706" data-name="Grupo 10706">
        <path id="Trazado_20356" data-name="Trazado 20356" d="M140,96H100v8h10a6,6,0,0,1,6,6v26h24V110a6,6,0,0,1,6-6h10V96Z" fill="#fed147"/>
      </g>
      <g id="Grupo_10707" data-name="Grupo 10707">
        <path id="Trazado_20357" data-name="Trazado 20357" d="M78,88a8,8,0,0,0-8,8v42h8v-2h24V102a6,6,0,0,1,6-6h22V88h-9.858a10,10,0,0,0-7.071,2.929L112,92l-1.071-1.071A10,10,0,0,0,103.858,88Z" fill="#fed147"/>
      </g>
      <g id="Grupo_10708" data-name="Grupo 10708">
        <rect id="Rectángulo_2256" data-name="Rectángulo 2256" width="24" height="54" transform="translate(78 136)" fill="#a8a7a5"/>
      </g>
      <g id="Grupo_10709" data-name="Grupo 10709">
        <rect id="Rectángulo_2257" data-name="Rectángulo 2257" width="4" height="44" transform="translate(88 146)" fill="#2d2d2e"/>
      </g>
      <g id="Grupo_10710" data-name="Grupo 10710">
        <rect id="Rectángulo_2258" data-name="Rectángulo 2258" width="4" height="4" transform="translate(88 94)" fill="#2d2d2e"/>
      </g>
      <g id="Grupo_10711" data-name="Grupo 10711">
        <rect id="Rectángulo_2259" data-name="Rectángulo 2259" width="24" height="4" transform="translate(78 134)" fill="#2d2d2e"/>
      </g>
      <g id="Grupo_10712" data-name="Grupo 10712">
        <rect id="Rectángulo_2260" data-name="Rectángulo 2260" width="4" height="86" transform="translate(76 104)" fill="#2d2d2e"/>
      </g>
      <g id="Grupo_10713" data-name="Grupo 10713">
        <path id="Trazado_20358" data-name="Trazado 20358" d="M104,190h-4V102a8.009,8.009,0,0,1,8-8v4a4,4,0,0,0-4,4Z" fill="#2d2d2e"/>
      </g>
      <g id="Grupo_10714" data-name="Grupo 10714">
        <circle id="Elipse_569" data-name="Elipse 569" cx="8" cy="8" r="8" transform="translate(82 66)" fill="#fff"/>
      </g>
      <g id="Grupo_10715" data-name="Grupo 10715">
        <path id="Trazado_20359" data-name="Trazado 20359" d="M90,84a10,10,0,1,1,10-10A10.011,10.011,0,0,1,90,84Zm0-16a6,6,0,1,0,6,6A6.006,6.006,0,0,0,90,68Z" fill="#2d2d2e"/>
      </g>
      <g id="Grupo_10716" data-name="Grupo 10716">
        <path id="Trazado_20360" data-name="Trazado 20360" d="M178,88a8,8,0,0,1,8,8v42h-8v-2H154V102a6,6,0,0,0-6-6H126V88h10.686a8,8,0,0,1,5.657,2.343L144,92l1.657-1.657A8,8,0,0,1,151.314,88Z" fill="#fed147"/>
      </g>
      <g id="Grupo_10717" data-name="Grupo 10717">
        <rect id="Rectángulo_2261" data-name="Rectángulo 2261" width="24" height="54" transform="translate(154 136)" fill="#a8a7a5"/>
      </g>
      <g id="Grupo_10718" data-name="Grupo 10718">
        <rect id="Rectángulo_2262" data-name="Rectángulo 2262" width="4" height="44" transform="translate(164 146)" fill="#2d2d2e"/>
      </g>
      <g id="Grupo_10719" data-name="Grupo 10719">
        <rect id="Rectángulo_2263" data-name="Rectángulo 2263" width="4" height="4" transform="translate(164 94)" fill="#2d2d2e"/>
      </g>
      <g id="Grupo_10720" data-name="Grupo 10720">
        <rect id="Rectángulo_2264" data-name="Rectángulo 2264" width="4" height="4" transform="translate(126 94)" fill="#2d2d2e"/>
      </g>
      <g id="Grupo_10721" data-name="Grupo 10721">
        <rect id="Rectángulo_2265" data-name="Rectángulo 2265" width="24" height="4" transform="translate(154 134)" fill="#2d2d2e"/>
      </g>
      <g id="Grupo_10722" data-name="Grupo 10722">
        <rect id="Rectángulo_2266" data-name="Rectángulo 2266" width="4" height="86" transform="translate(176 104)" fill="#2d2d2e"/>
      </g>
      <g id="Grupo_10723" data-name="Grupo 10723">
        <path id="Trazado_20361" data-name="Trazado 20361" d="M156,190h-4V102a4,4,0,0,0-4-4V94a8.009,8.009,0,0,1,8,8Z" fill="#2d2d2e"/>
      </g>
      <g id="Grupo_10724" data-name="Grupo 10724">
        <circle id="Elipse_570" data-name="Elipse 570" cx="8" cy="8" r="8" transform="translate(158 66)" fill="#fff"/>
      </g>
      <g id="Grupo_10725" data-name="Grupo 10725">
        <path id="Trazado_20362" data-name="Trazado 20362" d="M166,84a10,10,0,1,1,10-10A10.011,10.011,0,0,1,166,84Zm0-16a6,6,0,1,0,6,6A6.006,6.006,0,0,0,166,68Z" fill="#2d2d2e"/>
      </g>
      <g id="Grupo_10726" data-name="Grupo 10726">
        <rect id="Rectángulo_2267" data-name="Rectángulo 2267" width="24" height="54" transform="translate(116 136)" fill="#a8a7a5"/>
      </g>
      <g id="Grupo_10727" data-name="Grupo 10727">
        <rect id="Rectángulo_2268" data-name="Rectángulo 2268" width="4" height="44" transform="translate(126 146)" fill="#2d2d2e"/>
      </g>
      <g id="Grupo_10728" data-name="Grupo 10728">
        <rect id="Rectángulo_2269" data-name="Rectángulo 2269" width="24" height="4" transform="translate(116 134)" fill="#2d2d2e"/>
      </g>
      <g id="Grupo_10729" data-name="Grupo 10729">
        <path id="Trazado_20363" data-name="Trazado 20363" d="M118,190h-4V110a4,4,0,0,0-4-4h-8v-4h8a8.009,8.009,0,0,1,8,8Z" fill="#2d2d2e"/>
      </g>
      <g id="Grupo_10730" data-name="Grupo 10730">
        <path id="Trazado_20364" data-name="Trazado 20364" d="M142,190h-4V110a8.009,8.009,0,0,1,8-8h8v4h-8a4,4,0,0,0-4,4Z" fill="#2d2d2e"/>
      </g>
      <g id="Grupo_10731" data-name="Grupo 10731">
        <circle id="Elipse_571" data-name="Elipse 571" cx="8" cy="8" r="8" transform="translate(120 66)" fill="#fff"/>
      </g>
      <g id="Grupo_10732" data-name="Grupo 10732">
        <path id="Trazado_20365" data-name="Trazado 20365" d="M128,84a10,10,0,1,1,10-10A10.011,10.011,0,0,1,128,84Zm0-16a6,6,0,1,0,6,6A6.006,6.006,0,0,0,128,68Z" fill="#2d2d2e"/>
      </g>
      <g id="Grupo_10733" data-name="Grupo 10733">
        <rect id="Rectángulo_2270" data-name="Rectángulo 2270" width="128" height="4" transform="translate(64 188)" fill="#2d2d2e"/>
      </g>
    </g>
    <g id="Grupo_10757" data-name="Grupo 10757" transform="translate(60 1993)">
      <g id="Grupo_10735" data-name="Grupo 10735">
        <path id="Trazado_20366" data-name="Trazado 20366" d="M698,622h-2a4,4,0,0,0-4,4v14l-8,5.714V586a4,4,0,0,0-4-4h-2a4,4,0,0,0-4,4v-4a4,4,0,0,0-4-4h-2a4,4,0,0,0-4,4v4a4,4,0,0,0-4-4h-2a4,4,0,0,0-4,4v4a4,4,0,0,0-4-4h-2a4,4,0,0,0-4,4v32h-4v52a7.964,7.964,0,0,0,4,6.89V704h38V680.2L696,664l6-22V626A4,4,0,0,0,698,622Z" fill="#f7f7f7"/>
      </g>
      <g id="Grupo_10736" data-name="Grupo 10736">
        <path id="Trazado_20367" data-name="Trazado 20367" d="M582,622h2a4,4,0,0,1,4,4v14l8,5.714V586a4,4,0,0,1,4-4h2a4,4,0,0,1,4,4v-4a4,4,0,0,1,4-4h2a4,4,0,0,1,4,4v4a4,4,0,0,1,4-4h2a4,4,0,0,1,4,4v4a4,4,0,0,1,4-4h2a4,4,0,0,1,4,4v32h4v52a7.964,7.964,0,0,1-4,6.89V704H598V680.2L584,664l-6-20V626A4,4,0,0,1,582,622Z" fill="#f7f7f7"/>
      </g>
      <g id="Grupo_10737" data-name="Grupo 10737">
        <rect id="Rectángulo_2271" data-name="Rectángulo 2271" width="4" height="24" transform="translate(596 680)" fill="#2d2d2e"/>
      </g>
      <g id="Grupo_10738" data-name="Grupo 10738">
        <rect id="Rectángulo_2272" data-name="Rectángulo 2272" width="4" height="22" transform="translate(634 682)" fill="#2d2d2e"/>
      </g>
      <g id="Grupo_10739" data-name="Grupo 10739">
        <path id="Trazado_20368" data-name="Trazado 20368" d="M632,684h-2v-4h2a6.006,6.006,0,0,0,6-6h4A10.011,10.011,0,0,1,632,684Z" fill="#2d2d2e"/>
      </g>
      <g id="Grupo_10740" data-name="Grupo 10740">
        <path id="Trazado_20369" data-name="Trazado 20369" d="M598,646h-4V586a6.006,6.006,0,0,1,6-6h2a6.006,6.006,0,0,1,6,6h-4a2,2,0,0,0-2-2h-2a2,2,0,0,0-2,2Z" fill="#2d2d2e"/>
      </g>
      <g id="Grupo_10741" data-name="Grupo 10741">
        <path id="Trazado_20370" data-name="Trazado 20370" d="M606,684h-6.9l-16.891-19L576,644V626a6.006,6.006,0,0,1,6-6h2a6.006,6.006,0,0,1,6,6v12.971l13.162,9.4-2.324,3.256L586,641.029V626a2,2,0,0,0-2-2h-2a2,2,0,0,0-2,2v17.706l5.789,19.3L600.9,680H606Z" fill="#2d2d2e"/>
      </g>
      <g id="Grupo_10742" data-name="Grupo 10742">
        <path id="Trazado_20371" data-name="Trazado 20371" d="M638,624h-4V590a2,2,0,0,0-2-2h-2a2,2,0,0,0-2,2v28h-4V590a6.006,6.006,0,0,1,6-6h2a6.006,6.006,0,0,1,6,6Z" fill="#2d2d2e"/>
      </g>
      <g id="Grupo_10743" data-name="Grupo 10743">
        <path id="Trazado_20372" data-name="Trazado 20372" d="M618,618h-4V586a6.006,6.006,0,0,1,6-6h2a6.006,6.006,0,0,1,6,6v4h-4v-4a2,2,0,0,0-2-2h-2a2,2,0,0,0-2,2Z" fill="#2d2d2e"/>
      </g>
      <g id="Grupo_10744" data-name="Grupo 10744">
        <path id="Trazado_20373" data-name="Trazado 20373" d="M608,618h-4V582a6.006,6.006,0,0,1,6-6h2a6.006,6.006,0,0,1,6,6v4h-4v-4a2,2,0,0,0-2-2h-2a2,2,0,0,0-2,2Z" fill="#2d2d2e"/>
      </g>
      <g id="Grupo_10745" data-name="Grupo 10745">
        <rect id="Rectángulo_2273" data-name="Rectángulo 2273" width="4" height="24" transform="translate(680 680)" fill="#2d2d2e"/>
      </g>
      <g id="Grupo_10746" data-name="Grupo 10746">
        <rect id="Rectángulo_2274" data-name="Rectángulo 2274" width="4" height="22" transform="translate(642 682)" fill="#2d2d2e"/>
      </g>
      <g id="Grupo_10747" data-name="Grupo 10747">
        <path id="Trazado_20374" data-name="Trazado 20374" d="M650,684h-2a10.011,10.011,0,0,1-10-10h4a6.006,6.006,0,0,0,6,6h2Z" fill="#2d2d2e"/>
      </g>
      <g id="Grupo_10748" data-name="Grupo 10748">
        <path id="Trazado_20375" data-name="Trazado 20375" d="M686,646h-4V586a2,2,0,0,0-2-2h-2a2,2,0,0,0-2,2h-4a6.006,6.006,0,0,1,6-6h2a6.006,6.006,0,0,1,6,6Z" fill="#2d2d2e"/>
      </g>
      <g id="Grupo_10749" data-name="Grupo 10749">
        <path id="Trazado_20376" data-name="Trazado 20376" d="M680.9,684H674v-4h5.1l15.091-16.978L700,641.732V626a2,2,0,0,0-2-2h-2a2,2,0,0,0-2,2v15.029l-14.838,10.6-2.324-3.256,13.162-9.4V626a6.006,6.006,0,0,1,6-6h2a6.006,6.006,0,0,1,6,6l-.07,16.526-6.123,22.453Z" fill="#2d2d2e"/>
      </g>
      <g id="Grupo_10750" data-name="Grupo 10750">
        <path id="Trazado_20377" data-name="Trazado 20377" d="M646,624h-4V590a6.006,6.006,0,0,1,6-6h2a6.006,6.006,0,0,1,6,6v28h-4V590a2,2,0,0,0-2-2h-2a2,2,0,0,0-2,2Z" fill="#2d2d2e"/>
      </g>
      <g id="Grupo_10751" data-name="Grupo 10751">
        <path id="Trazado_20378" data-name="Trazado 20378" d="M666,618h-4V586a2,2,0,0,0-2-2h-2a2,2,0,0,0-2,2v4h-4v-4a6.006,6.006,0,0,1,6-6h2a6.006,6.006,0,0,1,6,6Z" fill="#2d2d2e"/>
      </g>
      <g id="Grupo_10752" data-name="Grupo 10752">
        <path id="Trazado_20379" data-name="Trazado 20379" d="M640,678s36-24,36-46a18,18,0,0,0-18-18c-9.941,0-18,8-18,14,0-6-8.059-14-18-14a18,18,0,0,0-18,18C604,654,640,678,640,678Z" fill="#fed147"/>
      </g>
      <g id="Grupo_10753" data-name="Grupo 10753">
        <path id="Trazado_20380" data-name="Trazado 20380" d="M676,618h-4V582a2,2,0,0,0-2-2h-2a2,2,0,0,0-2,2v4h-4v-4a6.006,6.006,0,0,1,6-6h2a6.006,6.006,0,0,1,6,6Z" fill="#2d2d2e"/>
      </g>
      <g id="Grupo_10754" data-name="Grupo 10754">
        <rect id="Rectángulo_2275" data-name="Rectángulo 2275" width="4" height="4" transform="translate(638 640)" fill="#2d2d2e"/>
      </g>
      <g id="Grupo_10755" data-name="Grupo 10755">
        <rect id="Rectángulo_2276" data-name="Rectángulo 2276" width="4" height="4" transform="translate(630 640)" fill="#2d2d2e"/>
      </g>
      <g id="Grupo_10756" data-name="Grupo 10756">
        <rect id="Rectángulo_2277" data-name="Rectángulo 2277" width="4" height="4" transform="translate(646 640)" fill="#2d2d2e"/>
      </g>
    </g>
    <g id="Grupo_10777" data-name="Grupo 10777" transform="translate(1120 2249)">
      <g id="Grupo_10759" data-name="Grupo 10759">
        <g id="Grupo_10758" data-name="Grupo 10758">
          <path id="Trazado_20381" data-name="Trazado 20381" d="M128,440c-25.364,0-46-24.225-46-54h4c0,27.57,18.841,50,42,50s42-22.43,42-50h4C174,415.775,153.364,440,128,440Z" fill="#a8a7a5"/>
        </g>
      </g>
      <g id="Grupo_10760" data-name="Grupo 10760">
        <path id="Trazado_20382" data-name="Trazado 20382" d="M156,362l-10-14s-2-4-6-4H116c-4,0-6,4-6,4l-8,14-18,4v10l22-4,10-12v32h24V360l12,12,20,4V366Z" fill="#fed147"/>
      </g>
      <g id="Grupo_10761" data-name="Grupo 10761">
        <rect id="Rectángulo_2278" data-name="Rectángulo 2278" width="24" height="52" transform="translate(116 392)" fill="#595857"/>
      </g>
      <g id="Grupo_10762" data-name="Grupo 10762">
        <rect id="Rectángulo_2279" data-name="Rectángulo 2279" width="4" height="44" transform="translate(126 402)" fill="#2d2d2e"/>
      </g>
      <g id="Grupo_10763" data-name="Grupo 10763">
        <rect id="Rectángulo_2280" data-name="Rectángulo 2280" width="4" height="4" transform="translate(126 352)" fill="#2d2d2e"/>
      </g>
      <g id="Grupo_10764" data-name="Grupo 10764">
        <rect id="Rectángulo_2281" data-name="Rectángulo 2281" width="24" height="4" transform="translate(116 390)" fill="#2d2d2e"/>
      </g>
      <g id="Grupo_10765" data-name="Grupo 10765">
        <rect id="Rectángulo_2282" data-name="Rectángulo 2282" width="4" height="38" transform="translate(114 356)" fill="#2d2d2e"/>
      </g>
      <g id="Grupo_10766" data-name="Grupo 10766">
        <rect id="Rectángulo_2283" data-name="Rectángulo 2283" width="4" height="38" transform="translate(138 356)" fill="#2d2d2e"/>
      </g>
      <g id="Grupo_10767" data-name="Grupo 10767">
        <circle id="Elipse_572" data-name="Elipse 572" cx="8" cy="8" r="8" transform="translate(120 322)" fill="#fff"/>
      </g>
      <g id="Grupo_10768" data-name="Grupo 10768">
        <path id="Trazado_20383" data-name="Trazado 20383" d="M128,340a10,10,0,1,1,10-10A10.011,10.011,0,0,1,128,340Zm0-16a6,6,0,1,0,6,6A6.006,6.006,0,0,0,128,324Z" fill="#2d2d2e"/>
      </g>
      <g id="Grupo_10769" data-name="Grupo 10769">
        <rect id="Rectángulo_2284" data-name="Rectángulo 2284" width="48" height="4" transform="translate(144 444)" fill="#2d2d2e"/>
      </g>
      <g id="Grupo_10770" data-name="Grupo 10770">
        <rect id="Rectángulo_2285" data-name="Rectángulo 2285" width="76" height="4" transform="translate(64 444)" fill="#2d2d2e"/>
      </g>
      <g id="Grupo_10772" data-name="Grupo 10772">
        <g id="Grupo_10771" data-name="Grupo 10771">
          <path id="Trazado_20384" data-name="Trazado 20384" d="M84,388a2,2,0,0,1-2-2v-4a2,2,0,0,1,4,0v4A2,2,0,0,1,84,388Z" fill="#a8a7a5"/>
        </g>
      </g>
      <g id="Grupo_10774" data-name="Grupo 10774">
        <g id="Grupo_10773" data-name="Grupo 10773">
          <path id="Trazado_20385" data-name="Trazado 20385" d="M172,388a2,2,0,0,1-2-2v-4a2,2,0,0,1,4,0v4A2,2,0,0,1,172,388Z" fill="#a8a7a5"/>
        </g>
      </g>
      <g id="Grupo_10775" data-name="Grupo 10775">
        <path id="Trazado_20386" data-name="Trazado 20386" d="M84,376a2,2,0,0,1-2-2v-6a2,2,0,0,1,4,0v6A2,2,0,0,1,84,376Z" fill="#2d2d2e"/>
      </g>
      <g id="Grupo_10776" data-name="Grupo 10776">
        <path id="Trazado_20387" data-name="Trazado 20387" d="M172,376a2,2,0,0,1-2-2v-6a2,2,0,0,1,4,0v6A2,2,0,0,1,172,376Z" fill="#2d2d2e"/>
      </g>
    </g>
    <g id="Grupo_10801" data-name="Grupo 10801" transform="translate(832 2783)">
      <g id="Grupo_10778" data-name="Grupo 10778">
        <rect id="Rectángulo_2286" data-name="Rectángulo 2286" width="4" height="124" transform="translate(167 68)" fill="#595857"/>
      </g>
      <g id="Grupo_10779" data-name="Grupo 10779">
        <path id="Trazado_20388" data-name="Trazado 20388" d="M175,192h-4V68h-4V192h-4V64h12Z" fill="#2d2d2e"/>
      </g>
      <g id="Grupo_10780" data-name="Grupo 10780">
        <path id="Trazado_20389" data-name="Trazado 20389" d="M163,116H89l16-24L89,68h74Z" fill="#fed147"/>
      </g>
      <g id="Grupo_10797" data-name="Grupo 10797">
        <g id="Grupo_10781" data-name="Grupo 10781">
          <path id="Trazado_20390" data-name="Trazado 20390" d="M175,162a6,6,0,0,0,0-12H159a6,6,0,0,0,0,12Z" fill="#e8e6e4"/>
        </g>
        <g id="Grupo_10782" data-name="Grupo 10782">
          <path id="Trazado_20391" data-name="Trazado 20391" d="M175,150a6,6,0,0,0,0-12H159a6,6,0,0,0,0,12Z" fill="#e8e6e4"/>
        </g>
        <g id="Grupo_10783" data-name="Grupo 10783">
          <path id="Trazado_20392" data-name="Trazado 20392" d="M175,186a6,6,0,0,0,0-12H159a6,6,0,0,0,0,12Z" fill="#e8e6e4"/>
        </g>
        <g id="Grupo_10784" data-name="Grupo 10784">
          <path id="Trazado_20393" data-name="Trazado 20393" d="M175,174a6,6,0,0,0,0-12H159a6,6,0,0,0,0,12Z" fill="#e8e6e4"/>
        </g>
        <g id="Grupo_10785" data-name="Grupo 10785">
          <path id="Trazado_20394" data-name="Trazado 20394" d="M157,130H135l-16,16H73v38h46.519l3.259,2H155V149.462c1.261,2.336,3.186,4.538,6,4.538a4,4,0,0,0,4-4V138A8,8,0,0,0,157,130Z" fill="#f7f7f7"/>
        </g>
        <g id="Grupo_10786" data-name="Grupo 10786">
          <path id="Trazado_20395" data-name="Trazado 20395" d="M149,188H122.527l-4-2H73v-4h46.473l4,2H149Z" fill="#2d2d2e"/>
        </g>
        <g id="Grupo_10787" data-name="Grupo 10787">
          <path id="Trazado_20396" data-name="Trazado 20396" d="M175,164v-4a4,4,0,0,0,0-8v-4a8,8,0,0,1,0,16Z" fill="#2d2d2e"/>
        </g>
        <g id="Grupo_10788" data-name="Grupo 10788">
          <path id="Trazado_20397" data-name="Trazado 20397" d="M175,152H165v-4h10a4,4,0,0,0,0-8H165v-4h10a8,8,0,0,1,0,16Z" fill="#2d2d2e"/>
        </g>
        <g id="Grupo_10789" data-name="Grupo 10789">
          <path id="Trazado_20398" data-name="Trazado 20398" d="M159,164a8,8,0,0,1-4.455-14.645l2.23,3.321A4,4,0,0,0,159,160Z" fill="#2d2d2e"/>
        </g>
        <g id="Grupo_10790" data-name="Grupo 10790">
          <path id="Trazado_20399" data-name="Trazado 20399" d="M175,176v-4a4,4,0,0,0,0-8H159a4,4,0,0,0,0,8v4a8,8,0,0,1,0-16h16a8,8,0,0,1,0,16Z" fill="#2d2d2e"/>
        </g>
        <g id="Grupo_10791" data-name="Grupo 10791">
          <path id="Trazado_20400" data-name="Trazado 20400" d="M175,188H159a8,8,0,0,1,0-16h16a8,8,0,0,1,0,16Zm-16-12a4,4,0,0,0,0,8h16a4,4,0,0,0,0-8Z" fill="#2d2d2e"/>
        </g>
        <g id="Grupo_10792" data-name="Grupo 10792">
          <rect id="Rectángulo_2287" data-name="Rectángulo 2287" width="4" height="6" transform="translate(117 146)" fill="#2d2d2e"/>
        </g>
        <g id="Grupo_10793" data-name="Grupo 10793">
          <path id="Trazado_20401" data-name="Trazado 20401" d="M129,168v-4a14.016,14.016,0,0,0,14-14h4A18.02,18.02,0,0,1,129,168Z" fill="#2d2d2e"/>
        </g>
        <g id="Grupo_10794" data-name="Grupo 10794">
          <path id="Trazado_20402" data-name="Trazado 20402" d="M161,156c-5.9,0-8.607-6.8-9.551-10H143v-4h11.635l.326,1.6c.441,2.178,2.5,8.4,6.039,8.4a2,2,0,0,0,2-2V138a6.006,6.006,0,0,0-6-6H135.828l-16,16H73v-4h45.172l16-16H157a10.011,10.011,0,0,1,10,10v12A6.006,6.006,0,0,1,161,156Z" fill="#2d2d2e"/>
        </g>
        <g id="Grupo_10795" data-name="Grupo 10795">
          <rect id="Rectángulo_2288" data-name="Rectángulo 2288" width="4" height="6" transform="translate(151 138)" fill="#2d2d2e"/>
        </g>
        <g id="Grupo_10796" data-name="Grupo 10796">
          <rect id="Rectángulo_2289" data-name="Rectángulo 2289" width="4" height="6" transform="translate(117 178)" fill="#2d2d2e"/>
        </g>
      </g>
      <g id="Grupo_10798" data-name="Grupo 10798">
        <rect id="Rectángulo_2290" data-name="Rectángulo 2290" width="4" height="4" transform="translate(151 90)" fill="#2d2d2e"/>
      </g>
      <g id="Grupo_10799" data-name="Grupo 10799">
        <rect id="Rectángulo_2291" data-name="Rectángulo 2291" width="4" height="4" transform="translate(151 82)" fill="#2d2d2e"/>
      </g>
      <g id="Grupo_10800" data-name="Grupo 10800">
        <rect id="Rectángulo_2292" data-name="Rectángulo 2292" width="4" height="4" transform="translate(151 98)" fill="#2d2d2e"/>
      </g>
    </g>
  </g>
</svg>
