<svg xmlns="http://www.w3.org/2000/svg" xmlns:xlink="http://www.w3.org/1999/xlink" width="473.304" height="319.32" viewBox="0 0 473.304 319.32">
  <defs>
    <linearGradient id="linear-gradient" y1="0.5" x2="1" y2="0.5" gradientUnits="objectBoundingBox">
      <stop offset="0" stop-color="#bfe3ee"/>
      <stop offset="1" stop-color="#dfefea"/>
    </linearGradient>
    <linearGradient id="linear-gradient-2" x1="-0.637" y1="0.084" x2="0.373" y2="0.084" xlink:href="#linear-gradient"/>
    <linearGradient id="linear-gradient-3" x1="17.71" y1="0.5" x2="18.71" y2="0.5" gradientUnits="objectBoundingBox">
      <stop offset="0" stop-color="#dfefea"/>
      <stop offset="1" stop-color="#bfe3ee"/>
    </linearGradient>
  </defs>
  <g id="Grupo_10955" data-name="Grupo 10955" transform="translate(-306.707 -236.738)">
    <g id="Grupo_10874" data-name="Grupo 10874" transform="translate(581.268 290.016)">
      <path id="Trazado_20567" data-name="Trazado 20567" d="M2105.917,733.422l-23.248,4.5c-1.037-24.026,12.315-42.356,19.01-52.573,9.666-14.751,33.681-22.442,37.708-31.01s5.267-22.365,2.375-41.183,14.461-33.231,30.92-31.694,34.077,17.573,31.729,45.242-39.036,36.391-49.4,53.579,1.492,28-2.841,53.015c-3.046,17.587-22.916,27.971-39.687,34.085Z" transform="translate(-2082.612 -581.347)" fill="#00666b"/>
      <path id="Trazado_20568" data-name="Trazado 20568" d="M2257.471,766.363c10.545-14.585,14.345-28.019,18.287-41.969,2.74-9.7,5.574-19.725,10.882-30.226,7.968-15.763,15.146-24.226,21.479-31.693,6.878-8.11,12.819-15.114,18.3-29.241,3.4-8.776,3.941-22.514,3.357-35.723.389.166.775.346,1.161.528.526,13.252-.08,26.929-3.446,35.61-5.548,14.307-11.546,21.379-18.492,29.569-6.292,7.418-13.423,15.826-21.33,31.468-5.258,10.4-8.076,20.375-10.8,30.02-4.054,14.347-7.958,28.153-19.093,43.209Z" transform="translate(-2230.437 -595.012)" fill="#01888b"/>
    </g>
    <path id="Trazado_20569" data-name="Trazado 20569" d="M2832.44,472.426s3.768,2.531,4.52,10.306-5.134,12.73-5.134,12.73-5.611-5.085-5.125-11.989C2827.278,475.271,2832.44,472.426,2832.44,472.426Z" transform="translate(-2130.369 -199.25)" fill="#00666b"/>
    <path id="Trazado_20570" data-name="Trazado 20570" d="M2256.729,1164.26a182.762,182.762,0,0,1,25.708,7.009c10.506-19.85,30.077-67.415-4.912-96.076-9.39-7.691-25.042-1.775-30.893,12.254C2232.362,1121.661,2247.947,1151.412,2256.729,1164.26Z" transform="translate(-1635.122 -705.956)" fill="#afd8c8"/>
    <g id="Grupo_10875" data-name="Grupo 10875" transform="translate(434.385 279.558)">
      <path id="Trazado_20571" data-name="Trazado 20571" d="M1162.594,610.721c28.364,29.69,41.416,50.173,47.18,61.177a198.3,198.3,0,0,1,20.171-9.068c1.222-32.361.687-109.254-29.818-135.066-18.01-15.239-33.308-15.945-44.844-12.083-21.207,7.1-29.637,36.559-16.361,62.681C1143.85,588.063,1151.365,598.968,1162.594,610.721Z" transform="translate(-1132.548 -513.704)" fill="url(#linear-gradient)"/>
    </g>
    <g id="Grupo_10876" data-name="Grupo 10876" transform="translate(568.186 321.555)">
      <path id="Trazado_20572" data-name="Trazado 20572" d="M2006.6,843.81c-1.2,32.082-5.578,50.561-8.61,59.789a155.066,155.066,0,0,1,16.074,6.373c18.815-16.944,61.65-59.132,59.509-90.3-1.264-18.4-9.2-27.367-17.653-31.733-15.535-8.026-36.65,3.294-44.069,24.97C2009.1,820.954,2007.08,831.109,2006.6,843.81Z" transform="translate(-1997.995 -785.352)" fill="url(#linear-gradient-2)"/>
    </g>
    <g id="Grupo_10878" data-name="Grupo 10878" transform="translate(633.775 271.871)">
      <g id="Grupo_10877" data-name="Grupo 10877" transform="translate(0 0)">
        <path id="Trazado_20573" data-name="Trazado 20573" d="M2488.519,659.924c15.586-24.066-1.638-50.273,11.5-65.43s30.016-12.65,37.364-23.747-12.055-36.058,6.56-51.574,34.012-29.853,12.186-50.836c-10.507-10.1-23.031-.922-27.735,10.118-5.069,11.894-2.044,26.295-6.119,31.127-7.858,9.317-20.952,2.082-34.527,15.42s-11.069,31.387-18.116,42.907-31.908,12.874-42.715,43.052.479,84.519.479,84.519S2468.448,690.917,2488.519,659.924Z" transform="translate(-2422.234 -463.982)" fill="#add7c5"/>
        <path id="Trazado_20574" data-name="Trazado 20574" d="M2455.652,708.039c28.076-23.459,29.578-43.1,30.9-60.435,1.164-15.234,2.17-28.391,20.529-41.2,16.057-11.2,19.531-21.457,23.209-32.314,4-11.817,8.142-24.037,27.894-39.932,14.248-11.466,18.314-26.625,19.215-37.322a66.741,66.741,0,0,0,.219-6.8q-.524-.459-1.052-.859a66.13,66.13,0,0,1-.2,7.574c-.885,10.5-4.87,25.368-18.833,36.605-19.986,16.084-24.363,29-28.225,40.4-3.622,10.692-7.042,20.791-22.821,31.8-18.76,13.088-19.783,26.47-20.968,41.966-1.309,17.128-2.793,36.542-30.534,59.721q-3.261,2.724-6.474,4.929c.067.389.132.765.195,1.117Q2452.157,710.953,2455.652,708.039Z" transform="translate(-2444.454 -485.281)" fill="#64c0c2"/>
      </g>
      <path id="Trazado_20575" data-name="Trazado 20575" d="M3234.8,877.09s.719,5.206-5.419,11.843-14.96,5.365-14.96,5.365.066-8.766,6.406-13.662C3228.363,874.819,3234.8,877.09,3234.8,877.09Z" transform="translate(-3091.948 -812.853)" fill="#1a898f"/>
    </g>
    <g id="Grupo_10881" data-name="Grupo 10881" transform="translate(306.707 236.738)">
      <g id="Grupo_10879" data-name="Grupo 10879" transform="translate(0 120.44)">
        <path id="Trazado_20576" data-name="Trazado 20576" d="M405.77,1130.242h19.7c-2.95-19.792-16.754-32.656-23.838-39.944-10.228-10.523-31.062-13.01-35.706-19.374s-7.837-17.438-8.448-33.268-17.065-24.862-30.268-21.005-25.061,19.741-18.771,41.974,37.64,23.559,48.821,35.964,3.206,23.108,10.7,42.86c5.268,13.886,23.141,19.229,37.808,21.573Z" transform="translate(-306.707 -1015.764)" fill="#fcd14a"/>
        <path id="Trazado_20577" data-name="Trazado 20577" d="M473.837,1170.1c-10.92-10.248-16.147-20.623-21.572-31.4-3.771-7.489-7.67-15.233-13.666-22.973a120.832,120.832,0,0,0-22.556-22.5c-6.9-5.538-12.861-10.321-19.568-21-4.167-6.632-6.778-17.769-8.388-28.652-.292.2-.579.405-.865.615,1.664,10.909,4.321,21.986,8.443,28.546,6.793,10.811,12.811,15.641,19.78,21.233a120.008,120.008,0,0,1,22.4,22.336c5.939,7.667,9.818,15.369,13.568,22.817,5.579,11.08,10.95,21.741,22.426,32.281Z" transform="translate(-374.774 -1039.283)" fill="#f6a40d"/>
      </g>
      <g id="Grupo_10880" data-name="Grupo 10880" transform="translate(65.753 0)">
        <path id="Trazado_20578" data-name="Trazado 20578" d="M765.315,471.656h72.237c3.378-11.71,5.6-23.612,5.2-34-1.4-36.433-27.909-46.4-31.613-61.311s5.187-33.629-4.978-52.741-26.844-15.742-32.182-28.536c-2.768-6.635,5.438-21.223,4.007-35.859-1.328-13.585-11.775-27.826-26.627-20.462-30.853,15.3-19.054,36.116-4.167,59.314s-14.7,43.64-10.522,58.191,23.344,17.6,32.411,38.539-18.581,43.474-9.9,74.911a75.287,75.287,0,0,0,6.138,15.334Z" transform="translate(-732.005 -236.738)" fill="#64c0c2"/>
        <path id="Trazado_20579" data-name="Trazado 20579" d="M877.583,401.379c15.535,20.173,12.127,34.789,8.18,51.713-2.123,9.1-4.378,18.777-3.8,30.151h1.192c-.589-11.279,1.647-20.867,3.75-29.885,4.015-17.215,7.482-32.083-8.393-52.7-13.352-17.338-13.609-29.463-13.881-42.3-.291-13.688-.62-29.2-16.8-53.484-11.3-16.966-10.542-34.461-7.912-46.151a75.344,75.344,0,0,1,2.379-8.283q-.71.252-1.435.572a75.891,75.891,0,0,0-2.089,7.453c-2.681,11.913-3.455,29.748,8.08,47.059,15.99,24,16.3,38.67,16.6,52.858C863.734,371.423,863.995,383.736,877.583,401.379Z" transform="translate(-820.857 -248.326)" fill="#add7c5"/>
      </g>
      <path id="Trazado_20580" data-name="Trazado 20580" d="M657.784,650.082s-2.561,5.4,1.828,14.7,14.394,10.937,14.394,10.937,2.926-9.532-2.277-17.012C665.547,649.82,657.784,650.082,657.784,650.082Z" transform="translate(-602.878 -586.177)" fill="#1a898f"/>
      <path id="Trazado_20581" data-name="Trazado 20581" d="M383.561,1488.556s-2.534-2.8-9.025-2.493-9.871,5.745-9.871,5.745,4.857,4.014,10.484,2.791C381.834,1493.146,383.561,1488.556,383.561,1488.556Z" transform="translate(-355.705 -1292.892)" fill="#f9ba49"/>
    </g>
    <g id="Grupo_10890" data-name="Grupo 10890" transform="translate(530.153 311.045)">
      <g id="Grupo_10887" data-name="Grupo 10887">
        <path id="Trazado_20582" data-name="Trazado 20582" d="M2534.064,966.145l1.787-1.555-1.877-2.9-3.171,2.9Z" transform="translate(-2410.396 -923.917)" fill="#f7b58e"/>
        <g id="Grupo_10882" data-name="Grupo 10882" transform="translate(122.795 36.717)">
          <path id="Trazado_20583" data-name="Trazado 20583" d="M2553.715,962.686a6.543,6.543,0,0,1-3.5-1.013,10.639,10.639,0,0,1-2.929-.618,11.66,11.66,0,0,1-1.04.812c.109.67.268,1.709.268,1.709l3.842,2.345c1.323.6,3.549,1.151,4.806.624,0,0,2.188-1.486,4.16-2.551C2560.16,961.96,2555.774,962.857,2553.715,962.686Z" transform="translate(-2546.248 -960.097)" fill="#f7b58e"/>
          <path id="Trazado_20584" data-name="Trazado 20584" d="M2555.7,957.341a1.657,1.657,0,0,0,.229.247c-.273.11-.538.234-.8.365-1.078.029-2.156.091-3.234.132.067-.622.158-1.495.153-1.558l7.007-1.668s.567.738-.714,1.532A7.162,7.162,0,0,1,2555.7,957.341Z" transform="translate(-2551.024 -954.859)" fill="#f7b58e"/>
        </g>
        <path id="Trazado_20585" data-name="Trazado 20585" d="M1821.825,1052.925l-1.787-1.555,1.877-2.9,3.171,2.9Z" transform="translate(-1809.518 -997.281)" fill="#f7b58e"/>
        <g id="Grupo_10883" data-name="Grupo 10883" transform="translate(0 50.134)">
          <path id="Trazado_20586" data-name="Trazado 20586" d="M1757.707,1049.466a6.544,6.544,0,0,0,3.5-1.013,10.641,10.641,0,0,0,2.929-.618,11.671,11.671,0,0,0,1.04.812c-.109.67-.267,1.709-.267,1.709l-3.842,2.345c-1.323.6-3.549,1.151-4.806.624,0,0-2.188-1.486-4.16-2.551C1751.261,1048.74,1755.648,1049.638,1757.707,1049.466Z" transform="translate(-1751.993 -1046.877)" fill="#f7b58e"/>
          <path id="Trazado_20587" data-name="Trazado 20587" d="M1787.96,1044.122a1.659,1.659,0,0,1-.229.247c.274.11.537.234.8.365,1.079.029,2.156.092,3.234.132-.067-.622-.158-1.5-.153-1.558l-7.007-1.668s-.567.738.714,1.532A7.161,7.161,0,0,0,1787.96,1044.122Z" transform="translate(-1779.454 -1041.64)" fill="#f7b58e"/>
        </g>
        <g id="Grupo_10885" data-name="Grupo 10885" transform="translate(52.61)">
          <path id="Trazado_20588" data-name="Trazado 20588" d="M2141.137,826.615l-.736,7.244,7.762.307-1.555-11.229Z" transform="translate(-2132.962 -806.615)" fill="#f39f85"/>
          <g id="Grupo_10884" data-name="Grupo 10884" transform="translate(2.547 5.079)">
            <path id="Trazado_20589" data-name="Trazado 20589" d="M2112,766.461a3.9,3.9,0,0,1-2.175-.516c-2.6-3.783.362-13.979.362-13.979l4.157-1.75,5.282,3.294.3,6.833a5.545,5.545,0,0,1-2.358,4.713h0A10.823,10.823,0,0,1,2112,766.461Z" transform="translate(-2108.757 -750.216)" fill="#f7b58e"/>
          </g>
          <path id="Trazado_20590" data-name="Trazado 20590" d="M2104.868,729.612c-.29-1.148-.139-3.8-1.308-3.6-.853.14-3.774-.641-4.757-.641-2.343,0-6.519-.016-6.519-3.581,0-1.783,1.729-3.319,2.824-3.776a9.839,9.839,0,0,1,4.889-.493c2.58.9,4.476,2.08,5.865,2.167,6.417.4,3.432,8.954,2.408,10.944a10.954,10.954,0,0,1-2.34,3.061h0Z" transform="translate(-2092.284 -717.367)" fill="#212b53"/>
          <path id="Trazado_20591" data-name="Trazado 20591" d="M2173.762,796.622a1.763,1.763,0,0,0-2.183.195c-.683.569-.814,1.4-.292,1.865a1.763,1.763,0,0,0,2.183-.195C2174.154,797.918,2174.285,797.083,2173.762,796.622Z" transform="translate(-2158.803 -784.119)" fill="#f7b58e"/>
        </g>
        <path id="Trazado_20592" data-name="Trazado 20592" d="M2078.174,929.195h27.18l-.461-25.51s2.524,15.474,17.281,16.383,26.6-25.927,26.6-25.927l-3.106-3.6s-13.786,16.984-19.417,16.136-9.668-18.691-21.358-25.7a30.27,30.27,0,0,0-12.382-4.471,16.829,16.829,0,0,0-18.459,16.157C2073.418,909.209,2078.174,929.195,2078.174,929.195Z" transform="translate(-2024.211 -851.825)" fill="#63c0c4"/>
        <path id="Trazado_20593" data-name="Trazado 20593" d="M1865.651,938.079s-6.241,15.8-16.259,22.214c-8.076,5.174-20.387-3.495-20.387-3.495l-3.5,3.107s13.009,14.951,24.659,13.009,14.511-6.8,14.511-6.8Z" transform="translate(-1814.144 -903.956)" fill="#63c0c4"/>
        <g id="Grupo_10886" data-name="Grupo 10886" transform="translate(49.829 46.578)">
          <path id="Trazado_20594" data-name="Trazado 20594" d="M2078.342,1049.5c-.215-.909-5.263-22.351-3.768-30.858l.574.1c-1.475,8.388,3.708,30.4,3.76,30.623Z" transform="translate(-2074.298 -1018.644)" fill="#fffdff"/>
        </g>
        <path id="Trazado_20595" data-name="Trazado 20595" d="M2136.368,864.939l1.189-3.016,6.355-1.375,2.127,2.64Z" transform="translate(-2076.943 -838.412)" fill="#01888b"/>
      </g>
      <g id="Grupo_10888" data-name="Grupo 10888" transform="translate(12.752 187.875)">
        <path id="Trazado_20596" data-name="Trazado 20596" d="M1845.476,1956.6s-2.545,2.36-8.346,3.838c-1.277.325-2.654-.109-2.654,2h7.04l5.855-1.013v1.013h3.163s.881-5.172-.966-5.835Z" transform="translate(-1834.476 -1952.888)" fill="#212b53"/>
        <path id="Trazado_20597" data-name="Trazado 20597" d="M1905.984,1932.573l-.356,3.715h0a3.577,3.577,0,0,0,3.875.13l.217-.13,1.314-3.715Z" transform="translate(-1894.628 -1932.573)" fill="#f7b58e"/>
      </g>
      <g id="Grupo_10889" data-name="Grupo 10889" transform="translate(81.875 187.875)">
        <path id="Trazado_20598" data-name="Trazado 20598" d="M2287.729,1956.6s2.545,2.36,8.346,3.838c1.277.325,2.654-.109,2.654,2h-7.04l-5.855-1.013v1.013h-3.163s-.881-5.172.967-5.835Z" transform="translate(-2282.324 -1952.888)" fill="#212b53"/>
        <path id="Trazado_20599" data-name="Trazado 20599" d="M2286.622,1932.573l.356,3.715h0a3.577,3.577,0,0,1-3.875.13l-.217-.13-1.313-3.715Z" transform="translate(-2281.573 -1932.573)" fill="#f7b58e"/>
      </g>
      <path id="Trazado_20600" data-name="Trazado 20600" d="M1954.865,1328.829l-14.237-92.107s-4.785,27.252-37.356,92.107h-7.028l31.351-112.369h27.822s8.513,21.426,6.127,112.369Z" transform="translate(-1873.942 -1139.298)" fill="#053c5e"/>
    </g>
    <g id="Grupo_10896" data-name="Grupo 10896" transform="translate(490.207 315.699)">
      <g id="Grupo_10892" data-name="Grupo 10892" transform="translate(19.544 0)">
        <path id="Trazado_20601" data-name="Trazado 20601" d="M1629.364,840.476l-1.56,7.4-7.778-2.148,5.087-10.62Z" transform="translate(-1620.026 -821.56)" fill="#f39f85"/>
        <g id="Grupo_10891" data-name="Grupo 10891" transform="translate(5.032 4.165)">
          <path id="Trazado_20602" data-name="Trazado 20602" d="M1658.822,791.228a4.047,4.047,0,0,0,2.315.176c3.769-2.921,4.058-13.946,4.058-13.946l-3.56-3.045L1655.367,776l-2.456,6.666a5.759,5.759,0,0,0,.845,5.409h0A11.238,11.238,0,0,0,1658.822,791.228Z" transform="translate(-1652.575 -774.413)" fill="#f7b58e"/>
        </g>
        <path id="Trazado_20603" data-name="Trazado 20603" d="M1646.244,757.324c.65-1.044,1.337-3.713,2.433-3.154.8.407,3.652,1.449,4.625,1.76,2.318.74,6.741,1.153,7.867-2.375.563-1.764-.662-3.831-1.6-4.629a4.934,4.934,0,0,0-3.339-1.113c-2.838.077-6.852.965-8.115.263-2.126-1.182-4.817-.573-5.4,1.367a20.265,20.265,0,0,0-.154,7.811,11.378,11.378,0,0,0,1.348,3.768h0Z" transform="translate(-1638.819 -747.473)" fill="#212b53"/>
        <path id="Trazado_20604" data-name="Trazado 20604" d="M1649.041,807.461a1.832,1.832,0,0,1,2.1.883c.5.779.362,1.646-.3,1.938a1.832,1.832,0,0,1-2.1-.883C1648.244,808.62,1648.378,807.753,1649.041,807.461Z" transform="translate(-1644.048 -798.106)" fill="#f7b58e"/>
      </g>
      <path id="Trazado_20605" data-name="Trazado 20605" d="M1545.414,892.962c-14.478-.81-15.7,12.068-16.92,26.063a263.967,263.967,0,0,0-.317,33.59h33.693s-.008-14.922-.36-29.844C1561.167,908.294,1560.724,893.818,1545.414,892.962Z" transform="translate(-1522.497 -870.438)" fill="#00666b"/>
      <path id="Trazado_20606" data-name="Trazado 20606" d="M1736.588,1218.024s3.308-2.284,4.537-1.739.261,2.844.261,2.844Z" transform="translate(-1699.024 -1143.733)" fill="#f39f85"/>
      <path id="Trazado_20607" data-name="Trazado 20607" d="M1753.9,1059.813c5.907-2.087,2.3-22.406,2.3-22.406l-3.491-.034S1747.99,1061.9,1753.9,1059.813Z" transform="translate(-1711.142 -992.553)" fill="#f39f85"/>
      <path id="Trazado_20608" data-name="Trazado 20608" d="M1707.316,930.979l-4.125,2.477s-17.4-28.154-8.8-20.74A50.426,50.426,0,0,1,1707.316,930.979Z" transform="translate(-1661.331 -886.117)" fill="#00666b"/>
      <g id="Grupo_10893" data-name="Grupo 10893" transform="translate(18.323 171.612)">
        <path id="Trazado_20609" data-name="Trazado 20609" d="M1619.321,1882.071s.017,4.034,8.12,6.456c1.662.5,1.122.989,1.434,1.688h-9.325l-3.651-4.1-1.135.975-2.633-2.586s1.229-3.744,3.234-3.776Z" transform="translate(-1612.131 -1877.131)" fill="#212b53"/>
        <path id="Trazado_20610" data-name="Trazado 20610" d="M1638.521,1858.935l-1.515,3.493h0a3.654,3.654,0,0,1-3.789-1.151l-.167-.2,1.224-3.592Z" transform="translate(-1629.816 -1857.488)" fill="#f7b58e"/>
      </g>
      <path id="Trazado_20611" data-name="Trazado 20611" d="M1499.8,924.2s5.526-25.706,18.588-25.11-5.678,26.957-5.678,26.957Z" transform="translate(-1498.84 -875.642)" fill="#00666b"/>
      <path id="Trazado_20612" data-name="Trazado 20612" d="M1705.183,960.189c8.187-6.613-7.9-41.17-7.9-41.17l-3.9.391S1693.689,965.234,1705.183,960.189Z" transform="translate(-1662.504 -892.497)" fill="#f7b58e"/>
      <path id="Trazado_20613" data-name="Trazado 20613" d="M1629.364,880.265l-.495-2.532-6.689-1.331-2.154,2.675Z" transform="translate(-1600.483 -856.469)" fill="#01888b"/>
      <path id="Trazado_20614" data-name="Trazado 20614" d="M1685.357,861.558l.5-6.589s-3.287-5.042-6.4-3.689c-.572,1.38.422,4.165.422,4.165l1.582,6.5Z" transform="translate(-1650.574 -835.037)" fill="#f7b58e"/>
      <path id="Trazado_20615" data-name="Trazado 20615" d="M1637.134,1279s4.694,29.442,3.591,43.061-16.028,49.2-16.028,49.2l-6.5-1.889s-.492-23.8,5.886-39.431a14.543,14.543,0,0,0,0-10.727,180.157,180.157,0,0,1-7.282-22.582l.5-17.634Z" transform="translate(-1597.762 -1196.827)" fill="#212b53"/>
      <g id="Grupo_10894" data-name="Grupo 10894" transform="translate(28.39 15.698)">
        <path id="Trazado_20616" data-name="Trazado 20616" d="M1683.231,859.557l.116-.012.468-6.217c-.437-.635-3.236-4.506-5.828-3.535a7.916,7.916,0,0,0,.482,3.851l.018.075a4.084,4.084,0,0,0-.693-.113c-.224-.691-.868-2.911-.346-4.173l.049-.117.117-.052c3.31-1.434,6.647,3.591,6.786,3.806l.059.09-.524,6.958-.386.039A4.246,4.246,0,0,0,1683.231,859.557Z" transform="translate(-1677.249 -849.007)" fill="#f39f85"/>
      </g>
      <g id="Grupo_10895" data-name="Grupo 10895" transform="translate(6.843 174.44)">
        <path id="Trazado_20617" data-name="Trazado 20617" d="M1543.9,1903.239s2.908,2.7,9.538,4.386c1.46.372,3.034-.125,3.034,2.283h-8.046l-6.692-1.157v1.157h-3.615s-1.006-5.911,1.1-6.67Z" transform="translate(-1537.875 -1898.993)" fill="#212b53"/>
        <path id="Trazado_20618" data-name="Trazado 20618" d="M1550.537,1875.777l.711,4.246h0a4.089,4.089,0,0,1-4.428.149l-.248-.149.36-4.246Z" transform="translate(-1545.227 -1875.777)" fill="#f7b58e"/>
      </g>
      <path id="Trazado_20619" data-name="Trazado 20619" d="M1548.1,1279l-15.631,93.523h-6.255s-5.387-25.194-1.226-45.539a30.718,30.718,0,0,0,.278-10.728c-3.962-26.27-.941-37.256-.941-37.256Z" transform="translate(-1518.641 -1196.827)" fill="#053c5e"/>
      <path id="Trazado_20620" data-name="Trazado 20620" d="M1507.481,1063.407l-1.574,10.673,25.8,12.861-2.813,2.795s-28.97-5.215-33.064-9.043-1.26-19.132-1.26-19.132Z" transform="translate(-1493.615 -1013.001)" fill="#f7b58e"/>
      <path id="Trazado_20621" data-name="Trazado 20621" d="M1711.619,1224.867l6.077,3.9c2.446,1.123,4.611-.633,6.373-3.111a2.287,2.287,0,0,0-1.908-3.617c-2.185.033-4.837.477-6.154.569Z" transform="translate(-1677.915 -1148.674)" fill="#f7b58e"/>
    </g>
    <g id="Grupo_10898" data-name="Grupo 10898" transform="translate(390.824 422.688)">
      <g id="Grupo_10897" data-name="Grupo 10897" transform="translate(0)">
        <path id="Trazado_20622" data-name="Trazado 20622" d="M1110.071,1451.728c6.951-8.788,13.26-10.8,27.026-11.543s148.2-.365,158.426-.664,14.75,1.89,18.97,9.847,16.671,29.791,16.671,29.791l-243.518,2.472S1103.12,1460.515,1110.071,1451.728Z" transform="translate(-1051.025 -1439.495)" fill="#ffd147"/>
        <path id="Trazado_20623" data-name="Trazado 20623" d="M923.99,2031.12s-14.48,29.035-14.875,29.615-1.312,1.729-2.62,1.422-1.611-1.833-1.064-3.2l11.2-27.908Z" transform="translate(-896.763 -1939.595)" fill="#053c5e"/>
        <path id="Trazado_20624" data-name="Trazado 20624" d="M2633.768,2037.287l7.7,29.341s.639,2.6,2.869,2.412,1.759-3.436,1.759-3.436l-4.3-28.533Z" transform="translate(-2358.113 -1944.684)" fill="#053c5e"/>
        <path id="Trazado_20625" data-name="Trazado 20625" d="M860.8,1732.468s-11.569-7.656-9.831-29.544,13.625-25.06,13.625-25.06l286.109-.089s10.254,17.3,8.422,33.406-11.368,22.808-11.368,22.808Z" transform="translate(-850.786 -1640.935)" fill="#f6a505"/>
        <path id="Trazado_20626" data-name="Trazado 20626" d="M974.936,1568.3s-8.426-16.007-25.8-19.507-25.31,11.948-19.467,19.291C943.248,1568.891,974.936,1568.3,974.936,1568.3Z" transform="translate(-915.863 -1531.464)" fill="#ffd147"/>
        <path id="Trazado_20627" data-name="Trazado 20627" d="M2503.556,1576.568s13.746-22.126,34.652-18.979c15.69,2.362,12.971,18.55,9.736,20.221Z" transform="translate(-2248.032 -1539.071)" fill="#ffd147"/>
      </g>
    </g>
    <g id="Grupo_10905" data-name="Grupo 10905" transform="translate(627.513 358.655)">
      <g id="Grupo_10899" data-name="Grupo 10899" transform="translate(5.791 182.229)">
        <path id="Trazado_20628" data-name="Trazado 20628" d="M2425.731,2233.851s3.16,2.931,10.365,4.766c1.586.4,3.3-.136,3.3,2.481h-8.744l-7.272-1.258v1.258h-3.927s-1.094-6.423,1.2-7.247Z" transform="translate(-2419.189 -2229.237)" fill="#212b53"/>
        <path id="Trazado_20629" data-name="Trazado 20629" d="M2426.711,2204.007l.772,4.614h0a4.443,4.443,0,0,1-4.812.161l-.27-.161-1.14-4.614Z" transform="translate(-2420.942 -2204.007)" fill="#f7b58e"/>
      </g>
      <path id="Trazado_20630" data-name="Trazado 20630" d="M2382.8,1496.146s-4.79,20.262,5.865,47.5a26.162,26.162,0,0,1,1.127,15.312c-5.061,22.277-2.583,47.208-2.583,47.208l6.695-.057,25.063-96.916Z" transform="translate(-2381.729 -1423.354)" fill="#212b53"/>
      <g id="Grupo_10901" data-name="Grupo 10901" transform="translate(21.977 0)">
        <path id="Trazado_20631" data-name="Trazado 20631" d="M2533.38,1125.883l-2.744,7.98-6.757-4.514,4.092-9.441Z" transform="translate(-2523.879 -1105.284)" fill="#f39f85"/>
        <g id="Grupo_10900" data-name="Grupo 10900" transform="translate(4.091 2.947)">
          <path id="Trazado_20632" data-name="Trazado 20632" d="M2558.274,1063.243a4.477,4.477,0,0,0,2.564-.165c3.679-3.784,2.291-15.912,2.291-15.912l-4.373-2.787-6.623,2.713-1.661,7.686a6.375,6.375,0,0,0,1.762,5.8h0A12.444,12.444,0,0,0,2558.274,1063.243Z" transform="translate(-2550.337 -1044.379)" fill="#f7b58e"/>
        </g>
        <path id="Trazado_20633" data-name="Trazado 20633" d="M2540.808,1033.5a2.626,2.626,0,0,1,3.248-1.433,20.921,20.921,0,0,0,3.186.846c2.655.453,6.128-.024,6.817-4.065s-4.511-3.5-4.511-3.5-6.948-.193-11.4,2.094c-2.132,1.094-3.25,6.13-2.474,8.584a12.6,12.6,0,0,0,2.06,3.922h0Z" transform="translate(-2533.639 -1025.318)" fill="#212b53"/>
        <path id="Trazado_20634" data-name="Trazado 20634" d="M2542.647,1089.214a2.027,2.027,0,0,1,2.436.643c.665.777.651,1.748-.029,2.17a2.028,2.028,0,0,1-2.436-.643C2541.953,1090.607,2541.966,1089.635,2542.647,1089.214Z" transform="translate(-2539.306 -1079.171)" fill="#f7b58e"/>
      </g>
      <path id="Trazado_20635" data-name="Trazado 20635" d="M2410.043,1174.729c20.862,7.87,12.11,56.566,12.11,56.566l-37.818.842S2379.526,1171.479,2410.043,1174.729Z" transform="translate(-2383.699 -1151.523)" fill="#01888b"/>
      <path id="Trazado_20636" data-name="Trazado 20636" d="M2427.116,1261.531s8.851,30.95,16.956,31.139,28.483-30.086,28.483-30.086l-4.928-3.044-16.875,14.645c-2.99-9.169-7.267-21.847-7.267-21.847Z" transform="translate(-2420.099 -1217.24)" fill="#01888b"/>
      <g id="Grupo_10902" data-name="Grupo 10902" transform="translate(8.271 36.778)">
        <path id="Trazado_20637" data-name="Trazado 20637" d="M2559.536,1269.026,2541.994,1284l-.17-.522c-2.224-6.818-5.189-15.666-6.54-19.686.182-.137.359-.281.544-.415l-.555.383-.021-.063c.2-.164.4-.332.6-.5,1.255,3.733,4.219,12.571,6.494,19.532l16.7-14.01Z" transform="translate(-2519.787 -1263.201)" fill="#fff"/>
        <path id="Trazado_20638" data-name="Trazado 20638" d="M2435.915,1343.982c2.892,8.728,9.243,25.664,15.022,25.8,5.55.114,16.957-14.938,23.377-23.729.238.31.241.233.486.529-6.337,8.672-17.281,23.128-23.3,23.9a3.857,3.857,0,0,1-.577.032c-6.272-.146-12.759-17.362-15.695-26.255Q2435.573,1344.125,2435.915,1343.982Z" transform="translate(-2435.225 -1331.493)" fill="#fff"/>
      </g>
      <path id="Trazado_20639" data-name="Trazado 20639" d="M2526.969,1161.9l-7.072-2.719-2.456,2.628,10.119,2.765Z" transform="translate(-2496.459 -1138.483)" fill="url(#linear-gradient-3)"/>
      <g id="Grupo_10903" data-name="Grupo 10903" transform="translate(30.524 182.229)">
        <path id="Trazado_20640" data-name="Trazado 20640" d="M2585.707,2233.851s3.16,2.931,10.365,4.766c1.586.4,3.3-.136,3.3,2.481h-8.744l-7.272-1.258v1.258h-3.928s-1.094-6.423,1.2-7.247Z" transform="translate(-2579.165 -2229.237)" fill="#212b53"/>
        <path id="Trazado_20641" data-name="Trazado 20641" d="M2586.688,2204.007l.772,4.614h0a4.443,4.443,0,0,1-4.812.161l-.27-.161-1.14-4.614Z" transform="translate(-2580.917 -2204.007)" fill="#f7b58e"/>
      </g>
      <path id="Trazado_20642" data-name="Trazado 20642" d="M2383.394,1530.168s0,20.82,16.635,44.872a26.159,26.159,0,0,1,4.619,14.641c.2,22.844,8.007,44.941,8.007,44.941h6.843l2.092-102.734Z" transform="translate(-2383.137 -1452.116)" fill="#053c5e"/>
      <g id="Grupo_10904" data-name="Grupo 10904" transform="translate(49.927 24.377)">
        <rect id="Rectángulo_2296" data-name="Rectángulo 2296" width="18.585" height="1.458" transform="translate(0 16.236) rotate(-60.885)" fill="#01888b"/>
      </g>
      <path id="Trazado_20643" data-name="Trazado 20643" d="M2696.236,1233.055l2.677-2.176a13.045,13.045,0,0,0,3.159-8.563l-.118-4.524h0c-.928.477-1.5,2.081-1.964,3.016l-3.37,5.609-4.3,4.221Z" transform="translate(-2644.304 -1188.035)" fill="#f7b58e"/>
      <path id="Trazado_20644" data-name="Trazado 20644" d="M2705.595,1237.125c-.556-.488-3.023,2.217-3.165,1.1,0,0,.6-4.732,1.628-5.945s1.585-4.243,1.585-4.243,1.076,0,1.017,1.7c-.029.845-.653,2.048-.725,3.308C2705.862,1234.324,2706.335,1235.662,2705.595,1237.125Z" transform="translate(-2652.849 -1196.7)" fill="#f7b58e"/>
    </g>
    <g id="Grupo_10922" data-name="Grupo 10922" transform="translate(693.6 352.497)">
      <path id="Trazado_20645" data-name="Trazado 20645" d="M2993.245,2037.271l-4.56,32.107-7.091-2.286,1.225-13.354Z" transform="translate(-2954.939 -1874.661)" fill="#f39f85"/>
      <path id="Trazado_20646" data-name="Trazado 20646" d="M2917.961,2232.928l-.331-5.7.7-3.1-8.335-1.367-1.3,3.538-8.486,3.483s-2.5,1.234-2.544,3.138h13.3l2.957-1.487-.037,1.487Z" transform="translate(-2883.983 -2031.48)" fill="#62c0c3"/>
      <g id="Grupo_10906" data-name="Grupo 10906" transform="translate(13.678 200.382)">
        <path id="Trazado_20647" data-name="Trazado 20647" d="M2910.958,2282.652h-13.3a2.436,2.436,0,0,1,.288-1.066l14.951.09Z" transform="translate(-2897.661 -2281.586)" fill="#11858a"/>
        <path id="Trazado_20648" data-name="Trazado 20648" d="M3002.586,2282.206l4,.024.055.946h-4.082Z" transform="translate(-2986.344 -2282.11)" fill="#11858a"/>
      </g>
      <path id="Trazado_20649" data-name="Trazado 20649" d="M3184.3,2079.5l2.542,18.972,7.091,2.286-2.473-26.369Z" transform="translate(-3126.305 -1906.041)" fill="#f39f85"/>
      <path id="Trazado_20650" data-name="Trazado 20650" d="M3146.574,2232.928l-1.212-10.159h-8.218l.16,3.538-8.485,3.483s-2.5,1.234-2.545,3.138h13.3l2.958-1.487-.037,1.487Z" transform="translate(-3077.252 -2031.48)" fill="#62c0c3"/>
      <g id="Grupo_10907" data-name="Grupo 10907" transform="translate(49.022 200.382)">
        <path id="Trazado_20651" data-name="Trazado 20651" d="M3139.571,2282.652h-13.3a2.44,2.44,0,0,1,.288-1.066l14.951.09Z" transform="translate(-3126.274 -2281.586)" fill="#11858a"/>
        <path id="Trazado_20652" data-name="Trazado 20652" d="M3231.2,2282.206l4,.024.055.946h-4.082Z" transform="translate(-3214.957 -2282.11)" fill="#11858a"/>
      </g>
      <path id="Trazado_20653" data-name="Trazado 20653" d="M2992.228,1447.948l-7.713,58.975L2982,1560.292h9.215s11.942-43.143,8.923-52.81c12.7-23.837,20.938-43.025,16.365-59.534Z" transform="translate(-2955.281 -1376.45)" fill="#222c53"/>
      <path id="Trazado_20654" data-name="Trazado 20654" d="M3071.535,1447.948l8.086,58.433,10.07,54.473h8.235s.105-42.63-3.3-55.609c.348-21.581,13.159-46.62-.446-57.3Z" transform="translate(-3030.976 -1376.45)" fill="#0c496d"/>
      <g id="Grupo_10921" data-name="Grupo 10921" transform="translate(0 0)">
        <g id="Grupo_10908" data-name="Grupo 10908" transform="translate(0 29.332)">
          <path id="Trazado_20655" data-name="Trazado 20655" d="M2819.367,1193.949l-4.346-4.933s-6.724-5.829-5.728-8.091,2.591-6.369,3.69-5.628,7.115,7.324,6.868,8.962l-.243,1.54,2.515,3.12Z" transform="translate(-2809.191 -1175.209)" fill="#f6b590"/>
        </g>
        <g id="Grupo_10909" data-name="Grupo 10909" transform="translate(5.973 29.669)">
          <path id="Trazado_20656" data-name="Trazado 20656" d="M2893.367,1178.25c5.323,3.862-6.183,23.08-18.211,32.752a7.785,7.785,0,0,1-10.07-.089c-8.076-7.228-17.26-17.247-17.26-17.247l5.756-5.122s13.333,11.319,16.191,13.88C2872.723,1195.869,2885.673,1172.667,2893.367,1178.25Z" transform="translate(-2847.825 -1177.391)" fill="#fdd148"/>
        </g>
        <g id="Grupo_10915" data-name="Grupo 10915" transform="translate(40.592)">
          <g id="Grupo_10910" data-name="Grupo 10910" transform="translate(6.646 18.361)">
            <path id="Trazado_20657" data-name="Trazado 20657" d="M3115.016,1112.123l-.281,6.416h7.63l.726-11.724-2.029-2.57Z" transform="translate(-3114.735 -1104.245)" fill="#f39f85"/>
          </g>
          <g id="Grupo_10911" data-name="Grupo 10911" transform="translate(1.994 8.722)">
            <path id="Trazado_20658" data-name="Trazado 20658" d="M3084.759,1048.223s-.843,12.393,2.02,12.9,7.8-2.7,9.708-6.139a46.4,46.4,0,0,0,3.2-7.685l-5.6-5.4Z" transform="translate(-3084.644 -1041.899)" fill="#f6b590"/>
          </g>
          <g id="Grupo_10912" data-name="Grupo 10912" transform="translate(8.095)">
            <path id="Trazado_20659" data-name="Trazado 20659" d="M3124.946,993.1a12.79,12.79,0,0,1-.805-4.8c.229-2.054,1.987-3.208,4.48-2.7a3.388,3.388,0,0,1,3.023,3.691c-.193,1.248-2.713,4.5-2.713,4.5Z" transform="translate(-3124.108 -985.485)" fill="#0a3c5e"/>
          </g>
          <g id="Grupo_10913" data-name="Grupo 10913" transform="translate(0 5.337)">
            <path id="Trazado_20660" data-name="Trazado 20660" d="M3078.319,1028.447s1.187,2.931,6.874,2.192c-.032,1.246-.675,2.239.382,3.393a2.216,2.216,0,0,1,.046,2.631l.975,1.385a9.7,9.7,0,0,1,1.315-3.623c1.045-1.552,3.391-3.116,3.106-7.685s-4.174-8.493-8.931-4.754c-2.477-3.508-7.022-1.963-9.142,1.639-1.95,3.314-1.507,6.758,1.211,7.131C3076.68,1031.1,3078.319,1028.447,3078.319,1028.447Z" transform="translate(-3071.746 -1020.008)" fill="#222c53"/>
          </g>
          <g id="Grupo_10914" data-name="Grupo 10914" transform="translate(13.077 18.175)">
            <path id="Trazado_20661" data-name="Trazado 20661" d="M3156.889,1103.748a1.164,1.164,0,0,1,1.487-.593c.961.437-.471,4.44-1.577,4.613S3156.889,1103.748,3156.889,1103.748Z" transform="translate(-3156.329 -1103.047)" fill="#f6b590"/>
          </g>
        </g>
        <g id="Grupo_10916" data-name="Grupo 10916" transform="translate(1.953 26.406)">
          <path id="Trazado_20662" data-name="Trazado 20662" d="M2825.459,1156.312l-3.563,2.6a.169.169,0,0,0-.07.169l2.638,13.544a.16.16,0,0,0,.285.061l3.4-3.9a.169.169,0,0,0,.035-.137l-2.474-12.246A.158.158,0,0,0,2825.459,1156.312Z" transform="translate(-2821.823 -1156.281)" fill="#222c53"/>
        </g>
        <g id="Grupo_10917" data-name="Grupo 10917" transform="translate(7.88 31.369)">
          <path id="Trazado_20663" data-name="Trazado 20663" d="M2862.84,1196.019l.894-5.812s-2.758-1.008-3.3-1.824c-.778,1.171.219,2.447,1.577,2.58C2860.977,1192.564,2859.849,1194.892,2862.84,1196.019Z" transform="translate(-2860.16 -1188.383)" fill="#f6b590"/>
        </g>
        <g id="Grupo_10918" data-name="Grupo 10918" transform="translate(36.905 29.495)">
          <path id="Trazado_20664" data-name="Trazado 20664" d="M3059.752,1176.478a22.014,22.014,0,0,1,10.92,1.3c5.578,2.776,3.528,40.491,3.528,40.491h-26.258C3049.32,1207.613,3043.127,1179.338,3059.752,1176.478Z" transform="translate(-3047.901 -1176.263)" fill="#f6a948"/>
        </g>
        <g id="Grupo_10919" data-name="Grupo 10919" transform="translate(54.079 64.657)">
          <path id="Trazado_20665" data-name="Trazado 20665" d="M3171.279,1403.694l-10.262,9.449s-.606,6.937-1.875,9.74,5.488,1.538,6.768-1.165-.357-6.24-.357-6.24l14.907-11.784Z" transform="translate(-3158.985 -1403.694)" fill="#f6b590"/>
        </g>
        <g id="Grupo_10920" data-name="Grupo 10920" transform="translate(54.188 30.802)">
          <path id="Trazado_20666" data-name="Trazado 20666" d="M3160.622,1186.027c3.777-5.864,24.6,9.038,30.916,22.644a4.318,4.318,0,0,1-1.112,4.992c-8.665,7.78-22.434,16.32-22.434,16.32l-4.068-6.165s13.518-11.073,16.566-13.675C3174.5,1206.629,3155.262,1194.348,3160.622,1186.027Z" transform="translate(-3159.689 -1184.715)" fill="#fdd148"/>
        </g>
      </g>
    </g>
    <g id="Grupo_10934" data-name="Grupo 10934" transform="translate(530.192 383.603)">
      <path id="Trazado_20667" data-name="Trazado 20667" d="M1890.777,1391.568l-2.883-1.811,9-4.011-3.723-8.479a12.285,12.285,0,0,0-10.416-6.551H1864.23a12.285,12.285,0,0,0-10.416,6.551l-3.723,8.479,9,4.011-2.883,1.811-1.6,13.779,18.884-.3,18.884.3Z" transform="translate(-1834.963 -1342.264)" fill="#01888b"/>
      <path id="Trazado_20668" data-name="Trazado 20668" d="M2081.574,1467.933l1.857,6.134a11.858,11.858,0,0,1-3.746,12.448l-8.426,6.582-2.709-7.366,4.661-4.346a4.737,4.737,0,0,0,1.156-5.435l-1.788-4.006Z" transform="translate(-2019.647 -1424.451)" fill="#f7b58e"/>
      <g id="Grupo_10926" data-name="Grupo 10926" transform="translate(0.102 78.006)">
        <path id="Trazado_20669" data-name="Trazado 20669" d="M1865.92,1698.865l-7.5,1.019-1.444-1.587.733-2.876,7.212-1.04Z" transform="translate(-1840.881 -1693.895)" fill="#f7b58e"/>
        <g id="Grupo_10925" data-name="Grupo 10925">
          <path id="Trazado_20670" data-name="Trazado 20670" d="M1770.437,1697.231l-9.445,1.165s-9.3,1.207-7.957-3.916c1.294-4.946,9.639-2.752,9.639-2.752l7.763.938h0a3.928,3.928,0,0,0-.107,4.4Z" transform="translate(-1752.903 -1691.243)" fill="#01888b"/>
          <path id="Trazado_20671" data-name="Trazado 20671" d="M1753.035,1695.174c.521-1.991,2.185-2.824,3.987-3.11v7.056C1754.683,1698.858,1752.312,1697.937,1753.035,1695.174Z" transform="translate(-1752.903 -1691.937)" fill="#fff"/>
          <g id="Grupo_10923" data-name="Grupo 10923" transform="translate(12.949 1.937)">
            <line id="Línea_67" data-name="Línea 67" y2="3.032" transform="translate(0.388)" fill="#f7b58e"/>
            <rect id="Rectángulo_2297" data-name="Rectángulo 2297" width="0.776" height="3.032" fill="#fff"/>
          </g>
          <g id="Grupo_10924" data-name="Grupo 10924" transform="translate(11.032 1.937)">
            <line id="Línea_68" data-name="Línea 68" y2="3.032" transform="translate(0.388)" fill="#f7b58e"/>
            <rect id="Rectángulo_2298" data-name="Rectángulo 2298" width="0.776" height="3.032" fill="#fff"/>
          </g>
        </g>
      </g>
      <path id="Trazado_20672" data-name="Trazado 20672" d="M1837.8,1467.933l-1.857,6.134a11.857,11.857,0,0,0,3.745,12.448l8.426,6.582,2.709-7.366-4.66-4.346a4.737,4.737,0,0,1-1.156-5.435l1.788-4.006Z" transform="translate(-1822.581 -1424.451)" fill="#f7b58e"/>
      <g id="Grupo_10930" data-name="Grupo 10930" transform="translate(52.72 78.006)">
        <path id="Trazado_20673" data-name="Trazado 20673" d="M2093.244,1699.428l7.63.456,1.445-1.587-.733-2.876-7.212-1.04Z" transform="translate(-2093.244 -1693.895)" fill="#f7b58e"/>
        <g id="Grupo_10929" data-name="Grupo 10929" transform="translate(7.63)">
          <path id="Trazado_20674" data-name="Trazado 20674" d="M2142.6,1697.231l9.445,1.165s9.3,1.207,7.957-3.916c-1.294-4.946-9.639-2.752-9.639-2.752l-7.763.938h0a3.927,3.927,0,0,1,.107,4.4Z" transform="translate(-2142.598 -1691.243)" fill="#01888b"/>
          <path id="Trazado_20675" data-name="Trazado 20675" d="M2233.354,1695.174c-.521-1.991-2.185-2.824-3.987-3.11v7.056C2231.706,1698.858,2234.077,1697.937,2233.354,1695.174Z" transform="translate(-2215.953 -1691.937)" fill="#fff"/>
          <g id="Grupo_10927" data-name="Grupo 10927" transform="translate(3.808 1.938)">
            <line id="Línea_69" data-name="Línea 69" y2="3.032" transform="translate(0.388)" fill="#f7b58e"/>
            <rect id="Rectángulo_2299" data-name="Rectángulo 2299" width="0.776" height="3.032" fill="#fff"/>
          </g>
          <g id="Grupo_10928" data-name="Grupo 10928" transform="translate(5.725 1.938)">
            <line id="Línea_70" data-name="Línea 70" y2="3.032" transform="translate(0.388)" fill="#f7b58e"/>
            <rect id="Rectángulo_2300" data-name="Rectángulo 2300" width="0.776" height="3.032" fill="#fff"/>
          </g>
        </g>
      </g>
      <g id="Grupo_10931" data-name="Grupo 10931" transform="translate(24.254 52.459)">
        <rect id="Rectángulo_2301" data-name="Rectángulo 2301" width="31.13" height="18.631" fill="#add7c5"/>
        <rect id="Rectángulo_2302" data-name="Rectángulo 2302" width="31.13" height="1.553" transform="translate(0 17.854)" fill="#cab7cc"/>
        <path id="Trazado_20676" data-name="Trazado 20676" d="M2001.739,1568.352a1.245,1.245,0,1,0,1.245-1.245A1.245,1.245,0,0,0,2001.739,1568.352Z" transform="translate(-1987.419 -1560.751)" fill="#fff"/>
      </g>
      <path id="Trazado_20677" data-name="Trazado 20677" d="M1940.3,1593.019c6.22,11.078-56.419,17.877-56.419,17.877l-1.062-4.934S1932.627,1579.359,1940.3,1593.019Z" transform="translate(-1862.629 -1526.9)" fill="#212b53"/>
      <path id="Trazado_20678" data-name="Trazado 20678" d="M1752.559,1593.011c-5.284,11.554,56.939,18.482,56.939,18.482l.462-5.551S1758.805,1579.352,1752.559,1593.011Z" transform="translate(-1752.241 -1526.893)" fill="#053c5e"/>
      <g id="Grupo_10933" data-name="Grupo 10933" transform="translate(24.337 0)">
        <path id="Trazado_20679" data-name="Trazado 20679" d="M1977.334,1332.594c-.577-1.747-1.622-6.925-1.622-6.925l-6.666,1.3v5.653a8.929,8.929,0,0,0,4.073,1.584C1975.152,1334.225,1977.406,1332.791,1977.334,1332.594Z" transform="translate(-1959.865 -1304.182)" fill="#f39f85"/>
        <g id="Grupo_10932" data-name="Grupo 10932" transform="translate(3.409 4.907)">
          <path id="Trazado_20680" data-name="Trazado 20680" d="M1945.777,1225.829l-1.256-7.4-12.809,1.516.776,8.53s.99,10.557,7.808,9.3C1947.671,1236.413,1946.1,1225.735,1945.777,1225.829Z" transform="translate(-1931.712 -1218.424)" fill="#f7b58e"/>
        </g>
        <path id="Trazado_20681" data-name="Trazado 20681" d="M1930.125,1197.984a5.076,5.076,0,0,1,.544-3.08c2.212-3.62-1.136-4.673-2.3-4.985-1.291-.345-1.7-2.356-3.437-3-2.648-.98-4.139,1.391-5.575,1.573s-2.856-1.351-4.522.235-.953,3.065-1.376,3.92-2.161-.578-3.425,2.1c-.961,2.036.1,3.231,1.4,3.917a5.686,5.686,0,0,0,4.9.118,22.113,22.113,0,0,0,5.138-3.121c.5-.406,4.407-.675,4.732-.12,1.1,1.882,1.191,8.142,1.191,8.142l1.14-1.6A4.054,4.054,0,0,0,1930.125,1197.984Z" transform="translate(-1909.659 -1186.685)" fill="#212b53"/>
        <path id="Trazado_20682" data-name="Trazado 20682" d="M2013.945,1265.426c-.344.893-.139,1.8.458,2.033s1.358-.309,1.7-1.2.139-1.8-.458-2.033S2014.289,1264.532,2013.945,1265.426Z" transform="translate(-1997.681 -1252.191)" fill="#f7b58e"/>
      </g>
    </g>
    <g id="Grupo_10943" data-name="Grupo 10943" transform="translate(410.399 354.688)">
      <g id="Grupo_10935" data-name="Grupo 10935" transform="translate(69.392 189.222)">
        <path id="Trazado_20683" data-name="Trazado 20683" d="M1439.106,2251.685s-2.977,2.761-9.764,4.49c-1.494.381-3.105-.128-3.105,2.337h8.237l6.85-1.185v1.185h3.7s1.03-6.051-1.131-6.827Z" transform="translate(-1426.237 -2247.339)" fill="#212b53"/>
        <path id="Trazado_20684" data-name="Trazado 20684" d="M1509.895,2223.573l-.417,4.346h0a4.185,4.185,0,0,0,4.533.152l.254-.152,1.537-4.346Z" transform="translate(-1496.609 -2223.573)" fill="#f7b58e"/>
      </g>
      <g id="Grupo_10936" data-name="Grupo 10936" transform="translate(50.798 187.36)">
        <path id="Trazado_20685" data-name="Trazado 20685" d="M1316.2,2237.855s-.019,4.32-8.7,6.913c-1.78.532-1.2,1.059-1.535,1.807h9.985l3.91-4.4,1.216,1.044,2.819-2.77s-1.317-4.009-3.463-4.043Z" transform="translate(-1305.972 -2232.564)" fill="#212b53"/>
        <path id="Trazado_20686" data-name="Trazado 20686" d="M1361.652,2213.081l1.622,3.74h0a3.914,3.914,0,0,0,4.057-1.233l.179-.211-1.311-3.846Z" transform="translate(-1353.044 -2211.531)" fill="#f7b58e"/>
      </g>
      <path id="Trazado_20687" data-name="Trazado 20687" d="M1391.891,1552.229l17.867,73.1h6.92s2.321-42.12-8.345-62.9c4.528-34.025.707-47.181.707-47.181Z" transform="translate(-1327.81 -1435.538)" fill="#212b53"/>
      <g id="Grupo_10937" data-name="Grupo 10937" transform="translate(27.205 67.729)">
        <path id="Trazado_20688" data-name="Trazado 20688" d="M1165.511,1454.27c-.367.232-1.7.9-4.666.75-2.665-.14-8.1-2.162-7.422.77,2.313,1.813,4.821,4.241,4.821,4.241,1.5.948,4.455.605,6.262.02l5.365-2.507s.841-2.891.9-3.021l-1.055-.649A12.928,12.928,0,0,1,1165.511,1454.27Z" transform="translate(-1153.365 -1451.379)" fill="#f7b58e"/>
        <path id="Trazado_20689" data-name="Trazado 20689" d="M1202.74,1441.744a2.24,2.24,0,0,1-.34.3c.328.2.641.417.945.643,1.373.236,2.737.516,4.107.768.036-.862.088-2.072.106-2.157l-8.63-3.551s-.868.906.615,2.223A8.839,8.839,0,0,0,1202.74,1441.744Z" transform="translate(-1191.671 -1437.743)" fill="#f7b58e"/>
      </g>
      <g id="Grupo_10938" data-name="Grupo 10938" transform="translate(0 25.78)">
        <path id="Trazado_20690" data-name="Trazado 20690" d="M986.52,1175.136c-.416-.124-1.8-.684-3.632-3.024-1.646-2.1-3.692-7.523-5.459-5.087.154,2.935-.027,6.421-.027,6.421.274,1.757,2.473,3.755,4.1,4.733l5.416,2.4s2.732-1.267,2.871-1.3l-.2-1.222A12.925,12.925,0,0,1,986.52,1175.136Z" transform="translate(-977.402 -1166.408)" fill="#f7b58e"/>
        <path id="Trazado_20691" data-name="Trazado 20691" d="M1022.225,1192.244a2.23,2.23,0,0,1-.446-.062c.065.379.107.757.136,1.135.725,1.19,1.41,2.4,2.121,3.6.673-.54,1.619-1.3,1.7-1.338l-3-8.838s-1.253-.059-1.271,1.924A8.842,8.842,0,0,0,1022.225,1192.244Z" transform="translate(-1014.652 -1183.598)" fill="#f7b58e"/>
      </g>
      <path id="Trazado_20692" data-name="Trazado 20692" d="M1080.479,1206.7s-12.248,12.857-20.347,12.52-23.96-7.987-23.96-7.987l-3.6,3.189s16.761,18.633,27.9,18.633a45.074,45.074,0,0,0,20.01-5Z" transform="translate(-1024.042 -1174.69)" fill="url(#linear-gradient)"/>
      <g id="Grupo_10939" data-name="Grupo 10939" transform="translate(53.693)">
        <path id="Trazado_20693" data-name="Trazado 20693" d="M1367.028,1113.833l.194,5.987,7.963-.365-2.342-10.672Z" transform="translate(-1360.483 -1091.912)" fill="#f39f85"/>
        <path id="Trazado_20694" data-name="Trazado 20694" d="M1336.542,1036.877s-3.924,13.68-1.468,16.172,7.792-.485,7.792-.485l6.538-6.367-8.724-8.944Z" transform="translate(-1332.786 -1031.123)" fill="#f7b58e"/>
        <path id="Trazado_20695" data-name="Trazado 20695" d="M1324.7,1000.829s.4,5.471,7.786,6.142c1.833.8,2.061,3.071,1.9,4.936-.187,2.162.622.781,1.607,2.714l1.09,4.922s10.87-8.983,4.045-15.86S1324.7,1000.829,1324.7,1000.829Z" transform="translate(-1324.697 -999.659)" fill="#212b53"/>
        <path id="Trazado_20696" data-name="Trazado 20696" d="M1385.1,1080.964a1.779,1.779,0,0,0-2.183.355c-.646.622-.717,1.472-.158,1.9a1.78,1.78,0,0,0,2.183-.355C1385.59,1082.24,1385.661,1081.39,1385.1,1080.964Z" transform="translate(-1373.466 -1068.192)" fill="#f7b58e"/>
      </g>
      <path id="Trazado_20697" data-name="Trazado 20697" d="M1329.709,1174.349s-.278.9-7.724.9c-14.324,11.307-4.918,51.8-4.918,51.8h26.592C1343.209,1182.506,1329.709,1174.349,1329.709,1174.349Z" transform="translate(-1261.991 -1147.341)" fill="#afd8c7"/>
      <path id="Trazado_20698" data-name="Trazado 20698" d="M1257.42,1173.167s9.869,4.725,9.653,10.208-29.2,17.24-29.2,17.24l2.7,5.4s45.9-4.05,45.9-21.29-22.011-29.407-22.011-29.407l-6.932,1.664.071,2.178" transform="translate(-1197.608 -1131.253)" fill="#afd8c7"/>
      <g id="Grupo_10940" data-name="Grupo 10940" transform="translate(42.942 64.506)">
        <path id="Trazado_20699" data-name="Trazado 20699" d="M1278.053,1422.652a61.588,61.588,0,0,0,14.5-5.758c.057.227.118.451.188.673a61.985,61.985,0,0,1-14.516,5.72,148.089,148.089,0,0,1-23.007,4.19l-.058-.655A147.388,147.388,0,0,0,1278.053,1422.652Z" transform="translate(-1255.155 -1416.894)" fill="#fff"/>
      </g>
      <g id="Grupo_10941" data-name="Grupo 10941" transform="translate(40.24 51.22)">
        <path id="Trazado_20700" data-name="Trazado 20700" d="M1237.74,1349.169l-.062-.142c.29-.126,28.937-12.7,29.149-18.073l.154.006C1266.766,1336.43,1238.925,1348.652,1237.74,1349.169Z" transform="translate(-1237.678 -1330.955)" fill="#fff"/>
      </g>
      <g id="Grupo_10942" data-name="Grupo 10942" transform="translate(40.178 51.214)">
        <path id="Trazado_20701" data-name="Trazado 20701" d="M1237.464,1349.278l-.186-.425c.072-.031,7.322-3.206,14.5-7.007,11.921-6.311,14.494-9.427,14.553-10.93l.464.018c-.093,2.363-5.073,6.172-14.8,11.323C1244.8,1346.066,1237.536,1349.246,1237.464,1349.278Z" transform="translate(-1237.278 -1330.916)" fill="#fff"/>
      </g>
      <path id="Trazado_20702" data-name="Trazado 20702" d="M1289.218,1515.25s-9.876,29.384-7.851,47.945,11.749,62.059,11.749,62.059h6.846s2.41-33.543-1.739-51.25c-.887-3.785,1.05-12.218,3.359-15.345,11.027-14.93,14.228-43.409,14.228-43.409Z" transform="translate(-1234.141 -1435.538)" fill="#053c5e"/>
    </g>
    <g id="Grupo_10954" data-name="Grupo 10954" transform="translate(344.566 366.005)">
      <g id="Grupo_10951" data-name="Grupo 10951">
        <path id="Trazado_20703" data-name="Trazado 20703" d="M726.289,1275.508l10.277,15.988c2.2,3.416,5.615,7.248,9.556,8.224l21.113,5.229v3.089s-21.1,2.02-30.669-3.147-16.433-17.424-16.433-17.424Z" transform="translate(-694.075 -1244.178)" fill="#f7b58e"/>
        <path id="Trazado_20704" data-name="Trazado 20704" d="M598.97,1234.286s5.272-9.9,12.175-11.633c5.914,0,7.3.866,7.3.866s7.583,9.4,10.223,15.479a8.7,8.7,0,0,1-.038,7.12c-4.657,10.037-4.065,29.362-4.065,29.362H601.3s4.069-28.925,3.291-34.64A7.344,7.344,0,0,0,598.97,1234.286Z" transform="translate(-591.644 -1199.495)" fill="#00666b"/>
        <g id="Grupo_10945" data-name="Grupo 10945" transform="translate(43.878 177.596)">
          <g id="Grupo_10944" data-name="Grupo 10944" transform="translate(1.263)">
            <path id="Trazado_20705" data-name="Trazado 20705" d="M848.249,2221.58l1.372,3.572a4.59,4.59,0,0,0,1.87,2.374,18.451,18.451,0,0,0,4.727,2.05c-2.752,2.349-7.13-.008-9.635-1.742a6.13,6.13,0,0,1-2.448-3.547l-.573-2.706Z" transform="translate(-843.562 -2221.58)" fill="#f7b58e"/>
          </g>
          <path id="Trazado_20706" data-name="Trazado 20706" d="M836.953,2233.6s-1.861,1.463-1.52,3.327.824,6.231.824,6.231h1.913l-.059-4.073c.006-.266,4.1,4.073,4.8,4.073h10.125s.673-2.747-5.273-3.63S836.953,2233.6,836.953,2233.6Z" transform="translate(-835.391 -2231.741)" fill="#053c5e"/>
        </g>
        <path id="Trazado_20707" data-name="Trazado 20707" d="M678.349,1564.342l17.493,101.843-5.658.116s-12.411-21.4-14.237-39.149c-.3-2.934-.441-5.918-2.356-8.161-14.61-17.111-10.453-44.141-10.453-44.141l7.9-10.507Z" transform="translate(-645.428 -1488.357)" fill="#212b53"/>
        <g id="Grupo_10947" data-name="Grupo 10947" transform="translate(0 177.596)">
          <g id="Grupo_10946" data-name="Grupo 10946" transform="translate(1.263)">
            <path id="Trazado_20708" data-name="Trazado 20708" d="M564.441,2221.58l1.373,3.572a4.589,4.589,0,0,0,1.87,2.374,18.451,18.451,0,0,0,4.727,2.05c-2.752,2.349-7.13-.008-9.635-1.742a6.131,6.131,0,0,1-2.448-3.547l-.574-2.706Z" transform="translate(-559.754 -2221.58)" fill="#f7b58e"/>
          </g>
          <path id="Trazado_20709" data-name="Trazado 20709" d="M553.145,2233.6s-1.861,1.463-1.52,3.327.824,6.231.824,6.231h1.913l-.059-4.073c.006-.266,4.1,4.073,4.8,4.073h10.125s.673-2.747-5.273-3.63S553.145,2233.6,553.145,2233.6Z" transform="translate(-551.583 -2231.741)" fill="#053c5e"/>
        </g>
        <g id="Grupo_10949" data-name="Grupo 10949" transform="translate(13.552)">
          <path id="Trazado_20710" data-name="Trazado 20710" d="M689.461,1168.237l.015,10.5-6.3-6.867.679-9.769Z" transform="translate(-676.383 -1148.3)" fill="#f39f85"/>
          <path id="Trazado_20711" data-name="Trazado 20711" d="M653.365,1077.463c-4.364.593-6.535,6.187-6.535,6.187l.049,16.556-7.567-6.542a58.982,58.982,0,0,1,1.317-15.608c1.619-5.125,8.15-6.474,12.735-3.974,2.23,1.216,3.555,3.6,4.342,5.972a18.872,18.872,0,0,1,.449,9.884l-2.6,12.148-3.23-3.2a13.2,13.2,0,0,1-.015-6.084C653.979,1086.7,656.3,1077.065,653.365,1077.463Z" transform="translate(-639.238 -1072.861)" fill="#212b53"/>
          <path id="Trazado_20712" data-name="Trazado 20712" d="M678.4,1142.485a1.542,1.542,0,0,1,2.045.2,1.329,1.329,0,0,1,.274,1.914,1.543,1.543,0,0,1-2.045-.2A1.329,1.329,0,0,1,678.4,1142.485Z" transform="translate(-672.091 -1131.464)" fill="#f7b58e"/>
          <g id="Grupo_10948" data-name="Grupo 10948" transform="translate(7.467 3.398)">
            <path id="Trazado_20713" data-name="Trazado 20713" d="M694.968,1111.517a3.4,3.4,0,0,0,2.038-.53c2.437-3.884-.339-14.353-.339-14.353l-3.895-1.8-4.949,3.383-.282,7.016a5.891,5.891,0,0,0,2.21,4.839h0A9.451,9.451,0,0,0,694.968,1111.517Z" transform="translate(-687.536 -1094.837)" fill="#f7b58e"/>
          </g>
          <path id="Trazado_20714" data-name="Trazado 20714" d="M684.315,1089.016c.933,3.129-7.358,6.76-7.358,6.76l-2.083-3.905,3.806-4.666,4.812.768A2.767,2.767,0,0,1,684.315,1089.016Z" transform="translate(-669.365 -1084.987)" fill="#212b53"/>
          <path id="Trazado_20715" data-name="Trazado 20715" d="M736.178,1099.631c.174,1.234,2.1,2.732,2.1,2.732l.181-1.475-.439-1.037-.988-.549S736,1098.4,736.178,1099.631Z" transform="translate(-721.174 -1094.944)" fill="#212b53"/>
        </g>
        <path id="Trazado_20716" data-name="Trazado 20716" d="M565.219,1564.342s-16.443,7.073-7.839,51.461a16.727,16.727,0,0,1-.564,7.852c-3.643,12.381-1.58,42.645-1.58,42.645h5.684s19.028-78.98,20.255-101.958Z" transform="translate(-554.18 -1488.357)" fill="#053c5e"/>
        <g id="Grupo_10950" data-name="Grupo 10950" transform="translate(71.831 57.328)">
          <path id="Trazado_20717" data-name="Trazado 20717" d="M1020.368,1453.942a6.594,6.594,0,0,0,3.852-.146c2.109-.537,6.13-3.023,6.059-.57-1.561,1.82-3.178,4.162-3.178,4.162-1.051,1-3.467,1.2-5.006,1.017l-4.692-1.148s-1.134-2.178-1.205-2.272l.74-.688A10.542,10.542,0,0,0,1020.368,1453.942Z" transform="translate(-1016.198 -1450.849)" fill="#f7b58e"/>
          <path id="Trazado_20718" data-name="Trazado 20718" d="M1028.421,1447.474a1.822,1.822,0,0,0,.319.182c-.23.212-.446.436-.653.665-1.06.408-2.107.85-3.162,1.271-.166-.684-.4-1.643-.43-1.708l6.335-4.219s.839.585-.136,1.876A7.208,7.208,0,0,1,1028.421,1447.474Z" transform="translate(-1023.212 -1443.665)" fill="#f7b58e"/>
        </g>
      </g>
      <g id="Grupo_10952" data-name="Grupo 10952" transform="translate(8.1 24.107)">
        <path id="Trazado_20719" data-name="Trazado 20719" d="M612.644,1228.79l-.382.578c.093.062,9.324,6.266,9.324,16.4v41.284H604.68l.538-31.79c-.229.181-.462.358-.7.528l-.541,31.954h18.3v-41.977C622.279,1235.265,612.74,1228.853,612.644,1228.79Z" transform="translate(-603.975 -1228.79)" fill="#01888b"/>
      </g>
      <path id="Trazado_20720" data-name="Trazado 20720" d="M563.835,1297.9s-11.576,29.952-3.652,32.68,22.385-18.812,22.385-18.812l-2.787-2.174-13.2,11.266s2.973-4.2,4.444-13.507S563.835,1297.9,563.835,1297.9Z" transform="translate(-556.509 -1263.108)" fill="#f7b58e"/>
      <path id="Trazado_20721" data-name="Trazado 20721" d="M699.788,1327.193l.856-6.237s2.155-2.364,3.786-2.787a1.229,1.229,0,0,1,1.3.5c.678.959,2.218,3.214,2.251,3.938a1.176,1.176,0,0,1-.437.932l-1.989,1.729-2.622,3.608Z" transform="translate(-676.875 -1280.212)" fill="#f7b58e"/>
      <g id="Grupo_10953" data-name="Grupo 10953" transform="translate(6.324 74.818)">
        <path id="Rectángulo_2303" data-name="Rectángulo 2303" d="M8.24,0h5.607a8.239,8.239,0,0,1,8.239,8.239v0a8.24,8.24,0,0,1-8.24,8.24H8.24A8.24,8.24,0,0,1,0,8.24v0A8.24,8.24,0,0,1,8.24,0Z" transform="translate(0)" fill="#63c0c4"/>
        <path id="Trazado_20722" data-name="Trazado 20722" d="M614.571,1564.69v-5.021a2.884,2.884,0,0,0-2.875-2.875H595.36a2.884,2.884,0,0,0-2.875,2.875v5.021Z" transform="translate(-592.485 -1556.793)" fill="#ffd147"/>
        <path id="Trazado_20723" data-name="Trazado 20723" d="M706.116,1573.272h0c-1.378,0-2.5-.591-2.5-1.968v-12.543c0-1.378,1.127-1.968,2.5-1.968h0a2.49,2.49,0,0,1,2.5,1.968v12.006A2.226,2.226,0,0,1,706.116,1573.272Z" transform="translate(-686.431 -1556.793)" fill="#01888b"/>
        <path id="Trazado_20724" data-name="Trazado 20724" d="M642.975,1596.138h0a.762.762,0,0,1-.76-.76v-3.83a.762.762,0,0,1,.76-.76h0a.762.762,0,0,1,.76.76v3.83A.762.762,0,0,1,642.975,1596.138Z" transform="translate(-634.527 -1585.532)" fill="#053c5e"/>
      </g>
    </g>
  </g>
</svg>
