<svg xmlns="http://www.w3.org/2000/svg" xmlns:xlink="http://www.w3.org/1999/xlink" width="547.617" height="556.063" viewBox="0 0 547.617 556.063">
  <defs>
    <linearGradient id="linear-gradient" x1="3.538" y1="0.5" x2="4.684" y2="0.5" gradientUnits="objectBoundingBox">
      <stop offset="0" stop-color="#daece5"/>
      <stop offset="1" stop-color="#b2deeb"/>
    </linearGradient>
    <linearGradient id="linear-gradient-2" x1="1.366" y1="0.5" x2="2.366" y2="0.5" xlink:href="#linear-gradient"/>
    <linearGradient id="linear-gradient-3" x1="3.74" y1="0.5" x2="4.74" y2="0.5" gradientUnits="objectBoundingBox">
      <stop offset="0" stop-color="#eef7f6"/>
      <stop offset="1" stop-color="#b2deeb"/>
    </linearGradient>
    <linearGradient id="linear-gradient-4" x1="4.398" y1="0.5" x2="5.398" y2="0.5" xlink:href="#linear-gradient-3"/>
    <linearGradient id="linear-gradient-5" x1="6.696" y1="0.5" x2="7.696" y2="0.5" xlink:href="#linear-gradient-3"/>
    <linearGradient id="linear-gradient-6" x1="5.414" y1="0.5" x2="6.414" y2="0.5" xlink:href="#linear-gradient-3"/>
  </defs>
  <g id="Grupo_10620" data-name="Grupo 10620" transform="translate(-121.133 -62.678)">
    <path id="Trazado_20151" data-name="Trazado 20151" d="M301.549,270.405c.092-10.683,1.7-21.289,1.777-31.978a12.179,12.179,0,0,1,1.582-5.911,54.414,54.414,0,0,0-16.568,5.408s3.887-18.354-48.8-30.478S187.06,235.72,187.06,235.72s-46.846-25.909-56,13.874c-7.287,31.668,67.395,35.74,98.168,36.084a120.812,120.812,0,0,0,25.383-2.41c12.154-2.467,31.059-6.8,46.942-12.647C301.555,270.548,301.549,270.477,301.549,270.405Z" transform="translate(-1.054 -15.92)" fill="url(#linear-gradient)"/>
    <path id="Trazado_20152" data-name="Trazado 20152" d="M656.886,402.726h-269s-14.588-18.454,0-30.872c8.05-6.853,17.557-6.143,24.462-4.13a8.051,8.051,0,0,0,9.974-6.3c1.635-7.587,6.676-17.515,21.156-23.382,14.246-5.77,23.256,3.043,28.47,12.1a4.045,4.045,0,0,0,7.317-.746c4.516-14.3,20.253-33.245,71.96-33.245,65.765,0,58.458,34.962,52.581,49.492a3.35,3.35,0,0,0,3.8,4.569c10.145-2.169,28.974-4.98,37.418,1.65C656.886,381.164,656.886,402.726,656.886,402.726Z" transform="translate(-29.078 -28.318)" fill="url(#linear-gradient-2)"/>
    <g id="Grupo_10526" data-name="Grupo 10526" transform="translate(270.766 256.792)">
      <path id="Trazado_20153" data-name="Trazado 20153" d="M480.69,288.68a19.961,19.961,0,0,1-7.752.478c-9.013-.936-17.945-3.852-26.484-6.776-1.08-.37-2.162-.769-3.246-1.176-18.728,10.5-39.086,17.617-60.665,19.609-22.342,2.061-43.777-1.056-65.817-4.176-8.73-1.236-18.7-3.25-27.14-7.31V497.985L475.78,527.324V427.016h29.487Z" transform="translate(-289.586 -281.206)" fill="#53b6b9"/>
      <path id="Trazado_20154" data-name="Trazado 20154" d="M316.726,297.661c-8.73-1.236-18.7-3.25-27.14-7.31V499.007l94.944,14.96L347.617,301.518C337.35,300.591,327.105,299.13,316.726,297.661Z" transform="translate(-289.586 -282.228)" fill="#2cacb7"/>
      <path id="Trazado_20155" data-name="Trazado 20155" d="M418.679,545.591V632.3H289.586V525.25Z" transform="translate(-289.586 -308.471)" fill="#0f787a"/>
      <path id="Trazado_20156" data-name="Trazado 20156" d="M333.93,532.237V632.3H289.586V525.25Z" transform="translate(-289.586 -308.471)" fill="#005558"/>
    </g>
    <g id="Grupo_10529" data-name="Grupo 10529" transform="translate(409.437 523.134)">
      <g id="Grupo_10528" data-name="Grupo 10528">
        <path id="Trazado_20157" data-name="Trazado 20157" d="M462.21,632.593l14.071,24.643s6.455-6.122,12.627-8.672a8.451,8.451,0,0,1,7.224.478c28.807,15.685,42.758-.01,42.758-.01s20.48-15.022,4.883-47.265c-16.629-34.375-44.907-15.6-44.907-15.6S481.641,594,480.334,617.507a11.427,11.427,0,0,1-4.671,8.452A40.821,40.821,0,0,1,462.21,632.593Z" transform="translate(-447.543 -581.047)" fill="#a4d1bb"/>
        <path id="Trazado_20158" data-name="Trazado 20158" d="M474.755,663.684l-8.827,5.04c-3.307,1.889-7.247,1.274-8.755-1.367l-8.568-15c-1.508-2.641-.036-6.347,3.272-8.235l8.827-5.04Z" transform="translate(-445.956 -587.53)" fill="#ffc731"/>
        <path id="Trazado_20159" data-name="Trazado 20159" d="M456.028,667.524l-5,.606L445.7,658.8l2.868-4.343Z" transform="translate(-445.698 -589.248)" fill="#f99200"/>
        <g id="Grupo_10527" data-name="Grupo 10527" transform="translate(19.618 27.481)">
          <path id="Trazado_20160" data-name="Trazado 20160" d="M516.2,638.431c9.116-.236,7.315-11.426.05-13.058a5.611,5.611,0,0,0-3.876.665c-2.1,1.142-5.307,3.015-5.307,3.015a42.5,42.5,0,0,1-1.311-4.375,19.927,19.927,0,0,0,5.479-3.852c6.182-6.935-5.338-13.385-7.542-4.544a16.582,16.582,0,0,0,.175,7.112l-36.089,21.017.961,1.683q11.09-6.46,22.182-12.917l11.51-6.7c.6-.352,1.258-.7,1.929-1.056a32.9,32.9,0,0,0,1.451,4.091l-35.1,20.042.962,1.684,34.964-19.966c.179.348.356.711.537,1.026C509.016,635.495,512.279,638.532,516.2,638.431ZM505.3,622.6c-.566-2.823-.875-7.1,1.315-8.761a2.1,2.1,0,0,1,1.91-.277c6.112,2.039.073,7.1-.783,7.562A23.9,23.9,0,0,1,505.3,622.6Zm10.373,14.228c-3.908-.3-6.433-2.88-7.954-6.169l5.375-3.07a4.291,4.291,0,0,1,3.287-.42,6.046,6.046,0,0,1,4.77,5.662C521.054,635.215,518.326,637.031,515.669,636.828Z" transform="translate(-467.783 -611.985)" fill="#fff"/>
        </g>
      </g>
    </g>
    <g id="Grupo_10539" data-name="Grupo 10539" transform="translate(327.537 434.836)">
      <g id="Grupo_10538" data-name="Grupo 10538" transform="translate(0 0.757)">
        <g id="Grupo_10532" data-name="Grupo 10532" transform="translate(18.207 4.353)">
          <g id="Grupo_10531" data-name="Grupo 10531">
            <path id="Trazado_20161" data-name="Trazado 20161" d="M381.609,503.92l-2.9,6.474-4.717-4.25,3.327-9.431Z" transform="translate(-373.994 -488.437)" fill="#f18c72"/>
            <g id="Grupo_10530" data-name="Grupo 10530" transform="translate(3.213)">
              <path id="Trazado_20162" data-name="Trazado 20162" d="M383.69,503.289a3.219,3.219,0,0,0,1.982-.182c2.868-3.248,1.884-12.818,1.884-12.818L384.2,487.4l-5.134,2.4-1.339,5.259c-.357,1.736.133,4.778,1.319,6.094h0A8.934,8.934,0,0,0,383.69,503.289Z" transform="translate(-377.611 -487.396)" fill="#f7a57a"/>
            </g>
          </g>
        </g>
        <path id="Trazado_20163" data-name="Trazado 20163" d="M384.808,541.784a7.423,7.423,0,0,0,3.479,2.48c2.32.8,19.592-2.827,19.592-2.827l3.47.364a8.812,8.812,0,0,0,5.494-.284l5.08-1.964-29.8-.622-11.406-14.166Z" transform="translate(-356.538 -487.218)" fill="#f7a57a"/>
        <path id="Trazado_20164" data-name="Trazado 20164" d="M372.651,507.329s-6.885,8.819-8.494,14.618-2.188,21.782-2.188,21.782h14.49s4.16-7.541,7.39-14.382a7.825,7.825,0,0,0,.09-6.5c-2.365-5.357-5.917-12.726-5.917-12.726Z" transform="translate(-354.444 -485.27)" fill="#005558"/>
        <g id="Grupo_10534" data-name="Grupo 10534" transform="translate(20.583 154.938)">
          <g id="Grupo_10533" data-name="Grupo 10533" transform="translate(1.057)">
            <path id="Trazado_20165" data-name="Trazado 20165" d="M381.782,656.921l1.149,2.99A3.837,3.837,0,0,0,384.5,661.9a15.01,15.01,0,0,0,3.956,1.8c-2.3,1.967-5.968-.087-8.065-1.538a5.137,5.137,0,0,1-2.049-2.969l-.48-2.265Z" transform="translate(-377.859 -656.921)" fill="#f7a57a"/>
          </g>
          <path id="Trazado_20166" data-name="Trazado 20166" d="M377.976,658.672a3.3,3.3,0,0,0-1.272,2.786c.285,1.561.689,5.215.689,5.215h1.6l-.049-3.408c0-.223,3.435,3.408,4.016,3.408h8.475s.563-2.3-4.414-3.038S377.976,658.672,377.976,658.672Z" transform="translate(-376.669 -657.117)" fill="#002f4c"/>
        </g>
        <g id="Grupo_10536" data-name="Grupo 10536" transform="translate(4.108 154.938)">
          <g id="Grupo_10535" data-name="Grupo 10535" transform="translate(1.057)">
            <path id="Trazado_20167" data-name="Trazado 20167" d="M363.235,656.921l1.149,2.99a3.837,3.837,0,0,0,1.565,1.987,15.01,15.01,0,0,0,3.956,1.8c-2.3,1.967-5.968-.087-8.065-1.538a5.137,5.137,0,0,1-2.049-2.969l-.48-2.265Z" transform="translate(-359.312 -656.921)" fill="#f7a57a"/>
          </g>
          <path id="Trazado_20168" data-name="Trazado 20168" d="M359.429,658.672a3.3,3.3,0,0,0-1.272,2.786c.285,1.561.689,5.215.689,5.215h1.6l-.049-3.408c0-.223,3.435,3.408,4.016,3.408h8.475s.563-2.3-4.414-3.038S359.429,658.672,359.429,658.672Z" transform="translate(-358.122 -657.117)" fill="#002f4c"/>
        </g>
        <path id="Trazado_20169" data-name="Trazado 20169" d="M376.977,548.562s7.19,10.777,1.037,53.738c.966,16.238,2.771,42.962,2.771,42.962H376.7s-11.313-28.464-7.517-42.644c.9-14.044-2.578-54.311-2.578-54.311Z" transform="translate(-354.962 -489.848)" fill="#122043"/>
        <path id="Trazado_20170" data-name="Trazado 20170" d="M361.022,548.308s-7.525,6.053-7.525,15.042c0,7.051,3.4,21.657,5.347,31.218.707,3.471-.008,7.057-.985,10.461-3.979,13.867.857,40.234.857,40.234h4.059S363,631.7,368.551,601.3c6.377-34.918,6.961-52.991,6.961-52.991Z" transform="translate(-353.497 -489.848)" fill="#002f4c"/>
        <g id="Grupo_10537" data-name="Grupo 10537" transform="translate(42.529 31.488)">
          <path id="Trazado_20171" data-name="Trazado 20171" d="M425.046,538.791H401.375v-1.74H424l10.049-19.107,1.539.81Z" transform="translate(-401.375 -517.944)" fill="#fff"/>
        </g>
        <path id="Trazado_20172" data-name="Trazado 20172" d="M366.608,524.84s7.559,17.6,11.193,17.6,23.749-8.6,23.749-8.6l-.534-3-20.539,3.479a90.078,90.078,0,0,1-3.083-10.416,5.73,5.73,0,0,0-4.431-4.424C368.107,518.555,366.608,524.84,366.608,524.84Z" transform="translate(-354.962 -486.617)" fill="#f7a57a"/>
        <path id="Trazado_20173" data-name="Trazado 20173" d="M375.459,492.787s2.242,1.355,9.1-3.045c1.052.274-.627-9.617-9.506-6.711-6.215,2.034-5.917,8.051-5.631,11.38.31,3.6-1.562,5.969-4.035,8.6-2.073,2.206-2.041,6.262-3.422,8.445-1.7,2.685-3.5,2.529-4.851,5.253-1.411,2.851-1.6,6.339.286,8.9,1.074,1.455,3.577,4.965,7.538,3.714,2.224-.7,2.823-4.583,2.921-7.853a9.906,9.906,0,0,1,3.776-7.43c2.137-1.7,4.469-4.031,5.094-6.463C377.958,502.8,375.459,492.787,375.459,492.787Z" transform="translate(-353.779 -482.496)" fill="#122043"/>
        <path id="Trazado_20174" data-name="Trazado 20174" d="M376.946,494.274a1.459,1.459,0,0,1,1.877.5,1.256,1.256,0,0,1-.038,1.827,1.458,1.458,0,0,1-1.877-.5A1.257,1.257,0,0,1,376.946,494.274Z" transform="translate(-356.071 -483.792)" fill="#f7a57a"/>
        <path id="Trazado_20175" data-name="Trazado 20175" d="M416.475,533.625a.985.985,0,0,0-.587-1.017l-3.862-1.679a4.233,4.233,0,0,0-3.02-.134l-3.829,1.271-.519.02-.412,3.563c.766-.281,1.214-.455,1.214-.455l2.423-.88s5.286,4.48,7.175.411c.566,4.03,1.714,3.582,1.714,3.582Z" transform="translate(-359.167 -487.868)" fill="#f7a57a"/>
      </g>
      <path id="Trazado_20176" data-name="Trazado 20176" d="M374.052,489.227c.76,2.754,4.673,4.075,8.74,2.951s6.273-4.177,5.986-7.018c-.378-3.733-4.673-4.074-8.74-2.951S373.291,486.474,374.052,489.227Z" transform="translate(-355.779 -481.644)" fill="#122043"/>
    </g>
    <g id="Grupo_10551" data-name="Grupo 10551" transform="translate(577.413 434.836)">
      <g id="Grupo_10544" data-name="Grupo 10544" transform="translate(48.665)">
        <g id="Grupo_10540" data-name="Grupo 10540" transform="translate(0 154.985)">
          <path id="Trazado_20177" data-name="Trazado 20177" d="M701.959,660.825s-2.862,2.655-9.386,4.317c-1.436.366-2.986-.123-2.986,2.246h7.918l6.586-1.139v1.139h3.557s.99-5.816-1.086-6.563Z" transform="translate(-689.587 -656.648)" fill="#122043"/>
          <path id="Trazado_20178" data-name="Trazado 20178" d="M703.916,656.122l-.4,4.178h0a4.023,4.023,0,0,0,4.358.147l.244-.147,1.477-4.178Z" transform="translate(-691.143 -656.122)" fill="#f7a57a"/>
        </g>
        <g id="Grupo_10541" data-name="Grupo 10541" transform="translate(19.818 154.985)">
          <path id="Trazado_20179" data-name="Trazado 20179" d="M724.27,660.825s-2.862,2.655-9.386,4.317c-1.437.366-2.985-.123-2.985,2.246h7.918l6.586-1.139v1.139h3.557s.99-5.816-1.087-6.563Z" transform="translate(-711.898 -656.648)" fill="#122043"/>
          <path id="Trazado_20180" data-name="Trazado 20180" d="M726.227,656.122l-.4,4.178h0a4.023,4.023,0,0,0,4.358.147l.243-.147,1.478-4.178Z" transform="translate(-713.454 -656.122)" fill="#f7a57a"/>
        </g>
        <g id="Grupo_10543" data-name="Grupo 10543" transform="translate(18.983)">
          <path id="Trazado_20181" data-name="Trazado 20181" d="M718.235,501.035l1.117,6.819,6.076-2.714-2-8.184Z" transform="translate(-711.771 -483.355)" fill="#f18c72"/>
          <g id="Grupo_10542" data-name="Grupo 10542" transform="translate(1.204 3.018)">
            <path id="Trazado_20182" data-name="Trazado 20182" d="M715.367,500.335a3.666,3.666,0,0,1-2.047-.486c-2.448-3.561.341-13.16.341-13.16l3.913-1.648,4.973,3.1.283,6.433a5.22,5.22,0,0,1-2.22,4.437h0A10.183,10.183,0,0,1,715.367,500.335Z" transform="translate(-712.313 -485.041)" fill="#f7a57a"/>
          </g>
          <path id="Trazado_20183" data-name="Trazado 20183" d="M721.015,489.618a2.151,2.151,0,0,0-2.425-1.6,17.1,17.1,0,0,1-2.688.244c-2.206,0-4.944-.863-4.944-4.219s4.123-2.206,4.123-2.206,8.471,1.284,11.753,3.744c1.57,1.176-1.056,4.911-2.021,6.786a10.334,10.334,0,0,1-2.2,2.882h0Z" transform="translate(-710.958 -481.644)" fill="#122043"/>
          <path id="Trazado_20184" data-name="Trazado 20184" d="M725.138,492.875a1.659,1.659,0,0,0-2.055.184c-.644.535-.767,1.321-.275,1.755a1.661,1.661,0,0,0,2.055-.184C725.507,494.095,725.629,493.308,725.138,492.875Z" transform="translate(-712.248 -482.867)" fill="#f7a57a"/>
        </g>
        <path id="Trazado_20185" data-name="Trazado 20185" d="M717.655,508.884s-9.146,15.015-14.616,49.88c11.018,3.463,27.847,7.2,27.847,7.2s9.946-37.794-7.157-59.8A9.043,9.043,0,0,0,717.655,508.884Z" transform="translate(-691.09 -484.384)" fill="#0f787a"/>
        <path id="Trazado_20186" data-name="Trazado 20186" d="M702.076,565.379s-7.659,25.7-7.659,37.341,7.659,44.457,7.659,44.457h7.034s1.647-22.958-.376-35.851a26.081,26.081,0,0,1,.761-11.345c3.772-12.926,7.8-30.4,7.8-30.4Z" transform="translate(-690.127 -490.999)" fill="#002f4c"/>
        <path id="Trazado_20187" data-name="Trazado 20187" d="M708.866,567.691s-1.984,27.911,1.193,37.972,13.788,41.772,13.788,41.772h6.215a111.9,111.9,0,0,0-3.445-35.592,23.025,23.025,0,0,1,.449-13.517,77.753,77.753,0,0,0,4.4-25.485Z" transform="translate(-691.673 -491.257)" fill="#002f4c"/>
        <path id="Trazado_20188" data-name="Trazado 20188" d="M719.094,506.38l5.964-3.289.466,2.735-6.429,3.336Z" transform="translate(-692.884 -484.04)" fill="#fff"/>
      </g>
      <g id="Grupo_10547" data-name="Grupo 10547" transform="translate(0 9.826)">
        <g id="Grupo_10546" data-name="Grupo 10546">
          <path id="Trazado_20189" data-name="Trazado 20189" d="M712.108,564.144l-23.053,15.729s-3.072-8.192-7.43-13.1a8.308,8.308,0,0,0-6.594-2.688c-32.223,1.465-37.8-18.419-37.8-18.419s-11.64-22.1,16.034-43.893c29.505-23.233,46.424,5.54,46.424,5.54s11.857,14.342,2.89,35.695a11.237,11.237,0,0,0,.49,9.483A40.128,40.128,0,0,0,712.108,564.144Z" transform="translate(-634.801 -492.706)" fill="#a4d1bb"/>
          <path id="Trazado_20190" data-name="Trazado 20190" d="M695.836,588.8l5.634,8.257c2.111,3.094,5.859,4.247,8.329,2.561l14.036-9.577c2.47-1.685,2.764-5.6.653-8.69l-5.633-8.257Z" transform="translate(-641.62 -501.687)" fill="#ffc731"/>
          <path id="Trazado_20191" data-name="Trazado 20191" d="M713.19,600.789l4.161,2.69,8.729-5.956-.666-5.075Z" transform="translate(-643.559 -503.849)" fill="#f99200"/>
          <g id="Grupo_10545" data-name="Grupo 10545" transform="translate(25.416 30.154)">
            <path id="Trazado_20192" data-name="Trazado 20192" d="M677.707,545.523c.3-.2.609-.445.918-.676l22.317,32.708,1.575-1.075-22.4-32.834a32.313,32.313,0,0,0,3.045-2.992c.441.6.87,1.194,1.251,1.764q3.646,5.44,7.291,10.882l14.051,20.973,1.575-1.075-22.86-34.121a16.308,16.308,0,0,0,3.217-6.214c1.858-8.766-11.105-8.024-8.624.77a19.575,19.575,0,0,0,3.185,5.764,41.766,41.766,0,0,1-3.043,3.3s-2.034-3.039-3.394-4.95a5.519,5.519,0,0,0-3.14-2.257c-7.127-1.686-13.537,7.432-5.579,11.566C670.515,548.841,674.708,547.56,677.707,545.523Zm4.32-10.118c-.559-.774-3.718-7.852,2.564-7.023a2.061,2.061,0,0,1,1.569,1.068c1.22,2.414-.894,6.059-2.61,8.312A23.432,23.432,0,0,1,682.027,535.405Zm-16.9,4.576a5.943,5.943,0,0,1,6.654-2.952,4.217,4.217,0,0,1,2.727,1.787l3.431,5.028c-2.762,2.254-6.1,3.448-9.688,2.03C665.815,544.911,664.186,542.13,665.129,539.982Z" transform="translate(-663.413 -526.653)" fill="#fff"/>
          </g>
        </g>
      </g>
      <g id="Grupo_10550" data-name="Grupo 10550" transform="translate(40.07 36.53)">
        <g id="Grupo_10548" data-name="Grupo 10548" transform="translate(0 39.454)">
          <path id="Trazado_20193" data-name="Trazado 20193" d="M690.207,569.719a7.185,7.185,0,0,1-3.95.609c-2.265-.1-6.913-1.7-6.289.634,2,1.437,4.169,3.363,4.169,3.363,1.293.751,3.794.469,5.319,0l4.512-2.011s.664-2.3.715-2.407l-.908-.514A11.616,11.616,0,0,1,690.207,569.719Z" transform="translate(-679.911 -567.43)" fill="#f7a57a"/>
          <path id="Trazado_20194" data-name="Trazado 20194" d="M690.053,570.359a1.792,1.792,0,0,1-.283.236c.282.159.552.33.814.51,1.17.184,2.334.4,3.5.6.015-.687.038-1.65.052-1.717l-7.391-2.8s-.721.724.561,1.769A7.857,7.857,0,0,0,690.053,570.359Z" transform="translate(-680.652 -567.184)" fill="#f7a57a"/>
        </g>
        <path id="Trazado_20195" data-name="Trazado 20195" d="M715.574,522.768l-2.047,16.719a15.281,15.281,0,0,1-4.051,8.628l-15.058,15.967,1.491,3.741s22.685-10.692,26.858-17.025,6.262-25.643,6.262-25.643Z" transform="translate(-681.531 -522.768)" fill="#19797b"/>
        <g id="Grupo_10549" data-name="Grupo 10549" transform="translate(12.537 8.444)">
          <path id="Trazado_20196" data-name="Trazado 20196" d="M727.8,532.648c-.98,6.195-2.763,15.16-5.325,19.048-3.828,5.808-23.809,15.517-26.449,16.782l-1.3-3.268,14.928-15.829a15.483,15.483,0,0,0,4.13-8.8l.918-7.493c-.19-.107-.377-.219-.56-.338l-.95,7.757a14.9,14.9,0,0,1-3.972,8.461L694.156,564.94l-.131.139,1.681,4.212.287-.136c.929-.438,22.808-10.8,26.98-17.13,2.719-4.126,4.54-13.511,5.5-19.751Q728.141,532.469,727.8,532.648Z" transform="translate(-694.025 -532.274)" fill="#005558"/>
        </g>
      </g>
    </g>
    <g id="Grupo_10557" data-name="Grupo 10557" transform="translate(503.429 436.552)">
      <path id="Trazado_20197" data-name="Trazado 20197" d="M557.639,500.962a5.241,5.241,0,0,1,.226,3.733l-.682,4.846-.832.56-3.1,1.279a3.338,3.338,0,0,0,0-1.94l-1.361-5.012s-2.115-8.457,3.627-8.095c-.029-6.889,1.889-5.752,1.889-5.752l.132,5.955Z" transform="translate(-551.512 -484.351)" fill="#f7a57a"/>
      <path id="Trazado_20198" data-name="Trazado 20198" d="M572.079,520.041s-4.014,15.32-7.438,15.595-6.984-24.27-6.984-24.27l-4.655.562s-1.809,35.294,8.634,35.936,11.821-7.163,11.821-7.163Z" transform="translate(-551.665 -486.681)" fill="#ffd159"/>
      <path id="Trazado_20199" data-name="Trazado 20199" d="M574.929,561.927h27.319V520.435c-7.805-11.91-17.532-8.666-17.532-8.666s-8.845.159-10.223,8.272C574.493,525.912,574.929,561.927,574.929,561.927Z" transform="translate(-554.079 -486.681)" fill="#f99200"/>
      <g id="Grupo_10552" data-name="Grupo 10552" transform="translate(27.04 19.578)">
        <path id="Trazado_20200" data-name="Trazado 20200" d="M588.742,505.616l.4,5.865-.192.183a5.087,5.087,0,0,1-6.911.1h0l-.091-4.413Z" transform="translate(-581.952 -505.616)" fill="#f18c72"/>
      </g>
      <g id="Grupo_10553" data-name="Grupo 10553" transform="translate(18.404)">
        <path id="Trazado_20201" data-name="Trazado 20201" d="M590.228,491.819l-.495,9.7a1.5,1.5,0,0,0-1.346,1.9,1.806,1.806,0,0,0-.163.714,11.122,11.122,0,0,1-8.639,2.012c-6.136-1.174-2.433-13.036-2.433-13.036Z" transform="translate(-572.656 -484.497)" fill="#f7a57a"/>
        <path id="Trazado_20202" data-name="Trazado 20202" d="M592.886,498.181a5.943,5.943,0,0,1,1.555-2.685c3.474-3.006.366-5.2-.735-5.906-1.22-.783-.98-2.994-2.559-4.23-2.41-1.887-4.733.069-6.277-.217s-2.5-2.34-4.747-1.252-2,2.85-2.716,3.593-2.041-1.311-4.23,1.036c-3.33,3.571,3.2,5.1,3.2,5.1a11.853,11.853,0,0,0,8.306-.378,1.552,1.552,0,0,1,1.831.449c1.13,1.544,1.143,9.632,1.143,9.632l1.578-1.312S592.676,501.437,592.886,498.181Z" transform="translate(-572.23 -483.576)" fill="#122043"/>
        <path id="Trazado_20203" data-name="Trazado 20203" d="M590.979,500.654a1.489,1.489,0,1,1-.814-1.943A1.489,1.489,0,0,1,590.979,500.654Z" transform="translate(-574.004 -485.254)" fill="#f7a57a"/>
      </g>
      <g id="Grupo_10554" data-name="Grupo 10554" transform="translate(14.923 148.833)">
        <path id="Trazado_20204" data-name="Trazado 20204" d="M580.431,656.36s-1.54,2.131-8.8,3.979c-1.6.407-3.321.685-3.321,3.32h7.165l7.325-1.267v1.267h3.956s1.1-6.47-1.209-7.3Z" transform="translate(-568.312 -651.713)" fill="#122043"/>
        <path id="Trazado_20205" data-name="Trazado 20205" d="M581.531,651.128l.377,4.648h0a4.476,4.476,0,0,0,4.847.163l.272-.163v-4.648Z" transform="translate(-569.789 -651.128)" fill="#f7a57a"/>
      </g>
      <g id="Grupo_10555" data-name="Grupo 10555" transform="translate(35.276 148.833)">
        <path id="Trazado_20206" data-name="Trazado 20206" d="M603.342,656.36s-1.54,2.131-8.8,3.979c-1.6.407-3.32.685-3.32,3.32h7.164l7.325-1.267v1.267h3.956s1.1-6.47-1.209-7.3Z" transform="translate(-591.224 -651.713)" fill="#122043"/>
        <path id="Trazado_20207" data-name="Trazado 20207" d="M604.442,651.128l.377,4.648h0a4.476,4.476,0,0,0,4.846.163l.272-.163v-4.648Z" transform="translate(-592.701 -651.128)" fill="#f7a57a"/>
      </g>
      <path id="Trazado_20208" data-name="Trazado 20208" d="M602.337,521.576s8.188,18.9-2.26,28.551-24.631,8.01-24.631,8.01V552.7s12.821-1.084,16.929-9.655-1.643-15.987-1.643-15.987" transform="translate(-554.186 -487.821)" fill="#f99200"/>
      <path id="Trazado_20209" data-name="Trazado 20209" d="M574.953,560.941l-6.539.137c-2.655-.147-4.422-4.113-4.862-7.06a.6.6,0,0,1,.791-.648c2.219.771,7.927,2.792,9.4,3.709Z" transform="translate(-552.856 -491.37)" fill="#f7a57a"/>
      <path id="Trazado_20210" data-name="Trazado 20210" d="M574.642,568.286c-8.147,23.005,4.587,73.946,4.587,73.946h7.258s-3.423-72.234,6.025-73.946Z" transform="translate(-553.792 -493.04)" fill="#005558"/>
      <path id="Trazado_20211" data-name="Trazado 20211" d="M593.75,539.3a14.739,14.739,0,0,1-1.459,5.717c-4.108,8.571-17.6,9.706-17.6,9.706v5.5s14.85,1.537,25.3-8.117c3.788-3.5,5.12-8.215,5.287-12.8Z" transform="translate(-554.102 -489.802)" fill="#ffd159"/>
      <g id="Grupo_10556" data-name="Grupo 10556" transform="translate(36.54 38.774)">
        <path id="Trazado_20212" data-name="Trazado 20212" d="M595.692,538.784c.286-.13.575-.254.858-.39a17.55,17.55,0,0,0-3.258-11.167l-.645.511A16.568,16.568,0,0,1,595.692,538.784Z" transform="translate(-592.647 -527.227)" fill="#ef7100"/>
      </g>
      <path id="Trazado_20213" data-name="Trazado 20213" d="M556.971,502.438s1.507-.452,1.743-3.2,1.535-1.9,1.535-1.9-.676,10.841-2.4,11.248S556.971,502.438,556.971,502.438Z" transform="translate(-552.098 -485.099)" fill="#f7a57a"/>
      <path id="Trazado_20214" data-name="Trazado 20214" d="M584,568.286C581.786,596.5,599.8,642.232,599.8,642.232h8.627s-5.863-29.245-5.983-56.693a146.675,146.675,0,0,1,.847-17.253Z" transform="translate(-555.121 -493.04)" fill="#0f787a"/>
    </g>
    <g id="Grupo_10560" data-name="Grupo 10560" transform="translate(516.825 557.942)">
      <g id="Grupo_10559" data-name="Grupo 10559">
        <path id="Trazado_20215" data-name="Trazado 20215" d="M584.518,646.512l4.189,22.473s6.531-2.951,11.9-3.259a6.806,6.806,0,0,1,5.37,2.275c17.771,19.555,32.538,11.3,32.538,11.3s19.557-6.013,16.217-34.672c-3.561-30.555-30.043-23.752-30.043-23.752s-15.178,1.4-22.393,18.949a9.2,9.2,0,0,1-5.789,5.2A32.854,32.854,0,0,1,584.518,646.512Z" transform="translate(-568.595 -620.233)" fill="#a4d1bb"/>
        <path id="Trazado_20216" data-name="Trazado 20216" d="M587.162,672.283l-8.05,1.5c-3.017.562-5.852-.948-6.3-3.356l-2.55-13.684c-.449-2.408,1.651-4.839,4.668-5.4l8.05-1.5Z" transform="translate(-566.995 -623.541)" fill="#ffc731"/>
        <path id="Trazado_20217" data-name="Trazado 20217" d="M572.145,669.924l-3.966-.862-1.586-8.51,3.331-2.546Z" transform="translate(-566.592 -624.453)" fill="#f99200"/>
        <g id="Grupo_10558" data-name="Grupo 10558" transform="translate(17.478 19.791)">
          <path id="Trazado_20218" data-name="Trazado 20218" d="M624.695,664.931c7,2.23,8.588-6.76,3.491-9.923a4.517,4.517,0,0,0-3.125-.519c-1.9.315-4.836.89-4.836.89a34.277,34.277,0,0,1,.16-3.676,16.048,16.048,0,0,0,5.188-1.482c6.539-3.641-.521-11.6-4.537-5.452a13.358,13.358,0,0,0-1.747,5.458l-33.02,6.446.286,1.535,20.3-3.962,10.531-2.056c.552-.107,1.142-.2,1.746-.293a26.441,26.441,0,0,0,.023,3.5l-32.009,5.967.287,1.536,31.886-5.944c.044.313.083.636.137.924C620,660.8,621.681,663.97,624.695,664.931ZM620.581,650c.316-2.3,1.211-5.631,3.317-6.318a1.689,1.689,0,0,1,1.527.294c4.112,3.168-1.824,5.424-2.6,5.546A19.143,19.143,0,0,1,620.581,650Zm4.13,13.569c-2.895-1.261-4.133-3.892-4.42-6.8l4.9-.913a3.451,3.451,0,0,1,2.613.55,4.868,4.868,0,0,1,2.131,5.569C629.235,663.767,626.679,664.427,624.711,663.57Z" transform="translate(-586.268 -642.513)" fill="#fff"/>
        </g>
      </g>
    </g>
    <g id="Grupo_10568" data-name="Grupo 10568" transform="translate(121.133 434.248)">
      <g id="Grupo_10561" data-name="Grupo 10561" transform="translate(27.695 156.102)">
        <path id="Trazado_20219" data-name="Trazado 20219" d="M157.186,660.586s1.139,1.577,6.508,2.944c1.181.3,2.456.506,2.456,2.456h-5.3l-5.418-.936v.936h-2.926s-.815-4.785.895-5.4Z" transform="translate(-152.312 -657.149)" fill="#122043"/>
        <path id="Trazado_20220" data-name="Trazado 20220" d="M157.6,656.717l-.278,3.437h0a3.309,3.309,0,0,1-3.585.121l-.2-.121v-3.437Z" transform="translate(-152.449 -656.717)" fill="#f7a57a"/>
      </g>
      <g id="Grupo_10562" data-name="Grupo 10562" transform="translate(0.515 156.786)">
        <path id="Trazado_20221" data-name="Trazado 20221" d="M126.587,661.358s1.139,1.576,6.508,2.943c1.181.3,2.456.507,2.456,2.457h-5.3l-5.418-.937v.937h-2.927s-.815-4.786.895-5.4Z" transform="translate(-121.713 -657.92)" fill="#122043"/>
        <path id="Trazado_20222" data-name="Trazado 20222" d="M127,657.488l-.278,3.438h0a3.311,3.311,0,0,1-3.585.12l-.2-.12v-3.438Z" transform="translate(-121.85 -657.488)" fill="#f7a57a"/>
      </g>
      <path id="Trazado_20223" data-name="Trazado 20223" d="M158.6,560.679l-1.32,86.348h-6.291s-9.576-69.715-7.531-86.348S158.6,560.679,158.6,560.679Z" transform="translate(-123.596 -489.06)" fill="#122043"/>
      <path id="Trazado_20224" data-name="Trazado 20224" d="M149.556,561.587s-2.19,26.526-7.22,41.209-14.113,45.158-14.113,45.158h-6.511s10.873-63.683,8.387-86.367h19.457Z" transform="translate(-121.198 -489.987)" fill="#002b49"/>
      <path id="Trazado_20225" data-name="Trazado 20225" d="M159,512.109s7.753,18.08,9.72,18.08c1.574,0-.59-14.763-.59-14.763h6.493s8.166,25.3,1.673,29.928-20.759-13.085-20.759-13.085Z" transform="translate(-124.977 -484.46)" fill="#19797b"/>
      <path id="Trazado_20226" data-name="Trazado 20226" d="M133.413,564.122l2.35,5.809c1.133,2.282,5.291,2.34,8.052,1.615a.573.573,0,0,0,.27-.942,79.828,79.828,0,0,0-6.815-6.878Z" transform="translate(-122.505 -490.226)" fill="#f7a57a"/>
      <path id="Trazado_20227" data-name="Trazado 20227" d="M153.067,507.9s4.05,2.746,4.05,5.894V555.58H133.39V516.51s.486-8.687,8.979-8.687S153.067,507.9,153.067,507.9Z" transform="translate(-122.502 -483.981)" fill="#19797b"/>
      <g id="Grupo_10563" data-name="Grupo 10563" transform="translate(34.22 34.086)">
        <path id="Trazado_20228" data-name="Trazado 20228" d="M159.657,556.887V519.355l.787.026v37.506Z" transform="translate(-159.657 -519.355)" fill="#005558"/>
      </g>
      <path id="Trazado_20229" data-name="Trazado 20229" d="M142.436,499.288l3.259,9.3a6.017,6.017,0,0,0,5.083.6c2.795-.979,2.088-2.993,2.088-2.993l-2.088-5.96-4.512.371Z" transform="translate(-123.513 -483.027)" fill="#f18c72"/>
      <path id="Trazado_20230" data-name="Trazado 20230" d="M151.414,500.223a3.667,3.667,0,0,0,1.885-1.266c1.1-4.822-5.465-14.49-5.465-14.49l-8.437,4.768,2.215,7.242a6.352,6.352,0,0,0,3.976,4.138h0A10.186,10.186,0,0,0,151.414,500.223Z" transform="translate(-123.173 -481.371)" fill="#f7a57a"/>
      <path id="Trazado_20231" data-name="Trazado 20231" d="M143.406,487.55a20.413,20.413,0,0,0,6.133-2.149c2.947-1.66-.278-4.419-.278-4.419a13.1,13.1,0,0,1-6.3,2.715c-2.935.566-3.875.287-5.33,1.868-1.976,2.147.151,6.336.151,6.336l4.6,8.826.5-.176s-1.814-5.571-2.473-7.453c.226-1.041.8-1.241,1.309-1.181a1.49,1.49,0,0,1,1.193,1.016l3.383,9.651s7.074.5,8.471-.532-2.156-7.814-2.156-7.814a3.042,3.042,0,0,0-2.926,1.9c-.841,2.036-3.087,1.012-3.087,1.012Z" transform="translate(-122.882 -480.982)" fill="#122043"/>
      <path id="Trazado_20232" data-name="Trazado 20232" d="M174.521,514.794l-.229-1.247c-.506-2.762-3.145-6.2-5.8-7.1h-2.756l.854,5.889,3.89,2.454Z" transform="translate(-126.116 -483.827)" fill="#f7a57a"/>
      <path id="Trazado_20233" data-name="Trazado 20233" d="M141.277,493.316a1.663,1.663,0,0,1,2,.958,1.433,1.433,0,0,1-.429,2.041,1.664,1.664,0,0,1-2-.958A1.433,1.433,0,0,1,141.277,493.316Z" transform="translate(-123.31 -482.349)" fill="#f7a57a"/>
      <path id="Trazado_20234" data-name="Trazado 20234" d="M167.5,512.085l5.371,3.108s-3.37-.035-3.424,0l-5.684-4.757s.412-.831,1.7-.129A6.54,6.54,0,0,1,167.5,512.085Z" transform="translate(-125.896 -484.227)" fill="#f7a57a"/>
      <path id="Trazado_20235" data-name="Trazado 20235" d="M134.547,510.767s-13.414,14.9-13.414,23.832,10.888,24.673,10.888,24.673L137.4,557.7s-4.854-19.48-4.854-24.661,9.969-12.78,9.969-12.78" transform="translate(-121.133 -484.31)" fill="#19797b"/>
      <g id="Grupo_10564" data-name="Grupo 10564" transform="translate(11.019 35.635)">
        <path id="Trazado_20236" data-name="Trazado 20236" d="M134.325,534.191c0,4.461,3.948,20.772,4.877,24.572-.273.072-.385.093-.8.2-1.141-4.695-4.867-20.389-4.867-24.773,0-5.315,9.712-12.777,10.125-13.092l.477.626C144.041,521.8,134.325,529.261,134.325,534.191Z" transform="translate(-133.538 -521.099)" fill="#005558"/>
      </g>
      <g id="Grupo_10567" data-name="Grupo 10567" transform="translate(31.603 3.03)">
        <path id="Trazado_20237" data-name="Trazado 20237" d="M162.224,501.166a14.233,14.233,0,0,0,4.917,9.5,1.548,1.548,0,0,0,1.109.3,3.937,3.937,0,0,0,1.724-.749,1.725,1.725,0,0,0,.894-1.054.746.746,0,0,0-.266-.735c-.963-.868-4.03-3.916-3.842-7.341A5.829,5.829,0,0,0,162.224,501.166Z" transform="translate(-157.327 -486.209)" fill="#f4872e"/>
        <path id="Trazado_20238" data-name="Trazado 20238" d="M170.689,509.894a1.139,1.139,0,0,0,.463-.738.746.746,0,0,0-.266-.735c-.963-.868-4.03-3.916-3.842-7.341a4.92,4.92,0,0,0-2.28-.427C165.529,504.17,166.862,506.315,170.689,509.894Z" transform="translate(-157.611 -486.209)" fill="#fda630"/>
        <g id="Grupo_10566" data-name="Grupo 10566" transform="translate(8.829 17.015)">
          <g id="Grupo_10565" data-name="Grupo 10565" transform="translate(0 0.025)">
            <path id="Trazado_20239" data-name="Trazado 20239" d="M166.965,505.348c.366.759.9,1.26,1.2,1.116s.244-.877-.122-1.637-.9-1.26-1.2-1.116S166.6,504.588,166.965,505.348Z" transform="translate(-166.651 -503.588)" fill="#f4872e"/>
            <path id="Trazado_20240" data-name="Trazado 20240" d="M166.8,503.738l.312-.162.017.173-.2.142Z" transform="translate(-166.668 -503.576)" fill="#f4872e"/>
            <path id="Trazado_20241" data-name="Trazado 20241" d="M168.264,506.814l.382-.178-.473.048Z" transform="translate(-166.821 -503.918)" fill="#de1d4c"/>
          </g>
          <path id="Trazado_20242" data-name="Trazado 20242" d="M167.252,505.21c.366.759.9,1.26,1.2,1.116s.245-.877-.121-1.636-.9-1.26-1.2-1.117S166.887,504.45,167.252,505.21Z" transform="translate(-166.683 -503.548)" fill="#ffc630"/>
        </g>
        <path id="Trazado_20243" data-name="Trazado 20243" d="M159.02,496.316l-.617.155a2.166,2.166,0,0,0-1.631,2.58l.407,1.622a2.166,2.166,0,0,0,2.656,1.5l.617-.155Z" transform="translate(-156.711 -485.725)" fill="#ffc630"/>
        <path id="Trazado_20244" data-name="Trazado 20244" d="M180.321,491.859c1.111,4.426.994,8.27-.261,8.585s-3.174-3.018-4.285-7.445-.994-8.271.262-8.586S179.21,487.432,180.321,491.859Z" transform="translate(-158.756 -484.393)" fill="#122043"/>
        <path id="Trazado_20245" data-name="Trazado 20245" d="M174.9,490.785l2.09.718.651,2.593-1.43,2.145-1.486-3.211Z" transform="translate(-158.724 -485.107)" fill="#fff"/>
        <path id="Trazado_20246" data-name="Trazado 20246" d="M173.977,493.054c-.934-3.72-1-7.019-.249-8.168l-.006,0a37.765,37.765,0,0,1-14.8,10.3l1.419,5.657s11.77-3.667,17.271-.466l.005,0C176.416,499.717,174.912,496.777,173.977,493.054Z" transform="translate(-156.958 -484.448)" fill="#f99200"/>
        <path id="Trazado_20247" data-name="Trazado 20247" d="M177.836,492.821c.18.719.217,1.33.081,1.364s-.392-.521-.572-1.241-.217-1.33-.082-1.364S177.654,492.1,177.836,492.821Z" transform="translate(-158.998 -485.196)" fill="#ffc630"/>
      </g>
      <path id="Trazado_20248" data-name="Trazado 20248" d="M171.561,510.532a6.324,6.324,0,0,1-3,.489c-1.562,0-2.265-1.92-2.532-2.963-.094-.368-.177-.889.282-1.124l2.508-.348Z" transform="translate(-126.141 -483.843)" fill="#f7a57a"/>
    </g>
    <g id="Grupo_10569" data-name="Grupo 10569" transform="translate(277 173.079)">
      <path id="Trazado_20249" data-name="Trazado 20249" d="M331.752,202.862A49.076,49.076,0,0,1,296.6,188.437l1.65-1.472a47.74,47.74,0,0,0,33.5,13.685c21.189,0,31.6-7.486,31.706-7.562l1.311,1.782C364.326,195.2,353.661,202.862,331.752,202.862Z" transform="translate(-296.604 -186.965)" fill="#53b6b9"/>
    </g>
    <g id="Grupo_10573" data-name="Grupo 10573" transform="translate(312.228 69.228)">
      <g id="Grupo_10570" data-name="Grupo 10570" transform="translate(0 0)">
        <path id="Trazado_20250" data-name="Trazado 20250" d="M469.231,152.664c-.391-1.47-5.156-4.814-11.1-7.435a56.511,56.511,0,0,0-.141-16.508c5.341-1.943,10.77-4.55,11.422-7.287,1.323-5.554-6.222-19.126-8.315-20.339-1.34-.776-7.261.282-13.441,2.725a56.508,56.508,0,0,0-11.46-11.663c2.412-5.161,4.422-10.868,2.943-13.271-2.992-4.862-17.925-9.124-20.262-8.5-1.465.39-4.793,5.126-7.41,11.046a56.462,56.462,0,0,0-16.744-.377c-1.919-5.149-4.437-10.219-7.075-10.847-5.554-1.323-19.127,6.222-20.34,8.315-.722,1.246.14,6.454,2.23,12.148a56.506,56.506,0,0,0-12.723,12.046c-4.711-2.071-9.553-3.568-11.715-2.237-4.863,2.992-9.125,17.925-8.5,20.262.351,1.317,4.214,4.14,9.292,6.6a56.493,56.493,0,0,0-.329,18.218c-4.513,1.818-8.583,4.068-9.141,6.413-1.323,5.554,6.222,19.127,8.316,20.34,1.151.668,5.692-.021,10.871-1.781a56.467,56.467,0,0,0,13,13.028c-1.9,4.464-3.172,8.913-1.912,10.96,2.992,4.863,17.925,9.125,20.263,8.5,1.32-.351,4.153-4.234,6.616-9.33a56.515,56.515,0,0,0,17.951-.253c1.86,4.755,4.21,9.177,6.662,9.761,5.554,1.323,19.126-6.222,20.339-8.315.726-1.252-.149-6.507-2.262-12.233a56.438,56.438,0,0,0,11.923-12.333c4.961,2.257,10.257,4.019,12.548,2.609C465.592,169.934,469.854,155,469.231,152.664Zm-77.246,8.213a25.416,25.416,0,1,1,33.271-13.6A25.417,25.417,0,0,1,391.985,160.877Z" transform="translate(-336.263 -70.052)" fill="#a4d1bb"/>
      </g>
      <g id="Grupo_10571" data-name="Grupo 10571" transform="translate(29.565 30.553)">
        <path id="Trazado_20251" data-name="Trazado 20251" d="M391.859,174.4A36.395,36.395,0,1,1,439.5,154.926,36.436,36.436,0,0,1,391.859,174.4Zm27.792-66.233a35.432,35.432,0,1,0,18.962,46.382A35.473,35.473,0,0,0,419.651,108.171Z" transform="translate(-369.546 -104.448)" fill="#fff"/>
      </g>
      <g id="Grupo_10572" data-name="Grupo 10572" transform="translate(13.734 15.046)">
        <path id="Trazado_20252" data-name="Trazado 20252" d="M455.333,156.666c-.21-.117-.417-.238-.621-.365a51.844,51.844,0,0,1-102.284-1.49h-.006c-.234-.043-.466-.1-.7-.154a52.517,52.517,0,0,0,103.609,2.009Z" transform="translate(-351.724 -94.55)" fill="#fff"/>
        <path id="Trazado_20253" data-name="Trazado 20253" d="M395.163,89.446A51.583,51.583,0,0,1,428.6,91.7c.215.091.422.194.635.286.011-.238.034-.475.056-.713-.146-.062-.285-.132-.431-.194a52.256,52.256,0,0,0-33.741-2.316C395.142,88.988,395.155,89.216,395.163,89.446Z" transform="translate(-356.573 -86.99)" fill="#fff"/>
      </g>
    </g>
    <g id="Grupo_10586" data-name="Grupo 10586" transform="translate(182.946 276.189)">
      <g id="Grupo_10585" data-name="Grupo 10585">
        <g id="Grupo_10574" data-name="Grupo 10574">
          <path id="Trazado_20254" data-name="Trazado 20254" d="M194.834,612.142l72.229-309.1H262.95l-72.229,309.1Z" transform="translate(-190.72 -303.043)" fill="#53b6b9"/>
        </g>
        <g id="Grupo_10575" data-name="Grupo 10575" transform="translate(37.347)">
          <path id="Trazado_20255" data-name="Trazado 20255" d="M236.878,612.142l72.229-309.1h-4.113l-72.229,309.1Z" transform="translate(-232.765 -303.043)" fill="#53b6b9"/>
        </g>
        <g id="Grupo_10576" data-name="Grupo 10576" transform="translate(53.517 80.24)">
          <path id="Trazado_20256" data-name="Trazado 20256" d="M250.968,393.4v4.608l38.7-.03.661-4.608Z" transform="translate(-250.968 -393.375)" fill="#53b6b9"/>
        </g>
        <g id="Grupo_10577" data-name="Grupo 10577" transform="translate(61.517 50.29)">
          <path id="Trazado_20257" data-name="Trazado 20257" d="M259.975,359.688V364.3l38.7-.03.661-4.609Z" transform="translate(-259.975 -359.658)" fill="#53b6b9"/>
        </g>
        <g id="Grupo_10578" data-name="Grupo 10578" transform="translate(68.133 20.34)">
          <path id="Trazado_20258" data-name="Trazado 20258" d="M267.422,325.971v4.608l38.7-.029.661-4.609Z" transform="translate(-267.422 -325.941)" fill="#53b6b9"/>
        </g>
        <g id="Grupo_10579" data-name="Grupo 10579" transform="translate(46.468 110.575)">
          <path id="Trazado_20259" data-name="Trazado 20259" d="M243.033,427.555v4.608l38.7-.03.661-4.608Z" transform="translate(-243.033 -427.526)" fill="#53b6b9"/>
        </g>
        <g id="Grupo_10580" data-name="Grupo 10580" transform="translate(39.852 140.909)">
          <path id="Trazado_20260" data-name="Trazado 20260" d="M235.585,461.7v4.609l38.7-.03.661-4.609Z" transform="translate(-235.585 -461.675)" fill="#53b6b9"/>
        </g>
        <g id="Grupo_10581" data-name="Grupo 10581" transform="translate(31.445 172.425)">
          <path id="Trazado_20261" data-name="Trazado 20261" d="M227.684,497.184l-1.564,4.61,38.7-.03.661-4.609Z" transform="translate(-226.121 -497.155)" fill="#53b6b9"/>
        </g>
        <g id="Grupo_10582" data-name="Grupo 10582" transform="translate(24.19 203.942)">
          <path id="Trazado_20262" data-name="Trazado 20262" d="M219.516,532.664l-1.564,4.61,38.7-.03.661-4.609Z" transform="translate(-217.952 -532.635)" fill="#53b6b9"/>
        </g>
        <g id="Grupo_10583" data-name="Grupo 10583" transform="translate(17.395 234.756)">
          <path id="Trazado_20263" data-name="Trazado 20263" d="M211.867,567.354l-1.564,4.61,38.7-.03.661-4.609Z" transform="translate(-210.303 -567.325)" fill="#53b6b9"/>
        </g>
        <g id="Grupo_10584" data-name="Grupo 10584" transform="translate(11.765 266.242)">
          <path id="Trazado_20264" data-name="Trazado 20264" d="M205.529,602.8l-1.564,4.61,38.7-.03.661-4.609Z" transform="translate(-203.965 -602.771)" fill="#53b6b9"/>
        </g>
      </g>
    </g>
    <path id="Trazado_20265" data-name="Trazado 20265" d="M385.045,266.374c-9.9,0-19.456.34-28.438.972,0,.3.009.6,0,.895a11.237,11.237,0,0,1-1.753,5.627,15.514,15.514,0,0,1-14.536,8.19h-4a15.029,15.029,0,0,1-7.425-2.683l-2.979-2.744a12.812,12.812,0,0,1-2.762-5.117c-20.538,3.949-33.566,9.826-33.566,16.39,0,11.891,42.739,21.53,95.459,21.53s95.458-9.64,95.458-21.53S437.764,266.374,385.045,266.374Z" transform="translate(-18.82 -22.757)" fill="#005558"/>
    <g id="Grupo_10590" data-name="Grupo 10590" transform="translate(285.458 196.789)">
      <g id="Grupo_10587" data-name="Grupo 10587" transform="translate(0 0)">
        <path id="Trazado_20266" data-name="Trazado 20266" d="M382.583,266.909c-.123-.871-2.628-3.122-5.86-5.041a32.7,32.7,0,0,0,1.065-9.489c3.2-.744,6.5-1.864,7.065-3.391,1.146-3.1-2.245-11.416-3.362-12.258-.716-.538-4.189-.342-7.908.632a32.7,32.7,0,0,0-5.77-7.493c1.743-2.8,3.294-5.934,2.612-7.416-1.381-3-9.66-6.485-11.046-6.29-.868.122-3.108,2.611-5.022,5.829a32.647,32.647,0,0,0-9.59-1.379c-.744-3.09-1.839-6.176-3.31-6.721-3.1-1.145-11.416,2.246-12.258,3.363-.5.665-.368,3.717.438,7.131a32.686,32.686,0,0,0-8.144,6.034c-2.561-1.516-5.238-2.712-6.572-2.1-3,1.38-6.485,9.66-6.29,11.046.109.78,2.132,2.669,4.878,4.434a32.675,32.675,0,0,0-1.453,10.439c-2.718.731-5.211,1.74-5.7,3.049-1.145,3.1,2.246,11.416,3.363,12.258.615.463,3.271.383,6.366-.268a32.684,32.684,0,0,0,6.56,8.384c-1.4,2.432-2.441,4.9-1.859,6.162,1.38,3,9.66,6.484,11.046,6.29.783-.11,2.679-2.143,4.448-4.9a32.7,32.7,0,0,0,10.326,1.1c.738,2.86,1.78,5.562,3.148,6.069,3.1,1.145,11.416-2.246,12.258-3.363.5-.669.365-3.747-.45-7.183a32.642,32.642,0,0,0,7.7-6.254c2.692,1.641,5.611,3.02,7.025,2.37C379.293,276.575,382.777,268.295,382.583,266.909Zm-44.932-.648a14.7,14.7,0,1,1,20.052-5.5A14.7,14.7,0,0,1,337.651,266.261Z" transform="translate(-306.126 -213.657)" fill="#a4d1bb"/>
      </g>
      <g id="Grupo_10588" data-name="Grupo 10588" transform="translate(18.014 18.555)">
        <path id="Trazado_20267" data-name="Trazado 20267" d="M337.037,273.89a21.053,21.053,0,1,1,28.713-7.877A21.076,21.076,0,0,1,337.037,273.89Zm20.56-36.106a20.5,20.5,0,1,0,7.669,27.953A20.518,20.518,0,0,0,357.6,237.784Z" transform="translate(-326.405 -234.545)" fill="#fff"/>
      </g>
      <g id="Grupo_10589" data-name="Grupo 10589" transform="translate(8.501 9.567)">
        <path id="Trazado_20268" data-name="Trazado 20268" d="M375.056,267.812c-.112-.082-.223-.165-.33-.252a29.99,29.99,0,0,1-58.636-7.96h0q-.2-.061-.39-.136a30.379,30.379,0,0,0,59.36,8.349Z" transform="translate(-315.696 -228.342)" fill="#fff"/>
        <path id="Trazado_20269" data-name="Trazado 20269" d="M345.153,225.121a29.837,29.837,0,0,1,19.047,3.614c.118.067.229.14.346.209.022-.137.052-.271.081-.406-.078-.046-.154-.1-.233-.141a30.226,30.226,0,0,0-19.216-3.673C345.173,224.856,345.164,224.988,345.153,225.121Z" transform="translate(-318.987 -224.428)" fill="#fff"/>
      </g>
    </g>
    <g id="Grupo_10605" data-name="Grupo 10605" transform="translate(233.048 62.678)">
      <g id="Grupo_10598" data-name="Grupo 10598" transform="translate(9.257 97.089)">
        <path id="Trazado_20270" data-name="Trazado 20270" d="M283.98,175.558l.212.1a3.192,3.192,0,0,0,2.389.15l.14-.047a4.264,4.264,0,0,0,2.715-2.753h0a.791.791,0,0,0-.916-1.014l-1.586.332a2.389,2.389,0,0,0-1.506,1.026Z" transform="translate(-260.499 -171.978)" fill="#f7a57a"/>
        <path id="Trazado_20271" data-name="Trazado 20271" d="M284.933,181.247s1.265,11.986-1.281,19.618c1.182,1.027,5.522,5.678,6.887-.351s-1.532-21.378-1.532-21.378Z" transform="translate(-260.462 -172.778)" fill="#f7a57a"/>
        <g id="Grupo_10593" data-name="Grupo 10593" transform="translate(19.965 158.791)">
          <path id="Trazado_20272" data-name="Trazado 20272" d="M281.262,355.441l12.539-.015c1.665.174,3.526.648,3.837,2.091a8.371,8.371,0,0,1,.181,1.911c-.443.521-17.071-.069-17.071-.069l-.072-.06C278.915,357.179,281.262,355.441,281.262,355.441Z" transform="translate(-280.021 -351.264)" fill="#002f4c"/>
          <path id="Trazado_20273" data-name="Trazado 20273" d="M297.911,359.922l-17.071-.069.148.664h16.947Z" transform="translate(-280.113 -351.759)" fill="#53b6b9"/>
          <g id="Grupo_10591" data-name="Grupo 10591" transform="translate(5.887 4.162)">
            <path id="Trazado_20274" data-name="Trazado 20274" d="M286.966,355.426l1.129.008-.351,1.537h-1.1Z" transform="translate(-286.648 -355.426)" fill="#fff"/>
          </g>
          <g id="Grupo_10592" data-name="Grupo 10592" transform="translate(8.307 4.162)">
            <path id="Trazado_20275" data-name="Trazado 20275" d="M289.691,355.426l1.129.008-.352,1.537h-1.1Z" transform="translate(-289.374 -355.426)" fill="#fff"/>
          </g>
          <path id="Trazado_20276" data-name="Trazado 20276" d="M280.449,350.741l.861,4.177h0a4.064,4.064,0,0,0,3.361.079l.191-.084.6-4.172Z" transform="translate(-280.069 -350.741)" fill="#f7a57a"/>
        </g>
        <g id="Grupo_10596" data-name="Grupo 10596" transform="translate(4.049 158.791)">
          <path id="Trazado_20277" data-name="Trazado 20277" d="M263.345,355.441l12.539-.015c1.665.174,3.526.648,3.837,2.091a8.371,8.371,0,0,1,.181,1.911c-.443.521-17.07-.069-17.07-.069l-.073-.06C261,357.179,263.345,355.441,263.345,355.441Z" transform="translate(-262.104 -351.264)" fill="#002b49"/>
          <path id="Trazado_20278" data-name="Trazado 20278" d="M279.994,359.922l-17.071-.069.148.664h16.947Z" transform="translate(-262.196 -351.759)" fill="#53b6b9"/>
          <g id="Grupo_10594" data-name="Grupo 10594" transform="translate(5.887 4.162)">
            <path id="Trazado_20279" data-name="Trazado 20279" d="M269.049,355.426l1.129.008-.351,1.537h-1.1Z" transform="translate(-268.731 -355.426)" fill="#fff"/>
          </g>
          <g id="Grupo_10595" data-name="Grupo 10595" transform="translate(8.308 4.162)">
            <path id="Trazado_20280" data-name="Trazado 20280" d="M271.774,355.426l1.129.008-.352,1.537h-1.1Z" transform="translate(-271.457 -355.426)" fill="#fff"/>
          </g>
          <path id="Trazado_20281" data-name="Trazado 20281" d="M262.532,350.741l.861,4.177h0a4.064,4.064,0,0,0,3.361.079l.191-.084.6-4.172Z" transform="translate(-262.152 -350.741)" fill="#f7a57a"/>
        </g>
        <g id="Grupo_10597" data-name="Grupo 10597" transform="translate(1.01 6.358)">
          <path id="Trazado_20282" data-name="Trazado 20282" d="M269.008,179.136l-10.326,6.733,3.187,8.161c.045.115.106.222.156.334.227-.014.454-.028.683-.028.037,0,.075,0,.112,0s.071,0,.107,0a7.967,7.967,0,0,1,6.582,3.989,13.72,13.72,0,0,0,4.875-1.265,5.039,5.039,0,0,0,2.3-1.739C277.787,189.534,269.008,179.136,269.008,179.136Z" transform="translate(-258.682 -179.136)" fill="#f7a57a"/>
        </g>
        <path id="Trazado_20283" data-name="Trazado 20283" d="M267.629,200.586l-.9,5.635h7.983l.574-6.9Z" transform="translate(-258.571 -175.033)" fill="#f18c72"/>
        <path id="Trazado_20284" data-name="Trazado 20284" d="M269.5,197.922l-2.425-5.38,1.576-.99a2.965,2.965,0,0,0,1.229-3.467l-1.727-5.07s4.913-.6,4.765-5.179c0-2.357-3.243-2.37-3.243-2.37a4.718,4.718,0,0,1-3.979,2.357c-1.292-.163-4.838.314-7.232,4.49-1.609,2.809-.9,7.208.5,10.51,1.255,2.959,4.461,4.611,7.637,5.1Z" transform="translate(-257.545 -172.368)" fill="#002b49"/>
        <path id="Trazado_20285" data-name="Trazado 20285" d="M260.208,251.621s1.045,19,3.335,34.034A23.5,23.5,0,0,1,262.321,296c-4.484,14.8-.61,44.371-.61,44.371h7.023s8.633-40.394,8.153-55.127c-.5-15.3,3.878-20.747,3.878-20.747l-4.879-12.875Z" transform="translate(-257.837 -180.876)" fill="#122043"/>
        <path id="Trazado_20286" data-name="Trazado 20286" d="M266.8,191.763a2.282,2.282,0,0,0,1.3,2.5c1.009.537,2.063.284,2.351-.563a2.285,2.285,0,0,0-1.3-2.506C268.142,190.662,267.089,190.915,266.8,191.763Z" transform="translate(-258.571 -174.094)" fill="#f7a57a"/>
        <path id="Trazado_20287" data-name="Trazado 20287" d="M260.215,251.621S259.926,264.5,273.5,285.8a20.525,20.525,0,0,1,3.2,12.239c-.881,15,.5,42.332.5,42.332h7.122s10.225-39.449,8.352-55.835-9.555-32.912-9.555-32.912Z" transform="translate(-257.844 -180.876)" fill="#002f4c"/>
      </g>
      <g id="Grupo_10604" data-name="Grupo 10604">
        <g id="Grupo_10600" data-name="Grupo 10600" transform="translate(13.675 27.403)">
          <path id="Trazado_20288" data-name="Trazado 20288" d="M279.953,160.489l22.015-.12s-1.677-6.695-1.048-11.837a6.552,6.552,0,0,1,3.075-4.7c21.577-13.491,16.287-28.9,16.287-28.9s-2.348-19.564-30.082-21.31c-29.567-1.861-27.657,24.4-27.657,24.4s-1.27,14.625,14.121,24.468a8.863,8.863,0,0,1,3.932,6.377A31.662,31.662,0,0,1,279.953,160.489Z" transform="translate(-262.518 -93.528)" fill="#ffc630"/>
          <path id="Trazado_20289" data-name="Trazado 20289" d="M304.165,168.716l.043,7.886c.016,2.954-1.9,5.383-4.26,5.4l-13.4.073c-2.359.013-4.3-2.394-4.319-5.349l-.043-7.885Z" transform="translate(-264.715 -101.928)" fill="#122043"/>
          <path id="Trazado_20290" data-name="Trazado 20290" d="M299.153,183.677l-1.5,3.611-8.336.045-1.842-3.593Z" transform="translate(-265.307 -103.599)" fill="#002f4c"/>
          <g id="Grupo_10599" data-name="Grupo 10599" transform="translate(18.059 24.792)">
            <path id="Trazado_20291" data-name="Trazado 20291" d="M304.172,128.446c3.313-6.251-4.934-9.3-8.805-5.009a4.351,4.351,0,0,0-1.027,2.873c-.027,1.851.015,4.735.015,4.735a32.894,32.894,0,0,1-3.456-.781,15.472,15.472,0,0,0-.516-5.171c-2.33-6.82-11.079-1.492-5.944,3.366a12.864,12.864,0,0,0,4.874,2.592q.225,16.2.45,32.4l1.5-.008-.277-19.913q-.072-5.167-.143-10.333c-.008-.541.005-1.117.021-1.705a25.5,25.5,0,0,0,3.318.577l.171,31.357,1.5-.008-.17-31.237c.3.012.616.03.9.028C299.448,132.184,302.745,131.137,304.172,128.446Zm-14.855,1.34c-2.124-.694-5.13-2.113-5.42-4.227a1.625,1.625,0,0,1,.54-1.4c3.707-3.355,4.828,2.657,4.812,3.41A18.5,18.5,0,0,1,289.317,129.786Zm13.568-1.589c-1.692,2.527-4.4,3.25-7.2,3.025l-.026-4.8a3.326,3.326,0,0,1,.969-2.382,4.689,4.689,0,0,1,5.643-1.066C303.846,123.944,304.034,126.479,302.885,128.2Z" transform="translate(-282.849 -121.438)" fill="#fff"/>
          </g>
        </g>
        <g id="Grupo_10601" data-name="Grupo 10601" transform="translate(0 9.241)">
          <path id="Trazado_20292" data-name="Trazado 20292" d="M260.292,86.12a1.164,1.164,0,0,0-.009-1.647L249.107,73.419a1.164,1.164,0,0,0-1.637,1.656l11.175,11.055A1.164,1.164,0,0,0,260.292,86.12Z" transform="translate(-247.124 -73.082)" fill="#ffd159"/>
        </g>
        <g id="Grupo_10602" data-name="Grupo 10602" transform="translate(61.889 8.845)">
          <path id="Trazado_20293" data-name="Trazado 20293" d="M317.143,85.8a1.164,1.164,0,0,1-.009-1.647l11.056-11.175a1.164,1.164,0,1,1,1.655,1.638L318.789,85.795A1.164,1.164,0,0,1,317.143,85.8Z" transform="translate(-316.797 -72.636)" fill="#ffd159"/>
        </g>
        <g id="Grupo_10603" data-name="Grupo 10603" transform="translate(39.941)">
          <path id="Trazado_20294" data-name="Trazado 20294" d="M293.344,80.726a1.163,1.163,0,0,0,1.158-1.171l-.085-15.719a1.165,1.165,0,1,0-2.329.012l.085,15.72A1.164,1.164,0,0,0,293.344,80.726Z" transform="translate(-292.088 -62.678)" fill="#ffd159"/>
        </g>
      </g>
      <path id="Trazado_20295" data-name="Trazado 20295" d="M290.573,211.27s9.43-3,12.384-7.04-2.046-26.137-2.046-26.137l.647-3.977a3.7,3.7,0,0,0-3.622-4.3l-2.519-.022a1.442,1.442,0,0,0-1.331,2.027l3.314,7.455s2.486,16.738-1,18.008a39.247,39.247,0,0,1-8.855,1.836Z" transform="translate(-251.64 -74.646)" fill="#f7a57a"/>
      <path id="Trazado_20296" data-name="Trazado 20296" d="M283.111,246.123h-22.9V216.749a12.463,12.463,0,0,1,11.3-12.409l15.922-1.928s1.872,2.866,7.089,9.525A53.778,53.778,0,0,1,281,217.6Z" transform="translate(-248.586 -78.289)" fill="#53b6b9"/>
    </g>
    <g id="Grupo_10609" data-name="Grupo 10609" transform="translate(372.531 203.149)">
      <g id="Grupo_10606" data-name="Grupo 10606">
        <path id="Trazado_20297" data-name="Trazado 20297" d="M458.853,255.854c-.142-.609-2.06-2.045-4.472-3.2a23.252,23.252,0,0,0,.152-6.792c2.222-.731,4.488-1.734,4.791-2.851.615-2.268-2.316-7.947-3.161-8.472-.541-.337-2.99.023-5.563.95a23.215,23.215,0,0,0-4.565-4.943c1.058-2.092,1.957-4.414,1.379-5.42-1.168-2.039-7.256-3.981-8.225-3.756-.608.142-2.036,2.047-3.188,4.449a23.239,23.239,0,0,0-6.882-.369c-.723-2.143-1.695-4.259-2.772-4.552-2.267-.615-7.946,2.316-8.471,3.161-.313.5-.024,2.657.763,5.025a23.255,23.255,0,0,0-5.387,4.793c-1.911-.912-3.884-1.59-4.79-1.069-2.038,1.168-3.981,7.255-3.755,8.225.127.545,1.681,1.756,3.738,2.832a23.233,23.233,0,0,0-.367,7.489c-1.88.69-3.582,1.563-3.842,2.522-.615,2.267,2.316,7.946,3.161,8.471.465.289,2.342.063,4.494-.594a23.239,23.239,0,0,0,5.18,5.524c-.837,1.812-1.419,3.626-.926,4.483,1.169,2.039,7.256,3.982,8.225,3.756.548-.128,1.762-1.689,2.841-3.753a23.266,23.266,0,0,0,7.387.123c.7,1.98,1.614,3.828,2.615,4.1,2.268.615,7.947-2.316,8.472-3.161.314-.505.021-2.678-.775-5.061a23.214,23.214,0,0,0,5.061-4.92c2.012.991,4.167,1.784,5.127,1.233C457.136,262.912,459.078,256.824,458.853,255.854Zm-31.877,2.395a10.459,10.459,0,1,1,13.858-5.171A10.458,10.458,0,0,1,426.976,258.249Z" transform="translate(-404.15 -220.816)" fill="#a4d1bb"/>
      </g>
      <g id="Grupo_10607" data-name="Grupo 10607" transform="translate(12.365 12.767)">
        <path id="Trazado_20298" data-name="Trazado 20298" d="M426.827,263.789a14.977,14.977,0,1,1,19.844-7.4A14.993,14.993,0,0,1,426.827,263.789ZM439.1,236.9a14.58,14.58,0,1,0,7.209,19.318A14.6,14.6,0,0,0,439.1,236.9Z" transform="translate(-418.07 -235.189)" fill="#fff"/>
      </g>
      <g id="Grupo_10608" data-name="Grupo 10608" transform="translate(5.755 6.383)">
        <path id="Trazado_20299" data-name="Trazado 20299" d="M453.218,257.244c-.084-.051-.169-.1-.25-.158a21.334,21.334,0,0,1-42.051-1.915h0c-.1-.02-.191-.045-.285-.072a21.611,21.611,0,0,0,42.589,2.145Z" transform="translate(-410.629 -231.029)" fill="#fff"/>
        <path id="Trazado_20300" data-name="Trazado 20300" d="M429.324,228.85A21.23,21.23,0,0,1,443.05,230.2c.087.04.171.085.258.126.007-.1.02-.2.032-.293-.059-.028-.115-.058-.174-.085a21.5,21.5,0,0,0-13.849-1.381Q429.323,228.709,429.324,228.85Z" transform="translate(-412.717 -228.002)" fill="#fff"/>
      </g>
    </g>
    <g id="Grupo_10616" data-name="Grupo 10616" transform="translate(150.02 293.958)">
      <g id="Grupo_10610" data-name="Grupo 10610" transform="translate(4.89)">
        <path id="Trazado_20301" data-name="Trazado 20301" d="M163.667,332.333l-4.509,8.868,9.469-2.161,32.393-10.207Z" transform="translate(-159.158 -323.694)" fill="#a4d1bb"/>
        <path id="Trazado_20302" data-name="Trazado 20302" d="M159.158,342.379l16.086-1-3.942-2Z" transform="translate(-159.158 -324.872)" fill="#53b6b9"/>
        <path id="Trazado_20303" data-name="Trazado 20303" d="M163.88,331.687l-2.815-8.639,40.168,5.139Z" transform="translate(-159.371 -323.047)" fill="url(#linear-gradient-3)"/>
        <path id="Trazado_20304" data-name="Trazado 20304" d="M202.211,328.833,169.818,339.04l4.828,12.453Z" transform="translate(-160.349 -323.694)" fill="url(#linear-gradient-4)"/>
      </g>
      <g id="Grupo_10615" data-name="Grupo 10615" transform="translate(0 22.785)">
        <g id="Grupo_10611" data-name="Grupo 10611" transform="translate(8.028)">
          <path id="Trazado_20305" data-name="Trazado 20305" d="M163.1,352.344a.737.737,0,0,1-.227-.178.756.756,0,0,1,.074-1.067,21.222,21.222,0,0,1,3.184-2.294.756.756,0,0,1,.766,1.3,19.641,19.641,0,0,0-2.957,2.131A.756.756,0,0,1,163.1,352.344Z" transform="translate(-162.69 -348.699)" fill="#53b6b9"/>
        </g>
        <g id="Grupo_10613" data-name="Grupo 10613" transform="translate(0 5.568)">
          <g id="Grupo_10612" data-name="Grupo 10612">
            <path id="Trazado_20306" data-name="Trazado 20306" d="M172.874,436.03a.469.469,0,0,1-.042-.023,22.776,22.776,0,0,1-5.948-5.149.757.757,0,1,1,1.167-.965A21.291,21.291,0,0,0,173.6,434.7a.756.756,0,0,1-.727,1.326Zm-8.346-8.758a.747.747,0,0,1-.314-.3,28.57,28.57,0,0,1-2.9-7.271.757.757,0,1,1,1.469-.363,27.059,27.059,0,0,0,2.745,6.888.757.757,0,0,1-1,1.048ZM161,415.669a.758.758,0,0,1-.413-.622l-.023-.366a36.529,36.529,0,0,1,.387-7.421.756.756,0,0,1,1.5.227,34.99,34.99,0,0,0-.371,7.112l.021.341a.757.757,0,0,1-1.1.728Zm1.3-12.1a.757.757,0,0,1-.387-.869,56.477,56.477,0,0,1,2.523-7.321.757.757,0,1,1,1.4.585,55.075,55.075,0,0,0-2.457,7.125.756.756,0,0,1-.925.537A.908.908,0,0,1,162.291,403.565Zm4.394-11.395a.757.757,0,0,1-.336-1.008c.082-.166.163-.331.247-.5a24.654,24.654,0,0,1-3.3-1.848.757.757,0,1,1,.84-1.259,23.06,23.06,0,0,0,3.152,1.758c.812-1.561,1.706-3.18,2.721-4.925a.756.756,0,1,1,1.308.759c-.978,1.683-1.844,3.248-2.63,4.753q1.061.406,2.159.712a.756.756,0,1,1-.405,1.458,25.236,25.236,0,0,1-2.446-.815c-.1.189-.19.38-.283.571a.758.758,0,0,1-1.014.345Zm-6.839-6.23a.734.734,0,0,1-.2-.147,20.5,20.5,0,0,1-4.33-6.588.757.757,0,0,1,1.4-.575,18.992,18.992,0,0,0,4.014,6.108.756.756,0,0,1-.885,1.2Zm14.959,6.893a.757.757,0,0,1,.407-1.428,22.1,22.1,0,0,0,7.336-.571.757.757,0,0,1,.371,1.467,23.65,23.65,0,0,1-7.836.612A.751.751,0,0,1,174.806,392.833Zm-20.395-17.639a.754.754,0,0,1-.4-.544,24.44,24.44,0,0,1-.075-7.853.756.756,0,0,1,1.5.223,22.966,22.966,0,0,0,.069,7.369.756.756,0,0,1-1.088.8Zm32.263,15.439a.756.756,0,0,1,0-1.348,18.658,18.658,0,0,0,1.642-.95,14.669,14.669,0,0,0,3.873-3.7.756.756,0,1,1,1.229.883,16.159,16.159,0,0,1-4.277,4.086,19.75,19.75,0,0,1-1.777,1.029A.756.756,0,0,1,186.674,390.632Zm-13.98-9.109c-.023-.012-.046-.025-.068-.038a.757.757,0,0,1-.227-1.046,29.513,29.513,0,0,1,4.934-6.07.757.757,0,1,1,1.014,1.124,28.072,28.072,0,0,0-4.675,5.767A.756.756,0,0,1,172.694,381.523Zm-17.27-18.391a.756.756,0,0,1-.372-.919,25.83,25.83,0,0,1,1.4-3.3,24.548,24.548,0,0,1,2.268-3.639.756.756,0,1,1,1.208.91A23.163,23.163,0,0,0,157.8,359.6a24.323,24.323,0,0,0-1.316,3.108.756.756,0,0,1-.961.47A.689.689,0,0,1,155.424,363.132Zm39.006,18.505a.756.756,0,0,1-.391-.857,6.83,6.83,0,0,0-.491-4.964,6.192,6.192,0,0,0-1.038-1.427.757.757,0,0,1,1.085-1.054,7.654,7.654,0,0,1,1.292,1.778,8.4,8.4,0,0,1,.62,6.033.757.757,0,0,1-.918.551A.733.733,0,0,1,194.43,381.638Zm-13.15-8.595a.757.757,0,0,1,.027-1.361,12.21,12.21,0,0,1,7.973-.751.757.757,0,0,1-.371,1.467,10.829,10.829,0,0,0-6.968.656A.756.756,0,0,1,181.28,373.043Z" transform="translate(-153.653 -354.967)" fill="#53b6b9"/>
          </g>
        </g>
        <g id="Grupo_10614" data-name="Grupo 10614" transform="translate(23.076 87.049)">
          <path id="Trazado_20307" data-name="Trazado 20307" d="M180.045,448.128a.757.757,0,0,1,.551-1.4,16.215,16.215,0,0,0,3.558.6.756.756,0,1,1-.083,1.51,17.77,17.77,0,0,1-3.889-.654A.834.834,0,0,1,180.045,448.128Z" transform="translate(-179.631 -446.696)" fill="#53b6b9"/>
        </g>
      </g>
    </g>
    <g id="Grupo_10619" data-name="Grupo 10619" transform="translate(465.234 220.978)">
      <g id="Grupo_10617" data-name="Grupo 10617">
        <path id="Trazado_20308" data-name="Trazado 20308" d="M508.513,258.018,534.7,243.563l13.371-2.675,10.1,1.486Z" transform="translate(-508.513 -240.888)" fill="url(#linear-gradient-5)"/>
        <path id="Trazado_20309" data-name="Trazado 20309" d="M508.513,258.205,557.557,245.6l.622-3.037" transform="translate(-508.513 -241.075)" fill="#a4d1bb"/>
        <path id="Trazado_20310" data-name="Trazado 20310" d="M558.972,255.453l-.063.1-2.058,7.614-48.2-3.52Z" transform="translate(-508.529 -242.515)" fill="#53b6b9"/>
        <path id="Trazado_20311" data-name="Trazado 20311" d="M568.362,249.715l-7-5.679-52.493,14.252,45.187-1.343Z" transform="translate(-508.553 -241.24)" fill="url(#linear-gradient-6)"/>
      </g>
      <g id="Grupo_10618" data-name="Grupo 10618" transform="translate(66.48 2.423)">
        <path id="Trazado_20312" data-name="Trazado 20312" d="M699.312,359.551a36.728,36.728,0,0,1-4.719-2.047.713.713,0,0,0-.656,1.266,38.147,38.147,0,0,0,4.9,2.127q.9.32,1.819.592a.712.712,0,0,0,.409-1.364Q700.186,359.859,699.312,359.551Z" transform="translate(-595.666 -256.331)" fill="#53b6b9"/>
        <path id="Trazado_20313" data-name="Trazado 20313" d="M591.014,244.45c-2.223.286-4.538.651-7.076,1.12a.713.713,0,1,0,.258,1.4c2.512-.464,4.8-.826,7-1.108a.713.713,0,1,0-.181-1.414Z" transform="translate(-583.354 -243.709)" fill="#53b6b9"/>
        <path id="Trazado_20314" data-name="Trazado 20314" d="M604.318,244.9a.712.712,0,0,0-.418-1.284c-2.286-.02-4.7.075-7.184.282a.713.713,0,0,0,.12,1.42c2.436-.2,4.808-.3,7.052-.278A.706.706,0,0,0,604.318,244.9Z" transform="translate(-584.774 -243.616)" fill="#53b6b9"/>
        <path id="Trazado_20315" data-name="Trazado 20315" d="M684.406,350.123a.7.7,0,0,0-1.006.013.709.709,0,0,0,.013,1.006,39.593,39.593,0,0,0,5.623,4.568.711.711,0,0,0,.821-.019.69.69,0,0,0,.168-.176.713.713,0,0,0-.2-.989A38.495,38.495,0,0,1,684.406,350.123Z" transform="translate(-594.509 -255.492)" fill="#53b6b9"/>
        <path id="Trazado_20316" data-name="Trazado 20316" d="M680.6,346.9a.712.712,0,0,0,.1-1q-.6-.738-1.172-1.5a36.974,36.974,0,0,1-2.738-4.281.711.711,0,0,0-.966-.285.72.72,0,0,0-.285.967,38.193,38.193,0,0,0,2.843,4.447q.588.794,1.216,1.558a.711.711,0,0,0,.974.122Z" transform="translate(-593.644 -254.355)" fill="#53b6b9"/>
        <path id="Trazado_20317" data-name="Trazado 20317" d="M674.1,335.916a.712.712,0,0,0,.387-.93,48.678,48.678,0,0,1-2.168-6.669.712.712,0,1,0-1.38.347,49.453,49.453,0,0,0,2.232,6.864A.71.71,0,0,0,674.1,335.916Z" transform="translate(-593.137 -253.019)" fill="#53b6b9"/>
        <path id="Trazado_20318" data-name="Trazado 20318" d="M653.211,268.348q.89,1.087,1.726,2.214c.84,1.134,1.642,2.309,2.384,3.491a.713.713,0,0,0,.982.225l.046-.032a.711.711,0,0,0,.178-.95c-.76-1.213-1.583-2.419-2.445-3.582q-.857-1.157-1.77-2.27a.679.679,0,0,0-1-.1A.713.713,0,0,0,653.211,268.348Z" transform="translate(-591.141 -246.247)" fill="#53b6b9"/>
        <path id="Trazado_20319" data-name="Trazado 20319" d="M660.212,278.906a52.124,52.124,0,0,1,2.825,6.429.711.711,0,0,0,.911.429.693.693,0,0,0,.183-.1.712.712,0,0,0,.246-.813,53.252,53.252,0,0,0-2.9-6.608.713.713,0,0,0-1.264.66Z" transform="translate(-591.932 -247.442)" fill="#53b6b9"/>
        <path id="Trazado_20320" data-name="Trazado 20320" d="M644.24,259.395a57.737,57.737,0,0,1,5.159,4.784.713.713,0,0,0,.938.082c.025-.019.047-.038.069-.059a.714.714,0,0,0,.024-1.007,59.787,59.787,0,0,0-5.284-4.9.713.713,0,0,0-.906,1.1Z" transform="translate(-590.128 -245.237)" fill="#53b6b9"/>
        <path id="Trazado_20321" data-name="Trazado 20321" d="M628.591,249.944a.712.712,0,0,0,.712-.079.7.7,0,0,0,.227-.284.712.712,0,0,0-.363-.94,56.365,56.365,0,0,0-6.768-2.491.712.712,0,1,0-.405,1.366A55.056,55.056,0,0,1,628.591,249.944Z" transform="translate(-587.615 -243.896)" fill="#53b6b9"/>
        <path id="Trazado_20322" data-name="Trazado 20322" d="M668.8,310.894a.713.713,0,0,0,.627-.789l-.1-.9c-.236-2.065-.472-4.132-.744-6.192a.713.713,0,0,0-1.413.187c.272,2.051.506,4.11.741,6.166l.1.9A.711.711,0,0,0,668.8,310.894Z" transform="translate(-592.718 -250.183)" fill="#53b6b9"/>
        <path id="Trazado_20323" data-name="Trazado 20323" d="M639.692,256.039a.713.713,0,0,0,.835-.009.728.728,0,0,0,.159-.163.714.714,0,0,0-.172-.993,59.278,59.278,0,0,0-6.134-3.788.713.713,0,0,0-.673,1.257A57.455,57.455,0,0,1,639.692,256.039Z" transform="translate(-588.938 -244.441)" fill="#53b6b9"/>
        <path id="Trazado_20324" data-name="Trazado 20324" d="M669.306,315.15a.71.71,0,0,0-.617.8c.35,2.775.695,5.027,1.08,7.088a.713.713,0,0,0,1.4-.264c-.382-2.032-.722-4.256-1.069-7A.713.713,0,0,0,669.306,315.15Z" transform="translate(-592.887 -251.607)" fill="#53b6b9"/>
        <path id="Trazado_20325" data-name="Trazado 20325" d="M706.5,361.592a.712.712,0,0,0-.275,1.4,57.4,57.4,0,0,0,7.147.923.71.71,0,0,0,.474-.138.713.713,0,0,0-.374-1.284A56.677,56.677,0,0,1,706.5,361.592Z" transform="translate(-597.018 -256.795)" fill="#53b6b9"/>
        <path id="Trazado_20326" data-name="Trazado 20326" d="M665.316,289.82a.714.714,0,0,0-.5.873c.561,2.1,1.043,4.353,1.469,6.9a.712.712,0,0,0,.82.585.722.722,0,0,0,.307-.13.71.71,0,0,0,.278-.69c-.434-2.592-.924-4.892-1.5-7.032A.712.712,0,0,0,665.316,289.82Z" transform="translate(-592.452 -248.775)" fill="#53b6b9"/>
        <path id="Trazado_20327" data-name="Trazado 20327" d="M612.147,244.063q-1.249-.148-2.5-.243a.713.713,0,0,0-.107,1.422q1.22.091,2.438.235c1.506.179,3.026.43,4.52.745a.712.712,0,1,0,.294-1.394C615.258,244.5,613.695,244.248,612.147,244.063Z" transform="translate(-586.207 -243.639)" fill="#53b6b9"/>
      </g>
    </g>
  </g>
</svg>
