<svg xmlns="http://www.w3.org/2000/svg" xmlns:xlink="http://www.w3.org/1999/xlink" width="394.289" height="307.879" viewBox="0 0 394.289 307.879">
  <defs>
    <linearGradient id="linear-gradient" x1="1.307" y1="0.5" x2="2.307" y2="0.5" gradientUnits="objectBoundingBox">
      <stop offset="0" stop-color="#daece5"/>
      <stop offset="1" stop-color="#b2deeb"/>
    </linearGradient>
    <linearGradient id="linear-gradient-2" x1="-0.243" y1="0.5" x2="0.757" y2="0.5" xlink:href="#linear-gradient"/>
    <linearGradient id="linear-gradient-3" x1="-3.91" y1="0.167" x2="-2.909" y2="0.167" gradientUnits="objectBoundingBox">
      <stop offset="0" stop-color="#eef7f6"/>
      <stop offset="1" stop-color="#b2deeb"/>
    </linearGradient>
    <linearGradient id="linear-gradient-4" x1="-5.867" y1="0.494" x2="-4.739" y2="0.494" xlink:href="#linear-gradient-3"/>
    <linearGradient id="linear-gradient-5" x1="3.075" y1="9.316" x2="4.031" y2="9.316" xlink:href="#linear-gradient-3"/>
    <linearGradient id="linear-gradient-6" x1="2.551" y1="4.395" x2="3.568" y2="4.395" xlink:href="#linear-gradient-3"/>
    <linearGradient id="linear-gradient-7" x1="9.188" y1="0.5" x2="10.188" y2="0.5" xlink:href="#linear-gradient"/>
  </defs>
  <g id="Grupo_10524" data-name="Grupo 10524" transform="translate(-49.622 -59.616)">
    <path id="Trazado_19964" data-name="Trazado 19964" d="M65.222,141.551h206.2s11.182-14.146,0-23.665c-6.171-5.253-13.458-4.709-18.751-3.165a6.173,6.173,0,0,1-7.645-4.834c-1.254-5.815-5.118-13.425-16.217-17.923-10.92-4.423-17.827,2.333-21.823,9.273a3.1,3.1,0,0,1-5.609-.572c-3.462-10.957-15.525-25.483-55.16-25.483-50.411,0-44.81,26.8-40.305,37.938a2.568,2.568,0,0,1-2.914,3.5c-7.776-1.663-22.209-3.817-28.681,1.264C65.222,125.023,65.222,141.551,65.222,141.551Z" fill="url(#linear-gradient)"/>
    <path id="Trazado_19965" data-name="Trazado 19965" d="M443.563,253.638c5.1,22.16-47.16,25.009-68.694,25.25a84.532,84.532,0,0,1-17.761-1.687c-18.21-3.695-58.071-13.392-52.48-26.578,7.212-17.012,28.879-5.151,28.879-5.151s-2.719-12.843,34.149-21.326,36.721,19.784,36.721,19.784S437.158,225.8,443.563,253.638Z" fill="url(#linear-gradient-2)"/>
    <g id="Grupo_10434" data-name="Grupo 10434">
      <path id="Trazado_19966" data-name="Trazado 19966" d="M368.731,237.819a104.559,104.559,0,0,0,4.424-10.58q.912-2.61,1.66-5.276c.086-.3.231-.894.379-1.507.075-.421.141-.795.175-1.022q.39-2.594.625-5.209c.23-2.57.259-5.128.308-7.7-.178-1.574-.34-3.143-.576-4.712-.417-2.78-.971-5.543-1.648-8.271l-.01-.037c-2.616-5.93-.635-2.512,0,0,.164.371.344.775.545,1.222-.685-1.522-1.093-3.22-1.69-4.781q-1.514-3.962-3.353-7.79c-1.273-2.652-2.718-5.193-4.134-7.766-.678-1-1.361-2-2.07-2.982a131.942,131.942,0,0,0-12.3-14.631c-.214-.22-.731-.831-1.323-1.494-.208-.176-.45-.384-.728-.627q-3.622-3.176-7.45-6.107a152.147,152.147,0,0,0-15.949-10.625c-10.263-5.984-14.058-17.72-12.83-28.838-39.862-.37-58.384,24.072-64.009,33.429-6.41-10.651-29.558-41.1-81.794-31.754-73.512,13.161-62.819,85.457-62.819,85.457s-8.813,57.66,132.854,133.338c3.832,2.052,7.343,4.038,10.763,5.956v.674c.313-.027.6-.054.915-.08.031-.012.057-.026.081-.034.3.152.6.331.888.488a.419.419,0,0,0,.114-.034v-1.014c3.416-1.918,6.938-3.9,10.773-5.956,55.288-29.537,87.654-56.328,106.569-78.019C366.549,246.694,366.91,241.633,368.731,237.819Z" fill="#ffc630"/>
      <path id="Trazado_19967" data-name="Trazado 19967" d="M250.6,140.422c8.4-12.311,32.066-38.334,79.975-28.9,67.633,13.321,62.819,85.457,62.819,85.457s8.814,57.658-132.843,133.334c-3.527,1.887-6.789,3.721-9.951,5.494Z" fill="#f99200"/>
    </g>
    <g id="Grupo_10441" data-name="Grupo 10441">
      <g id="Grupo_10435" data-name="Grupo 10435">
        <path id="Trazado_19968" data-name="Trazado 19968" d="M86.576,269.179l-1.445,6.728,5.949-3.121,19.853-12.559Z" fill="#a4d1bb"/>
        <path id="Trazado_19969" data-name="Trazado 19969" d="M85.131,275.907l10.579-3.516-2.99-.642Z" fill="#53b6b9"/>
        <path id="Trazado_19970" data-name="Trazado 19970" d="M86.576,269.179,83.165,263.9l27.769-3.674Z" fill="url(#linear-gradient-3)"/>
        <path id="Trazado_19971" data-name="Trazado 19971" d="M110.934,260.227,91.08,272.786l5.433,7.472Z" fill="url(#linear-gradient-4)"/>
      </g>
      <g id="Grupo_10440" data-name="Grupo 10440">
        <g id="Grupo_10436" data-name="Grupo 10436">
          <path id="Trazado_19972" data-name="Trazado 19972" d="M89.086,281.245a.506.506,0,0,1-.184-.079.523.523,0,0,1-.14-.726,14.7,14.7,0,0,1,1.723-2.1.523.523,0,1,1,.743.737,13.655,13.655,0,0,0-1.6,1.948A.52.52,0,0,1,89.086,281.245Z" fill="#53b6b9"/>
        </g>
        <g id="Grupo_10438" data-name="Grupo 10438">
          <g id="Grupo_10437" data-name="Grupo 10437">
            <path id="Trazado_19973" data-name="Trazado 19973" d="M110.983,334.827a.166.166,0,0,1-.032-.008,15.755,15.755,0,0,1-4.889-2.39.524.524,0,0,1,.61-.852,14.734,14.734,0,0,0,4.562,2.235.523.523,0,0,1-.251,1.015Zm-7.131-4.378a.52.52,0,0,1-.263-.146,19.766,19.766,0,0,1-3.226-4.349.523.523,0,1,1,.918-.5,18.762,18.762,0,0,0,3.055,4.12.524.524,0,0,1-.484.878Zm-4.416-7.134a.525.525,0,0,1-.386-.342l-.08-.241a25.282,25.282,0,0,1-1.055-5.031.524.524,0,1,1,1.041-.113,24.163,24.163,0,0,0,1.01,4.821l.075.224a.524.524,0,0,1-.605.682Zm-1.276-8.323a.525.525,0,0,1-.413-.513,38.95,38.95,0,0,1,.392-5.342.522.522,0,0,1,.59-.446.528.528,0,0,1,.446.591,38.1,38.1,0,0,0-.381,5.2.525.525,0,0,1-.524.524A.675.675,0,0,1,98.16,314.992Zm.922-8.4a.523.523,0,0,1-.4-.614c.026-.126.051-.251.077-.377a16.872,16.872,0,0,1-2.536-.651.523.523,0,0,1,.34-.99,15.837,15.837,0,0,0,2.418.618c.266-1.188.578-2.429.948-3.775a.523.523,0,0,1,1.009.277c-.356,1.3-.658,2.5-.917,3.643.52.057,1.044.088,1.569.094a.524.524,0,0,1-.012,1.047,17.619,17.619,0,0,1-1.781-.112c-.03.143-.06.288-.088.432a.524.524,0,0,1-.616.41Zm-5.676-2.955a.5.5,0,0,1-.159-.063,14.2,14.2,0,0,1-4.062-3.639.523.523,0,0,1,.834-.632,13.17,13.17,0,0,0,3.766,3.374.523.523,0,0,1-.379.96Zm11.222,1.961a.523.523,0,0,1,.02-1.027,15.333,15.333,0,0,0,4.8-1.68.523.523,0,0,1,.508.915,16.368,16.368,0,0,1-5.132,1.8A.516.516,0,0,1,104.628,305.6Zm-16.759-8.184a.522.522,0,0,1-.366-.293,16.914,16.914,0,0,1-1.44-5.238.523.523,0,0,1,1.04-.115,15.913,15.913,0,0,0,1.35,4.915.524.524,0,0,1-.584.731Zm24.305,4.612a.516.516,0,0,1-.278-.162.523.523,0,0,1,.039-.739,12.9,12.9,0,0,0,.93-.926,10.127,10.127,0,0,0,1.934-3.16.523.523,0,1,1,.978.373,11.167,11.167,0,0,1-2.136,3.489,13.818,13.818,0,0,1-1.007,1A.523.523,0,0,1,112.174,302.028Zm-10.96-3.616-.052-.014a.524.524,0,0,1-.336-.66,20.386,20.386,0,0,1,2.224-4.932.523.523,0,1,1,.876.572,19.394,19.394,0,0,0-2.1,4.683A.525.525,0,0,1,101.214,298.412Zm-14.8-9.24a.526.526,0,0,1-.412-.55,18.005,18.005,0,0,1,.35-2.455,17.055,17.055,0,0,1,.872-2.835.523.523,0,0,1,.969.394,15.973,15.973,0,0,0-.817,2.66,16.7,16.7,0,0,0-.329,2.311.524.524,0,0,1-.56.485C86.459,289.18,86.435,289.176,86.411,289.172Zm29.358,5.468a.521.521,0,0,1-.413-.5,4.721,4.721,0,0,0-1.207-3.231,4.26,4.26,0,0,0-.946-.771.523.523,0,1,1,.538-.9,5.3,5.3,0,0,1,1.179.961,5.808,5.808,0,0,1,1.482,3.924.523.523,0,0,1-.516.531A.457.457,0,0,1,115.769,294.64Zm-10.314-3.419a.524.524,0,0,1-.224-.915,8.454,8.454,0,0,1,5.2-1.913.524.524,0,0,1,.011,1.047,7.491,7.491,0,0,0-4.542,1.672A.523.523,0,0,1,105.455,291.221Z" fill="#53b6b9"/>
          </g>
        </g>
        <g id="Grupo_10439" data-name="Grupo 10439">
          <path id="Trazado_19974" data-name="Trazado 19974" d="M114.165,335.308a.524.524,0,0,1,.12-1.036,11.186,11.186,0,0,0,2.485-.228.523.523,0,1,1,.212,1.024,12.307,12.307,0,0,1-2.717.252A.548.548,0,0,1,114.165,335.308Z" fill="#53b6b9"/>
        </g>
      </g>
    </g>
    <g id="Grupo_10444" data-name="Grupo 10444">
      <g id="Grupo_10442" data-name="Grupo 10442">
        <path id="Trazado_19975" data-name="Trazado 19975" d="M341.522,85.669l20.519-2.674,9.284,1.663,6.128,3.515Z" fill="url(#linear-gradient-5)"/>
        <path id="Trazado_19976" data-name="Trazado 19976" d="M341.522,85.669l34.762,4.3,1.169-1.8" fill="#a4d1bb"/>
        <path id="Trazado_19977" data-name="Trazado 19977" d="M375.055,95.741l-.066.05-3.253,4.38L341.6,85.7Z" fill="#53b6b9"/>
        <path id="Trazado_19978" data-name="Trazado 19978" d="M382.213,95.24l-3.066-5.427-37.4-4.116,29.427,10.576Z" fill="url(#linear-gradient-6)"/>
      </g>
      <g id="Grupo_10443" data-name="Grupo 10443">
        <path id="Trazado_19979" data-name="Trazado 19979" d="M428.623,185.717A25.318,25.318,0,0,1,426.1,183.2a.493.493,0,1,0-.742.649,26.3,26.3,0,0,0,2.616,2.61q.5.435,1.021.842a.492.492,0,1,0,.609-.774Q429.107,186.137,428.623,185.717Z" fill="#a4d1bc"/>
        <path id="Trazado_19980" data-name="Trazado 19980" d="M392.782,95.45c-1.5-.38-3.086-.73-4.839-1.071a.493.493,0,1,0-.188.968c1.734.337,3.3.683,4.785,1.059a.493.493,0,0,0,.6-.358A.492.492,0,0,0,392.782,95.45Z" fill="#a4d1bc"/>
        <path id="Trazado_19981" data-name="Trazado 19981" d="M400.293,98.809a.492.492,0,0,0,.056-.933c-1.466-.591-3.046-1.142-4.7-1.636a.493.493,0,0,0-.283.944c1.62.486,3.171,1.026,4.61,1.607A.487.487,0,0,0,400.293,98.809Z" fill="#a4d1bc"/>
        <path id="Trazado_19982" data-name="Trazado 19982" d="M421.948,176.707a.486.486,0,0,0-.651-.247.491.491,0,0,0-.247.652,27.512,27.512,0,0,0,2.463,4.364.492.492,0,0,0,.533.2.472.472,0,0,0,.153-.071.493.493,0,0,0,.125-.685A26.547,26.547,0,0,1,421.948,176.707Z" fill="#a4d1bc"/>
        <path id="Trazado_19983" data-name="Trazado 19983" d="M420.585,174.621A.493.493,0,0,0,420.9,174c-.134-.419-.26-.84-.374-1.264a25.5,25.5,0,0,1-.678-3.449.492.492,0,0,0-.55-.428.5.5,0,0,0-.428.55,26.5,26.5,0,0,0,.7,3.583q.177.66.389,1.311a.491.491,0,0,0,.6.324Z" fill="#a4d1bc"/>
        <path id="Trazado_19984" data-name="Trazado 19984" d="M419.167,166.892a.478.478,0,0,0,.121-.016.5.5,0,0,0,.364-.484,33.6,33.6,0,0,1,.293-4.842.493.493,0,1,0-.977-.126,34.421,34.421,0,0,0-.3,4.983A.492.492,0,0,0,419.167,166.892Z" fill="#a4d1bc"/>
        <path id="Trazado_19985" data-name="Trazado 19985" d="M422.4,122.974q.3.924.55,1.862c.254.943.473,1.9.651,2.85a.493.493,0,0,0,.575.394.262.262,0,0,0,.038-.009.492.492,0,0,0,.355-.566c-.182-.974-.407-1.958-.667-2.925q-.258-.961-.565-1.909a.469.469,0,0,0-.621-.318A.493.493,0,0,0,422.4,122.974Z" fill="#a4d1bc"/>
        <path id="Trazado_19986" data-name="Trazado 19986" d="M424.025,130.573a35.93,35.93,0,0,1,.19,4.854.494.494,0,0,0,.479.507.517.517,0,0,0,.142-.017.492.492,0,0,0,.364-.461,36.767,36.767,0,0,0-.194-4.988.493.493,0,0,0-.981.1Z" fill="#a4d1bc"/>
        <path id="Trazado_19987" data-name="Trazado 19987" d="M419.288,115.846a40.2,40.2,0,0,1,2.109,4.385.493.493,0,0,0,.583.291.605.605,0,0,0,.06-.02.493.493,0,0,0,.27-.642,41.005,41.005,0,0,0-2.161-4.494.493.493,0,1,0-.861.48Z" fill="#a4d1bc"/>
        <path id="Trazado_19988" data-name="Trazado 19988" d="M412.885,107.3a.493.493,0,1,0,.7-.693,38.955,38.955,0,0,0-3.726-3.317.493.493,0,0,0-.607.777A37.9,37.9,0,0,1,412.885,107.3Z" fill="#a4d1bc"/>
        <path id="Trazado_19989" data-name="Trazado 19989" d="M421.644,151.375a.491.491,0,0,0,.6-.349l.162-.6c.371-1.389.743-2.779,1.089-4.174a.493.493,0,1,0-.957-.237c-.344,1.389-.715,2.773-1.084,4.157l-.161.6A.491.491,0,0,0,421.644,151.375Z" fill="#a4d1bc"/>
        <path id="Trazado_19990" data-name="Trazado 19990" d="M417.774,113.348a.49.49,0,0,0,.539.205.485.485,0,0,0,.144-.064.493.493,0,0,0,.14-.683,41.06,41.06,0,0,0-2.989-3.991.493.493,0,0,0-.751.639A39.97,39.97,0,0,1,417.774,113.348Z" fill="#a4d1bc"/>
        <path id="Trazado_19991" data-name="Trazado 19991" d="M421.142,153.283a.491.491,0,0,0-.6.357c-.477,1.874-.826,3.411-1.1,4.835a.494.494,0,0,0,.392.576.483.483,0,0,0,.221-.008.492.492,0,0,0,.356-.383c.269-1.4.613-2.922,1.085-4.778A.492.492,0,0,0,421.142,153.283Z" fill="#a4d1bc"/>
        <path id="Trazado_19992" data-name="Trazado 19992" d="M431.981,188.21a.493.493,0,0,0-.531.83,39.863,39.863,0,0,0,4.367,2.4.493.493,0,0,0,.425-.89A39.216,39.216,0,0,1,431.981,188.21Z" fill="#a4d1bc"/>
        <path id="Trazado_19993" data-name="Trazado 19993" d="M424.55,137.9a.493.493,0,0,0-.545.434c-.169,1.492-.431,3.066-.8,4.813a.493.493,0,1,0,.964.2c.378-1.778.644-3.383.815-4.906A.492.492,0,0,0,424.55,137.9Z" fill="#a4d1bc"/>
        <path id="Trazado_19994" data-name="Trazado 19994" d="M404.63,99.874q-.767-.411-1.547-.789a.493.493,0,0,0-.429.888q.762.368,1.51.769c.923.5,1.839,1.043,2.72,1.624a.493.493,0,0,0,.542-.823C406.521,100.945,405.579,100.384,404.63,99.874Z" fill="#a4d1bc"/>
      </g>
    </g>
    <g id="Grupo_10452" data-name="Grupo 10452">
      <g id="Grupo_10451" data-name="Grupo 10451">
        <g id="Grupo_10445" data-name="Grupo 10445">
          <path id="Trazado_19995" data-name="Trazado 19995" d="M186.193,150.328l.475,2.836h0a2.729,2.729,0,0,1-2.958.1l-.166-.1-.7-2.836Z" fill="#f7a57a"/>
        </g>
        <path id="Trazado_19996" data-name="Trazado 19996" d="M163.461,84.708c2.519,8.317,10.975,21.083,10.975,21.083l-6.679-2.733-4.72-10.907S160.941,76.392,163.461,84.708Z" fill="#a4d1bb"/>
        <path id="Trazado_19997" data-name="Trazado 19997" d="M181.611,118.1l5.268,32.479H182.2s-10.516-29.222-11.621-37.814c0-4.867,10.631,0,10.631,0Z" fill="#122043"/>
        <g id="Grupo_10447" data-name="Grupo 10447">
          <path id="Trazado_19998" data-name="Trazado 19998" d="M164.169,71.584l-1.747,4.523-3.783-2.737,2.553-5.334Z" fill="#f18c72"/>
          <g id="Grupo_10446" data-name="Grupo 10446">
            <path id="Trazado_19999" data-name="Trazado 19999" d="M165.594,72.334a2.575,2.575,0,0,0,1.476-.039c2.194-2.094,1.659-9.088,1.659-9.088l-2.451-1.694-3.862,1.415L161.3,67.305a3.664,3.664,0,0,0,.887,3.367h0A7.141,7.141,0,0,0,165.594,72.334Z" fill="#f7a57a"/>
          </g>
          <path id="Trazado_20000" data-name="Trazado 20000" d="M163.1,64.4a1.508,1.508,0,0,1,1.895-.753,11.985,11.985,0,0,0,1.812.554c1.515.318,4.339.29,4.822-2.015s-2.515-2.108-2.515-2.108l-3.983.275a7.351,7.351,0,0,1-3.435-.63,1.617,1.617,0,0,0-2.012,1.065c-.449,1.3.019,3.525.411,4.951a7.247,7.247,0,0,0,1.1,2.3h0Z" fill="#122043"/>
          <path id="Trazado_20001" data-name="Trazado 20001" d="M160.859,65.39a1.164,1.164,0,0,1,1.385.421c.365.46.337,1.018-.063,1.245a1.164,1.164,0,0,1-1.385-.421C160.431,66.175,160.459,65.617,160.859,65.39Z" fill="#f7a57a"/>
        </g>
        <g id="Grupo_10448" data-name="Grupo 10448">
          <path id="Trazado_20002" data-name="Trazado 20002" d="M186.755,152.863s.013,3.016,6.069,4.826c1.243.371.839.739,1.072,1.261h-6.97l-2.729-3.068-.849.729-1.967-1.933s.341-2.8,1.84-2.823C184.457,152.277,186.755,152.863,186.755,152.863Z" fill="#122043"/>
          <path id="Trazado_20003" data-name="Trazado 20003" d="M169.544,149.444l-1.133,2.611h0a2.733,2.733,0,0,1-2.832-.861l-.125-.147.915-2.685Z" fill="#f7a57a"/>
        </g>
        <path id="Trazado_20004" data-name="Trazado 20004" d="M163.252,74.841s.482-.743-3.8-2.958c-6.457,6.457-8.576,31.175-8.576,31.175h16.882C168.328,88.952,163.252,74.841,163.252,74.841Z" fill="#0f787a"/>
        <path id="Trazado_20005" data-name="Trazado 20005" d="M179.934,102.389a.747.747,0,0,0-.351-.815l-2.752-1.6a3.2,3.2,0,0,0-2.254-.365l-2.984.119-.39.472-.62,2.637c.6-.144.95-.236.95-.236l1.895.053s3.575,3.32,5.347.432c.073,3.073.974,2.837.974,2.837Z" fill="#f7a57a"/>
        <path id="Trazado_20006" data-name="Trazado 20006" d="M150.875,103.058l-.255,2.094-.01.084a8.259,8.259,0,0,0,6.055,8.791,74.371,74.371,0,0,0,17.384,3.076c-6.367,8.175-8.129,31.116-8.129,31.116l4.1,1.489,15.843-37.736a4.169,4.169,0,0,0-2.976-5.692l-15.133-3.222Z" fill="#002f4c"/>
        <path id="Trazado_20007" data-name="Trazado 20007" d="M161.43,82.916a33.93,33.93,0,0,0-4.994,5.829,2.2,2.2,0,0,0,.2,2.613c3.516,4.049,16.044,7.939,16.044,7.939l-.811,4.569s-17.778-3.5-24.076-9.812c-6.461-6.481,10.243-20.017,10.243-20.017" fill="#0f787a"/>
        <g id="Grupo_10449" data-name="Grupo 10449">
          <path id="Trazado_20008" data-name="Trazado 20008" d="M156.649,88.879a1.937,1.937,0,0,0,.175,2.315c1.6,1.847,5.882,3.82,9.617,5.251,0,.229,0,.244,0,.517-3.921-1.473-8.246-3.423-10-5.439a2.438,2.438,0,0,1-.221-2.911,34.477,34.477,0,0,1,5.036-5.881l.339.37A33.854,33.854,0,0,0,156.649,88.879Z" fill="#53b6b9"/>
          <path id="Trazado_20009" data-name="Trazado 20009" d="M151.5,96.592c6.828,3.685,16.833,6.325,20.4,7.071a3.833,3.833,0,0,1-.106.484c-3.438-.7-13.348-3.247-20.367-6.977A5.1,5.1,0,0,1,151.5,96.592Z" fill="#53b6b9"/>
        </g>
        <g id="Grupo_10450" data-name="Grupo 10450">
          <path id="Trazado_20010" data-name="Trazado 20010" d="M186.576,107.9l5.262-18.814-.966-.27-5.018,17.941-15.107-2.625-.171.988Z" fill="#53b6b9"/>
        </g>
      </g>
      <path id="Trazado_20011" data-name="Trazado 20011" d="M168.662,151.476s-.238,3.041,5.819,4.852c1.242.371.838.739,1.072,1.261h-6.971l-2.729-3.068-.848.729-1.968-1.933s.919-2.8,2.417-2.823C166.69,150.916,168.662,151.476,168.662,151.476Z" fill="#122043"/>
    </g>
    <g id="Grupo_10464" data-name="Grupo 10464">
      <path id="Trazado_20012" data-name="Trazado 20012" d="M253.014,332.9c-23.572,12.323-28-29.615-28-29.615V203.135h24.961S253.014,277.5,253.014,332.9Z" fill="#ffc630"/>
      <path id="Trazado_20013" data-name="Trazado 20013" d="M266.492,327.1l-16.712,9.426L242.875,242h23.617Z" fill="#ffc630"/>
      <g id="Grupo_10463" data-name="Grupo 10463">
        <g id="Grupo_10455" data-name="Grupo 10455">
          <rect id="Rectángulo_2237" data-name="Rectángulo 2237" width="25.526" height="7.902" rx="2.918" transform="translate(237.469 238.048)" fill="#fea200"/>
          <path id="Trazado_20014" data-name="Trazado 20014" d="M262.995,242.8" fill="#fc9f07"/>
          <g id="Grupo_10454" data-name="Grupo 10454">
            <g id="Grupo_10453" data-name="Grupo 10453">
              <path id="Trazado_20015" data-name="Trazado 20015" d="M254.225,264.47a.542.542,0,0,1-.542-.543v-9.878a.541.541,0,0,1,.357-.509l11.369-4.128v-6.871h-2.414a.542.542,0,0,1,0-1.084h2.956a.542.542,0,0,1,.541.542v7.793a.54.54,0,0,1-.357.509l-11.368,4.128v9.5A.542.542,0,0,1,254.225,264.47Z" fill="#1a1a1f"/>
            </g>
          </g>
          <path id="Rectángulo_2238" data-name="Rectángulo 2238" d="M1,0h.161a1,1,0,0,1,1,1V11.8a1,1,0,0,1-1,1H1a1,1,0,0,1-1-1V1A1,1,0,0,1,1,0Z" transform="translate(253.141 256.159)" fill="#30323c"/>
        </g>
        <g id="Grupo_10462" data-name="Grupo 10462">
          <g id="Grupo_10458" data-name="Grupo 10458">
            <path id="Trazado_20016" data-name="Trazado 20016" d="M215.109,348.352l1.967,5.206a1.717,1.717,0,0,1-.56,2.03,6.579,6.579,0,0,1-1.031.473c-.358-.075-2.628-7.105-2.628-7.105l.021-.043A1.869,1.869,0,0,1,215.109,348.352Z" fill="#0f787a"/>
            <path id="Trazado_20017" data-name="Trazado 20017" d="M215.485,356.061l-2.628-7.105-.345.2,2.648,7.04Z" fill="#122043"/>
            <g id="Grupo_10456" data-name="Grupo 10456">
              <path id="Trazado_20018" data-name="Trazado 20018" d="M215.893,350.411l.172.471-.907.174-.171-.455Z" fill="#fff"/>
            </g>
            <g id="Grupo_10457" data-name="Grupo 10457">
              <path id="Trazado_20019" data-name="Trazado 20019" d="M216.271,351.416l.172.471-.907.175-.171-.455Z" fill="#fff"/>
            </g>
            <path id="Trazado_20020" data-name="Trazado 20020" d="M217.291,347.123l-2.182,1.229h0a1.4,1.4,0,0,0,.481,1.413l.076.061,2.408-.619Z" fill="#f7a57a"/>
          </g>
          <path id="Trazado_20021" data-name="Trazado 20021" d="M234.71,314.277a12.517,12.517,0,0,0-2.721,6.431c-.371,2.729.65,7.055.762,10.448a8.753,8.753,0,0,1-3.758,7.465l-11.7,8.5.783,2.084s16.017-2.4,20.222-9.575,5.2-23.414,5.2-23.414Z" fill="#122043"/>
          <path id="Trazado_20022" data-name="Trazado 20022" d="M225.392,305.438l-6.019,13.44a8.175,8.175,0,0,0-3.545,1.236,2.565,2.565,0,0,0-.383,2.32.829.829,0,0,0,1.359.479,5.7,5.7,0,0,1,2.074-1.314,2.5,2.5,0,0,0,1.929-1.3l8.635-13.543Z" fill="#f7a57a"/>
          <path id="Trazado_20023" data-name="Trazado 20023" d="M258.333,262.5l-.356-2.418a1.573,1.573,0,0,0-.286-.7,10.338,10.338,0,0,0-2.4-1.39v1.218c1.07.575.445,1.352.445,1.352a3.393,3.393,0,0,1-1.69-.124,1.072,1.072,0,0,0-1.319.413l3.71,1.9,2.391,13.028-3.084,2.637,4.692,1.918s2.68-1.918,2.68-3.318S258.333,262.5,258.333,262.5Z" fill="#f7a57a"/>
          <path id="Trazado_20024" data-name="Trazado 20024" d="M239.162,315.629s-1.855,2.235-.742,7.429c.711,3.316,3.831,7.489,5.927,10.363,1.5,2.06,1.534,4.652,1.083,7.162-1.717,9.54,1.029,21.188,1.029,21.188h2.227s3.339-17.069,4.328-29.066a34.6,34.6,0,0,0-3.834-18.923Z" fill="#002f4c"/>
          <path id="Trazado_20025" data-name="Trazado 20025" d="M233.7,289.258c-3.978,2.921-8.66,16.969-8.66,16.969l3.492,1.959,5.684-7.8s.554,9.029-.806,15.955c.618,2.6,3.568,2.3,8.351,1.4a23.732,23.732,0,0,0,7.915-2.968s.206-12.528.825-19.171-.6-7.352,1.071-7.132c3.736-2.122,9.859-8.955,9.859-8.955l-5.687-1.106L243.5,285.582A52.962,52.962,0,0,0,233.7,289.258Z" fill="#0f787a"/>
          <path id="Trazado_20026" data-name="Trazado 20026" d="M240.636,272.641l2.954,2.918a5.119,5.119,0,0,1,1.4,4.756l-.346,1.557Z" fill="#f7a57a"/>
          <path id="Trazado_20027" data-name="Trazado 20027" d="M237.06,271.538c-7.174,0-4.123,13.77-4.123,13.77s1.278,8.933,4.123,12.519c2.462,3.105,7.333,2.171,9.641.681a8.831,8.831,0,0,1,3.724-1.375c1.955-.235,4.28-1.1,4.28-4.624,0-3.319-3.962-5.885-6.57-7.719a8.6,8.6,0,0,1-3.38-5C243.92,276.394,241.884,271.538,237.06,271.538Z" fill="#122043"/>
          <g id="Grupo_10461" data-name="Grupo 10461">
            <path id="Trazado_20028" data-name="Trazado 20028" d="M246.841,364.245l5.565-.009c.739.1,1.565.384,1.7,1.239a6.588,6.588,0,0,1,.081,1.132c-.2.309-7.577-.041-7.577-.041l-.032-.036A1.87,1.87,0,0,1,246.841,364.245Z" fill="#0f787a"/>
            <path id="Trazado_20029" data-name="Trazado 20029" d="M254.19,366.607l-7.576-.041.066.394H254.2Z" fill="#002f4c"/>
            <g id="Grupo_10459" data-name="Grupo 10459">
              <path id="Trazado_20030" data-name="Trazado 20030" d="M249.044,364.236l.5,0-.156.91H248.9Z" fill="#fff"/>
            </g>
            <g id="Grupo_10460" data-name="Grupo 10460">
              <path id="Trazado_20031" data-name="Trazado 20031" d="M250.118,364.236l.5,0-.156.91h-.486Z" fill="#fff"/>
            </g>
            <path id="Trazado_20032" data-name="Trazado 20032" d="M246.459,361.771l.382,2.474h0a1.4,1.4,0,0,0,1.492.047l.084-.05.269-2.471Z" fill="#f7a57a"/>
          </g>
          <path id="Trazado_20033" data-name="Trazado 20033" d="M254.045,260.434a1.072,1.072,0,0,0-1.319.413l2.468,1.262c.035-.015.068-.032.1-.046a11.619,11.619,0,0,1,1.634-.6A20.547,20.547,0,0,0,254.045,260.434Z" fill="#f7a57a"/>
        </g>
      </g>
    </g>
    <g id="Grupo_10474" data-name="Grupo 10474">
      <g id="Grupo_10467" data-name="Grupo 10467">
        <path id="Trazado_20034" data-name="Trazado 20034" d="M324.281,363.654l-8.374-.01c-1.112.116-2.355.432-2.563,1.4a5.656,5.656,0,0,0-.121,1.276c.3.348,11.4-.046,11.4-.046l.048-.04A1.76,1.76,0,0,0,324.281,363.654Z" fill="#002b49"/>
        <path id="Trazado_20035" data-name="Trazado 20035" d="M313.223,366.316l11.4-.046-.1.444H313.207Z" fill="#122043"/>
        <g id="Grupo_10465" data-name="Grupo 10465">
          <path id="Trazado_20036" data-name="Trazado 20036" d="M320.966,363.644l-.754.005.235,1.026h.731Z" fill="#fff"/>
        </g>
        <g id="Grupo_10466" data-name="Grupo 10466">
          <path id="Trazado_20037" data-name="Trazado 20037" d="M319.35,363.644l-.754.005.235,1.026h.731Z" fill="#fff"/>
        </g>
        <path id="Trazado_20038" data-name="Trazado 20038" d="M324.856,360.864l-.575,2.79h0a2.717,2.717,0,0,1-2.245.053l-.127-.056-.4-2.787Z" fill="#f7a57a"/>
      </g>
      <g id="Grupo_10470" data-name="Grupo 10470">
        <path id="Trazado_20039" data-name="Trazado 20039" d="M343.854,363.654l-8.375-.01c-1.111.116-2.354.432-2.562,1.4a5.59,5.59,0,0,0-.121,1.276c.3.348,11.4-.046,11.4-.046l.048-.04A1.76,1.76,0,0,0,343.854,363.654Z" fill="#122043"/>
        <path id="Trazado_20040" data-name="Trazado 20040" d="M332.8,366.316l11.4-.046-.1.444H332.779Z" fill="#122043"/>
        <g id="Grupo_10468" data-name="Grupo 10468">
          <path id="Trazado_20041" data-name="Trazado 20041" d="M340.539,363.644l-.754.005.235,1.026h.731Z" fill="#fff"/>
        </g>
        <g id="Grupo_10469" data-name="Grupo 10469">
          <path id="Trazado_20042" data-name="Trazado 20042" d="M338.922,363.644l-.754.005.235,1.026h.731Z" fill="#fff"/>
        </g>
        <path id="Trazado_20043" data-name="Trazado 20043" d="M343.49,360.864l.364,2.79h0a2.718,2.718,0,0,1-2.245.053l-.128-.056-1.341-2.787Z" fill="#f7a57a"/>
      </g>
      <g id="Grupo_10471" data-name="Grupo 10471">
        <path id="Trazado_20044" data-name="Trazado 20044" d="M330.993,267.06l6.9,4.5-2.129,5.45c-.03.077-.07.149-.1.223-.151-.009-.3-.018-.456-.018-.025,0-.049,0-.074,0l-.072,0a5.321,5.321,0,0,0-4.4,2.665,9.192,9.192,0,0,1-3.256-.845,3.376,3.376,0,0,1-1.533-1.162C325.131,274,330.993,267.06,330.993,267.06Z" fill="#f7a57a"/>
      </g>
      <path id="Trazado_20045" data-name="Trazado 20045" d="M322.221,268.469s-.844,8.005.856,13.1c-.79.685-3.688,3.792-4.6-.235S319.5,267.06,319.5,267.06Z" fill="#f7a57a"/>
      <g id="Grupo_10473" data-name="Grupo 10473">
        <g id="Grupo_10472" data-name="Grupo 10472">
          <path id="Trazado_20046" data-name="Trazado 20046" d="M326.359,267.9l1.622,1.044-.579,1.211-1.741-.767Z" fill="#0f787a"/>
          <path id="Trazado_20047" data-name="Trazado 20047" d="M327.314,269.359c-.162.371-.174.724-.025.789s.4-.183.562-.553.174-.723.026-.788S327.477,268.989,327.314,269.359Z" fill="#005558"/>
        </g>
        <path id="Trazado_20048" data-name="Trazado 20048" d="M306.781,262c0-.016-.005-.03-.006-.046a16.208,16.208,0,0,1,1.569-2.816,14.176,14.176,0,0,0,1.507-2.462l16.755,10.966-1.085,2.048-18.742-6.926A5.268,5.268,0,0,0,306.781,262Z" fill="#005558"/>
      </g>
      <path id="Trazado_20049" data-name="Trazado 20049" d="M332.515,279.879l.6,3.763h-5.332l-.383-4.611Z" fill="#f18c72"/>
      <path id="Trazado_20050" data-name="Trazado 20050" d="M318.746,289.216s-6.3-2.005-8.271-4.7,1.366-17.454,1.366-17.454l-.432-2.656a2.473,2.473,0,0,1,2.419-2.869l1.682-.015a.963.963,0,0,1,.889,1.354l-2.213,4.979s-1.661,11.178.665,12.026a26.226,26.226,0,0,0,5.914,1.226Z" fill="#f7a57a"/>
      <path id="Trazado_20051" data-name="Trazado 20051" d="M330.577,279.879l1.62-3.593-1.053-.661a1.98,1.98,0,0,1-.821-2.315l1.153-3.386s-3.281-.4-3.182-3.459c0-1.574,2.166-1.583,2.166-1.583a3.15,3.15,0,0,0,2.657,1.574c.863-.108,3.232.209,4.83,3,1.075,1.876.6,4.814-.332,7.019-.839,1.976-2.979,3.079-5.1,3.4Z" fill="#122043"/>
      <path id="Trazado_20052" data-name="Trazado 20052" d="M336.98,310.059a118.563,118.563,0,0,1-1.991,15.963,14.269,14.269,0,0,0,.491,7.342c3.761,11.171,8.544,27.969,8.544,27.969h-4.2s-10.626-19.853-13.364-29.7-3.206-12.975-3.206-12.975l3.258-8.6Z" fill="#122043"/>
      <path id="Trazado_20053" data-name="Trazado 20053" d="M333.068,274.613a1.525,1.525,0,0,1-.871,1.673c-.675.358-1.378.19-1.571-.376a1.525,1.525,0,0,1,.872-1.674C332.172,273.878,332.875,274.047,333.068,274.613Z" fill="#f7a57a"/>
      <path id="Trazado_20054" data-name="Trazado 20054" d="M321.689,310.059H336.98V290.442a8.324,8.324,0,0,0-7.549-8.288L318.8,280.867s-1.25,1.914-4.734,6.361a35.868,35.868,0,0,0,9.033,3.779Z" fill="#ffc630"/>
      <path id="Trazado_20055" data-name="Trazado 20055" d="M336.98,310.059s-2.16,7.817-10.128,16.577a10.246,10.246,0,0,0-2.974,7.966l1.154,26.731h-3.778s-6.287-22.2-5.036-33.14a50.234,50.234,0,0,1,5.471-18.134Z" fill="#002b49"/>
      <path id="Trazado_20056" data-name="Trazado 20056" d="M309.347,260.181c-.822,1.706-1.938,2.873-2.492,2.606s-.337-1.867.486-3.573,1.938-2.873,2.492-2.606S310.17,258.475,309.347,260.181Z" fill="#fff"/>
      <path id="Trazado_20057" data-name="Trazado 20057" d="M322.882,265.2l-.142.068a2.13,2.13,0,0,1-1.6.1l-.094-.031a2.845,2.845,0,0,1-1.813-1.838h0a.528.528,0,0,1,.611-.677l1.06.222a1.6,1.6,0,0,1,1.005.685Z" fill="#f7a57a"/>
    </g>
    <g id="Grupo_10479" data-name="Grupo 10479">
      <path id="Trazado_20058" data-name="Trazado 20058" d="M308.029,60.324s6.7,3.54-.408,16.957c.309-1.491-.858-2.456-.814-3.759a52.454,52.454,0,0,0-.587-10.208Z" fill="#122043"/>
      <path id="Trazado_20059" data-name="Trazado 20059" d="M302.8,73.605v3.519l.029.021a4.187,4.187,0,0,0,4.79.136l.239-.157-.783-4.051Z" fill="#f18c72"/>
      <path id="Trazado_20060" data-name="Trazado 20060" d="M300.41,66.249s-.293,7.923,4.255,7.923,4.424-6.777,4.424-6.777-3.758-3.641-3.837-5.842C305.762,60.324,300.41,66.249,300.41,66.249Z" fill="#f7a57a"/>
      <path id="Trazado_20061" data-name="Trazado 20061" d="M308.063,69.148a1.033,1.033,0,0,1,.137-1.37.891.891,0,0,1,1.284-.181,1.033,1.033,0,0,1-.138,1.371A.89.89,0,0,1,308.063,69.148Z" fill="#f7a57a"/>
      <path id="Trazado_20062" data-name="Trazado 20062" d="M316.638,79s-.523,5.929-1.879,13.908a7.076,7.076,0,0,0,.106,2.876l3.277,13.3,2.971-.18,3.851,2.005-8.326.1-7.549-14.68-.316-14.305L311.649,79Z" fill="#f7a57a"/>
      <path id="Trazado_20063" data-name="Trazado 20063" d="M300.406,77.281s8.7-3.109,14.178-1.761c2.054.853,2.054,3.482,2.054,3.482s-3.3,1.118-5.1,5.881.7,17.71.7,17.71l-14.844-4.6Z" fill="#ffd159"/>
      <g id="Grupo_10476" data-name="Grupo 10476">
        <g id="Grupo_10475" data-name="Grupo 10475">
          <path id="Trazado_20064" data-name="Trazado 20064" d="M276.879,116.735s1.333.7,1.123,1.852l-.544,2.975h-.8l-.029-1.352a.2.2,0,0,0-.322-.16l-1.548,1.125a2.022,2.022,0,0,1-1.191.387h-6.235s0-1.995,3.665-2.539A13.4,13.4,0,0,0,276.879,116.735Z" fill="#122043"/>
          <path id="Trazado_20065" data-name="Trazado 20065" d="M275.584,114.524l-.881,2.211c-.167.486-.93,1-1.362,1.272A9.132,9.132,0,0,1,271,119.023c1.362,1.163,3.531,0,4.771-.863a3.031,3.031,0,0,0,1.212-1.757l.475-1.879Z" fill="#f7a57a"/>
        </g>
        <path id="Trazado_20066" data-name="Trazado 20066" d="M310.743,111.334c3.191-5.107-2.164-9.031-2.164-9.031s-11.646-8.841-19.9-10.333a4.165,4.165,0,0,0-4.312,1.938c-4.2,6.938-9.493,22.031-9.493,22.031h2.53a43.881,43.881,0,0,0,11.335-16.27S301.939,121.094,310.743,111.334Z" fill="#005558"/>
      </g>
      <path id="Trazado_20067" data-name="Trazado 20067" d="M308.5,62.326a15.871,15.871,0,0,1-5.539,5.183,3.258,3.258,0,0,0-1.158,4.43c1.2,2.076,2.434,4.86,1.923,6.9a9.035,9.035,0,0,1-1.842,3.539,4.582,4.582,0,0,0-.478,5.088l.059.11a7.328,7.328,0,0,1-4.073,10.414c-2.869.94-6.055.462-7.458-4.455-1.616-5.66,1.327-10.381,3.855-13.193a11.587,11.587,0,0,0,3.022-7.239c.166-3.977.9-9.491,3.6-11.554,3.379-2.589,5.669-2.069,7.387-1.355A1.488,1.488,0,0,1,308.5,62.326Z" fill="#122043"/>
      <g id="Grupo_10478" data-name="Grupo 10478">
        <g id="Grupo_10477" data-name="Grupo 10477">
          <path id="Trazado_20068" data-name="Trazado 20068" d="M280.537,117.025s1.333.7,1.122,1.852l-.544,2.975h-.8l-.028-1.353a.2.2,0,0,0-.323-.16l-1.548,1.126a2.019,2.019,0,0,1-1.19.387h-6.236s0-2,3.665-2.54A13.4,13.4,0,0,0,280.537,117.025Z" fill="#122043"/>
          <path id="Trazado_20069" data-name="Trazado 20069" d="M279.241,114.813l-.88,2.212c-.167.486-.93.995-1.363,1.272a9.085,9.085,0,0,1-2.341,1.015c1.363,1.164,3.531,0,4.772-.863a3.035,3.035,0,0,0,1.212-1.756l.474-1.88Z" fill="#f7a57a"/>
        </g>
        <path id="Trazado_20070" data-name="Trazado 20070" d="M312.2,111.623a7.855,7.855,0,0,0,.037-9.03s-11.646-8.841-19.9-10.333A4.162,4.162,0,0,0,288.02,94.2c-4.2,6.937-9.494,22.031-9.494,22.031h2.531a43.885,43.885,0,0,0,11.334-16.27S303.4,121.383,312.2,111.623Z" fill="#0f787a"/>
      </g>
    </g>
    <g id="Grupo_10492" data-name="Grupo 10492">
      <g id="Grupo_10491" data-name="Grupo 10491">
        <g id="Grupo_10490" data-name="Grupo 10490">
          <rect id="Rectángulo_2239" data-name="Rectángulo 2239" width="0.696" height="29.063" transform="translate(112.536 210.639) rotate(180)" fill="#53b6b9"/>
          <path id="Trazado_20075" data-name="Trazado 20075" d="M147.443,172.994c2.675,11.629-24.749,13.124-36.049,13.25a44.337,44.337,0,0,1-9.321-.885c-9.556-1.939-30.473-7.027-27.539-13.947,3.785-8.927,15.155-2.7,15.155-2.7s-1.427-6.74,17.92-11.192,19.27,10.383,19.27,10.383S144.081,158.386,147.443,172.994Z" fill="url(#linear-gradient-7)"/>
          <g id="Grupo_10489" data-name="Grupo 10489">
            <g id="Grupo_10482" data-name="Grupo 10482">
              <path id="Trazado_20076" data-name="Trazado 20076" d="M56.7,204.961a11.9,11.9,0,0,0-5.138,1.593c-.684.358-1.114,1.086-1.938.168l3.068-2.755,2.947-1.849-.4-.442,1.379-1.237s2.406,1.909,1.861,2.921Z" fill="#122043"/>
            </g>
            <g id="Grupo_10484" data-name="Grupo 10484">
              <path id="Trazado_20077" data-name="Trazado 20077" d="M144.157,204.114l-4.232,1.386-.252-4.281,5.277-1.284Z" fill="#f18c72"/>
              <g id="Grupo_10483" data-name="Grupo 10483">
                <path id="Trazado_20078" data-name="Trazado 20078" d="M144.452,205.563a2.361,2.361,0,0,0,.886,1.027c2.764.343,7.427-4.1,7.427-4.1l-.219-2.728-3.251-1.923-3.764,1.747a3.366,3.366,0,0,0-1.879,2.588h0A6.568,6.568,0,0,0,144.452,205.563Z" fill="#f7a57a"/>
              </g>
              <path id="Trazado_20079" data-name="Trazado 20079" d="M148.643,199.177a1.385,1.385,0,0,1,1.637.911,11.1,11.1,0,0,0,.659,1.61c.655,1.262,1.961,2.572,3.881,1.575s.038-3.013.038-3.013-3.25-4.464-5.631-5.612c-1.139-.548-2.5,2.063-3.282,3.171a6.644,6.644,0,0,0-1,2.116h0Z" fill="#122043"/>
              <path id="Trazado_20080" data-name="Trazado 20080" d="M146.639,198.16a1.068,1.068,0,0,1,.5,1.23c-.115.527-.528.831-.922.678a1.069,1.069,0,0,1-.505-1.23C145.832,198.311,146.245,198.008,146.639,198.16Z" fill="#f7a57a"/>
            </g>
            <g id="Grupo_10485" data-name="Grupo 10485">
              <path id="Trazado_20081" data-name="Trazado 20081" d="M61.98,197.834a11.906,11.906,0,0,0-5.345.61c-.739.224-1.3.86-1.936-.2l3.527-2.136,3.24-1.269-.307-.508,1.585-.959s2.009,2.323,1.285,3.216Z" fill="#122043"/>
            </g>
            <g id="Grupo_10486" data-name="Grupo 10486">
              <path id="Trazado_20082" data-name="Trazado 20082" d="M62.984,199.647l-.964-1.958h0a2.094,2.094,0,0,1,1.909-1.228h.149l1.114,1.868Z" fill="#f7a57a"/>
            </g>
            <path id="Trazado_20083" data-name="Trazado 20083" d="M112.612,222.9s-27.989,10.44-37.262-2.85L62.1,198.962l2.476-2.319L79.4,214.14a21.127,21.127,0,0,0,2.734,2.666l26.882-5.87Z" fill="#122043"/>
            <g id="Grupo_10487" data-name="Grupo 10487">
              <path id="Trazado_20084" data-name="Trazado 20084" d="M58.022,206.557l-1.311-1.746h0a2.1,2.1,0,0,1,1.648-1.561l.145-.028,1.443,1.629Z" fill="#f7a57a"/>
            </g>
            <path id="Trazado_20085" data-name="Trazado 20085" d="M140.266,205.322c-3.583,8.232-27.709,17.646-27.709,17.646l-7.2-13.88c19.4-13,34.662-8.047,34.662-8.047Z" fill="#0f787a"/>
            <path id="Trazado_20086" data-name="Trazado 20086" d="M111.108,220.178s-25.559,15.462-37.142,4.128l-16.935-18.26,2-2.739,17.817,14.437a21.211,21.211,0,0,0,3.183,2.11l25.321-10.766Z" fill="#002f4c"/>
            <path id="Trazado_20087" data-name="Trazado 20087" d="M141.19,205.02l.051-4.277-1.714.162.127,5.546Z" fill="#fff"/>
            <g id="Grupo_10488" data-name="Grupo 10488">
              <path id="Trazado_20088" data-name="Trazado 20088" d="M160.213,227.645l3.307,2.13c1.406.761,3.56-.714,4.715-2.085a.359.359,0,0,0-.2-.58,49.838,49.838,0,0,0-5.985-1.063Z" fill="#f7a57a"/>
              <path id="Trazado_20089" data-name="Trazado 20089" d="M132.458,202.039c4.552-3.246,12.036,7.986,14.129,11.344a5.659,5.659,0,0,0,1.489,1.591l13.972,11.073-1.835,1.6L143.5,220.023a7.652,7.652,0,0,1-1.954-1.34C138.326,215.649,127.924,205.273,132.458,202.039Z" fill="#0f787a"/>
            </g>
          </g>
        </g>
      </g>
    </g>
    <g id="Grupo_10500" data-name="Grupo 10500">
      <g id="Grupo_10499" data-name="Grupo 10499">
        <g id="Grupo_10494" data-name="Grupo 10494">
          <path id="Trazado_20090" data-name="Trazado 20090" d="M150.128,254.314l.258,18.4-4.993-1.329,2.818-17.936Z" fill="#f18c72"/>
          <g id="Grupo_10493" data-name="Grupo 10493">
            <path id="Trazado_20091" data-name="Trazado 20091" d="M147.446,249.789a2.675,2.675,0,0,0,.12,1.906l.649,2.412.457.232,1.464.528c-.229-.462-.092.037-.092.037l.531-3.719s1.564-2.186-1.879-3.117a.822.822,0,0,0-.894.292A2.1,2.1,0,0,0,147.446,249.789Z" fill="#f18c72"/>
          </g>
          <path id="Trazado_20092" data-name="Trazado 20092" d="M147.608,287.184a108.032,108.032,0,0,0,2.778-14.471l-4.817-2.45-2.174,6.356Z" fill="#005558"/>
        </g>
        <path id="Trazado_20093" data-name="Trazado 20093" d="M137.769,361.605l2.094.364c.433-2.6,6.946-14.912,7.475-21.309a144.467,144.467,0,0,1,2.238-15.005l-7.005-2.084s-1.774,0,.174,14.472C138.365,343.793,137.191,356.84,137.769,361.605Z" fill="#f18c72"/>
        <path id="Trazado_20094" data-name="Trazado 20094" d="M142.927,318.308s1.645,9.9,3.934,20.487c-2.39,6.393,1.253,24.234,1.32,24.171.275-.258,1.533,1.292,1.533,1.292s2.657-15.745,3.244-22.846.734-15.757.734-15.757Z" fill="#f7a57a"/>
        <path id="Trazado_20095" data-name="Trazado 20095" d="M147.884,361.969a2.337,2.337,0,0,0-.815,1.923c.183,1.078.442,3.6.442,3.6h1.025l-.031-2.355c0-.154,2.2,2.355,2.57,2.355H156.5s.36-1.589-2.826-2.1S147.884,361.969,147.884,361.969Z" fill="#002f4c"/>
        <g id="Grupo_10495" data-name="Grupo 10495">
          <path id="Trazado_20096" data-name="Trazado 20096" d="M140.1,360.174l-.144,2.247a2.09,2.09,0,0,0,.37,1.329,8.445,8.445,0,0,0,1.631,1.7c-1.573.5-3-1.258-3.753-2.431a2.8,2.8,0,0,1-.408-1.925l.265-1.768Z" fill="#f18c72"/>
          <path id="Trazado_20097" data-name="Trazado 20097" d="M137.769,361.41s-1.384.124-1.614,1.176-.883,3.182-.883,3.182l.755.6,1.064-2.112a31.424,31.424,0,0,0,2.652,3.237h5.921s0-1.96-3.705-2.049C138.544,365.364,137.769,361.41,137.769,361.41Z" fill="#122043"/>
        </g>
        <g id="Grupo_10497" data-name="Grupo 10497">
          <path id="Trazado_20098" data-name="Trazado 20098" d="M167.832,256.692l-6.576,17.185-4.146-3.085,9.263-15.616Z" fill="#f7a57a"/>
          <g id="Grupo_10496" data-name="Grupo 10496">
            <path id="Trazado_20099" data-name="Trazado 20099" d="M167.018,251.5a2.673,2.673,0,0,0-.6,1.815l-.291,2.481.339.384,1.164,1.033c-.041-.514-.1,0-.1,0l1.871-3.257s2.262-1.451-.591-3.592a.823.823,0,0,0-.938-.06A2.1,2.1,0,0,0,167.018,251.5Z" fill="#f7a57a"/>
          </g>
        </g>
        <path id="Trazado_20100" data-name="Trazado 20100" d="M149.576,278.09h-4.238l1.692-4.981,3.314,2.037Z" fill="#f18c72"/>
        <path id="Trazado_20101" data-name="Trazado 20101" d="M155.206,283.448c-.021-.126-.05-.231-.075-.346a64.012,64.012,0,0,0,6.125-9.224l-3.567-4.061-6.473,7.7-2.379.01a4.766,4.766,0,0,0-6.02.774c-1.026,1.057-1.709,3.926-1.023,6.957,1.888,8.358.41,12.78.41,12.78l10.935,4.077s.249-7.268.42-12.366v-.017a5.7,5.7,0,0,1,.888-2.79A4.979,4.979,0,0,0,155.206,283.448Z" fill="#0f787a"/>
        <g id="Grupo_10498" data-name="Grupo 10498">
          <path id="Trazado_20102" data-name="Trazado 20102" d="M151.066,264.156l-6.951,2.433.686,5.188c.009.073.029.144.043.216.133.024.267.049.4.082l.064.018.063.013a4.758,4.758,0,0,1,3.249,3.253,8.2,8.2,0,0,0,3.008-.039,3.016,3.016,0,0,0,1.58-.681C154.675,271.439,151.066,264.156,151.066,264.156Z" fill="#f7a57a"/>
        </g>
        <path id="Trazado_20103" data-name="Trazado 20103" d="M150.906,268.571c-1.872.915-1.431,10.558-1.754,17.125a7.462,7.462,0,0,1-6.319,6.98c-2.477.4-5.2.468-6.837-.466,1.084-.888,6.931-9.49,5.058-20.882-.246-1.5-.276-5.673,2.249-7.939,2.8-2.517,8.592.767,8.592.767S153.476,267.315,150.906,268.571Z" fill="#002b49"/>
        <path id="Trazado_20104" data-name="Trazado 20104" d="M153.362,297.783a81.2,81.2,0,0,1,1.455,11.818c0,2.422-.593,17.678-.593,17.678s-10.389.752-12.407.752c-.5-12.5-3.35-12.887-3.35-18.717,0-2.534,1.3-5.4,2.3-7.224a10.545,10.545,0,0,0,1.441-4.053l.068-.237Z" fill="#53b6b9"/>
        <path id="Trazado_20105" data-name="Trazado 20105" d="M141.317,325.683" fill="#ffc630"/>
      </g>
    </g>
    <g id="Grupo_10515" data-name="Grupo 10515">
      <g id="Grupo_10514" data-name="Grupo 10514">
        <g id="Grupo_10503" data-name="Grupo 10503">
          <path id="Trazado_20110" data-name="Trazado 20110" d="M410.747,366.934l-50.33-156.466h2.866l50.33,156.466Z" fill="#ffc630"/>
        </g>
        <g id="Grupo_10504" data-name="Grupo 10504">
          <path id="Trazado_20111" data-name="Trazado 20111" d="M384.723,366.934l-50.33-156.466h2.866l50.331,156.466Z" fill="#ffc630"/>
        </g>
        <g id="Grupo_10505" data-name="Grupo 10505">
          <path id="Trazado_20112" data-name="Trazado 20112" d="M376.322,251.1v2.333l-26.966-.015-.461-2.333Z" fill="#ffc630"/>
        </g>
        <g id="Grupo_10506" data-name="Grupo 10506">
          <path id="Trazado_20113" data-name="Trazado 20113" d="M370.747,235.94v2.333l-26.966-.015-.461-2.333Z" fill="#ffc630"/>
        </g>
        <g id="Grupo_10507" data-name="Grupo 10507">
          <path id="Trazado_20114" data-name="Trazado 20114" d="M366.138,220.779v2.333l-26.966-.015-.461-2.333Z" fill="#ffc630"/>
        </g>
        <g id="Grupo_10508" data-name="Grupo 10508">
          <path id="Trazado_20115" data-name="Trazado 20115" d="M381.234,266.456v2.333l-26.966-.015-.461-2.333Z" fill="#ffc630"/>
        </g>
        <g id="Grupo_10509" data-name="Grupo 10509">
          <path id="Trazado_20116" data-name="Trazado 20116" d="M385.844,281.811v2.333l-26.966-.015-.461-2.333Z" fill="#ffc630"/>
        </g>
        <g id="Grupo_10510" data-name="Grupo 10510">
          <path id="Trazado_20117" data-name="Trazado 20117" d="M390.612,297.764l1.09,2.334-26.966-.015-.461-2.333Z" fill="#ffc630"/>
        </g>
        <g id="Grupo_10511" data-name="Grupo 10511">
          <path id="Trazado_20118" data-name="Trazado 20118" d="M395.668,313.718l1.09,2.333-26.966-.015-.461-2.333Z" fill="#ffc630"/>
        </g>
        <g id="Grupo_10512" data-name="Grupo 10512">
          <path id="Trazado_20119" data-name="Trazado 20119" d="M400.4,329.316l1.09,2.333-26.966-.015-.461-2.333Z" fill="#ffc630"/>
        </g>
        <g id="Grupo_10513" data-name="Grupo 10513">
          <path id="Trazado_20120" data-name="Trazado 20120" d="M404.326,345.254l1.09,2.333-26.966-.015-.461-2.333Z" fill="#ffc630"/>
        </g>
      </g>
    </g>
    <g id="Grupo_10523" data-name="Grupo 10523">
      <g id="Grupo_10516" data-name="Grupo 10516">
        <path id="Trazado_20121" data-name="Trazado 20121" d="M354.386,247.392s-.708.979-4.045,1.83c-.735.187-1.527.315-1.527,1.527h3.3l3.368-.583v.583H357.3s.506-2.976-.556-3.357Z" fill="#122043"/>
        <path id="Trazado_20122" data-name="Trazado 20122" d="M354.213,245.255l.173,2.137h0a2.06,2.06,0,0,0,2.229.075l.125-.075v-2.137Z" fill="#f7a57a"/>
      </g>
      <g id="Grupo_10517" data-name="Grupo 10517">
        <path id="Trazado_20123" data-name="Trazado 20123" d="M371.283,247.818s-.708.98-4.046,1.829c-.734.188-1.526.315-1.526,1.527h3.294l3.368-.582v.582h1.819s.507-2.975-.556-3.356Z" fill="#122043"/>
        <path id="Trazado_20124" data-name="Trazado 20124" d="M371.11,245.681l.173,2.137h0a2.056,2.056,0,0,0,2.228.074l.125-.074v-2.137Z" fill="#f7a57a"/>
      </g>
      <path id="Trazado_20125" data-name="Trazado 20125" d="M352.871,192.738l.82,53.677H357.6s5.952-43.337,4.681-53.677S352.871,192.738,352.871,192.738Z" fill="#122043"/>
      <path id="Trazado_20126" data-name="Trazado 20126" d="M357,192.726s1.362,16.489,4.489,25.617,8.773,28.072,8.773,28.072h4.047s-6.759-39.588-5.214-53.689H357Z" fill="#002f4c"/>
      <path id="Trazado_20127" data-name="Trazado 20127" d="M353.48,165.4s-4.819,11.24-6.043,11.24c-.978,0,.367-9.178.367-9.178h-4.036s-5.076,15.73-1.04,18.6,12.9-8.134,12.9-8.134Z" fill="#53b6b9"/>
      <path id="Trazado_20128" data-name="Trazado 20128" d="M367.852,194.153l-1.461,3.611c-.7,1.419-3.288,1.455-5.005,1a.356.356,0,0,1-.168-.585,49.511,49.511,0,0,1,4.236-4.276Z" fill="#f7a57a"/>
      <path id="Trazado_20129" data-name="Trazado 20129" d="M357.47,163.056a4.53,4.53,0,0,0-3.88,2.151,3.052,3.052,0,0,0-.475,1.541v25.978h14.749V168.439s-.3-5.4-5.581-5.4C360.036,163.038,358.5,163.047,357.47,163.056Z" fill="#53b6b9"/>
      <g id="Grupo_10518" data-name="Grupo 10518">
        <path id="Trazado_20130" data-name="Trazado 20130" d="M353.36,192.737V169.406l-.489.016v23.315Z" fill="#fff"/>
      </g>
      <path id="Trazado_20131" data-name="Trazado 20131" d="M362.864,158.081,361.291,164a3.744,3.744,0,0,1-3.121.618c-1.779-.473-1.438-1.755-1.438-1.755l1.007-3.795,2.815.013Z" fill="#f18c72"/>
      <path id="Trazado_20132" data-name="Trazado 20132" d="M357.214,160.136a2.284,2.284,0,0,1-1.229-.694c-.911-2.937,2.69-9.243,2.69-9.243l5.458,2.549-1.025,4.6a3.949,3.949,0,0,1-2.265,2.756h0A6.334,6.334,0,0,1,357.214,160.136Z" fill="#f7a57a"/>
      <path id="Trazado_20133" data-name="Trazado 20133" d="M361.4,152.151a12.67,12.67,0,0,1-3.9-1.036c-1.907-.888-.041-2.753-.041-2.753a8.154,8.154,0,0,0,4.037,1.38c1.846.209,2.415-.009,3.393.9,1.328,1.236.211,3.934.211,3.934l-2.425,5.691-.32-.084s.856-3.541,1.174-4.739c-.189-.634-.552-.73-.868-.668a.924.924,0,0,0-.69.687l-1.632,6.144s-4.361.648-5.276.078.96-4.947.96-4.947a1.892,1.892,0,0,1,1.906,1.039c.619,1.222,1.961.479,1.961.479Z" fill="#122043"/>
      <path id="Trazado_20134" data-name="Trazado 20134" d="M344.543,167.466l.142-.775a6.457,6.457,0,0,1,3.607-4.411h1.714l-.531,3.661-2.418,1.525Z" fill="#f7a57a"/>
      <path id="Trazado_20135" data-name="Trazado 20135" d="M363.2,154.754a1.036,1.036,0,0,0-1.193.69.893.893,0,0,0,.365,1.245,1.035,1.035,0,0,0,1.193-.69A.893.893,0,0,0,363.2,154.754Z" fill="#f7a57a"/>
      <path id="Trazado_20136" data-name="Trazado 20136" d="M348.769,165.535l-3.338,1.931s2.1-.021,2.129,0l3.533-2.956s-.256-.517-1.057-.081A4.056,4.056,0,0,0,348.769,165.535Z" fill="#f7a57a"/>
      <path id="Trazado_20137" data-name="Trazado 20137" d="M366.294,164.664s8.339,9.263,8.339,14.815-6.769,15.337-6.769,15.337l-3.343-.978s3.017-12.109,3.017-15.331-6.2-7.944-6.2-7.944" fill="#53b6b9"/>
      <g id="Grupo_10519" data-name="Grupo 10519">
        <path id="Trazado_20138" data-name="Trazado 20138" d="M367.294,178.507c0,2.774-2.455,12.913-3.032,15.276.169.045.239.058.5.124.709-2.918,3.025-12.674,3.025-15.4,0-3.3-6.037-7.942-6.294-8.138l-.3.389C361.254,170.8,367.294,175.443,367.294,178.507Z" fill="#fff"/>
      </g>
      <g id="Grupo_10522" data-name="Grupo 10522">
        <path id="Trazado_20139" data-name="Trazado 20139" d="M350.951,160a8.845,8.845,0,0,1-2.321,6.23.964.964,0,0,1-.661.266,2.442,2.442,0,0,1-1.121-.333,1.065,1.065,0,0,1-.63-.583.463.463,0,0,1,.108-.474c.529-.608,2.193-2.719,1.819-4.818A3.628,3.628,0,0,1,350.951,160Z" fill="#005558"/>
        <path id="Trazado_20140" data-name="Trazado 20140" d="M346.559,166a.706.706,0,0,1-.341-.421.463.463,0,0,1,.108-.474c.529-.608,2.193-2.719,1.819-4.818a3.052,3.052,0,0,1,1.376-.435C349.313,162.08,348.651,163.5,346.559,166Z" fill="#0f787a"/>
        <g id="Grupo_10521" data-name="Grupo 10521">
          <g id="Grupo_10520" data-name="Grupo 10520">
            <path id="Trazado_20141" data-name="Trazado 20141" d="M348.619,162.689c-.169.5-.463.846-.658.779s-.217-.522-.049-1.019.464-.845.659-.779S348.788,162.193,348.619,162.689Z" fill="#005558"/>
            <path id="Trazado_20142" data-name="Trazado 20142" d="M348.609,161.69l-.2-.076,0,.108.133.073Z" fill="#f4872e"/>
            <path id="Trazado_20143" data-name="Trazado 20143" d="M348.008,163.475l-.249-.081.3-.006Z" fill="#de1d4c"/>
          </g>
          <path id="Trazado_20144" data-name="Trazado 20144" d="M348.453,162.633c-.169.5-.464.845-.659.779s-.217-.523-.048-1.019.463-.846.659-.779S348.621,162.136,348.453,162.633Z" fill="#53b6b9"/>
        </g>
        <path id="Trazado_20145" data-name="Trazado 20145" d="M352.221,157.111l.392.049a1.345,1.345,0,0,1,1.2,1.469l-.129,1.032a1.346,1.346,0,0,1-1.526,1.127l-.392-.049Z" fill="#005558"/>
        <path id="Trazado_20146" data-name="Trazado 20146" d="M340.1,156.629c-.353,2.815.008,5.178.806,5.278s1.732-2.1,2.085-4.916-.009-5.178-.807-5.278S340.456,153.814,340.1,156.629Z" fill="#122043"/>
        <path id="Trazado_20147" data-name="Trazado 20147" d="M343.293,155.121l-1.236.6-.207,1.649,1.044,1.216.676-2.093Z" fill="#fff"/>
        <path id="Trazado_20148" data-name="Trazado 20148" d="M342.994,156.991c.3-2.365.087-4.406-.46-5.059l0,0a23.475,23.475,0,0,0,9.907,5.247l-.451,3.6s-7.538-1.379-10.692,1.01l0,0C341.989,161.286,342.7,159.359,342.994,156.991Z" fill="#0f787a"/>
        <path id="Trazado_20149" data-name="Trazado 20149" d="M341.8,156.522c-.057.458-.034.837.052.848s.2-.351.26-.809.034-.836-.052-.847S341.855,156.065,341.8,156.522Z" fill="#ffc630"/>
      </g>
      <path id="Trazado_20150" data-name="Trazado 20150" d="M346.4,164.808a3.93,3.93,0,0,0,1.864.3c.971,0,1.408-1.193,1.574-1.842.058-.229.11-.553-.176-.7l-1.559-.216Z" fill="#f7a57a"/>
    </g>
  </g>
</svg>
