<svg xmlns="http://www.w3.org/2000/svg" xmlns:xlink="http://www.w3.org/1999/xlink" width="598.538" height="266.567" viewBox="0 0 598.538 266.567">
  <defs>
    <linearGradient id="linear-gradient" x1="0.062" y1="0.5" x2="1.062" y2="0.5" gradientUnits="objectBoundingBox">
      <stop offset="0" stop-color="#daece5"/>
      <stop offset="1" stop-color="#b2deeb"/>
    </linearGradient>
    <linearGradient id="linear-gradient-2" x1="2.133" y1="0.5" x2="3.133" y2="0.5" xlink:href="#linear-gradient"/>
    <linearGradient id="linear-gradient-3" x1="-0.212" y1="-0.003" x2="0.78" y2="-0.003" gradientUnits="objectBoundingBox">
      <stop offset="0" stop-color="#eef7f6"/>
      <stop offset="1" stop-color="#b2deeb"/>
    </linearGradient>
    <linearGradient id="linear-gradient-4" x1="-0.281" y1="0.459" x2="0.779" y2="0.459" xlink:href="#linear-gradient-3"/>
    <linearGradient id="linear-gradient-5" x1="7.902" y1="0.5" x2="8.902" y2="0.5" xlink:href="#linear-gradient"/>
    <linearGradient id="linear-gradient-6" x1="0.152" y1="0.5" x2="1.152" y2="0.5" xlink:href="#linear-gradient"/>
    <linearGradient id="linear-gradient-7" x1="0" y1="0.5" x2="1" y2="0.5" xlink:href="#linear-gradient-3"/>
    <linearGradient id="linear-gradient-9" x1="0" y1="0.5" x2="1" y2="0.5" xlink:href="#linear-gradient"/>
    <linearGradient id="linear-gradient-12" x1="21.525" y1="0.5" x2="22.525" y2="0.5" xlink:href="#linear-gradient"/>
    <linearGradient id="linear-gradient-13" x1="16.451" y1="0.5" x2="17.451" y2="0.5" xlink:href="#linear-gradient"/>
    <linearGradient id="linear-gradient-14" x1="8.664" y1="0.83" x2="9.903" y2="-0.523" xlink:href="#linear-gradient"/>
    <linearGradient id="linear-gradient-15" x1="28.564" y1="0.535" x2="33.07" y2="-2.429" xlink:href="#linear-gradient"/>
    <linearGradient id="linear-gradient-16" x1="100.153" y1="0.5" x2="101.153" y2="0.5" xlink:href="#linear-gradient"/>
  </defs>
  <g id="Grupo_11033" data-name="Grupo 11033" transform="translate(-36.014 -40.133)">
    <g id="Grupo_10959" data-name="Grupo 10959">
      <g id="Grupo_10956" data-name="Grupo 10956">
        <path id="Trazado_20725" data-name="Trazado 20725" d="M397.591,147.223c-.443-1.582-5.638-5.128-12.1-7.877a61.028,61.028,0,0,0-.383-17.83c5.743-2.174,11.572-5.066,12.238-8.032,1.351-6.019-6.989-20.576-9.267-21.857-1.458-.82-7.84.406-14.481,3.133a61.006,61.006,0,0,0-12.543-12.44c2.533-5.609,4.625-11.8,2.994-14.377-3.3-5.212-19.491-9.607-22.008-8.9-1.576.442-5.1,5.6-7.85,12.037A60.986,60.986,0,0,0,316.1,70.9c-2.144-5.535-4.936-10.976-7.795-11.618-6.018-1.352-20.575,6.989-21.856,9.267-.763,1.356.242,6.97,2.58,13.092a61.057,61.057,0,0,0-13.578,13.191c-5.117-2.172-10.369-3.721-12.687-2.254-5.211,3.3-9.607,19.492-8.9,22.008.4,1.418,4.61,4.413,10.131,7a61.01,61.01,0,0,0-.1,19.685c-4.85,2.028-9.215,4.515-9.786,7.056-1.351,6.019,6.989,20.576,9.267,21.857,1.254.705,6.149-.1,11.719-2.076A61.05,61.05,0,0,0,289.314,182c-1.987,4.85-3.3,9.673-1.913,11.867,3.3,5.212,19.491,9.608,22.008,8.9,1.421-.4,4.427-4.631,7.017-10.172a61.045,61.045,0,0,0,19.389-.525c2.076,5.112,4.675,9.856,7.333,10.453,6.018,1.351,20.575-6.989,21.856-9.267.767-1.363-.253-7.027-2.615-13.184A61,61,0,0,0,375.1,166.588c5.391,2.369,11.136,4.2,13.591,2.643C393.9,165.931,398.3,149.74,397.591,147.223Zm-83.334,9.951a27.459,27.459,0,1,1,35.752-15.158A27.458,27.458,0,0,1,314.257,157.174Z" fill="#ffc630"/>
      </g>
      <g id="Grupo_10957" data-name="Grupo 10957">
        <path id="Trazado_20726" data-name="Trazado 20726" d="M322.2,170.529A39.39,39.39,0,1,1,361.48,146h0A39.43,39.43,0,0,1,322.2,170.529Zm5.483-77.444a38.241,38.241,0,1,0,32.739,52.489h0a38.28,38.28,0,0,0-32.739-52.489Z" fill="#fff"/>
      </g>
      <g id="Grupo_10958" data-name="Grupo 10958">
        <path id="Trazado_20727" data-name="Trazado 20727" d="M380.634,141.555c-.228-.124-.454-.251-.676-.386a56.01,56.01,0,0,1-110.517-.182h-.007c-.253-.043-.505-.1-.755-.155a56.738,56.738,0,0,0,111.955.724Z" fill="#fff"/>
        <path id="Trazado_20728" data-name="Trazado 20728" d="M309.563,78.011a55.736,55.736,0,0,1,36.157,1.964c.234.1.459.2.691.3.007-.258.029-.514.05-.772-.158-.065-.309-.139-.468-.2a56.453,56.453,0,0,0-36.483-2.03C309.533,77.516,309.551,77.764,309.563,78.011Z" fill="#fff"/>
      </g>
    </g>
    <g id="Grupo_10966" data-name="Grupo 10966">
      <g id="Grupo_10963" data-name="Grupo 10963">
        <g id="Grupo_10962" data-name="Grupo 10962">
          <g id="Grupo_10961" data-name="Grupo 10961">
            <g id="Grupo_10960" data-name="Grupo 10960">
              <path id="Trazado_20729" data-name="Trazado 20729" d="M463.114,119.126c-1.029.209-3.531,3.354-5.585,7.343a39.044,39.044,0,0,0-11.381-.588c-1.117-3.761-2.689-7.611-4.548-8.174-3.773-1.142-13.44,3.494-14.363,4.886-.59.891-.107,5.016,1.321,9.375a38.995,38.995,0,0,0-8.514,7.414c-3.456-1.876-7.306-3.5-9.023-2.58-3.475,1.861-7.033,11.974-6.7,13.611.208,1.026,3.334,3.516,7.3,5.565a38.966,38.966,0,0,0-.955,11.524c-3.628,1.108-7.226,2.633-7.769,4.425-1.142,3.773,3.494,13.44,4.886,14.363.829.549,4.454.171,8.464-1.033a39.051,39.051,0,0,0,7.774,9.269c-1.623,3.16-2.856,6.434-2.029,7.98,1.861,3.476,11.974,7.033,13.611,6.7.922-.187,3.028-2.732,4.933-6.13a39,39,0,0,0,12.541.983c1.066,3.186,2.447,6.084,4.041,6.566,3.772,1.143,13.439-3.494,14.362-4.886.508-.766.222-3.924-.776-7.566a38.975,38.975,0,0,0,9.518-8.416c3,1.492,6.011,2.556,7.474,1.773,3.476-1.86,7.033-11.974,6.7-13.611-.187-.924-2.745-3.038-6.155-4.947a39,39,0,0,0,.571-12.382c3.354-1.084,6.5-2.519,7-4.185,1.143-3.773-3.494-13.44-4.886-14.363-.832-.552-4.49-.166-8.524,1.052a38.948,38.948,0,0,0-8-8.729c1.762-3.326,3.2-6.9,2.319-8.539C474.865,122.351,464.751,118.794,463.114,119.126Zm2.453,53.576a17.547,17.547,0,1,1-7.992-23.494A17.547,17.547,0,0,1,465.567,172.7Z" fill="#a4d1bb"/>
            </g>
          </g>
        </g>
      </g>
      <g id="Grupo_10964" data-name="Grupo 10964">
        <path id="Trazado_20730" data-name="Trazado 20730" d="M474.449,168.262a25.171,25.171,0,1,1-13.8-26.179h0a25.2,25.2,0,0,1,13.8,26.179Zm-49.1-7.11a24.438,24.438,0,1,0,34.981-18.415h0a24.464,24.464,0,0,0-34.981,18.415Z" fill="#fff"/>
      </g>
      <g id="Grupo_10965" data-name="Grupo 10965">
        <path id="Trazado_20731" data-name="Trazado 20731" d="M458.71,129.669c-.089.139-.181.278-.277.412a35.793,35.793,0,0,1-5.274,70.428v0c-.039.16-.085.318-.135.475a36.258,36.258,0,0,0,5.687-71.319Z" fill="#fff"/>
        <path id="Trazado_20732" data-name="Trazado 20732" d="M414.895,172a35.615,35.615,0,0,1,2.939-22.953c.071-.145.15-.283.223-.426-.163-.017-.326-.042-.489-.068-.049.1-.1.191-.151.289a36.075,36.075,0,0,0-3,23.157C414.578,171.995,414.736,171.995,414.895,172Z" fill="#fff"/>
      </g>
    </g>
    <path id="Trazado_20733" data-name="Trazado 20733" d="M437.257,104.351c-4.113,17.874,38.039,20.172,55.407,20.367a68.166,68.166,0,0,0,14.327-1.361c14.688-2.98,46.84-10.8,42.33-21.438-5.818-13.721-23.294-4.154-23.294-4.154s2.194-10.36-27.544-17.2-29.619,15.958-29.619,15.958S442.423,81.9,437.257,104.351Z" fill="url(#linear-gradient)"/>
    <path id="Trazado_20734" data-name="Trazado 20734" d="M308.655,143.05H138.3s-9.238-11.687,0-19.552c5.1-4.34,11.119-3.89,15.492-2.616a5.1,5.1,0,0,0,6.316-3.993c1.036-4.8,4.229-11.092,13.4-14.807,9.022-3.655,14.728,1.926,18.03,7.661a2.562,2.562,0,0,0,4.634-.473c2.859-9.053,12.826-21.054,45.572-21.054,41.649,0,37.022,22.142,33.3,31.344a2.122,2.122,0,0,0,2.408,2.893c6.424-1.373,18.349-3.153,23.7,1.045C308.655,129.394,308.655,143.05,308.655,143.05Z" fill="url(#linear-gradient-2)"/>
    <g id="Grupo_10971" data-name="Grupo 10971">
      <g id="Grupo_10967" data-name="Grupo 10967">
        <path id="Trazado_20735" data-name="Trazado 20735" d="M169.181,186.684s-2.642-77-55.665-96.366c-63.94,73.111,8.133,135.8,8.133,135.8Z" fill="#0f787a"/>
        <path id="Trazado_20736" data-name="Trazado 20736" d="M113.516,90.318c-.223.255-.437.509-.656.763l25.679,87.074-51.462-23.6q.015.946.054,1.885l52.042,23.871,7.41,25.126L148,204.258l-14.772-50.089h0l21.019-25.2c-.276-.545-.555-1.089-.842-1.632l-20.753,24.885L114.51,90.7c-.332-.128-.657-.263-.994-.386Z" fill="#fff"/>
      </g>
      <g id="Grupo_10968" data-name="Grupo 10968">
        <path id="Trazado_20737" data-name="Trazado 20737" d="M144.628,177.63S94.584,119.331,41.75,130.8c-18.993,62.18,47.137,93.9,47.137,93.9l67.095,3.564Z" fill="#ffc630"/>
        <path id="Trazado_20738" data-name="Trazado 20738" d="M100.615,142.238l-4.3,33.8L43.005,130.549c-.419.082-.836.156-1.255.247-.075.244-.137.484-.209.728l28.553,24.363-31.331,4.5c.035.3.078.593.117.889l.113.786,32.815-4.709,47.583,40.6-54.736,9.644c.528.489,1.056.971,1.582,1.439l54.822-9.66,33.789,28.83,1.134.06-.366-1.629L97.855,177.35l4.352-34.219Q101.417,142.681,100.615,142.238Z" fill="#fff"/>
      </g>
      <g id="Grupo_10970" data-name="Grupo 10970">
        <path id="Trazado_20739" data-name="Trazado 20739" d="M138.1,213.808S75.867,198.32,51.043,233.517c34.4,80.943,139.789,42.9,139.789,42.9Z" fill="#002f4c"/>
        <g id="Grupo_10969" data-name="Grupo 10969">
          <path id="Trazado_20740" data-name="Trazado 20740" d="M51.044,233.518c.132.312.269.617.4.925l85.644,14.427-35.235,31.519q.945.3,1.895.575l35.476-31.734,33.451,5.635-1.685-2-65.128-10.971L84.873,212.719q-.893.2-1.783.419l20.4,28.356-51.887-8.74c-.187.254-.379.5-.563.762Z" fill="#005558"/>
        </g>
      </g>
    </g>
    <g id="Grupo_10976" data-name="Grupo 10976">
      <g id="Grupo_10972" data-name="Grupo 10972">
        <path id="Trazado_20741" data-name="Trazado 20741" d="M503.693,186.684s2.642-77,55.665-96.366c63.94,73.111-8.133,135.8-8.133,135.8Z" fill="#ffc630"/>
        <path id="Trazado_20742" data-name="Trazado 20742" d="M559.358,90.318c.223.255.437.509.657.763l-25.68,87.074,51.463-23.6q-.016.946-.054,1.885L533.7,180.306l-7.41,25.126-1.416-1.174,14.772-50.089h0l-21.02-25.2c.276-.545.555-1.089.842-1.632l20.753,24.885L558.364,90.7c.332-.128.657-.263.994-.386Z" fill="#fff"/>
      </g>
      <g id="Grupo_10973" data-name="Grupo 10973">
        <path id="Trazado_20743" data-name="Trazado 20743" d="M528.246,177.63s50.044-58.3,102.878-46.834c18.993,62.18-47.137,93.9-47.137,93.9l-67.095,3.564Z" fill="#0f787a"/>
        <path id="Trazado_20744" data-name="Trazado 20744" d="M572.259,142.238l4.3,33.8,53.312-45.488c.418.082.835.156,1.254.247.075.244.137.484.209.728L602.78,155.887l31.331,4.5c-.035.3-.078.593-.116.889l-.113.786-32.816-4.709-47.583,40.6,54.736,9.644c-.528.489-1.056.971-1.582,1.439l-54.822-9.66L518.026,228.2l-1.134.06.366-1.629,57.761-49.284-4.352-34.219C571.194,142.831,571.726,142.533,572.259,142.238Z" fill="#005558"/>
      </g>
      <g id="Grupo_10975" data-name="Grupo 10975">
        <path id="Trazado_20745" data-name="Trazado 20745" d="M534.776,213.808s62.231-15.488,87.055,19.709c-34.4,80.943-139.789,42.9-139.789,42.9Z" fill="#002f4c"/>
        <g id="Grupo_10974" data-name="Grupo 10974">
          <path id="Trazado_20746" data-name="Trazado 20746" d="M621.83,233.518c-.132.312-.269.617-.4.925L535.782,248.87l35.235,31.519q-.945.3-1.9.575L533.646,249.23,500.2,254.865l1.685-2,65.128-10.971L588,212.719c.6.133,1.189.272,1.783.419l-20.4,28.356,51.887-8.74c.187.254.38.5.563.762Z" fill="#005558"/>
        </g>
      </g>
    </g>
    <g id="Grupo_10983" data-name="Grupo 10983">
      <g id="Grupo_10977" data-name="Grupo 10977">
        <path id="Trazado_20747" data-name="Trazado 20747" d="M620.541,65.03l2.564,7.622-7.319-2.84L591.079,57.842Z" fill="#a4d1bb"/>
        <path id="Trazado_20748" data-name="Trazado 20748" d="M623.105,72.652l-12.747-2.689,3.388-1.14Z" fill="#53b6b9"/>
        <path id="Trazado_20749" data-name="Trazado 20749" d="M620.541,65.03l3.266-6.578-32.729-.609Z" fill="url(#linear-gradient-3)"/>
        <path id="Trazado_20750" data-name="Trazado 20750" d="M591.079,57.842l24.707,11.969L610.461,79.2Z" fill="url(#linear-gradient-4)"/>
      </g>
      <g id="Grupo_10982" data-name="Grupo 10982">
        <g id="Grupo_10978" data-name="Grupo 10978">
          <path id="Trazado_20751" data-name="Trazado 20751" d="M619.216,79.372a.622.622,0,0,0,.2-.116.611.611,0,0,0,.066-.862,17.261,17.261,0,0,0-2.277-2.209.611.611,0,1,0-.766.953,15.929,15.929,0,0,1,2.114,2.052A.611.611,0,0,0,619.216,79.372Z" fill="#53b6b9"/>
        </g>
        <g id="Grupo_10980" data-name="Grupo 10980">
          <g id="Grupo_10979" data-name="Grupo 10979">
            <path id="Trazado_20752" data-name="Trazado 20752" d="M600.085,144.125a.611.611,0,0,1,.336-.8,17.23,17.23,0,0,0,5-3.2.612.612,0,0,1,.82.909,18.407,18.407,0,0,1-5.362,3.419.227.227,0,0,1-.036.014A.613.613,0,0,1,600.085,144.125Zm7.893-5.772a.611.611,0,0,1-.106-.858,21.921,21.921,0,0,0,3.005-5.186.611.611,0,1,1,1.132.463,23.077,23.077,0,0,1-3.173,5.475.6.6,0,0,1-.286.2A.613.613,0,0,1,607.978,138.353Zm4.434-8.75a.613.613,0,0,1-.466-.729l.057-.27a28.212,28.212,0,0,0,.539-5.732.612.612,0,0,1,1.223-.006,29.531,29.531,0,0,1-.563,5.981l-.061.29a.609.609,0,0,1-.4.448A.619.619,0,0,1,612.412,129.6Zm.585-9.822a.61.61,0,0,1-.676-.539,44.561,44.561,0,0,0-1.128-5.986.617.617,0,0,1,.44-.745.611.611,0,0,1,.744.441,45.433,45.433,0,0,1,1.158,6.151.609.609,0,0,1-.412.649A.642.642,0,0,1,613,119.781Zm-2.057-9.655a.613.613,0,0,1-.77-.395q-.078-.246-.16-.49a20.484,20.484,0,0,1-2.052.365.612.612,0,0,1-.153-1.214q.914-.114,1.811-.316c-.452-1.3-.961-2.649-1.545-4.11a.611.611,0,1,1,1.135-.454c.607,1.514,1.132,2.914,1.6,4.258a18.54,18.54,0,0,0,2.726-1.036.612.612,0,0,1,.525,1.106,19.915,19.915,0,0,1-2.859,1.09c.047.142.093.284.139.426a.612.612,0,0,1-.387.767Zm5.528-4.39a.611.611,0,0,1,.115-.857,15.358,15.358,0,0,0,3.928-4.413.612.612,0,1,1,1.052.624,16.615,16.615,0,0,1-4.238,4.76.6.6,0,0,1-.176.094A.613.613,0,0,1,616.468,105.736Zm-12.324,3.994a19.127,19.127,0,0,1-6.2-1.41.612.612,0,0,1,.469-1.13,17.858,17.858,0,0,0,5.8,1.319.611.611,0,0,1,.158,1.19A.6.6,0,0,1,604.144,109.73Zm18.229-11.741a.612.612,0,0,1-.389-.773,18.56,18.56,0,0,0,.921-5.884.611.611,0,0,1,1.223,0,19.776,19.776,0,0,1-.983,6.273.612.612,0,0,1-.772.388Zm-27.78,8.474a15.875,15.875,0,0,1-1.3-1.031,13.078,13.078,0,0,1-2.94-3.77.611.611,0,1,1,1.086-.562,11.83,11.83,0,0,0,2.663,3.414,14.94,14.94,0,0,0,1.2.953.611.611,0,1,1-.709,1Zm12.049-5.888a22.712,22.712,0,0,0-3.061-5.161.612.612,0,0,1,.943-.779,23.849,23.849,0,0,1,3.232,5.434.613.613,0,0,1-.3.811l-.058.022A.611.611,0,0,1,606.642,100.575Zm16.641-12.33a.612.612,0,0,1-.714-.489,19.563,19.563,0,0,0-.687-2.64,18.7,18.7,0,0,0-1.3-2.981.611.611,0,1,1,1.073-.586,19.841,19.841,0,0,1,1.386,3.177,20.859,20.859,0,0,1,.73,2.806.612.612,0,0,1-.406.691A.564.564,0,0,1,623.283,88.245ZM589.862,98.469a.61.61,0,0,1-.669-.548,6.793,6.793,0,0,1,1.2-4.753,6.23,6.23,0,0,1,1.242-1.27.612.612,0,0,1,.744.971,4.968,4.968,0,0,0-1,1.02,5.516,5.516,0,0,0-.976,3.911.613.613,0,0,1-.414.64A.542.542,0,0,1,589.862,98.469Zm11.131-5.425A8.748,8.748,0,0,0,595.5,91.7a.612.612,0,0,1-.125-1.217,9.871,9.871,0,0,1,6.289,1.537.611.611,0,0,1,.177.846.6.6,0,0,1-.316.245A.611.611,0,0,1,600.993,93.044Z" fill="#53b6b9"/>
          </g>
        </g>
        <g id="Grupo_10981" data-name="Grupo 10981">
          <path id="Trazado_20753" data-name="Trazado 20753" d="M597.215,145.451a.612.612,0,0,0-.276-1.186,13.111,13.111,0,0,1-2.916.062.611.611,0,1,0-.111,1.217,14.409,14.409,0,0,0,3.188-.066A.742.742,0,0,0,597.215,145.451Z" fill="#53b6b9"/>
        </g>
      </g>
    </g>
    <g id="Grupo_10984" data-name="Grupo 10984">
      <path id="Trazado_20754" data-name="Trazado 20754" d="M107.1,134.56H305.86L355.9,277.373H152.97Z" fill="#53b6b9"/>
      <path id="Trazado_20755" data-name="Trazado 20755" d="M115.577,139.424H300.794l46.628,133.084H158.32Z" fill="#002f4c"/>
      <rect id="Rectángulo_2304" data-name="Rectángulo 2304" width="263.195" height="12.985" rx="4.934" transform="translate(150.384 271.3)" fill="#f99200"/>
      <path id="Rectángulo_2305" data-name="Rectángulo 2305" d="M3,0H91.8a5.3,5.3,0,0,1,5.3,5.3V7.689a5.3,5.3,0,0,1-5.3,5.3H3a3,3,0,0,1-3-3V3A3,3,0,0,1,3,0Z" transform="translate(150.384 271.3)" fill="#ffd159"/>
      <path id="Trazado_20756" data-name="Trazado 20756" d="M337.1,277.6a1.893,1.893,0,1,1-1.894-1.893A1.893,1.893,0,0,1,337.1,277.6Z" fill="#ffd159"/>
      <path id="Trazado_20757" data-name="Trazado 20757" d="M325.726,277.6a1.894,1.894,0,1,1-1.894-1.893A1.893,1.893,0,0,1,325.726,277.6Z" fill="#ef7100"/>
      <path id="Trazado_20758" data-name="Trazado 20758" d="M219.191,279.65H207.879a2.239,2.239,0,0,1-2.232-2.233h0a2.239,2.239,0,0,1,2.232-2.233h11.312a2.24,2.24,0,0,1,2.233,2.233h0A2.24,2.24,0,0,1,219.191,279.65Z" fill="#f99200"/>
      <path id="Trazado_20759" data-name="Trazado 20759" d="M198.925,279.65H187.613a2.239,2.239,0,0,1-2.232-2.233h0a2.239,2.239,0,0,1,2.232-2.233h11.312a2.24,2.24,0,0,1,2.233,2.233h0A2.24,2.24,0,0,1,198.925,279.65Z" fill="#ef7100"/>
    </g>
    <g id="Grupo_10985" data-name="Grupo 10985">
      <path id="Trazado_20760" data-name="Trazado 20760" d="M534.784,101.723c8.46,0,15.318,7.252,15.318,16.2V269.091c0,8.945-6.858,16.2-15.318,16.2H480.777c-8.46,0-15.318-7.252-15.318-16.2V117.919c0-8.944,6.858-16.2,15.318-16.2Z" fill="#53b6b9"/>
      <path id="Trazado_20761" data-name="Trazado 20761" d="M525.6,101.723c8.46,0,15.318,7.252,15.318,16.2V269.091c0,8.945-6.858,16.2-15.318,16.2H471.6c-8.459,0-15.318-7.252-15.318-16.2V117.919c0-8.944,6.859-16.2,15.318-16.2Z" fill="#53b6b9"/>
      <path id="Trazado_20762" data-name="Trazado 20762" d="M527.345,104.611c8,0,11.25,6.854,11.25,15.308V267.093c0,8.454-3.255,15.306-11.25,15.306H470.933c-8,0-12.325-5.773-12.325-14.226V118.839c0-8.454,4.33-14.228,12.325-14.228Z" fill="#fff"/>
      <rect id="Rectángulo_2306" data-name="Rectángulo 2306" width="73.677" height="132.814" transform="translate(461.736 126.657)" fill="#002f4c"/>
      <path id="Trazado_20763" data-name="Trazado 20763" d="M513.159,116.849c.171,0,.31-.273.31-.609h0c0-.334-.139-.607-.31-.607H484.45c-.172,0-.31.273-.31.607h0c0,.336.138.609.31.609Z" fill="#0f787a"/>
      <path id="Trazado_20764" data-name="Trazado 20764" d="M499.175,276.683a5.811,5.811,0,1,0-5.812-5.811A5.81,5.81,0,0,0,499.175,276.683Z" fill="#53b6b9"/>
    </g>
    <g id="Grupo_10987" data-name="Grupo 10987">
      <path id="Trazado_20765" data-name="Trazado 20765" d="M284.381,235.511,345.8,181.3H452.5v47.758l-13.339.858-11.185,4.734-62.814,37.429-16.306,9.9c-2.134,1.862-5.775.653-7.466-1.283l-1.657-1.9a4.535,4.535,0,0,1,.482-6.6l14.1-12.289-1.8-2.018L333.64,274.335a6.465,6.465,0,0,1-9.414-.6l-2.364-2.712a6.464,6.464,0,0,1,.688-9.409l18.731-16.327-1.58-1.773-24.637,21.477a7.087,7.087,0,0,1-10.318-.659l-2.592-2.972a7.088,7.088,0,0,1,.755-10.312l24.486-21.341-1.916-2.148-27.294,23.788c-3.442,3-8.145,2.191-11.143-1.249L284.1,246.72C281.1,243.278,280.938,238.509,284.381,235.511Z" fill="#f7a57a"/>
      <path id="Trazado_20766" data-name="Trazado 20766" d="M267.5,238.949l2.152-52.49h25.812l43.069-14.627s53.78-.506,54.761,0a69.744,69.744,0,0,1,.694,7.533l-.909,4.476a14.439,14.439,0,0,1-13.69,8.181l-32.206-.427c-1.919-.022-9.7-.7-11.087-1.816l-54.27,49.17Z" fill="#f18c72"/>
      <path id="Trazado_20767" data-name="Trazado 20767" d="M382.8,266.535c2.029,2.909,6.352,3.4,9.659,1.1h0c3.31-2.3,4.348-6.532,2.322-9.441l-7.152-10.269c-2.028-2.911-5.977-2.86-9.284-.555h0c-3.309,2.3-4.724,5.99-2.7,8.9Z" fill="#f18c72"/>
      <path id="Trazado_20768" data-name="Trazado 20768" d="M396.91,256.159a7.486,7.486,0,0,0,10.363,2.1h0a7.481,7.481,0,0,0,1.617-10.448l-8.524-12.238c-2.414-3.466-6.607-3.766-9.913-1.463h0c-3.31,2.3-4.48,6.341-2.065,9.81Z" fill="#f18c72"/>
      <path id="Trazado_20769" data-name="Trazado 20769" d="M412.1,247.165c2.148,2.823,6.489,3.135,9.7.692h0c3.208-2.443,4.068-6.709,1.92-9.531l-7.575-9.96c-2.148-2.821-6.092-2.606-9.3-.166h0c-3.209,2.443-4.466,6.184-2.319,9.007Z" fill="#f18c72"/>
      <path id="Trazado_20770" data-name="Trazado 20770" d="M369.547,274.937c1.673,2.4,5.245,2.8,7.973.9h0c2.735-1.9,3.591-5.391,1.917-7.8l-5.906-8.477c-1.672-2.4-4.932-2.362-7.663-.458h0c-2.731,1.9-3.9,4.946-2.225,7.348Z" fill="#f18c72"/>
      <g id="Grupo_10986" data-name="Grupo 10986">
        <path id="Trazado_20771" data-name="Trazado 20771" d="M158.493,139.038l-43.916-.614,5.344,25.875a28.9,28.9,0,0,1,9.372,7.981,23.408,23.408,0,0,0,1.959,2.342,50.227,50.227,0,0,1,6.737,10.193,31.92,31.92,0,0,1,1.914,5.634,29.065,29.065,0,0,1,1.617,5.744q.07.656.134,1.316L181,208.669l91.033,35.186,19.032-58.542Z" fill="#53b6b9"/>
        <path id="Trazado_20772" data-name="Trazado 20772" d="M122.039,159.544l11.469,35.71,138.414,48.939,9.412-28.947Z" fill="#0f787a"/>
        <path id="Trazado_20773" data-name="Trazado 20773" d="M268.816,177.426,248.855,237.7l23.177,7.2,19.961-60.273Z" fill="url(#linear-gradient-5)"/>
        <path id="Trazado_20774" data-name="Trazado 20774" d="M265.4,226.611a3.867,3.867,0,0,0-4.872,2.48h0a3.865,3.865,0,0,0,2.483,4.868h0a3.859,3.859,0,0,0,4.869-2.478h0a3.865,3.865,0,0,0-2.48-4.87Z" fill="#002f4c"/>
      </g>
      <path id="Trazado_20775" data-name="Trazado 20775" d="M536,141.438,417.1,180.964l19.033,58.54,91.961-29.9L536,195.728Z" fill="#ffc630"/>
      <path id="Trazado_20776" data-name="Trazado 20776" d="M536,176.18C506.013,185.3,426.826,210.9,426.826,210.9l9.411,28.946L536,207.4Z" fill="#f99200"/>
      <path id="Trazado_20777" data-name="Trazado 20777" d="M439.346,173.077l18.919,60.271-22.137,7.2-18.919-60.271Z" fill="url(#linear-gradient-6)"/>
    </g>
    <g id="Grupo_10990" data-name="Grupo 10990">
      <g id="Grupo_10988" data-name="Grupo 10988">
        <path id="Trazado_20778" data-name="Trazado 20778" d="M184.423,76.965,163.252,65.28l-10.808-2.162-8.167,1.2Z" fill="url(#linear-gradient-7)"/>
        <path id="Trazado_20779" data-name="Trazado 20779" d="M184.423,76.965,144.779,66.774l-.5-2.455" fill="#a4d1bb"/>
        <path id="Trazado_20780" data-name="Trazado 20780" d="M143.648,73.576l.051.083,1.664,6.155,38.961-2.846Z" fill="#53b6b9"/>
        <path id="Trazado_20781" data-name="Trazado 20781" d="M136.078,69.969l5.656-4.591L184.166,76.9,147.64,75.813Z" fill="url(#linear-gradient-7)"/>
      </g>
      <g id="Grupo_10989" data-name="Grupo 10989">
        <path id="Trazado_20782" data-name="Trazado 20782" d="M46.9,148.514a29.657,29.657,0,0,0,3.814-1.655.576.576,0,1,1,.53,1.023,30.756,30.756,0,0,1-3.962,1.719q-.73.258-1.47.479a.576.576,0,0,1-.332-1.1Q46.2,148.762,46.9,148.514Z" fill="#53b6b9"/>
        <path id="Trazado_20783" data-name="Trazado 20783" d="M124.494,65.676c1.8.231,3.668.527,5.72.906a.576.576,0,0,1-.209,1.133c-2.031-.375-3.882-.668-5.658-.9a.576.576,0,0,1,.147-1.143Z" fill="#53b6b9"/>
        <path id="Trazado_20784" data-name="Trazado 20784" d="M114.887,66.117a.576.576,0,0,1,.338-1.039c1.848-.016,3.8.061,5.807.229a.576.576,0,0,1-.1,1.148c-1.969-.165-3.887-.24-5.7-.225A.565.565,0,0,1,114.887,66.117Z" fill="#53b6b9"/>
        <path id="Trazado_20785" data-name="Trazado 20785" d="M58.017,141.571a.567.567,0,0,1,.814.01.574.574,0,0,1-.01.814,32.1,32.1,0,0,1-4.546,3.692.574.574,0,0,1-.663-.015.559.559,0,0,1-.136-.142.577.577,0,0,1,.158-.8A31.2,31.2,0,0,0,58.017,141.571Z" fill="#53b6b9"/>
        <path id="Trazado_20786" data-name="Trazado 20786" d="M60.392,139.884a.575.575,0,0,1-.08-.811q.488-.6.947-1.215a29.917,29.917,0,0,0,2.213-3.46.575.575,0,0,1,.78-.231.583.583,0,0,1,.231.782,30.963,30.963,0,0,1-2.3,3.6q-.476.642-.983,1.26a.575.575,0,0,1-.788.1Z" fill="#53b6b9"/>
        <path id="Trazado_20787" data-name="Trazado 20787" d="M65.239,132.086a.53.53,0,0,1-.123-.07.575.575,0,0,1-.189-.682,39.24,39.24,0,0,0,1.752-5.391.575.575,0,1,1,1.116.281,40.178,40.178,0,0,1-1.8,5.549A.576.576,0,0,1,65.239,132.086Z" fill="#53b6b9"/>
        <path id="Trazado_20788" data-name="Trazado 20788" d="M80.511,82.941q-.719.879-1.4,1.79c-.679.917-1.327,1.866-1.927,2.822a.576.576,0,0,1-.794.182l-.037-.026a.574.574,0,0,1-.144-.768c.614-.981,1.279-1.955,1.976-2.9q.693-.936,1.431-1.835a.548.548,0,0,1,.811-.08A.576.576,0,0,1,80.511,82.941Z" fill="#53b6b9"/>
        <path id="Trazado_20789" data-name="Trazado 20789" d="M75.492,90.51a41.887,41.887,0,0,0-2.283,5.2.576.576,0,0,1-1.084-.389,42.97,42.97,0,0,1,2.345-5.342.577.577,0,0,1,1.022.534Z" fill="#53b6b9"/>
        <path id="Trazado_20790" data-name="Trazado 20790" d="M86.943,76.52a47,47,0,0,0-4.169,3.867.576.576,0,0,1-.759.067.644.644,0,0,1-.056-.048.576.576,0,0,1-.019-.814,48.278,48.278,0,0,1,4.271-3.962.576.576,0,1,1,.732.89Z" fill="#53b6b9"/>
        <path id="Trazado_20791" data-name="Trazado 20791" d="M97.562,69.966a.576.576,0,0,1-.466-1.054,45.626,45.626,0,0,1,5.471-2.013.576.576,0,1,1,.327,1.1A44.369,44.369,0,0,0,97.562,69.966Z" fill="#53b6b9"/>
        <path id="Trazado_20792" data-name="Trazado 20792" d="M69.183,114.152a.577.577,0,0,1-.507-.638l.082-.725c.191-1.669.381-3.34.6-5.005a.576.576,0,1,1,1.142.151c-.22,1.658-.409,3.322-.6,4.985l-.083.724A.576.576,0,0,1,69.183,114.152Z" fill="#53b6b9"/>
        <path id="Trazado_20793" data-name="Trazado 20793" d="M89.658,74.451a.576.576,0,1,1-.664-.941,48.042,48.042,0,0,1,4.958-3.062.576.576,0,0,1,.544,1.016A46.62,46.62,0,0,0,89.658,74.451Z" fill="#53b6b9"/>
        <path id="Trazado_20794" data-name="Trazado 20794" d="M68.913,116.441a.574.574,0,0,1,.5.644c-.283,2.243-.561,4.063-.873,5.729a.576.576,0,0,1-1.133-.213c.309-1.642.583-3.44.864-5.661A.575.575,0,0,1,68.913,116.441Z" fill="#53b6b9"/>
        <path id="Trazado_20795" data-name="Trazado 20795" d="M42.186,149.789a.575.575,0,1,1,.222,1.129,46.513,46.513,0,0,1-5.777.747.576.576,0,1,1-.081-1.149A46.017,46.017,0,0,0,42.186,149.789Z" fill="#53b6b9"/>
        <path id="Trazado_20796" data-name="Trazado 20796" d="M71.787,98.255a.577.577,0,0,1,.407.705c-.454,1.695-.843,3.519-1.188,5.576a.576.576,0,1,1-1.136-.19c.35-2.1.747-3.954,1.212-5.684A.575.575,0,0,1,71.787,98.255Z" fill="#53b6b9"/>
        <path id="Trazado_20797" data-name="Trazado 20797" d="M109.716,65.42q1.008-.12,2.019-.2a.576.576,0,0,1,.088,1.149q-.987.073-1.971.191c-1.217.144-2.446.347-3.653.6a.575.575,0,1,1-.238-1.126C107.2,65.776,108.465,65.569,109.716,65.42Z" fill="#53b6b9"/>
      </g>
    </g>
    <g id="Grupo_10998" data-name="Grupo 10998">
      <g id="Grupo_10991" data-name="Grupo 10991">
        <path id="Trazado_20798" data-name="Trazado 20798" d="M119.564,297.1s.88,1.217,5.029,2.274c.913.233,1.9.391,1.9,1.9H122.4l-4.187-.724v.724h-2.261s-.63-3.7.691-4.172Z" fill="#122043"/>
        <path id="Trazado_20799" data-name="Trazado 20799" d="M119.779,294.447l-.215,2.657h0a2.56,2.56,0,0,1-2.77.093l-.155-.093v-2.657Z" fill="#f7a57a"/>
      </g>
      <g id="Grupo_10992" data-name="Grupo 10992">
        <path id="Trazado_20800" data-name="Trazado 20800" d="M98.562,297.633s.88,1.218,5.028,2.274c.913.233,1.9.392,1.9,1.9h-4.1l-4.186-.724v.724H94.945s-.629-3.7.692-4.172Z" fill="#122043"/>
        <path id="Trazado_20801" data-name="Trazado 20801" d="M98.777,294.977l-.215,2.656h0a2.558,2.558,0,0,1-2.77.093l-.155-.093v-2.656Z" fill="#f7a57a"/>
      </g>
      <path id="Trazado_20802" data-name="Trazado 20802" d="M121.448,229.168l-1.019,66.721h-4.861s-7.4-53.868-5.82-66.721S121.448,229.168,121.448,229.168Z" fill="#005558"/>
      <path id="Trazado_20803" data-name="Trazado 20803" d="M116.31,229.153s-1.692,20.5-5.579,31.842-10.905,34.894-10.905,34.894H94.795s8.4-49.208,6.481-66.736H116.31Z" fill="#0f787a"/>
      <path id="Trazado_20804" data-name="Trazado 20804" d="M120.69,195.193s5.991,13.97,7.512,13.97c1.216,0-.456-11.408-.456-11.408h5.017s6.31,19.553,1.292,23.126-16.04-10.111-16.04-10.111Z" fill="url(#linear-gradient-9)"/>
      <path id="Trazado_20805" data-name="Trazado 20805" d="M102.827,230.927l1.815,4.489c.875,1.763,4.088,1.808,6.222,1.248a.443.443,0,0,0,.209-.727,61.448,61.448,0,0,0-5.267-5.315Z" fill="#f7a57a"/>
      <path id="Trazado_20806" data-name="Trazado 20806" d="M115.731,192.273a5.633,5.633,0,0,1,4.823,2.674,3.794,3.794,0,0,1,.59,1.916v32.29H102.811V198.964s.375-6.713,6.937-6.713C112.542,192.251,114.455,192.262,115.731,192.273Z" fill="url(#linear-gradient-9)"/>
      <g id="Grupo_10993" data-name="Grupo 10993">
        <path id="Trazado_20807" data-name="Trazado 20807" d="M120.84,229.167v-29l.608.02v28.981Z" fill="#85c6ba"/>
      </g>
      <path id="Trazado_20808" data-name="Trazado 20808" d="M109.027,186.09l1.954,7.36a4.655,4.655,0,0,0,3.88.768c2.211-.587,1.788-2.181,1.788-2.181L115.4,187.32l-3.5.017Z" fill="#f18c72"/>
      <path id="Trazado_20809" data-name="Trazado 20809" d="M116.049,188.644a2.837,2.837,0,0,0,1.528-.863c1.133-3.65-3.343-11.489-3.343-11.489l-6.785,3.169,1.274,5.711a4.909,4.909,0,0,0,2.815,3.426h0A7.883,7.883,0,0,0,116.049,188.644Z" fill="#f7a57a"/>
      <path id="Trazado_20810" data-name="Trazado 20810" d="M110.84,178.719a15.763,15.763,0,0,0,4.852-1.289c2.37-1.1.05-3.422.05-3.422a10.123,10.123,0,0,1-5.018,1.716c-2.295.26-3-.011-4.217,1.12-1.651,1.536-.263,4.89-.263,4.89l3.015,7.074.4-.1s-1.065-4.4-1.46-5.89c.236-.788.687-.908,1.079-.831a1.153,1.153,0,0,1,.859.854l2.028,7.638s5.421.805,6.558.1-1.194-6.148-1.194-6.148a2.35,2.35,0,0,0-2.368,1.291c-.77,1.518-2.438.6-2.438.6Z" fill="#122043"/>
      <path id="Trazado_20811" data-name="Trazado 20811" d="M131.8,197.755l-.177-.963a8.021,8.021,0,0,0-4.484-5.483h-2.13l.66,4.55,3.006,1.9Z" fill="#f7a57a"/>
      <path id="Trazado_20812" data-name="Trazado 20812" d="M108.607,181.954a1.287,1.287,0,0,1,1.483.858,1.108,1.108,0,0,1-.453,1.547,1.287,1.287,0,0,1-1.483-.858A1.109,1.109,0,0,1,108.607,181.954Z" fill="#f7a57a"/>
      <path id="Trazado_20813" data-name="Trazado 20813" d="M126.546,195.354l4.15,2.4s-2.6-.026-2.646,0l-4.392-3.675s.319-.641,1.314-.1A5.049,5.049,0,0,1,126.546,195.354Z" fill="#f7a57a"/>
      <path id="Trazado_20814" data-name="Trazado 20814" d="M104.763,194.272S94.4,205.786,94.4,212.687s8.413,19.065,8.413,19.065l4.156-1.216s-3.751-15.052-3.751-19.056,7.7-9.875,7.7-9.875" fill="url(#linear-gradient-9)"/>
      <g id="Grupo_10994" data-name="Grupo 10994">
        <path id="Trazado_20815" data-name="Trazado 20815" d="M103.52,211.48c0,3.447,3.052,16.051,3.769,18.987-.211.055-.3.072-.616.155-.882-3.628-3.761-15.754-3.761-19.142,0-4.107,7.5-9.874,7.823-10.117l.369.484C111.028,201.9,103.52,207.67,103.52,211.48Z" fill="#85c6ba"/>
      </g>
      <g id="Grupo_10997" data-name="Grupo 10997">
        <path id="Trazado_20816" data-name="Trazado 20816" d="M123.834,188.474a11,11,0,0,0,2.885,7.744,1.2,1.2,0,0,0,.823.33,3.067,3.067,0,0,0,1.393-.413,1.335,1.335,0,0,0,.783-.725.575.575,0,0,0-.135-.589c-.657-.756-2.726-3.38-2.261-5.989A4.507,4.507,0,0,0,123.834,188.474Z" fill="#005558"/>
        <path id="Trazado_20817" data-name="Trazado 20817" d="M129.294,195.933a.883.883,0,0,0,.424-.523.575.575,0,0,0-.135-.589c-.657-.756-2.726-3.38-2.261-5.989a3.8,3.8,0,0,0-1.709-.542C125.871,191.06,126.693,192.83,129.294,195.933Z" fill="#0f787a"/>
        <g id="Grupo_10996" data-name="Grupo 10996">
          <g id="Grupo_10995" data-name="Grupo 10995">
            <path id="Trazado_20818" data-name="Trazado 20818" d="M126.733,191.817c.21.618.576,1.051.819.969s.269-.65.06-1.267-.577-1.051-.819-.968S126.523,191.2,126.733,191.817Z" fill="#005558"/>
            <path id="Trazado_20819" data-name="Trazado 20819" d="M126.745,190.576l.254-.1,0,.134-.166.091Z" fill="#f4872e"/>
            <path id="Trazado_20820" data-name="Trazado 20820" d="M127.492,192.795l.31-.1-.368-.008Z" fill="#de1d4c"/>
          </g>
          <path id="Trazado_20821" data-name="Trazado 20821" d="M126.94,191.747c.209.617.576,1.051.818.969s.27-.65.06-1.267-.576-1.051-.818-.968S126.73,191.13,126.94,191.747Z" fill="#53b6b9"/>
        </g>
        <path id="Trazado_20822" data-name="Trazado 20822" d="M122.256,184.883l-.487.061a1.673,1.673,0,0,0-1.492,1.827l.16,1.282a1.674,1.674,0,0,0,1.9,1.4l.488-.061Z" fill="#005558"/>
        <path id="Trazado_20823" data-name="Trazado 20823" d="M137.319,184.284c.439,3.5-.01,6.437-1,6.561s-2.153-2.611-2.591-6.11.01-6.437,1-6.561S136.88,180.785,137.319,184.284Z" fill="#122043"/>
        <path id="Trazado_20824" data-name="Trazado 20824" d="M133.354,182.41l1.536.746.257,2.05-1.3,1.512-.84-2.6Z" fill="#fff"/>
        <path id="Trazado_20825" data-name="Trazado 20825" d="M133.726,184.735c-.369-2.941-.109-5.478.571-6.289l0,0a29.185,29.185,0,0,1-12.315,6.521l.561,4.472s9.37-1.713,13.29,1.256l.005,0C134.974,190.073,134.1,187.678,133.726,184.735Z" fill="#002f4c"/>
        <path id="Trazado_20826" data-name="Trazado 20826" d="M135.211,184.152c.072.568.043,1.04-.064,1.054s-.252-.437-.324-1-.042-1.041.066-1.054S135.14,183.584,135.211,184.152Z" fill="#ffc630"/>
      </g>
      <path id="Trazado_20827" data-name="Trazado 20827" d="M129.494,194.451a4.892,4.892,0,0,1-2.317.378c-1.207,0-1.75-1.483-1.956-2.29-.073-.284-.137-.687.218-.868l1.938-.269Z" fill="#f7a57a"/>
    </g>
    <g id="Grupo_11016" data-name="Grupo 11016">
      <g id="Grupo_11008" data-name="Grupo 11008">
        <g id="Grupo_11000" data-name="Grupo 11000">
          <path id="Trazado_20828" data-name="Trazado 20828" d="M514.449,192.177l-.442,5.592-5.488.237,2.211-8.67Z" fill="#f18c72"/>
          <g id="Grupo_10999" data-name="Grupo 10999">
            <path id="Trazado_20829" data-name="Trazado 20829" d="M516.795,193.2a3,3,0,0,0,1.679-.4c2.008-2.92-.279-10.792-.279-10.792l-3.21-1.351-4.078,2.544-.232,5.275a4.279,4.279,0,0,0,1.821,3.638h0A8.347,8.347,0,0,0,516.795,193.2Z" fill="#f7a57a"/>
          </g>
          <path id="Trazado_20830" data-name="Trazado 20830" d="M511.55,186.19c.224-.886.107-2.931,1.009-2.783.659.108,2.914.2,3.673.2,1.809,0,5.033-.708,5.033-3.461a3.549,3.549,0,0,0-4.8-2.948c-1.992.7-4.633,2.232-5.686,2.021-1.773-.357-3.541.683-3.516,2.189a15.07,15.07,0,0,0,1.657,5.565,8.465,8.465,0,0,0,1.806,2.363h0Z" fill="#122043"/>
          <path id="Trazado_20831" data-name="Trazado 20831" d="M509.716,186.389a1.361,1.361,0,0,1,1.685.151c.528.439.629,1.084.226,1.439a1.361,1.361,0,0,1-1.685-.15C509.414,187.39,509.313,186.745,509.716,186.389Z" fill="#f7a57a"/>
        </g>
        <g id="Grupo_11001" data-name="Grupo 11001">
          <path id="Trazado_20832" data-name="Trazado 20832" d="M529.881,196.51a5.5,5.5,0,0,1,2.006-2.315c1.375-1.063,4.883-2.436,3.362-3.49-1.88.151-4.1.1-4.1.1-1.129.2-2.451,1.607-3.108,2.638l-1.64,3.414s.755,1.675.776,1.761l.785-.15A8.942,8.942,0,0,1,529.881,196.51Z" fill="#f7a57a"/>
          <path id="Trazado_20833" data-name="Trazado 20833" d="M529.964,195.547a1.386,1.386,0,0,1,.049-.278c-.244.047-.487.08-.729.106-.775.472-1.564.921-2.344,1.385.332.409.8.984.821,1.03l5.71-2.027s.063-.78-1.2-.755A6.025,6.025,0,0,0,529.964,195.547Z" fill="#f7a57a"/>
        </g>
        <path id="Trazado_20834" data-name="Trazado 20834" d="M521.265,208.1l8.807-8.184-3.04-4.546-12.047,5.69,5.245,9.217Z" fill="url(#linear-gradient-12)"/>
        <path id="Trazado_20835" data-name="Trazado 20835" d="M511.484,194.435c-12.559-2.6-10.37,38.982-10.37,38.982h19.867s.284-7.24,1.01-16.42C522.607,209.211,518.24,200.419,511.484,194.435Z" fill="url(#linear-gradient-13)"/>
        <g id="Grupo_11002" data-name="Grupo 11002">
          <path id="Trazado_20836" data-name="Trazado 20836" d="M518.026,302.212a15.629,15.629,0,0,0,6.418,2.951c.983.25,2.042-.084,2.042,1.537h-5.415l-4.5-.779v.779h-2.432s-.677-3.978.743-4.488Z" fill="#122043"/>
          <path id="Trazado_20837" data-name="Trazado 20837" d="M517.752,299.355l.274,2.857h0a2.753,2.753,0,0,1-2.98.1l-.167-.1-.505-2.857Z" fill="#f7a57a"/>
        </g>
        <g id="Grupo_11003" data-name="Grupo 11003">
          <path id="Trazado_20838" data-name="Trazado 20838" d="M546.189,207.464a5.5,5.5,0,0,0,2.7-1.438c1.344-1.1,3.465-4.216,4.153-2.5-.567,1.8-1.017,3.977-1.017,3.977-.449,1.055-2.114,2.029-3.266,2.44l-3.693.836s-1.465-1.11-1.544-1.15l.322-.732A8.93,8.93,0,0,0,546.189,207.464Z" fill="#f7a57a"/>
          <path id="Trazado_20839" data-name="Trazado 20839" d="M547.145,207.6a1.4,1.4,0,0,0,.283.015c-.1.226-.187.456-.266.686-.634.65-1.248,1.319-1.875,1.975-.324-.414-.78-.995-.82-1.03l3.251-5.113s.775.113.467,1.343A6.031,6.031,0,0,1,547.145,207.6Z" fill="#f7a57a"/>
        </g>
        <g id="Grupo_11004" data-name="Grupo 11004">
          <path id="Trazado_20840" data-name="Trazado 20840" d="M498.908,298.214a15.63,15.63,0,0,0,6.419,2.951c.982.251,2.041-.084,2.041,1.537h-5.414l-4.5-.779v.779h-2.433s-.677-3.978.744-4.488Z" fill="#122043"/>
          <path id="Trazado_20841" data-name="Trazado 20841" d="M498.634,295.357l.274,2.857h0a2.751,2.751,0,0,1-2.979.1l-.167-.1-.505-2.857Z" fill="#f7a57a"/>
        </g>
        <path id="Trazado_20842" data-name="Trazado 20842" d="M501.114,233.417s1.591,8.421.167,25.857a31.826,31.826,0,0,1-2.072,8.983c-3.827,9.807-4.352,27.9-4.352,27.9h4.378l15.426-44.111Z" fill="#122043"/>
        <path id="Trazado_20843" data-name="Trazado 20843" d="M508.519,208.163s3.434,12.795,12.746,13.974S545.9,211.53,545.9,211.53l-1.684-3.367-16.164,4.526a5.477,5.477,0,0,1-6.292-2.662l-4.87-8.97Z" fill="url(#linear-gradient-14)"/>
        <path id="Trazado_20844" data-name="Trazado 20844" d="M520.981,233.417l-2.89,66.7h-3.914s-4.39-15.55-4.06-27.811a28.384,28.384,0,0,0-2.005-11.355,104.742,104.742,0,0,1-7-27.535Z" fill="#002f4c"/>
        <path id="Trazado_20845" data-name="Trazado 20845" d="M555.159,201.057,541.1,211.638l-16.079-12.567,13.132-9.734Z" fill="#fff"/>
        <path id="Trazado_20846" data-name="Trazado 20846" d="M536.475,214.283a10.066,10.066,0,0,0-.851-3.715l8.591-2.4,1.684,3.367a81.279,81.279,0,0,1-9.817,6.29A12.46,12.46,0,0,0,536.475,214.283Z" fill="url(#linear-gradient-15)"/>
        <g id="Grupo_11005" data-name="Grupo 11005">
          <path id="Trazado_20847" data-name="Trazado 20847" d="M508.763,208.1c.034.127,3.5,12.646,12.534,13.789,8.427,1.066,22.071-8.787,24.167-10.346.1.133.214.262.326.389-2.018,1.516-14.4,10.544-23.142,10.544a11.3,11.3,0,0,1-1.415-.086c-9.371-1.186-12.923-14.029-12.958-14.159Z" fill="#53b6b9"/>
        </g>
        <g id="Grupo_11006" data-name="Grupo 11006">
          <path id="Trazado_20848" data-name="Trazado 20848" d="M548.587,209.986l-3.026.685a10.042,10.042,0,0,0-1.1-2.052,9.13,9.13,0,0,0,1.733-1.155,5.5,5.5,0,0,0,2.7-1.433,12.392,12.392,0,0,0-.341,3.335Q548.557,209.679,548.587,209.986Z" fill="#f7a57a"/>
          <path id="Trazado_20849" data-name="Trazado 20849" d="M544.664,208.934l3.054-4.8s.775.113.467,1.343a6.031,6.031,0,0,1-1.04,2.124,1.4,1.4,0,0,0,.283.015c-.1.226-.187.456-.266.686-.61.625-1.2,1.268-1.8,1.9A9.855,9.855,0,0,0,544.664,208.934Z" fill="#f7a57a"/>
        </g>
        <g id="Grupo_11007" data-name="Grupo 11007">
          <path id="Trazado_20850" data-name="Trazado 20850" d="M530.853,193.755l.1.008a4.406,4.406,0,0,0-1.189,1.611,9.2,9.2,0,0,0-1.006.877c-.036-.312-.091-.615-.155-.914A10.349,10.349,0,0,0,530.853,193.755Z" fill="#f7a57a"/>
          <path id="Trazado_20851" data-name="Trazado 20851" d="M530.3,194.229a5.936,5.936,0,0,1,1.851-.356c1.268-.026,1.2.755,1.2.755l-4.6,1.631c-.036-.315-.089-.622-.152-.924A10.217,10.217,0,0,0,530.3,194.229Z" fill="#f7a57a"/>
        </g>
        <path id="Trazado_20852" data-name="Trazado 20852" d="M514.449,197.412v-2.749l-4.59-1.908-1.669,2.115Z" fill="#fff"/>
      </g>
      <g id="Grupo_11015" data-name="Grupo 11015">
        <path id="Trazado_20853" data-name="Trazado 20853" d="M576.2,203.347l-5.508,10.375,6.07-.293.426-10.416Z" fill="#f7a57a"/>
        <path id="Trazado_20854" data-name="Trazado 20854" d="M584.851,198.75l-5.088-.007-2.108,32.886h9.118Z" fill="#fff"/>
        <g id="Grupo_11010" data-name="Grupo 11010">
          <path id="Trazado_20855" data-name="Trazado 20855" d="M594.192,295.289a2.663,2.663,0,0,1,1.027,2.248c-.231,1.26-.557,4.211-.557,4.211h-1.293l.04-2.752c0-.18-2.773,2.752-3.242,2.752h-6.842s-.455-1.857,3.563-2.453S594.192,295.289,594.192,295.289Z" fill="#002f4c"/>
          <g id="Grupo_11009" data-name="Grupo 11009">
            <path id="Trazado_20856" data-name="Trazado 20856" d="M591.227,294.033l-.928,2.414a3.1,3.1,0,0,1-1.263,1.6,12.165,12.165,0,0,1-3.2,1.45c1.86,1.587,4.818-.07,6.511-1.242a4.141,4.141,0,0,0,1.654-2.4l.387-1.829Z" fill="#f7a57a"/>
          </g>
        </g>
        <g id="Grupo_11012" data-name="Grupo 11012">
          <path id="Trazado_20857" data-name="Trazado 20857" d="M581.158,295.289a2.66,2.66,0,0,1,1.027,2.248c-.23,1.26-.557,4.211-.557,4.211h-1.293l.04-2.752c0-.18-2.773,2.752-3.242,2.752h-6.842s-.454-1.857,3.563-2.453S581.158,295.289,581.158,295.289Z" fill="#002f4c"/>
          <g id="Grupo_11011" data-name="Grupo 11011">
            <path id="Trazado_20858" data-name="Trazado 20858" d="M578.193,294.033l-.928,2.414a3.1,3.1,0,0,1-1.263,1.6,12.165,12.165,0,0,1-3.2,1.45c1.86,1.587,4.818-.07,6.511-1.242a4.141,4.141,0,0,0,1.654-2.4l.388-1.829Z" fill="#f7a57a"/>
          </g>
        </g>
        <path id="Trazado_20859" data-name="Trazado 20859" d="M588.753,231.629s.855,4.915-4.061,29.075c3.98,12.591-2.393,33.658-2.393,33.658h-4.645l-3.162-62.733Z" fill="#0f787a"/>
        <path id="Trazado_20860" data-name="Trazado 20860" d="M580.321,198.75l-1.65,39.9L573.2,236.31a58.7,58.7,0,0,0,2.23-17.9c.836-7.525-3.433-3.561,1.8-18.049C579.178,198.742,580.321,198.75,580.321,198.75Z" fill="#ffd159"/>
        <path id="Trazado_20861" data-name="Trazado 20861" d="M579.608,194.628l.64,3.365a2.14,2.14,0,0,0,3.24,1.413L585.732,198l-4.006-9.057Z" fill="#f18c72"/>
        <path id="Trazado_20862" data-name="Trazado 20862" d="M593.223,231.629s6.086,4.915,1.17,29.075c3.979,12.591.468,33.658.468,33.658h-4.169l-11.73-62.733Z" fill="#53b6b9"/>
        <path id="Trazado_20863" data-name="Trazado 20863" d="M584.851,195.368s5.137,2.887,6.733,5.465c1.522,2.457,2.048,8.048,2.2,13.026.2,6.835,3.5,24.792,3.5,24.792H583.51l-.343-39.091Z" fill="#ffd159"/>
        <path id="Trazado_20864" data-name="Trazado 20864" d="M574.713,184.537c3.115-.789,6.11,2.4,6.11,2.4l2.344,12.619,3.6-5.554s.206-7.546-3.278-12.543c-2.494-3.026-7.281-2.157-9.7.786a7.437,7.437,0,0,0-1.309,5.226c.153,2.441.845,16.455.845,16.455l7.135-5.285a33.225,33.225,0,0,0-.853-4.017C578.433,190.169,572.622,185.067,574.713,184.537Z" fill="#122043"/>
        <path id="Trazado_20865" data-name="Trazado 20865" d="M581.756,186.747a1.125,1.125,0,0,0-1.329.694.97.97,0,0,0,.337,1.37,1.126,1.126,0,0,0,1.33-.693A.971.971,0,0,0,581.756,186.747Z" fill="#f7a57a"/>
        <g id="Grupo_11013" data-name="Grupo 11013">
          <path id="Trazado_20866" data-name="Trazado 20866" d="M578.414,195.22a2.482,2.482,0,0,1-1.523.2c-2.709-1.963-3.688-9.805-3.688-9.805l2.146-2.278,4.272.938,2.105,4.671a4.3,4.3,0,0,1-.175,3.877h0A6.892,6.892,0,0,1,578.414,195.22Z" fill="#f7a57a"/>
        </g>
        <path id="Trazado_20867" data-name="Trazado 20867" d="M574,184.374c.223,2.372,6.824,2.567,6.824,2.567l.344-3.212-3.849-2.118-3.046,1.833A2.026,2.026,0,0,0,574,184.374Z" fill="#122043"/>
        <path id="Trazado_20868" data-name="Trazado 20868" d="M574.143,184.835a4.534,4.534,0,0,1-.675,2.421l-.525-.949.015-.822.518-.641S573.924,183.952,574.143,184.835Z" fill="#122043"/>
        <path id="Trazado_20869" data-name="Trazado 20869" d="M590.18,200.833c6.663.778,3.516,17.967,2.084,25.025a2.987,2.987,0,0,1-3.818,2.264c-5.8-1.829-14.268-9.422-14.268-9.422l1.342-1.69,11.252,2.627S582.455,199.932,590.18,200.833Z" fill="#f7a57a"/>
        <path id="Trazado_20870" data-name="Trazado 20870" d="M576.85,212.974l2.175,13.467a.642.642,0,0,1-.633.744h-8.614a.642.642,0,0,1-.634-.541l-2.137-13.468a.641.641,0,0,1,.633-.742h8.576A.643.643,0,0,1,576.85,212.974Z" fill="#fff"/>
        <g id="Grupo_11014" data-name="Grupo 11014">
          <path id="Trazado_20871" data-name="Trazado 20871" d="M567.289,218.936a5.882,5.882,0,0,1,.15-1.749c.2-1.274.151-3.27,1.452-2.275a6.545,6.545,0,0,1,1.372,3.182,3.8,3.8,0,0,1-.82,2.845l-.9,1.949A5.634,5.634,0,0,1,567.289,218.936Z" fill="#f7a57a"/>
        </g>
        <path id="Trazado_20872" data-name="Trazado 20872" d="M572.924,217.667a.657.657,0,1,1-.657-.657A.657.657,0,0,1,572.924,217.667Z" fill="url(#linear-gradient-16)"/>
      </g>
    </g>
    <g id="Grupo_11024" data-name="Grupo 11024">
      <g id="Grupo_11023" data-name="Grupo 11023">
        <g id="Grupo_11017" data-name="Grupo 11017">
          <path id="Trazado_20873" data-name="Trazado 20873" d="M448.982,147.06l-.56,3.343h0a3.219,3.219,0,0,0,3.487.117l.2-.117.827-3.343Z" fill="#f7a57a"/>
        </g>
        <path id="Trazado_20874" data-name="Trazado 20874" d="M475.778,69.711c-2.97,9.8-12.938,24.851-12.938,24.851l7.873-3.222,5.565-12.856S478.748,59.908,475.778,69.711Z" fill="#005558"/>
        <path id="Trazado_20875" data-name="Trazado 20875" d="M454.383,109.073l-6.209,38.285h5.519s12.4-34.446,13.7-44.574c0-5.736-12.532,0-12.532,0Z" fill="#122043"/>
        <g id="Grupo_11019" data-name="Grupo 11019">
          <path id="Trazado_20876" data-name="Trazado 20876" d="M474.943,54.24,477,59.572l4.459-3.227-3.009-6.287Z" fill="#f18c72"/>
          <g id="Grupo_11018" data-name="Grupo 11018">
            <path id="Trazado_20877" data-name="Trazado 20877" d="M473.263,55.125a3.04,3.04,0,0,1-1.74-.047c-2.586-2.468-1.955-10.712-1.955-10.712l2.89-2,4.551,1.669,1.32,5.16a4.319,4.319,0,0,1-1.046,3.968h0A8.431,8.431,0,0,1,473.263,55.125Z" fill="#f7a57a"/>
          </g>
          <path id="Trazado_20878" data-name="Trazado 20878" d="M476.206,45.773a1.779,1.779,0,0,0-2.235-.888,14.064,14.064,0,0,1-2.135.654c-1.786.374-5.115.342-5.684-2.376s2.965-2.485,2.965-2.485l4.694.324a8.645,8.645,0,0,0,4.049-.742,1.907,1.907,0,0,1,2.373,1.255c.529,1.534-.023,4.156-.486,5.837a8.529,8.529,0,0,1-1.3,2.707h0Z" fill="#122043"/>
          <path id="Trazado_20879" data-name="Trazado 20879" d="M478.844,46.939a1.371,1.371,0,0,0-1.632.5c-.43.543-.4,1.2.075,1.468a1.372,1.372,0,0,0,1.632-.5C479.349,47.864,479.316,47.207,478.844,46.939Z" fill="#f7a57a"/>
        </g>
        <g id="Grupo_11020" data-name="Grupo 11020">
          <path id="Trazado_20880" data-name="Trazado 20880" d="M448.32,150.049s-.015,3.554-7.155,5.688c-1.464.437-.988.871-1.263,1.486h8.216l3.217-3.616,1,.859,2.32-2.278s-.4-3.3-2.169-3.327C451.029,149.357,448.32,150.049,448.32,150.049Z" fill="#122043"/>
          <path id="Trazado_20881" data-name="Trazado 20881" d="M468.608,146.018l1.335,3.077h0a3.218,3.218,0,0,0,3.338-1.014l.147-.174-1.078-3.164Z" fill="#f7a57a"/>
        </g>
        <path id="Trazado_20882" data-name="Trazado 20882" d="M476.024,58.079s-.568-.875,4.481-3.486c7.61,7.61,10.109,36.747,10.109,36.747h-19.9C470.041,74.712,476.024,58.079,476.024,58.079Z" fill="#0f787a"/>
        <path id="Trazado_20883" data-name="Trazado 20883" d="M456.36,90.551a.879.879,0,0,1,.414-.96l3.244-1.88a3.763,3.763,0,0,1,2.657-.43l3.517.14.46.556.731,3.109c-.706-.17-1.12-.278-1.12-.278l-2.234.061s-4.214,3.914-6.3.511c-.086,3.622-1.148,3.344-1.148,3.344Z" fill="#f7a57a"/>
        <path id="Trazado_20884" data-name="Trazado 20884" d="M490.614,91.34l.3,2.469.011.1a9.735,9.735,0,0,1-7.137,10.362A87.686,87.686,0,0,1,463.3,107.9c7.506,9.636,9.582,36.678,9.582,36.678l-4.836,1.755-18.675-44.481a4.914,4.914,0,0,1,3.508-6.71l17.837-3.8Z" fill="#002f4c"/>
        <path id="Trazado_20885" data-name="Trazado 20885" d="M478.172,67.6a40.026,40.026,0,0,1,5.886,6.872,2.6,2.6,0,0,1-.233,3.08c-4.144,4.773-18.912,9.357-18.912,9.357l.956,5.387s20.956-4.121,28.379-11.567c7.617-7.639-12.074-23.595-12.074-23.595" fill="#0f787a"/>
        <g id="Grupo_11021" data-name="Grupo 11021">
          <path id="Trazado_20886" data-name="Trazado 20886" d="M483.808,74.626a2.287,2.287,0,0,1-.206,2.729c-1.891,2.178-6.935,4.5-11.337,6.19.006.27-.005.288,0,.61,4.622-1.736,9.72-4.036,11.783-6.412a2.875,2.875,0,0,0,.261-3.431,40.649,40.649,0,0,0-5.937-6.933l-.4.436A40,40,0,0,1,483.808,74.626Z" fill="#53b6b9"/>
          <path id="Trazado_20887" data-name="Trazado 20887" d="M489.879,83.719c-8.049,4.343-19.841,7.454-24.053,8.335a4.543,4.543,0,0,0,.126.57C470,91.8,481.686,88.8,489.959,84.4A5.712,5.712,0,0,0,489.879,83.719Z" fill="#53b6b9"/>
        </g>
        <g id="Grupo_11022" data-name="Grupo 11022">
          <path id="Trazado_20888" data-name="Trazado 20888" d="M448.531,97.048l-6.2-22.177,1.138-.319L449.382,95.7l17.808-3.094.2,1.165Z" fill="#0f787a"/>
        </g>
      </g>
      <path id="Trazado_20889" data-name="Trazado 20889" d="M469.647,148.414s.28,3.584-6.859,5.718c-1.465.438-.988.871-1.263,1.487h8.216L472.958,152l1,.86,2.32-2.279s-1.084-3.3-2.85-3.327C471.971,147.753,469.647,148.414,469.647,148.414Z" fill="#122043"/>
    </g>
    <g id="Grupo_11032" data-name="Grupo 11032">
      <g id="Grupo_11027" data-name="Grupo 11027">
        <path id="Trazado_20890" data-name="Trazado 20890" d="M308.812,145.9,319.5,145c1.431.031,3.051.3,3.419,1.511a7.207,7.207,0,0,1,.289,1.616c-.342.476-14.558,1.146-14.558,1.146l-.066-.046C306.934,147.544,308.812,145.9,308.812,145.9Z" fill="#002f4c"/>
        <path id="Trazado_20891" data-name="Trazado 20891" d="M323.209,148.128l-14.557,1.145.173.556,14.448-1.2Z" fill="#fff"/>
        <g id="Grupo_11025" data-name="Grupo 11025">
          <path id="Trazado_20892" data-name="Trazado 20892" d="M313.042,145.534l.963-.073-.191,1.335-.934.077Z" fill="#fff"/>
        </g>
        <g id="Grupo_11026" data-name="Grupo 11026">
          <path id="Trazado_20893" data-name="Trazado 20893" d="M315.107,145.363l.963-.073-.191,1.335-.934.077Z" fill="#fff"/>
        </g>
        <path id="Trazado_20894" data-name="Trazado 20894" d="M307.784,142.4l1.028,3.5h0a3.479,3.479,0,0,0,2.871-.169l.157-.085.22-3.6Z" fill="#f7a57a"/>
      </g>
      <g id="Grupo_11030" data-name="Grupo 11030">
        <path id="Trazado_20895" data-name="Trazado 20895" d="M305.473,148.349l10.686-.93c1.432.026,3.052.293,3.424,1.5a7.171,7.171,0,0,1,.294,1.615c-.34.476-14.554,1.19-14.554,1.19l-.066-.045C303.6,150,305.473,148.349,305.473,148.349Z" fill="#002f4c"/>
        <path id="Trazado_20896" data-name="Trazado 20896" d="M319.877,150.535l-14.554,1.19.174.555,14.444-1.241Z" fill="#fff"/>
        <g id="Grupo_11028" data-name="Grupo 11028">
          <path id="Trazado_20897" data-name="Trazado 20897" d="M309.7,147.973l.963-.076-.187,1.336-.933.08Z" fill="#fff"/>
        </g>
        <g id="Grupo_11029" data-name="Grupo 11029">
          <path id="Trazado_20898" data-name="Trazado 20898" d="M311.766,147.8l.963-.076-.187,1.336-.933.08Z" fill="#fff"/>
        </g>
        <path id="Trazado_20899" data-name="Trazado 20899" d="M304.434,144.852l1.039,3.5h0a3.48,3.48,0,0,0,2.871-.178l.156-.086.21-3.6Z" fill="#f7a57a"/>
      </g>
      <path id="Trazado_20900" data-name="Trazado 20900" d="M262.378,121.13s1.7,13.521,14.03,14.087,26.863-13.482,26.863-13.482l4.766,21.3,4.737.1s3.071-32.39-3.542-34.029-31.22,9.053-31.22,9.053Z" fill="#122043"/>
      <g id="Grupo_11031" data-name="Grupo 11031">
        <path id="Trazado_20901" data-name="Trazado 20901" d="M272.069,83.142l-2.387,4.773,4.113,1.525,1.876-3.872Z" fill="#f18c72"/>
        <path id="Trazado_20902" data-name="Trazado 20902" d="M273.189,74.541,271.5,81.1a1.044,1.044,0,0,1,.5,1.546,1.257,1.257,0,0,1-.041.509,7.756,7.756,0,0,0,5.331,3.136c4.327.494,4.33-8.169,4.33-8.169Z" fill="#f7a57a"/>
        <path id="Trazado_20903" data-name="Trazado 20903" d="M269.622,78.745a4.144,4.144,0,0,0-.475-2.11c-1.687-2.722.837-3.534,1.717-3.777.974-.267,1.275-1.789,2.582-2.282,2-.754,3.136,1.03,4.223,1.16s2.151-1.036,3.418.155.736,2.312,1.061,2.956,1.63-.448,2.6,1.569c1.473,3.068-3.19,2.727-3.19,2.727a8.262,8.262,0,0,1-5.449-1.979,1.083,1.083,0,0,0-1.312-.081c-1.072.792-2.763,6.172-2.763,6.172l-.778-1.2A3.06,3.06,0,0,1,269.622,78.745Z" fill="#122043"/>
        <path id="Trazado_20904" data-name="Trazado 20904" d="M271.907,80.039a1.038,1.038,0,1,0,.945-1.123A1.038,1.038,0,0,0,271.907,80.039Z" fill="#f7a57a"/>
      </g>
      <path id="Trazado_20905" data-name="Trazado 20905" d="M258.868,119.952s.316,13.624,12.519,15.444,28.1-10.673,28.1-10.673l4.662,20.884,4.8-.413s4.164-30.122-2.248-32.427-31.981,5.823-31.981,5.823Z" fill="#002f4c"/>
      <path id="Trazado_20906" data-name="Trazado 20906" d="M258.868,119.952l20.372-1.75a42.819,42.819,0,0,1-1.03-9.119,16.809,16.809,0,0,1,1.548-6.53c-.6-7.779-2.916-15.466-9.785-15.1C258.144,89.544,258.868,119.952,258.868,119.952Z" fill="#0f787a"/>
      <path id="Trazado_20907" data-name="Trazado 20907" d="M317.135,95.01l-8.178,17.382L291.3,109.12l-.26,1.406L309.781,114l8.647-18.38Z" fill="#0f787a"/>
      <path id="Trazado_20908" data-name="Trazado 20908" d="M271.7,103.077l8.047-.691.262,8.969,14.327-3.5,3.251-1.868a3.931,3.931,0,0,1,2.774-.437l3.828.812a.916.916,0,0,1,.723.818l1.138,4.209s-.962.62-2.224-2.944c-.966,4.055-6.609.955-6.609.955l-2.044,1.25s-15.757,10.136-19.407,7.851S271.7,103.077,271.7,103.077Z" fill="#f7a57a"/>
      <path id="Trazado_20909" data-name="Trazado 20909" d="M304.909,107.18a.916.916,0,0,0-.723-.818l-3.828-.812a3.931,3.931,0,0,0-2.774.437l-3.251,1.868-.469.114.286,3.321c.645-.4,1.02-.64,1.02-.64l2.044-1.25s5.643,3.1,6.609-.955c1.262,3.564,2.224,2.944,2.224,2.944Z" fill="#f7a57a"/>
    </g>
  </g>
</svg>
