<svg xmlns="http://www.w3.org/2000/svg" xmlns:xlink="http://www.w3.org/1999/xlink" width="257.103" height="363.783" viewBox="0 0 257.103 363.783">
  <defs>
    <linearGradient id="linear-gradient" y1="0.5" x2="1" y2="0.5" gradientUnits="objectBoundingBox">
      <stop offset="0" stop-color="#daece5"/>
      <stop offset="1" stop-color="#b2deeb"/>
    </linearGradient>
    <linearGradient id="linear-gradient-2" x1="-2.776" y1="0.5" x2="-1.776" y2="0.5" gradientUnits="objectBoundingBox">
      <stop offset="0" stop-color="#eef7f6"/>
      <stop offset="1" stop-color="#b2deeb"/>
    </linearGradient>
    <linearGradient id="linear-gradient-3" x1="-3.682" y1="0.5" x2="-2.682" y2="0.5" xlink:href="#linear-gradient-2"/>
    <linearGradient id="linear-gradient-4" x1="-12.762" y1="0.425" x2="-11.75" y2="0.425" xlink:href="#linear-gradient-2"/>
    <linearGradient id="linear-gradient-5" x1="-10.768" y1="0.429" x2="-9.762" y2="0.429" xlink:href="#linear-gradient-2"/>
  </defs>
  <g id="Grupo_10873" data-name="Grupo 10873" transform="translate(-44.482 -43.03)">
    <g id="Grupo_10811" data-name="Grupo 10811" transform="translate(221.272 89.259)">
      <g id="Grupo_10807" data-name="Grupo 10807" transform="translate(1.041)">
        <path id="Trazado_20403" data-name="Trazado 20403" d="M250.416,160.074s-3.546-47.956,28.048-63.541c44.6,41.058,4.1,84.808,4.1,84.808Z" transform="translate(-250.297 -96.533)" fill="#a4d1bc"/>
        <path id="Trazado_20404" data-name="Trazado 20404" d="M279.331,96.533c.155.143.3.286.458.429l-10.069,55.757,30.341-18.112q.054.588.093,1.173L269.47,154.1l-2.906,16.089-.957-.633,5.792-32.074h0l-14.74-14.224c.135-.357.271-.713.413-1.069l14.552,14.043,7.114-39.39c.2-.1.39-.207.59-.306Z" transform="translate(-251.162 -96.533)" fill="#fff"/>
      </g>
      <g id="Grupo_10808" data-name="Grupo 10808" transform="translate(12.15 20.056)">
        <path id="Trazado_20405" data-name="Trazado 20405" d="M266.788,155.958s27.126-39.543,60.68-35.987c15.973,37.3-22.924,61.439-22.924,61.439l-41.39,6.73Z" transform="translate(-263.154 -119.745)" fill="#0f787a"/>
        <path id="Trazado_20406" data-name="Trazado 20406" d="M291.715,131.06l4.943,20.682,30.015-31.814c.265.022.53.04.795.068.063.147.117.292.179.438l-16.075,17.039,19.742.68c0,.188-.009.373-.012.56l-.017.5-20.678-.712-26.79,28.4,34.612,2.3c-.3.339-.59.673-.885,1l-34.667-2.3-19.023,20.163-.7.114.117-1.035,32.521-34.47-5-20.939Q291.247,131.388,291.715,131.06Z" transform="translate(-263.154 -119.77)" fill="#005558"/>
      </g>
      <g id="Grupo_10810" data-name="Grupo 10810" transform="translate(0 73.67)">
        <path id="Trazado_20407" data-name="Trazado 20407" d="M291.834,182.069c11.721-1.021,25.849.461,34.873,10.7-15.894,52.539-77.615,36.493-77.615,36.493l13.595-29.952A39.263,39.263,0,0,1,291.834,182.069Z" transform="translate(-249.092 -181.796)" fill="#ffc630"/>
        <g id="Grupo_10809" data-name="Grupo 10809" transform="translate(3.581 0.347)">
          <path id="Trazado_20408" data-name="Trazado 20408" d="M327.27,192.826c-.061.2-.125.4-.188.6l-52.169,14.719L298.9,225.33q-.566.249-1.137.484l-24.149-17.3-20.377,5.748.911-1.355,39.671-11.193L304.879,182.2q.568.063,1.134.14l-10.75,18.968,31.606-8.917c.134.145.27.286.4.435Z" transform="translate(-253.236 -182.198)" fill="#fff"/>
        </g>
      </g>
    </g>
    <g id="Grupo_10814" data-name="Grupo 10814" transform="translate(75.995 290.554)">
      <path id="Trazado_20409" data-name="Trazado 20409" d="M173.239,382.959c-.347-.981-3.779-3-7.979-4.464a38.634,38.634,0,0,0-1-11.25c3.536-1.617,7.1-3.691,7.393-5.593.6-3.861-5.287-12.7-6.781-13.418-.956-.457-4.936.588-9.017,2.591a38.651,38.651,0,0,0-8.451-7.329c1.363-3.651,2.423-7.653,1.283-9.211-2.305-3.154-12.722-5.246-14.282-4.693-.978.346-2.99,3.757-4.452,7.937a38.639,38.639,0,0,0-11.44.656c-1.589-3.407-3.583-6.727-5.417-7.011-3.86-.6-12.7,5.287-13.418,6.78-.424.889.448,4.395,2.184,8.163a38.662,38.662,0,0,0-8.021,8.909c-3.325-1.155-6.709-1.912-8.112-.887-3.153,2.306-5.246,12.722-4.693,14.283.311.879,3.1,2.593,6.7,3.993a38.635,38.635,0,0,0,.77,12.442c-2.979,1.486-5.632,3.243-5.885,4.872-.6,3.86,5.287,12.7,6.78,13.418.823.392,3.881-.326,7.318-1.808a38.618,38.618,0,0,0,9.574,8.176c-1.05,3.149-1.677,6.252-.706,7.579,2.305,3.154,12.722,5.246,14.282,4.693.881-.311,2.6-3.113,4-6.723a38.683,38.683,0,0,0,12.23-1.153c1.528,3.142,3.371,6.029,5.075,6.294,3.86.6,12.7-5.286,13.418-6.78.427-.893-.457-4.429-2.21-8.219a38.63,38.63,0,0,0,7.458-9.061c3.507,1.268,7.215,2.181,8.7,1.095C171.7,394.936,173.791,384.52,173.239,382.959Zm-52.234,9.815a17.389,17.389,0,1,1,21.949-11.091A17.389,17.389,0,0,1,121.005,392.774Z" transform="translate(-80.954 -329.505)" fill="#53b6b9"/>
      <g id="Grupo_10812" data-name="Grupo 10812" transform="translate(20.984 21.679)">
        <path id="Trazado_20410" data-name="Trazado 20410" d="M122.262,402.853A24.746,24.746,0,1,1,153.5,387.07,24.773,24.773,0,0,1,122.262,402.853ZM137.6,356.168a24.395,24.395,0,1,0,15.56,30.792A24.423,24.423,0,0,0,137.6,356.168Z" transform="translate(-105.24 -354.596)" fill="#fff"/>
      </g>
      <g id="Grupo_10813" data-name="Grupo 10813" transform="translate(10.562 10.926)">
        <path id="Trazado_20411" data-name="Trazado 20411" d="M163.947,388.023c-.149-.069-.3-.14-.443-.215a35.469,35.469,0,0,1-69.837,4.562h0c-.162-.016-.323-.039-.484-.066a35.93,35.93,0,0,0,70.769-4.28Z" transform="translate(-93.178 -348.358)" fill="#fff"/>
        <path id="Trazado_20412" data-name="Trazado 20412" d="M119.989,344.673a35.289,35.289,0,0,1,22.928-.289c.152.049.3.108.449.16-.006-.163,0-.327,0-.49-.1-.035-.2-.074-.3-.108a35.744,35.744,0,0,0-23.137.261C119.949,344.362,119.971,344.518,119.989,344.673Z" transform="translate(-96.815 -342.15)" fill="#fff"/>
      </g>
    </g>
    <g id="Grupo_10818" data-name="Grupo 10818" transform="translate(91.82 206.472)">
      <g id="Grupo_10815" data-name="Grupo 10815" transform="translate(0.644)">
        <path id="Trazado_20413" data-name="Trazado 20413" d="M164.514,273.458s-24.658-42.339-59.117-41.246c-19.088,36.805,18.725,64.333,18.725,64.333l41.668,9.98Z" transform="translate(-100.014 -232.191)" fill="#005558"/>
        <path id="Trazado_20414" data-name="Trazado 20414" d="M141,246.183l-6.6,20.7L106.22,232.2c-.272,0-.543,0-.816.01-.075.144-.142.288-.215.433l15.1,18.575-20.169-.8c-.013.191-.02.381-.029.571l-.02.506,21.124.834,25.157,30.956-35.443-.27c.276.368.55.731.827,1.085l35.5.27,17.863,21.981.7.168-.041-1.064-30.538-37.577,6.679-20.959Q141.454,246.554,141,246.183Z" transform="translate(-100.021 -232.193)" fill="#0f787a"/>
      </g>
      <g id="Grupo_10817" data-name="Grupo 10817" transform="translate(0 56.336)">
        <path id="Trazado_20415" data-name="Trazado 20415" d="M135.611,298.3c-11.868-1.925-26.376-1.479-36.342,8.274,12.232,54.736,76.336,43.04,76.336,43.04l-11.594-31.546A40.12,40.12,0,0,0,135.611,298.3Z" transform="translate(-99.269 -297.392)" fill="#ffc630"/>
        <g id="Grupo_10816" data-name="Grupo 10816" transform="translate(0 0.042)">
          <path id="Trazado_20416" data-name="Trazado 20416" d="M99.269,306.581c.047.211.1.417.146.626l52.049,18.933-25.737,15.7q.559.3,1.122.58l25.912-15.808,20.329,7.4-.826-1.45-39.58-14.4-9.8-20.72q-.583.022-1.166.057l9.523,20.139-31.533-11.47c-.147.138-.3.271-.442.413Z" transform="translate(-99.269 -297.44)" fill="#fff"/>
        </g>
      </g>
    </g>
    <g id="Grupo_10821" data-name="Grupo 10821" transform="translate(189.027 199.527)">
      <path id="Trazado_20417" data-name="Trazado 20417" d="M289.554,259.214c-.492-.71-3.682-1.585-7.365-1.845a32.084,32.084,0,0,0-3.244-8.8c2.483-2.064,4.886-4.5,4.71-6.09-.359-3.224-7-9.034-8.351-9.281-.865-.158-3.829,1.544-6.664,4.038a32.114,32.114,0,0,0-8.366-4.039c.3-3.222.278-6.66-.974-7.661-2.533-2.026-11.337-1.439-12.467-.658-.709.49-1.579,3.662-1.843,7.33a32.092,32.092,0,0,0-9.027,3.012c-.436-.517-.886-1.024-1.34-1.5a73.693,73.693,0,0,1-7.759,6.49,3.207,3.207,0,0,1-5.241-2.5,4.735,4.735,0,0,0-.806,1.424c-.148.8,1.313,3.425,3.524,6.068a32.1,32.1,0,0,0-4.492,8.884c-2.917-.2-5.793-.074-6.695,1.052-2.026,2.533-1.439,11.337-.658,12.467.44.638,3.048,1.406,6.236,1.745a32.113,32.113,0,0,0,3.32,9.805c-2.064,1.84-3.809,3.823-3.657,5.185.359,3.224,7,9.034,8.351,9.281.744.136,3.04-1.1,5.471-3.04a32.12,32.12,0,0,0,9.452,4.473c-.157,2.751.015,5.375,1.082,6.229,2.533,2.026,11.336,1.439,12.467.658.639-.441,1.408-3.061,1.747-6.259a32.111,32.111,0,0,0,9.552-3.581c1.907,2.187,4.013,4.1,5.436,3.942,3.225-.359,9.034-7,9.281-8.35.148-.809-1.329-3.451-3.558-6.108a32.056,32.056,0,0,0,4.01-8.884c3.086.255,6.256.181,7.21-1.013C290.922,269.149,290.335,260.345,289.554,259.214ZM265,264.772a14.441,14.441,0,1,1-13.66-15.182A14.441,14.441,0,0,1,265,264.772Z" transform="translate(-211.772 -224.153)" fill="#0f787a"/>
      <g id="Grupo_10819" data-name="Grupo 10819" transform="translate(18.389 18.994)">
        <path id="Trazado_20418" data-name="Trazado 20418" d="M252.524,287.21a20.551,20.551,0,1,1,21.606-19.439A20.574,20.574,0,0,1,252.524,287.21Zm2.151-40.753a20.259,20.259,0,1,0,19.163,21.3A20.282,20.282,0,0,0,254.675,246.457Z" transform="translate(-233.056 -246.136)" fill="#fff"/>
      </g>
      <g id="Grupo_10820" data-name="Grupo 10820" transform="translate(12.585 10.08)">
        <path id="Trazado_20419" data-name="Trazado 20419" d="M282.132,264.818c-.135-.022-.269-.048-.4-.076a29.457,29.457,0,0,1-54.986,18.834h0c-.133.022-.268.039-.4.052a29.84,29.84,0,0,0,55.794-18.81Z" transform="translate(-226.338 -239.752)" fill="#fff"/>
        <path id="Trazado_20420" data-name="Trazado 20420" d="M237.394,241.459a29.314,29.314,0,0,1,18.315-5.215c.133.007.263.022.395.031-.041-.13-.073-.261-.107-.392-.09-.005-.178-.016-.267-.021A29.685,29.685,0,0,0,237.24,241.1Q237.322,241.277,237.394,241.459Z" transform="translate(-227.82 -235.819)" fill="#fff"/>
      </g>
    </g>
    <g id="Grupo_10822" data-name="Grupo 10822" transform="translate(133.469 390.016)">
      <path id="Trazado_20421" data-name="Trazado 20421" d="M166.82,452.18s-4.476,4.151-14.68,6.75c-2.246.573-4.668-.192-4.668,3.514h12.383l10.3-1.781v1.781h5.563s1.549-9.1-1.7-10.264Z" transform="translate(-147.472 -445.646)" fill="#122043"/>
      <path id="Trazado_20422" data-name="Trazado 20422" d="M170.491,444.618l-.626,6.534h0a6.292,6.292,0,0,0,6.815.228l.382-.228,1.155-6.534Z" transform="translate(-150.517 -444.618)" fill="#f7a57a"/>
    </g>
    <g id="Grupo_10823" data-name="Grupo 10823" transform="translate(197.646 390.016)">
      <path id="Trazado_20423" data-name="Trazado 20423" d="M231.013,452.18s4.476,4.151,14.679,6.75c2.246.573,4.668-.192,4.668,3.514H237.978l-10.3-1.781v1.781h-5.562s-1.549-9.1,1.7-10.264Z" transform="translate(-221.748 -445.646)" fill="#122043"/>
      <path id="Trazado_20424" data-name="Trazado 20424" d="M230.53,444.618l.626,6.534h0a6.292,6.292,0,0,1-6.815.228l-.382-.228-1.155-6.534Z" transform="translate(-221.891 -444.618)" fill="#f7a57a"/>
    </g>
    <g id="Grupo_10825" data-name="Grupo 10825" transform="translate(165.222 78.179)">
      <path id="Trazado_20425" data-name="Trazado 20425" d="M200.724,122.928l-1.3,12.79,13.705.543-2.747-19.827Z" transform="translate(-186.289 -88.16)" fill="#f18c72"/>
      <g id="Grupo_10824" data-name="Grupo 10824" transform="translate(4.497 8.422)">
        <path id="Trazado_20426" data-name="Trazado 20426" d="M195.154,122.142a6.88,6.88,0,0,1-3.84-.912c-4.592-6.679.639-24.682.639-24.682l7.34-3.091,9.326,5.818.53,12.065a9.79,9.79,0,0,1-4.164,8.322h0A19.118,19.118,0,0,1,195.154,122.142Z" transform="translate(-189.426 -93.458)" fill="#f7a57a"/>
      </g>
      <path id="Trazado_20427" data-name="Trazado 20427" d="M206.442,104.787c-.512-2.027-.245-6.7-2.309-6.365-1.505.247-6.663.459-8.4.459-4.136,0-11.511-1.618-11.511-7.914,0-3.147,3.053-5.861,4.986-6.668a8.39,8.39,0,0,1,5.982-.075c4.556,1.592,10.6,5.106,13.006,4.621,4.053-.815,8.1,1.563,8.04,5.007-.06,3.678-1.98,9.212-3.789,12.727a19.345,19.345,0,0,1-4.132,5.405h0Z" transform="translate(-184.222 -83.711)" fill="#122043"/>
      <path id="Trazado_20428" data-name="Trazado 20428" d="M214.016,108.549a3.113,3.113,0,0,0-3.854.344c-1.207,1-1.438,2.479-.516,3.293a3.113,3.113,0,0,0,3.854-.345C214.707,110.837,214.937,109.363,214.016,108.549Z" transform="translate(-187.602 -87.017)" fill="#f7a57a"/>
    </g>
    <path id="Trazado_20429" data-name="Trazado 20429" d="M202.9,134.457q-.7,0-1.387.026c-15.114.554-26.919,21.41-26.919,36.534v54.7h58.336v-62.6c0-13.912-9.964-26.074-23.715-28.189A41.476,41.476,0,0,0,202.9,134.457Z" transform="translate(-17.691 -12.431)" fill="#53b6b9"/>
    <path id="Trazado_20430" data-name="Trazado 20430" d="M173.359,240.075c-6.669,32.355-7.693,67.177-7.845,96.4a773.443,773.443,0,0,0,3.62,81.484h9.626l20.1-134.577s2.192,20.014,5.158,53.951c2.328,26.63,3.426,49.142,9.681,80.626h9.657s8.338-97.174,8.338-177.888Z" transform="translate(-16.455 -26.791)" fill="#122043"/>
    <path id="Trazado_20431" data-name="Trazado 20431" d="M199.884,130.46h12.187l1.939,4.487H198.316Z" transform="translate(-20.916 -11.887)" fill="url(#linear-gradient)"/>
    <g id="Grupo_10826" data-name="Grupo 10826" transform="translate(202.449 127.125)">
      <path id="Trazado_20432" data-name="Trazado 20432" d="M251.987,236.784l-8.445,9.262c-3.689,3.473-11.111.28-15.477-3.3a1.238,1.238,0,0,1,.213-2.018c3.915-1.981,14.035-7.019,17.158-7.762Z" transform="translate(-227.352 -152.949)" fill="#f7a57a"/>
      <path id="Trazado_20433" data-name="Trazado 20433" d="M227.307,140.358s44.876.837,50.947,34.205c4.75,26.108-28.9,52.489-28.9,52.489l-8.47-7.97s23.975-29.542,16.072-40.045-25.078-11.21-25.078-11.21" transform="translate(-227.307 -140.358)" fill="#53b6b9"/>
    </g>
    <g id="Grupo_10827" data-name="Grupo 10827" transform="translate(118.257 125.456)">
      <path id="Trazado_20434" data-name="Trazado 20434" d="M162.83,238.178l8.589,8.36c3.7,3.081,10.317-.873,14.067-4.9a1.282,1.282,0,0,0-.364-1.992c-3.791-1.569-13.583-5.544-16.539-5.961Z" transform="translate(-134.348 -151.378)" fill="#f7a57a"/>
      <path id="Trazado_20435" data-name="Trazado 20435" d="M183.962,138.426s-54.1,7.164-54.1,40.032c0,26.6,31.119,49.351,31.119,49.351l7.188-8.827s-24.656-26.976-18.2-38.27,22.338-9.591,22.338-9.591" transform="translate(-129.866 -138.426)" fill="#53b6b9"/>
    </g>
    <g id="Grupo_10834" data-name="Grupo 10834" transform="translate(44.482 146.687)">
      <g id="Grupo_10828" data-name="Grupo 10828" transform="translate(2.644)">
        <path id="Trazado_20436" data-name="Trazado 20436" d="M49.98,168.106,47.542,172.9l5.119-1.168,17.512-5.518Z" transform="translate(-47.542 -163.436)" fill="#a4d1bb"/>
        <path id="Trazado_20437" data-name="Trazado 20437" d="M47.542,173.7l8.7-.54-2.131-1.083Z" transform="translate(-47.542 -164.232)" fill="#53b6b9"/>
        <path id="Trazado_20438" data-name="Trazado 20438" d="M50.124,167.669,48.6,163l21.716,2.778Z" transform="translate(-47.686 -162.999)" fill="url(#linear-gradient-2)"/>
        <path id="Trazado_20439" data-name="Trazado 20439" d="M70.979,166.214l-17.512,5.518,2.61,6.732Z" transform="translate(-48.348 -163.436)" fill="url(#linear-gradient-3)"/>
      </g>
      <g id="Grupo_10833" data-name="Grupo 10833" transform="translate(0 12.319)">
        <g id="Grupo_10829" data-name="Grupo 10829" transform="translate(4.34)">
          <path id="Trazado_20440" data-name="Trazado 20440" d="M49.729,179.226a.409.409,0,0,1-.083-.673,11.434,11.434,0,0,1,1.721-1.24.409.409,0,1,1,.414.705,10.664,10.664,0,0,0-1.6,1.152A.409.409,0,0,1,49.729,179.226Z" transform="translate(-49.505 -177.256)" fill="#53b6b9"/>
        </g>
        <g id="Grupo_10831" data-name="Grupo 10831" transform="translate(0 3.01)">
          <g id="Grupo_10830" data-name="Grupo 10830">
            <path id="Trazado_20441" data-name="Trazado 20441" d="M54.874,224.564a.151.151,0,0,1-.023-.013,12.314,12.314,0,0,1-3.215-2.783.409.409,0,0,1,.631-.522,11.509,11.509,0,0,0,3,2.6.409.409,0,0,1-.392.717Zm-4.513-4.735a.4.4,0,0,1-.169-.162,15.425,15.425,0,0,1-1.567-3.931.409.409,0,0,1,.794-.2,14.643,14.643,0,0,0,1.484,3.724.409.409,0,0,1-.542.566Zm-1.91-6.273a.409.409,0,0,1-.223-.336l-.012-.2a19.692,19.692,0,0,1,.209-4.012.409.409,0,0,1,.809.123,18.935,18.935,0,0,0-.2,3.845l.012.184a.41.41,0,0,1-.379.437A.416.416,0,0,1,48.451,213.556Zm.7-6.544a.408.408,0,0,1-.209-.469,30.514,30.514,0,0,1,1.364-3.958.407.407,0,0,1,.535-.219.412.412,0,0,1,.219.535,29.7,29.7,0,0,0-1.328,3.852.409.409,0,0,1-.5.29A.437.437,0,0,1,49.152,207.012Zm2.376-6.16a.411.411,0,0,1-.182-.545c.045-.09.089-.18.134-.269a13.338,13.338,0,0,1-1.786-1,.409.409,0,1,1,.454-.68,12.391,12.391,0,0,0,1.7.95c.439-.844.922-1.719,1.471-2.662a.409.409,0,1,1,.708.41c-.529.91-1,1.756-1.422,2.57q.573.22,1.167.385a.409.409,0,0,1-.219.789,13.492,13.492,0,0,1-1.323-.442c-.052.1-.1.206-.154.309a.409.409,0,0,1-.547.187Zm-3.7-3.369a.393.393,0,0,1-.108-.079,11.071,11.071,0,0,1-2.341-3.562.409.409,0,0,1,.757-.31,10.269,10.269,0,0,0,2.17,3.3.409.409,0,0,1-.479.65Zm8.087,3.727a.409.409,0,0,1,.22-.772,11.977,11.977,0,0,0,3.966-.309.409.409,0,0,1,.2.793,12.769,12.769,0,0,1-4.236.331A.4.4,0,0,1,55.918,201.21Zm-11.025-9.535a.41.41,0,0,1-.219-.295,13.242,13.242,0,0,1-.04-4.246.409.409,0,0,1,.809.121,12.411,12.411,0,0,0,.037,3.984.409.409,0,0,1-.588.435Zm17.441,8.346a.4.4,0,0,1-.178-.178.409.409,0,0,1,.177-.55,9.86,9.86,0,0,0,.888-.513,7.923,7.923,0,0,0,2.094-2,.409.409,0,0,1,.664.478,8.741,8.741,0,0,1-2.312,2.208,10.738,10.738,0,0,1-.961.556A.407.407,0,0,1,62.334,200.02ZM54.776,195.1l-.036-.021a.41.41,0,0,1-.123-.566,15.944,15.944,0,0,1,2.667-3.282.409.409,0,0,1,.548.607,15.174,15.174,0,0,0-2.527,3.117A.409.409,0,0,1,54.776,195.1Zm-9.336-9.942a.407.407,0,0,1-.2-.5,13.9,13.9,0,0,1,.755-1.786A13.314,13.314,0,0,1,47.22,180.9a.409.409,0,0,1,.653.492,12.523,12.523,0,0,0-1.15,1.846,13.151,13.151,0,0,0-.711,1.681.409.409,0,0,1-.519.254A.321.321,0,0,1,45.44,185.153Zm21.087,10a.408.408,0,0,1-.211-.463,3.69,3.69,0,0,0-.266-2.683,3.344,3.344,0,0,0-.561-.772.409.409,0,1,1,.587-.569,4.142,4.142,0,0,1,.7.961,4.536,4.536,0,0,1,.335,3.262.408.408,0,0,1-.5.3A.371.371,0,0,1,66.527,195.157Zm-7.108-4.646a.41.41,0,0,1,.014-.736,6.6,6.6,0,0,1,4.311-.405.409.409,0,0,1-.2.793,5.852,5.852,0,0,0-3.767.355A.41.41,0,0,1,59.419,190.511Z" transform="translate(-44.482 -180.739)" fill="#53b6b9"/>
          </g>
        </g>
        <g id="Grupo_10832" data-name="Grupo 10832" transform="translate(12.475 47.06)">
          <path id="Trazado_20442" data-name="Trazado 20442" d="M59.144,232.5a.41.41,0,0,1,.3-.759,8.781,8.781,0,0,0,1.923.325.408.408,0,1,1-.045.816,9.617,9.617,0,0,1-2.1-.353A.544.544,0,0,1,59.144,232.5Z" transform="translate(-58.921 -231.721)" fill="#53b6b9"/>
        </g>
      </g>
    </g>
    <g id="Grupo_10837" data-name="Grupo 10837" transform="translate(175.048 45.77)">
      <g id="Grupo_10835" data-name="Grupo 10835">
        <path id="Trazado_20443" data-name="Trazado 20443" d="M195.594,56.2l13.881-8.3L216.65,46.2l5.487.614Z" transform="translate(-195.594 -46.201)" fill="url(#linear-gradient-4)"/>
        <path id="Trazado_20444" data-name="Trazado 20444" d="M195.594,56.292l26.263-7.727.279-1.652" transform="translate(-195.594 -46.298)" fill="#a4d1bb"/>
        <path id="Trazado_20445" data-name="Trazado 20445" d="M222.781,54.056l-.032.057-.97,4.152-26.107-1Z" transform="translate(-195.605 -47.269)" fill="#53b6b9"/>
        <path id="Trazado_20446" data-name="Trazado 20446" d="M227.774,50.6l-3.887-2.938-28.1,8.68,24.389-1.569Z" transform="translate(-195.621 -46.4)" fill="url(#linear-gradient-5)"/>
      </g>
      <g id="Grupo_10836" data-name="Grupo 10836" transform="translate(35.692 0.451)">
        <path id="Trazado_20447" data-name="Trazado 20447" d="M303.4,109.275a19.748,19.748,0,0,1-2.588-1.018.386.386,0,0,0-.331.7,20.525,20.525,0,0,0,2.688,1.057q.5.157.994.287a.385.385,0,1,0,.2-.745Q303.873,109.425,303.4,109.275Z" transform="translate(-245.517 -55.084)" fill="#53b6b9"/>
        <path id="Trazado_20448" data-name="Trazado 20448" d="M241.007,47.432c-1.2.2-2.439.437-3.8.738a.385.385,0,1,0,.166.753c1.348-.3,2.578-.537,3.76-.729a.389.389,0,0,0,.178-.079.385.385,0,0,0-.3-.682Z" transform="translate(-236.903 -46.819)" fill="#53b6b9"/>
        <path id="Trazado_20449" data-name="Trazado 20449" d="M248.394,47.41a.386.386,0,0,0-.251-.687c-1.236.032-2.539.129-3.876.287a.385.385,0,0,0,.092.765c1.312-.156,2.592-.25,3.805-.282A.384.384,0,0,0,248.394,47.41Z" transform="translate(-237.858 -46.723)" fill="#53b6b9"/>
        <path id="Trazado_20450" data-name="Trazado 20450" d="M295.006,104.351a.385.385,0,0,0-.518.569,21.413,21.413,0,0,0,3.124,2.363.383.383,0,0,0,.442-.026.352.352,0,0,0,.087-.1.385.385,0,0,0-.124-.531A20.745,20.745,0,0,1,295.006,104.351Z" transform="translate(-244.715 -54.544)" fill="#53b6b9"/>
        <path id="Trazado_20451" data-name="Trazado 20451" d="M292.768,102.53a.384.384,0,0,0,.035-.543c-.226-.258-.448-.522-.661-.791a19.892,19.892,0,0,1-1.559-2.262.385.385,0,0,0-.527-.136.389.389,0,0,0-.137.528,20.757,20.757,0,0,0,1.619,2.349q.333.419.686.819a.384.384,0,0,0,.529.048Z" transform="translate(-244.104 -53.796)" fill="#53b6b9"/>
        <path id="Trazado_20452" data-name="Trazado 20452" d="M288.974,96.538a.377.377,0,0,0,.08-.049.385.385,0,0,0,.111-.461,26.31,26.31,0,0,1-1.3-3.562.385.385,0,1,0-.74.213,26.791,26.791,0,0,0,1.334,3.667A.385.385,0,0,0,288.974,96.538Z" transform="translate(-243.73 -52.904)" fill="#53b6b9"/>
        <path id="Trazado_20453" data-name="Trazado 20453" d="M276.124,59.512q.5.57.974,1.164c.475.6.931,1.217,1.353,1.841a.385.385,0,0,0,.535.1l.025-.018a.385.385,0,0,0,.078-.517c-.433-.641-.9-1.277-1.388-1.89q-.485-.609-1-1.193a.366.366,0,0,0-.544-.035A.385.385,0,0,0,276.124,59.512Z" transform="translate(-242.223 -48.374)" fill="#53b6b9"/>
        <path id="Trazado_20454" data-name="Trazado 20454" d="M280.216,65.244a27.85,27.85,0,0,1,1.646,3.421.385.385,0,0,0,.5.214.373.373,0,0,0,.1-.056.384.384,0,0,0,.118-.443,28.718,28.718,0,0,0-1.691-3.517.386.386,0,0,0-.67.381Z" transform="translate(-242.785 -49.163)" fill="#53b6b9"/>
        <path id="Trazado_20455" data-name="Trazado 20455" d="M270.968,54.709a31.25,31.25,0,0,1,2.876,2.489.384.384,0,0,0,.508.026.326.326,0,0,0,.036-.033.385.385,0,0,0-.006-.544,32.165,32.165,0,0,0-2.946-2.55.385.385,0,1,0-.468.612Z" transform="translate(-241.514 -47.715)" fill="#53b6b9"/>
        <path id="Trazado_20456" data-name="Trazado 20456" d="M261.989,49.726a.385.385,0,1,0,.287-.715,30.469,30.469,0,0,0-3.7-1.219.385.385,0,0,0-.193.746A29.673,29.673,0,0,1,261.989,49.726Z" transform="translate(-239.784 -46.866)" fill="#53b6b9"/>
        <path id="Trazado_20457" data-name="Trazado 20457" d="M285.575,82.735a.392.392,0,0,0,.182-.079.385.385,0,0,0,.141-.359l-.071-.483c-.166-1.111-.332-2.224-.518-3.332a.385.385,0,1,0-.759.128c.185,1.1.35,2.211.515,3.318l.073.482A.386.386,0,0,0,285.575,82.735Z" transform="translate(-243.381 -50.997)" fill="#53b6b9"/>
        <path id="Trazado_20458" data-name="Trazado 20458" d="M268.282,52.878a.384.384,0,0,0,.451-.021.374.374,0,0,0,.082-.09.386.386,0,0,0-.111-.534A31.888,31.888,0,0,0,265.32,50.3a.385.385,0,1,0-.34.691A31.106,31.106,0,0,1,268.282,52.878Z" transform="translate(-240.691 -47.204)" fill="#53b6b9"/>
        <path id="Trazado_20459" data-name="Trazado 20459" d="M285.956,85.217a.384.384,0,0,0-.319.442c.24,1.493.468,2.7.715,3.809a.387.387,0,0,0,.461.292.4.4,0,0,0,.155-.074.386.386,0,0,0,.137-.386c-.245-1.09-.469-2.285-.709-3.764A.384.384,0,0,0,285.956,85.217Z" transform="translate(-243.529 -51.956)" fill="#53b6b9"/>
        <path id="Trazado_20460" data-name="Trazado 20460" d="M307.5,110.3a.385.385,0,0,0-.122.76,30.946,30.946,0,0,0,3.879.365.386.386,0,0,0,.4-.371.385.385,0,0,0-.372-.4A30.623,30.623,0,0,1,307.5,110.3Z" transform="translate(-246.442 -55.367)" fill="#53b6b9"/>
        <path id="Trazado_20461" data-name="Trazado 20461" d="M283.254,71.223A.387.387,0,0,0,283,71.7c.343,1.122.645,2.333.923,3.7a.385.385,0,0,0,.454.3.385.385,0,0,0,.3-.454c-.283-1.393-.591-2.626-.941-3.772A.386.386,0,0,0,283.254,71.223Z" transform="translate(-243.168 -50.052)" fill="#53b6b9"/>
        <path id="Trazado_20462" data-name="Trazado 20462" d="M252.8,46.827q-.677-.057-1.354-.085a.386.386,0,0,0-.032.771q.661.026,1.322.081c.817.068,1.643.175,2.456.319a.385.385,0,0,0,.133-.759C254.491,47.006,253.642,46.9,252.8,46.827Z" transform="translate(-238.826 -46.725)" fill="#53b6b9"/>
      </g>
    </g>
    <rect id="Rectángulo_2293" data-name="Rectángulo 2293" width="68.108" height="2.243" transform="translate(217.25 110.496)" fill="#0f787a"/>
    <rect id="Rectángulo_2294" data-name="Rectángulo 2294" width="68.108" height="2.243" transform="translate(221.468 359.605)" fill="#53b6b9"/>
    <rect id="Rectángulo_2295" data-name="Rectángulo 2295" width="68.108" height="2.243" transform="translate(48.634 283.547)" fill="#0f787a"/>
    <g id="Grupo_10847" data-name="Grupo 10847" transform="translate(258.838 288.36)">
      <g id="Grupo_10840" data-name="Grupo 10840" transform="translate(4.314 67.564)">
        <path id="Trazado_20463" data-name="Trazado 20463" d="M304.737,407.252l-5.425-.006c-.72.075-1.525.28-1.66.9a3.647,3.647,0,0,0-.079.826c.192.226,7.386-.029,7.386-.029l.031-.026A1.141,1.141,0,0,0,304.737,407.252Z" transform="translate(-297.563 -405.445)" fill="#002b49"/>
        <path id="Trazado_20464" data-name="Trazado 20464" d="M297.573,409.245l7.385-.03-.064.287h-7.332Z" transform="translate(-297.562 -405.713)" fill="#122043"/>
        <g id="Grupo_10838" data-name="Grupo 10838" transform="translate(4.538 1.801)">
          <path id="Trazado_20465" data-name="Trazado 20465" d="M303.3,407.246l-.489,0,.152.665h.474Z" transform="translate(-302.814 -407.246)" fill="#fff"/>
        </g>
        <g id="Grupo_10839" data-name="Grupo 10839" transform="translate(3.491 1.801)">
          <path id="Trazado_20466" data-name="Trazado 20466" d="M302.091,407.246l-.489,0,.152.665h.474Z" transform="translate(-301.602 -407.246)" fill="#fff"/>
        </g>
        <path id="Trazado_20467" data-name="Trazado 20467" d="M305.954,405.162l-.372,1.807h0a1.757,1.757,0,0,1-1.454.035l-.083-.036-.261-1.8Z" transform="translate(-298.408 -405.162)" fill="#f7a57a"/>
      </g>
      <g id="Grupo_10843" data-name="Grupo 10843" transform="translate(16.993 67.564)">
        <path id="Trazado_20468" data-name="Trazado 20468" d="M319.412,407.252l-5.425-.006c-.72.075-1.525.28-1.66.9a3.592,3.592,0,0,0-.079.826c.192.226,7.386-.029,7.386-.029l.031-.026A1.141,1.141,0,0,0,319.412,407.252Z" transform="translate(-312.238 -405.445)" fill="#122043"/>
        <path id="Trazado_20469" data-name="Trazado 20469" d="M312.247,409.245l7.385-.03-.064.287h-7.332Z" transform="translate(-312.237 -405.713)" fill="#122043"/>
        <g id="Grupo_10841" data-name="Grupo 10841" transform="translate(4.538 1.801)">
          <path id="Trazado_20470" data-name="Trazado 20470" d="M317.978,407.246l-.488,0,.152.665h.474Z" transform="translate(-317.489 -407.246)" fill="#fff"/>
        </g>
        <g id="Grupo_10842" data-name="Grupo 10842" transform="translate(3.491 1.801)">
          <path id="Trazado_20471" data-name="Trazado 20471" d="M316.765,407.246l-.488,0,.152.665h.474Z" transform="translate(-316.277 -407.246)" fill="#fff"/>
        </g>
        <path id="Trazado_20472" data-name="Trazado 20472" d="M319.925,405.162l.236,1.807h0a1.757,1.757,0,0,1-1.454.035l-.083-.036-.869-1.8Z" transform="translate(-312.987 -405.162)" fill="#f7a57a"/>
      </g>
      <g id="Grupo_10844" data-name="Grupo 10844" transform="translate(12.474 6.795)">
        <path id="Trazado_20473" data-name="Trazado 20473" d="M310.368,334.83l4.468,2.914-1.379,3.53c-.02.05-.046.1-.067.145-.1-.007-.2-.012-.3-.012l-.048,0-.047,0a3.447,3.447,0,0,0-2.848,1.725,5.947,5.947,0,0,1-2.109-.547,2.186,2.186,0,0,1-.994-.753C306.571,339.329,310.368,334.83,310.368,334.83Z" transform="translate(-307.007 -334.83)" fill="#f7a57a"/>
      </g>
      <path id="Trazado_20474" data-name="Trazado 20474" d="M303.914,335.744s-.547,5.185.555,8.487c-.512.444-2.389,2.456-2.979-.152s.663-9.25.663-9.25Z" transform="translate(-293.761 -328.035)" fill="#f7a57a"/>
      <g id="Grupo_10846" data-name="Grupo 10846" transform="translate(0.147 0.069)">
        <g id="Grupo_10845" data-name="Grupo 10845" transform="translate(12.236 7.273)">
          <path id="Trazado_20475" data-name="Trazado 20475" d="M307.352,335.463l1.051.676-.375.785-1.128-.5Z" transform="translate(-306.9 -335.463)" fill="#122043"/>
          <path id="Trazado_20476" data-name="Trazado 20476" d="M308.126,336.5c-.105.239-.112.468-.016.511s.259-.118.365-.359.112-.468.016-.511S308.231,336.257,308.126,336.5Z" transform="translate(-307.055 -335.554)" fill="#122043"/>
        </g>
        <path id="Trazado_20477" data-name="Trazado 20477" d="M292.743,330.493l0-.029a10.521,10.521,0,0,1,1.017-1.824,9.191,9.191,0,0,0,.976-1.6l10.854,7.1-.7,1.326-12.141-4.487A3.5,3.5,0,0,0,292.743,330.493Z" transform="translate(-292.739 -327.045)" fill="#002f4c"/>
      </g>
      <path id="Trazado_20478" data-name="Trazado 20478" d="M311.517,344.355l.39,2.438h-3.454l-.248-2.987Z" transform="translate(-294.695 -329.255)" fill="#f18c72"/>
      <path id="Trazado_20479" data-name="Trazado 20479" d="M300.808,348.62s-4.08-1.3-5.359-3.047.886-11.308.886-11.308l-.28-1.72a1.6,1.6,0,0,1,1.567-1.859l1.09-.009a.624.624,0,0,1,.575.877l-1.433,3.225s-1.076,7.241.431,7.791a16.962,16.962,0,0,0,3.831.794Z" transform="translate(-292.906 -327.47)" fill="#f7a57a"/>
      <path id="Trazado_20480" data-name="Trazado 20480" d="M310.352,342.913l1.05-2.328-.682-.428a1.283,1.283,0,0,1-.532-1.5l.747-2.194s-2.126-.26-2.062-2.24c0-1.02,1.4-1.026,1.4-1.026a2.039,2.039,0,0,0,1.721,1.02,3.386,3.386,0,0,1,3.129,1.942c.7,1.216.391,3.119-.215,4.547a4.148,4.148,0,0,1-3.3,2.206Z" transform="translate(-294.786 -327.813)" fill="#122043"/>
      <path id="Trazado_20481" data-name="Trazado 20481" d="M313.987,367.07a76.772,76.772,0,0,1-1.29,10.342,9.239,9.239,0,0,0,.319,4.756c2.436,7.237,5.851,18.12,5.851,18.12h-3.038s-6.884-12.861-8.658-19.241-2.077-8.406-2.077-8.406l2.111-5.57Z" transform="translate(-294.272 -332.418)" fill="#005558"/>
      <path id="Trazado_20482" data-name="Trazado 20482" d="M312.2,340.436a.988.988,0,0,1-.564,1.083c-.437.232-.893.123-1.018-.244a.988.988,0,0,1,.565-1.084C311.618,339.96,312.074,340.069,312.2,340.436Z" transform="translate(-295.019 -328.747)" fill="#f7a57a"/>
      <path id="Trazado_20483" data-name="Trazado 20483" d="M303.145,364.094h9.905V351.386a5.392,5.392,0,0,0-4.89-5.369l-6.889-.834s-.81,1.24-3.066,4.121a23.241,23.241,0,0,0,5.851,2.448Z" transform="translate(-293.336 -329.442)" fill="#002f4c"/>
      <path id="Trazado_20484" data-name="Trazado 20484" d="M313.252,367.07a29.548,29.548,0,0,1-6.561,10.739,6.634,6.634,0,0,0-1.927,5.16l1.065,17.318h-3.081s-3.756-14.381-2.946-21.47a32.526,32.526,0,0,1,3.544-11.747Z" transform="translate(-293.537 -332.418)" fill="#0f787a"/>
      <path id="Trazado_20485" data-name="Trazado 20485" d="M294.383,329.3c-.533,1.105-1.255,1.861-1.615,1.688s-.218-1.21.315-2.315,1.255-1.861,1.614-1.688S294.916,328.2,294.383,329.3Z" transform="translate(-292.569 -326.966)" fill="#53b6b9"/>
      <path id="Trazado_20486" data-name="Trazado 20486" d="M304.442,333.2l-.092.044a1.382,1.382,0,0,1-1.033.065l-.061-.021a1.845,1.845,0,0,1-1.175-1.191h0a.343.343,0,0,1,.4-.439l.686.144a1.034,1.034,0,0,1,.651.443Z" transform="translate(-293.86 -327.602)" fill="#f7a57a"/>
    </g>
    <g id="Grupo_10855" data-name="Grupo 10855" transform="translate(256.598 43.03)">
      <g id="Grupo_10848" data-name="Grupo 10848" transform="translate(5.963 63.657)">
        <path id="Trazado_20487" data-name="Trazado 20487" d="M300.571,118.344s-.469.649-2.681,1.212c-.487.124-1.012.209-1.012,1.013h2.183l2.233-.386v.386H302.5s.335-1.973-.369-2.225Z" transform="translate(-296.878 -116.927)" fill="#122043"/>
        <path id="Trazado_20488" data-name="Trazado 20488" d="M301.02,116.7l.114,1.417h0a1.365,1.365,0,0,0,1.478.049l.083-.049V116.7Z" transform="translate(-297.441 -116.704)" fill="#f7a57a"/>
      </g>
      <g id="Grupo_10849" data-name="Grupo 10849" transform="translate(17.163 63.939)">
        <path id="Trazado_20489" data-name="Trazado 20489" d="M313.534,118.67s-.469.65-2.681,1.213c-.487.124-1.013.209-1.013,1.013h2.183l2.233-.386v.386h1.206s.336-1.973-.368-2.226Z" transform="translate(-309.84 -117.254)" fill="#122043"/>
        <path id="Trazado_20490" data-name="Trazado 20490" d="M313.982,117.031l.115,1.416h0a1.365,1.365,0,0,0,1.478.05l.083-.05v-1.416Z" transform="translate(-310.403 -117.031)" fill="#f7a57a"/>
      </g>
      <path id="Trazado_20491" data-name="Trazado 20491" d="M299.99,75.935l.543,35.581h2.592s3.946-28.727,3.1-35.581S299.99,75.935,299.99,75.935Z" transform="translate(-291.338 -47.09)" fill="#122043"/>
      <path id="Trazado_20492" data-name="Trazado 20492" d="M303.161,76.4s.9,10.93,2.975,16.981,5.816,18.608,5.816,18.608h2.683s-4.481-26.242-3.456-35.589h-8.017Z" transform="translate(-291.769 -47.568)" fill="#002f4c"/>
      <path id="Trazado_20493" data-name="Trazado 20493" d="M299.173,55.444s-3.194,7.451-4.006,7.451c-.648,0,.244-6.084.244-6.084h-2.676s-3.365,10.427-.69,12.332,8.555-5.392,8.555-5.392Z" transform="translate(-290.118 -44.718)" fill="#0f787a"/>
      <path id="Trazado_20494" data-name="Trazado 20494" d="M310.781,77.474l-.969,2.393c-.466.941-2.18.964-3.318.665a.237.237,0,0,1-.111-.388,32.836,32.836,0,0,1,2.809-2.834Z" transform="translate(-292.199 -47.691)" fill="#f7a57a"/>
      <path id="Trazado_20495" data-name="Trazado 20495" d="M301.846,53.659s-1.669,1.132-1.669,2.429v17.22h9.777v-16.1s-.2-3.58-3.7-3.58S301.846,53.659,301.846,53.659Z" transform="translate(-291.364 -44.471)" fill="#0f787a"/>
      <g id="Grupo_10850" data-name="Grupo 10850" transform="translate(8.652 13.378)">
        <path id="Trazado_20496" data-name="Trazado 20496" d="M300.314,73.98V58.514l-.324.011V73.98Z" transform="translate(-299.99 -58.514)" fill="#005558"/>
      </g>
      <path id="Trazado_20497" data-name="Trazado 20497" d="M305.72,49.214v4.061a2.482,2.482,0,0,1-1.895.926c-1.22,0-1.22-.879-1.22-.879v-2.6l1.806-.471Z" transform="translate(-291.694 -43.871)" fill="#f18c72"/>
      <path id="Trazado_20498" data-name="Trazado 20498" d="M302.212,50.808a1.514,1.514,0,0,1-.905-.235c-1.084-1.726.15-6.379.15-6.379l3.931.7.125,3.118a2.622,2.622,0,0,1-.982,2.151h0A4.2,4.2,0,0,1,302.212,50.808Z" transform="translate(-291.457 -43.189)" fill="#f7a57a"/>
      <path id="Trazado_20499" data-name="Trazado 20499" d="M303.417,44.822a8.415,8.415,0,0,1-2.677,0c-1.373-.245-.494-1.757-.494-1.757a5.4,5.4,0,0,0,2.821.2c1.218-.181,1.546-.416,2.327,0,1.061.566.8,2.484.8,2.484l-.585,4.059h-.219s-.054-2.414-.054-3.236c-.23-.373-.479-.373-.67-.28a.614.614,0,0,0-.326.557v4.215s-2.684,1.157-3.366.947-.226-3.333-.226-3.333a1.253,1.253,0,0,1,1.4.342c.6.677,1.338-.028,1.338-.028Z" transform="translate(-291.335 -43.03)" fill="#122043"/>
      <path id="Trazado_20500" data-name="Trazado 20500" d="M293.6,56.485l.1-.514a4.279,4.279,0,0,1,2.391-2.924h1.136l-.352,2.427-1.6,1.011Z" transform="translate(-290.469 -44.392)" fill="#f7a57a"/>
      <path id="Trazado_20501" data-name="Trazado 20501" d="M305.7,46.68a.686.686,0,0,0-.647.645.591.591,0,0,0,.445.736.688.688,0,0,0,.647-.645A.591.591,0,0,0,305.7,46.68Z" transform="translate(-292.026 -43.526)" fill="#f7a57a"/>
      <path id="Trazado_20502" data-name="Trazado 20502" d="M296.495,55.41l-2.213,1.281s1.389-.014,1.411,0l2.342-1.96s-.17-.342-.7-.054A2.7,2.7,0,0,0,296.495,55.41Z" transform="translate(-290.562 -44.598)" fill="#f7a57a"/>
      <path id="Trazado_20503" data-name="Trazado 20503" d="M309.771,54.876S315.3,61.017,315.3,64.7s-4.486,10.167-4.486,10.167l-2.216-.649s2-8.027,2-10.162-4.108-5.266-4.108-5.266" transform="translate(-292.222 -44.641)" fill="#0f787a"/>
      <g id="Grupo_10851" data-name="Grupo 10851" transform="translate(14.168 14.017)">
        <path id="Trazado_20504" data-name="Trazado 20504" d="M310.419,64.648c0,1.838-1.627,8.559-2.01,10.126.112.029.159.038.328.082.47-1.935,2.005-8.4,2.005-10.208,0-2.19-4-5.265-4.172-5.4l-.2.257C306.415,59.542,310.419,62.616,310.419,64.648Z" transform="translate(-306.374 -59.253)" fill="#005558"/>
      </g>
      <g id="Grupo_10854" data-name="Grupo 10854" transform="translate(0 2.065)">
        <path id="Trazado_20505" data-name="Trazado 20505" d="M298.134,50.887a5.866,5.866,0,0,1-1.013,4.289.644.644,0,0,1-.414.23,1.628,1.628,0,0,1-.765-.127.71.71,0,0,1-.462-.332.305.305,0,0,1,.032-.32,4.348,4.348,0,0,0,.8-3.32A2.4,2.4,0,0,1,298.134,50.887Z" transform="translate(-290.721 -46.159)" fill="#f4872e"/>
        <path id="Trazado_20506" data-name="Trazado 20506" d="M295.74,55.2a.468.468,0,0,1-.259-.249.305.305,0,0,1,.032-.32,4.348,4.348,0,0,0,.8-3.32,2.036,2.036,0,0,1,.869-.4A6.625,6.625,0,0,1,295.74,55.2Z" transform="translate(-290.721 -46.168)" fill="#fda630"/>
        <g id="Grupo_10853" data-name="Grupo 10853" transform="translate(5.471 5.997)">
          <g id="Grupo_10852" data-name="Grupo 10852" transform="translate(0.114 0.002)">
            <path id="Trazado_20507" data-name="Trazado 20507" d="M296.957,53.057c-.07.34-.235.594-.369.567s-.186-.326-.116-.666.236-.594.369-.567S297.027,52.716,296.957,53.057Z" transform="translate(-296.441 -52.367)" fill="#f4872e"/>
            <path id="Trazado_20508" data-name="Trazado 20508" d="M296.913,52.4l-.141-.033.01.071.094.037Z" transform="translate(-296.486 -52.364)" fill="#f4872e"/>
            <path id="Trazado_20509" data-name="Trazado 20509" d="M296.621,53.809l-.171-.033.194-.028Z" transform="translate(-296.442 -52.552)" fill="#de1d4c"/>
          </g>
          <path id="Trazado_20510" data-name="Trazado 20510" d="M296.825,53.03c-.07.34-.235.594-.369.567s-.186-.326-.116-.666.235-.594.369-.567S296.895,52.689,296.825,53.03Z" transform="translate(-296.309 -52.362)" fill="#ffc630"/>
        </g>
        <path id="Trazado_20511" data-name="Trazado 20511" d="M299.247,48.572h.263a.893.893,0,0,1,.911.867v.689a.892.892,0,0,1-.911.867h-.263Z" transform="translate(-291.237 -45.849)" fill="#ffc630"/>
        <ellipse id="Elipse_573" data-name="Elipse 573" cx="0.966" cy="3.405" rx="0.966" ry="3.405" fill="#122043"/>
        <path id="Trazado_20512" data-name="Trazado 20512" d="M292.141,47.91l-.763.5v1.1l.787.714.272-1.432Z" transform="translate(-290.167 -45.759)" fill="#fff"/>
        <path id="Trazado_20513" data-name="Trazado 20513" d="M292.1,48.844a5.533,5.533,0,0,0-.72-3.289l0,0a15.564,15.564,0,0,0,6.949,2.633v2.4s-5.072-.285-6.949,1.547l0,0A5.524,5.524,0,0,0,292.1,48.844Z" transform="translate(-290.167 -45.439)" fill="#f99200"/>
        <path id="Trazado_20514" data-name="Trazado 20514" d="M291.257,49.032c0,.305.047.553.1.553s.1-.248.1-.553-.047-.553-.1-.553S291.257,48.726,291.257,49.032Z" transform="translate(-290.151 -45.837)" fill="#ffc630"/>
      </g>
      <path id="Trazado_20515" data-name="Trazado 20515" d="M295.024,54.73a2.593,2.593,0,0,0,1.236.2c.644,0,.933-.791,1.043-1.221.039-.152.073-.366-.116-.463l-1.034-.143Z" transform="translate(-290.663 -44.4)" fill="#f7a57a"/>
    </g>
    <g id="Grupo_10861" data-name="Grupo 10861" transform="translate(231.522 292.798)">
      <path id="Trazado_20516" data-name="Trazado 20516" d="M283.952,339.411a2.175,2.175,0,0,0-.093,1.553l.283,2.014.346.232,1.288.532a1.383,1.383,0,0,1,0-.807l.565-2.083s.88-3.517-1.507-3.366c.012-2.864-.786-2.391-.786-2.391l-.055,2.476Z" transform="translate(-264.055 -332.505)" fill="#f7a57a"/>
      <path id="Trazado_20517" data-name="Trazado 20517" d="M277.018,347.587s1.669,6.37,3.092,6.484,2.9-10.091,2.9-10.091l1.935.234s.753,14.675-3.589,14.942-4.915-2.978-4.915-2.978Z" transform="translate(-263.061 -333.717)" fill="#ffd159"/>
      <path id="Trazado_20518" data-name="Trazado 20518" d="M275.111,365H263.752V347.751c3.245-4.952,7.29-3.6,7.29-3.6s3.677.066,4.25,3.44C275.292,350.028,275.111,365,275.111,365Z" transform="translate(-261.335 -333.717)" fill="#f99200"/>
      <g id="Grupo_10856" data-name="Grupo 10856" transform="translate(8.211 8.14)">
        <path id="Trazado_20519" data-name="Trazado 20519" d="M270.627,341.522l-.169,2.439.08.076a2.115,2.115,0,0,0,2.873.041h0l.038-1.835Z" transform="translate(-270.458 -341.522)" fill="#f18c72"/>
      </g>
      <g id="Grupo_10857" data-name="Grupo 10857" transform="translate(4.894 0)">
        <path id="Trazado_20520" data-name="Trazado 20520" d="M269.62,335.625l.206,4.032a.623.623,0,0,1,.56.791.771.771,0,0,1,.067.3,4.625,4.625,0,0,0,3.592.836c2.552-.488,1.012-5.42,1.012-5.42Z" transform="translate(-267.027 -332.581)" fill="#f7a57a"/>
        <path id="Trazado_20521" data-name="Trazado 20521" d="M267.93,338.174a2.475,2.475,0,0,0-.646-1.117c-1.445-1.249-.152-2.161.306-2.455.507-.326.407-1.246,1.064-1.759,1-.785,1.968.029,2.61-.091s1.04-.972,1.973-.52.83,1.185,1.129,1.494.848-.545,1.758.431c1.385,1.484-1.331,2.12-1.331,2.12a4.928,4.928,0,0,1-3.454-.156.645.645,0,0,0-.761.187c-.469.642-.475,4-.475,4l-.656-.545A1.825,1.825,0,0,1,267.93,338.174Z" transform="translate(-266.619 -332.102)" fill="#122043"/>
        <path id="Trazado_20522" data-name="Trazado 20522" d="M269.9,339.378a.619.619,0,1,0,.339-.808A.619.619,0,0,0,269.9,339.378Z" transform="translate(-267.059 -332.975)" fill="#f7a57a"/>
      </g>
      <g id="Grupo_10858" data-name="Grupo 10858" transform="translate(8.461 61.882)">
        <path id="Trazado_20523" data-name="Trazado 20523" d="M273.488,405.958s.64.886,3.657,1.654c.664.169,1.381.285,1.381,1.381h-2.978l-3.046-.526v.526h-1.645s-.458-2.69.5-3.034Z" transform="translate(-270.748 -404.025)" fill="#122043"/>
        <path id="Trazado_20524" data-name="Trazado 20524" d="M273.741,403.721l-.156,1.933h0a1.861,1.861,0,0,1-2.015.067l-.113-.067v-1.933Z" transform="translate(-270.844 -403.721)" fill="#f7a57a"/>
      </g>
      <g id="Grupo_10859" data-name="Grupo 10859" transform="translate(0 61.882)">
        <path id="Trazado_20525" data-name="Trazado 20525" d="M263.695,405.958s.64.886,3.657,1.654c.664.169,1.381.285,1.381,1.381h-2.978l-3.046-.526v.526h-1.645s-.458-2.69.5-3.034Z" transform="translate(-260.955 -404.025)" fill="#122043"/>
        <path id="Trazado_20526" data-name="Trazado 20526" d="M263.948,403.721l-.156,1.933h0a1.863,1.863,0,0,1-2.016.067l-.112-.067v-1.933Z" transform="translate(-261.051 -403.721)" fill="#f7a57a"/>
      </g>
      <path id="Trazado_20527" data-name="Trazado 20527" d="M263.561,348.344s-3.4,7.858.939,11.872a14.053,14.053,0,0,0,10.241,3.331v-2.264s-5.33-.45-7.038-4.013a6.689,6.689,0,0,1,.683-6.648" transform="translate(-261.137 -334.31)" fill="#f99200"/>
      <path id="Trazado_20528" data-name="Trazado 20528" d="M276.3,365.082l2.719.057c1.1-.06,1.839-1.709,2.022-2.935a.248.248,0,0,0-.329-.269,34.534,34.534,0,0,0-3.91,1.541Z" transform="translate(-263.041 -336.156)" fill="#f7a57a"/>
      <path id="Trazado_20529" data-name="Trazado 20529" d="M275.729,368.311c3.388,9.565-1.907,30.745-1.907,30.745H270.8s1.423-30.034-2.506-30.745Z" transform="translate(-261.953 -337.025)" fill="#122043"/>
      <path id="Trazado_20530" data-name="Trazado 20530" d="M267.1,355.923a6.135,6.135,0,0,0,.607,2.377c1.708,3.563,7.316,4.035,7.316,4.035v2.285s-6.174.639-10.519-3.374a7.361,7.361,0,0,1-2.2-5.323Z" transform="translate(-261.138 -335.34)" fill="#ffd159"/>
      <g id="Grupo_10860" data-name="Grupo 10860" transform="translate(5.611 16.122)">
        <path id="Trazado_20531" data-name="Trazado 20531" d="M267.824,355.566c-.119-.054-.238-.105-.357-.162a7.3,7.3,0,0,1,1.355-4.643l.268.213A6.9,6.9,0,0,0,267.824,355.566Z" transform="translate(-267.448 -350.76)" fill="#ef7100"/>
      </g>
      <path id="Trazado_20532" data-name="Trazado 20532" d="M284.373,340.1s-.626-.188-.725-1.332-.638-.79-.638-.79.281,4.508,1,4.677S284.373,340.1,284.373,340.1Z" transform="translate(-263.953 -332.894)" fill="#f7a57a"/>
      <path id="Trazado_20533" data-name="Trazado 20533" d="M271.435,368.311c.922,11.728-6.567,30.745-6.567,30.745h-3.587a142.26,142.26,0,0,0,2.488-23.572,60.693,60.693,0,0,0-.352-7.173Z" transform="translate(-260.999 -337.025)" fill="#002f4c"/>
    </g>
    <g id="Grupo_10869" data-name="Grupo 10869" transform="translate(67.903 88.712)">
      <g id="Grupo_10868" data-name="Grupo 10868" transform="translate(0)">
        <g id="Grupo_10862" data-name="Grupo 10862" transform="translate(23.82 59.137)">
          <path id="Trazado_20534" data-name="Trazado 20534" d="M101.34,164.343l.31,1.849h0a1.781,1.781,0,0,1-1.929.065l-.108-.065-.457-1.849Z" transform="translate(-99.157 -164.343)" fill="#f7a57a"/>
        </g>
        <path id="Trazado_20535" data-name="Trazado 20535" d="M84.4,114.584c1.643,5.421,7.156,13.744,7.156,13.744l-4.355-1.783-3.077-7.11S82.763,109.163,84.4,114.584Z" transform="translate(-73.221 -98.226)" fill="#f99200"/>
        <path id="Trazado_20536" data-name="Trazado 20536" d="M97.095,139.259l3.434,21.174H97.477s-6.856-19.05-7.577-24.652c0-3.173,6.931,0,6.931,0Z" transform="translate(-74.079 -101.131)" fill="#122043"/>
        <g id="Grupo_10864" data-name="Grupo 10864" transform="translate(8.04)">
          <path id="Trazado_20537" data-name="Trazado 20537" d="M84.5,104.566l-1.139,2.949-2.466-1.785,1.664-3.477Z" transform="translate(-80.894 -96.764)" fill="#f18c72"/>
          <g id="Grupo_10863" data-name="Grupo 10863" transform="translate(1.662 1.236)">
            <path id="Trazado_20538" data-name="Trazado 20538" d="M85.69,104.386a1.681,1.681,0,0,0,.963-.025c1.43-1.365,1.081-5.925,1.081-5.925l-1.6-1.105-2.518.923-.729,2.854a2.386,2.386,0,0,0,.578,2.195h0A4.661,4.661,0,0,0,85.69,104.386Z" transform="translate(-82.818 -97.331)" fill="#f7a57a"/>
          </g>
          <path id="Trazado_20539" data-name="Trazado 20539" d="M83.889,99.019a.985.985,0,0,1,1.236-.491,7.8,7.8,0,0,0,1.18.362c.988.207,2.83.188,3.144-1.314S87.81,96.2,87.81,96.2l-2.6.179a4.79,4.79,0,0,1-2.239-.41,1.054,1.054,0,0,0-1.312.694,6.562,6.562,0,0,0,.269,3.228,4.684,4.684,0,0,0,.716,1.5h0Z" transform="translate(-80.983 -95.901)" fill="#122043"/>
          <path id="Trazado_20540" data-name="Trazado 20540" d="M82.537,100.247a.758.758,0,0,1,.9.275c.238.3.219.664-.041.811a.759.759,0,0,1-.9-.275C82.257,100.759,82.276,100.395,82.537,100.247Z" transform="translate(-81.089 -96.483)" fill="#f7a57a"/>
        </g>
        <g id="Grupo_10865" data-name="Grupo 10865" transform="translate(12.484 57.855)">
          <path id="Trazado_20541" data-name="Trazado 20541" d="M101.557,166.153s.009,1.966,3.957,3.146c.81.242.546.481.7.823h-4.544l-1.779-2-.553.475-1.283-1.261s.223-1.824,1.2-1.84C100.058,165.771,101.557,166.153,101.557,166.153Z" transform="translate(-87.671 -163.218)" fill="#122043"/>
          <path id="Trazado_20542" data-name="Trazado 20542" d="M88.7,163.565l-.739,1.7h0a1.779,1.779,0,0,1-1.846-.561l-.081-.1.6-1.751Z" transform="translate(-86.037 -162.86)" fill="#f7a57a"/>
        </g>
        <path id="Trazado_20543" data-name="Trazado 20543" d="M83.105,107.085s.314-.485-2.478-1.929c-4.21,4.209-5.591,20.323-5.591,20.323H86.042C86.414,116.283,83.105,107.085,83.105,107.085Z" transform="translate(-72.058 -97.159)" fill="#ffc630"/>
        <path id="Trazado_20544" data-name="Trazado 20544" d="M96,127.881a.487.487,0,0,0-.229-.531l-1.795-1.04a2.085,2.085,0,0,0-1.469-.238l-1.946.078-.254.308-.4,1.719c.391-.094.62-.154.62-.154l1.236.034s2.33,2.165,3.486.283c.048,2,.635,1.849.635,1.849Z" transform="translate(-74.079 -99.997)" fill="#f7a57a"/>
        <path id="Trazado_20545" data-name="Trazado 20545" d="M75,128.677l-.166,1.365-.007.055a5.385,5.385,0,0,0,3.948,5.731,48.5,48.5,0,0,0,11.333,2.005c-4.151,5.329-5.3,20.285-5.3,20.285l2.675.971,10.328-24.6a2.717,2.717,0,0,0-1.94-3.711l-9.866-2.1Z" transform="translate(-72.025 -100.357)" fill="#122043"/>
        <path id="Trazado_20546" data-name="Trazado 20546" d="M81.448,112.569a22.109,22.109,0,0,0-3.256,3.8,1.437,1.437,0,0,0,.129,1.7c2.292,2.64,10.46,5.176,10.46,5.176l-.529,2.979s-11.59-2.28-15.7-6.4c-4.212-4.225,6.677-13.05,6.677-13.05" transform="translate(-71.589 -97.38)" fill="#ffc630"/>
        <g id="Grupo_10866" data-name="Grupo 10866" transform="translate(3.34 15.069)">
          <path id="Trazado_20547" data-name="Trazado 20547" d="M79.31,117.348a1.264,1.264,0,0,0,.113,1.509c1.046,1.2,3.835,2.491,6.27,3.423,0,.149,0,.159,0,.337-2.556-.96-5.375-2.232-6.517-3.546a1.59,1.59,0,0,1-.144-1.9,22.447,22.447,0,0,1,3.283-3.834l.221.24A22.089,22.089,0,0,0,79.31,117.348Z" transform="translate(-75.908 -113.341)" fill="#fff"/>
          <path id="Trazado_20548" data-name="Trazado 20548" d="M75.5,123.8a58.313,58.313,0,0,0,13.3,4.61,2.364,2.364,0,0,1-.069.315,57.981,57.981,0,0,1-13.278-4.548A3.278,3.278,0,0,1,75.5,123.8Z" transform="translate(-75.455 -114.763)" fill="#fff"/>
        </g>
        <g id="Grupo_10867" data-name="Grupo 10867" transform="translate(15.822 19.036)">
          <path id="Trazado_20549" data-name="Trazado 20549" d="M100.331,130.374l3.43-12.265-.63-.176-3.271,11.7-9.849-1.711-.112.644Z" transform="translate(-89.901 -117.932)" fill="#0f787a"/>
        </g>
      </g>
      <path id="Trazado_20550" data-name="Trazado 20550" d="M87.88,165.109s-.156,1.982,3.793,3.162c.81.242.547.482.7.823H87.828l-1.779-2-.554.475-1.282-1.261s.6-1.824,1.576-1.84C86.594,164.744,87.88,165.109,87.88,165.109Z" transform="translate(-73.305 -105.224)" fill="#122043"/>
    </g>
    <g id="Grupo_10872" data-name="Grupo 10872" transform="translate(57.682 216.804)">
      <g id="Grupo_10870" data-name="Grupo 10870" transform="translate(0 61.571)">
        <path id="Trazado_20551" data-name="Trazado 20551" d="M62.624,317.6s.007,1.608,3.236,2.572c.663.2.448.394.572.672H62.716l-1.455-1.636-.452.389-1.05-1.03s.49-1.492,1.289-1.505Z" transform="translate(-59.759 -315.634)" fill="#122043"/>
        <path id="Trazado_20552" data-name="Trazado 20552" d="M63.431,315.985l-.6,1.392h0a1.456,1.456,0,0,1-1.509-.459l-.067-.079.488-1.431Z" transform="translate(-59.962 -315.409)" fill="#f7a57a"/>
      </g>
      <g id="Grupo_10871" data-name="Grupo 10871" transform="translate(16.828 62.485)">
        <path id="Trazado_20553" data-name="Trazado 20553" d="M81.634,318.425a9.264,9.264,0,0,0,3.8,1.748c.581.149,1.209-.049,1.209.91H83.439l-2.667-.461v.461h-1.44s-.4-2.355.441-2.658Z" transform="translate(-79.236 -316.733)" fill="#122043"/>
        <path id="Trazado_20554" data-name="Trazado 20554" d="M81.436,316.467l.283,1.692h0a1.628,1.628,0,0,1-1.764.06l-.1-.06L80,316.467Z" transform="translate(-79.32 -316.467)" fill="#f7a57a"/>
      </g>
      <path id="Trazado_20555" data-name="Trazado 20555" d="M73.143,276.29a51.049,51.049,0,0,0-4.178,14.378,11.452,11.452,0,0,1-1.935,5.006c-2.952,4.21-5.572,14.753-5.572,14.753l2.033.576,14.448-23.171-.1-11.181Z" transform="translate(-59.99 -248.519)" fill="#122043"/>
      <path id="Trazado_20556" data-name="Trazado 20556" d="M76.773,276.439a40.354,40.354,0,0,0,.761,15.045,9.8,9.8,0,0,1,.182,4.152c-.86,5.2,1.556,15.89,1.556,15.89H81.2l3.346-34.463Z" transform="translate(-62.02 -248.539)" fill="#002f4c"/>
      <path id="Trazado_20557" data-name="Trazado 20557" d="M76.783,258.5s-3.086-.614-2.584-2.569,6.274-9.056,6.274-9.056l4.517-.5s-.288,1.093-3.135,1.59S76.783,258.5,76.783,258.5Z" transform="translate(-61.715 -244.452)" fill="#f7a57a"/>
      <path id="Trazado_20558" data-name="Trazado 20558" d="M82.266,248.2c-.272-.436-.536-.88-.8-1.323l0,0,4.517-.5s-.288,1.093-3.135,1.59A1.638,1.638,0,0,0,82.266,248.2Z" transform="translate(-62.71 -244.452)" fill="#f18c72"/>
      <path id="Trazado_20559" data-name="Trazado 20559" d="M81.944,252.6l-.285,3.277-3.168-1,.816-2.611Z" transform="translate(-62.306 -245.252)" fill="#f18c72"/>
      <path id="Trazado_20560" data-name="Trazado 20560" d="M82.2,246.085s2.426,3.652,1.757,5.787c-.753,1.071-3.848-.418-3.848-.418V246.5Z" transform="translate(-62.526 -244.412)" fill="#f7a57a"/>
      <path id="Trazado_20561" data-name="Trazado 20561" d="M82.141,246.009a2.97,2.97,0,0,0-1.382.645c-.585.527-.084,2.644-.084,2.644l.026.747a1.638,1.638,0,0,1-1.636,1.694H79s-4.015-4-2.342-5.837A3.767,3.767,0,0,1,82.141,246.009Z" transform="translate(-62.002 -244.229)" fill="#122043"/>
      <path id="Trazado_20562" data-name="Trazado 20562" d="M81.965,249.8a.671.671,0,0,0-.465-.693c-.315-.124-.617-.015-.676.244a.67.67,0,0,0,.465.693C81.6,250.169,81.907,250.06,81.965,249.8Z" transform="translate(-62.622 -244.816)" fill="#f7a57a"/>
      <path id="Trazado_20563" data-name="Trazado 20563" d="M83.238,245.152c0,.555-.613,1-1.369,1s-3.378-.449-3.378-1,2.621-1,3.378-1S83.238,244.6,83.238,245.152Z" transform="translate(-62.306 -244.149)" fill="#122043"/>
      <path id="Trazado_20564" data-name="Trazado 20564" d="M74.884,273.371s-3.213-20.091,4.935-18.454c7.955,1.6,4.433,19.208,4.433,19.208Z" transform="translate(-61.73 -245.6)" fill="#005558"/>
      <path id="Trazado_20565" data-name="Trazado 20565" d="M79.112,256.894s-5.218,6.43-4.426,8.227,7.549,9.053,7.933,9.459c.591.844-.414,4.093,1.594,2.894s.38-3.473-.078-3.994l-5.042-8.273,3-4.043Z" transform="translate(-61.777 -245.882)" fill="#f7a57a"/>
      <path id="Trazado_20566" data-name="Trazado 20566" d="M77.916,258.8l3.443,3.9,1.395-1.419a3.455,3.455,0,0,0,.876-3.481,2.863,2.863,0,0,0-.7-1.151l-.041-.041a2.33,2.33,0,0,0-3.415.261Z" transform="translate(-62.228 -245.758)" fill="#005558"/>
    </g>
  </g>
</svg>
