<svg xmlns="http://www.w3.org/2000/svg" xmlns:xlink="http://www.w3.org/1999/xlink" width="392.104" height="327.149" viewBox="0 0 392.104 327.149">
  <defs>
    <linearGradient id="linear-gradient" y1="0.5" x2="1" y2="0.5" gradientUnits="objectBoundingBox">
      <stop offset="0" stop-color="#eef7f6"/>
      <stop offset="1" stop-color="#b2deeb"/>
    </linearGradient>
    <linearGradient id="linear-gradient-3" x1="1.667" y1="0.5" x2="2.667" y2="0.5" xlink:href="#linear-gradient"/>
    <linearGradient id="linear-gradient-4" x1="1.827" y1="0.5" x2="2.827" y2="0.5" xlink:href="#linear-gradient"/>
    <linearGradient id="linear-gradient-5" x1="-18.543" y1="0.5" x2="-17.543" y2="0.5" gradientUnits="objectBoundingBox">
      <stop offset="0" stop-color="#daece5"/>
      <stop offset="1" stop-color="#b2deeb"/>
    </linearGradient>
    <linearGradient id="linear-gradient-6" x1="-16.545" y1="0.5" x2="-15.545" y2="0.5" xlink:href="#linear-gradient-5"/>
    <linearGradient id="linear-gradient-7" x1="-17.231" y1="0.5" x2="-16.231" y2="0.5" gradientUnits="objectBoundingBox">
      <stop offset="0" stop-color="#b2deeb"/>
      <stop offset="1" stop-color="#daece5"/>
    </linearGradient>
  </defs>
  <g id="Grupo_11107" data-name="Grupo 11107" transform="translate(-43.961 -49.297)">
    <g id="Grupo_11038" data-name="Grupo 11038" transform="translate(63.723 79.672)">
      <g id="Grupo_11034" data-name="Grupo 11034" transform="translate(60.454)">
        <path id="Trazado_20910" data-name="Trazado 20910" d="M219.295,205.023S243.652,124.9,195.926,86.335C104.453,139.05,156.541,228.87,156.541,228.87Z" transform="translate(-141.773 -86.335)" fill="#ffc630"/>
        <path id="Trazado_20911" data-name="Trazado 20911" d="M196.752,86.335c-.319.184-.629.369-.944.554l-4.2,98.587L146.973,143.1q-.316.979-.607,1.958L191.5,187.911l-1.213,28.449,1.869-.71,2.419-56.712h0l30.482-18.533c-.093-.658-.189-1.315-.293-1.975l-30.1,18.3,2.97-69.649c-.3-.248-.584-.5-.887-.745Z" transform="translate(-142.599 -86.335)" fill="#fff"/>
      </g>
      <g id="Grupo_11035" data-name="Grupo 11035" transform="translate(11.462 16.398)">
        <path id="Trazado_20912" data-name="Trazado 20912" d="M186.478,190.674s-30.973-77.559-89.345-84.344C55.734,163.606,112.6,219.486,112.6,219.486l67.755,27.259Z" transform="translate(-82.035 -106.33)" fill="#53b6b9"/>
        <path id="Trazado_20913" data-name="Trazado 20913" d="M153.932,138.8l-16.306,33.251L98.789,106.517c-.459-.062-.914-.134-1.377-.187-.163.226-.312.45-.471.676l20.8,35.1-33.805-6.393c-.07.319-.128.637-.193.956l-.16.847,35.407,6.7L153.655,202.7l-59.69-9.327c.372.688.745,1.37,1.122,2.036l59.783,9.341,24.615,41.533,1.145.461.2-1.8-42.079-71,16.508-33.664Q154.6,139.533,153.932,138.8Z" transform="translate(-82.313 -106.33)" fill="#0f787a"/>
      </g>
      <g id="Grupo_11037" data-name="Grupo 11037" transform="translate(0 115.312)">
        <path id="Trazado_20914" data-name="Trazado 20914" d="M164.527,247.286s-58.561-37.812-96.469-10.339c6.921,95.348,128.693,93.277,128.693,93.277Z" transform="translate(-68.058 -226.941)" fill="#0f787a"/>
        <g id="Grupo_11036" data-name="Grupo 11036" transform="translate(0 0.314)">
          <path id="Trazado_20915" data-name="Trazado 20915" d="M68.058,237.018c.027.367.061.729.09,1.093l83.016,44.953-47.323,20.029q.867.64,1.747,1.258l47.646-20.166,32.424,17.558-1.03-2.65L121.5,264.908l-11.334-37.389q-.989-.108-1.981-.2l11.016,36.34L68.906,236.429c-.282.2-.567.384-.846.586Z" transform="translate(-68.058 -227.324)" fill="#005558"/>
        </g>
      </g>
    </g>
    <g id="Grupo_11043" data-name="Grupo 11043" transform="translate(287.655 49.297)">
      <g id="Grupo_11039" data-name="Grupo 11039" transform="translate(10.925)">
        <path id="Trazado_20916" data-name="Trazado 20916" d="M354.782,160.731S347.268,77.321,401.851,49.3c78.808,70.252,9.507,147.571,9.507,147.571Z" transform="translate(-354.432 -49.297)" fill="#53b6b9"/>
        <path id="Trazado_20917" data-name="Trazado 20917" d="M403.757,49.3c.275.244.54.49.811.734l-15.977,97.375,52.33-32.387q.111,1.023.2,2.04L388.2,149.811l-4.61,28.1-1.685-1.076,9.191-56.014h0L365.026,96.464c.226-.625.453-1.249.689-1.873l25.735,24.048,11.287-68.792c.341-.182.674-.372,1.02-.549Z" transform="translate(-356.338 -49.297)" fill="#0f787a"/>
      </g>
      <g id="Grupo_11040" data-name="Grupo 11040" transform="translate(31.108 33.716)">
        <path id="Trazado_20918" data-name="Trazado 20918" d="M384.474,155.055S430.6,85.437,489.134,90.692c28.856,64.512-38.2,107.629-38.2,107.629L379.043,211.2Z" transform="translate(-379.043 -90.409)" fill="#ffc630"/>
        <path id="Trazado_20919" data-name="Trazado 20919" d="M427.183,111l9.186,35.877,51.379-56.24c.462.033.923.056,1.386.1.114.254.212.5.323.758L461.94,121.612l34.4.631c0,.327,0,.65-.006.975l-.016.863-36.029-.662-45.858,50.2,60.337,3.034c-.5.6-1.009,1.189-1.513,1.765l-60.432-3.039-32.565,35.645-1.215.217.175-1.807L434.885,148.5l-9.3-36.323Q426.378,111.583,427.183,111Z" transform="translate(-379.043 -90.449)" fill="#fff"/>
      </g>
      <g id="Grupo_11042" data-name="Grupo 11042" transform="translate(0 127.726)">
        <path id="Trazado_20920" data-name="Trazado 20920" d="M389.563,213.821s65.039-25.082,96.551,9.54c-26.209,91.936-145,65.089-145,65.089Z" transform="translate(-341.111 -205.041)" fill="#0f787a"/>
        <g id="Grupo_11041" data-name="Grupo 11041" transform="translate(16.678 0.44)">
          <path id="Trazado_20921" data-name="Trazado 20921" d="M489.772,223.459c-.1.354-.207.7-.312,1.052L399.026,251.6l42.248,29.253q-.98.45-1.967.875l-42.536-29.453-35.323,10.581L363,260.472l68.771-20.6,18.717-34.294q.99.095,1.979.212l-18.191,33.331,54.789-16.412c.236.249.477.491.709.746Z" transform="translate(-361.448 -205.578)" fill="#005558"/>
        </g>
      </g>
    </g>
    <g id="Grupo_11046" data-name="Grupo 11046" transform="translate(220.215 67.118)">
      <g id="Grupo_11044" data-name="Grupo 11044" transform="translate(87.371)">
        <path id="Trazado_20922" data-name="Trazado 20922" d="M409.2,83.118l-18.486-10.2-9.437-1.888-7.131,1.049Z" transform="translate(-366.984 -71.028)" fill="url(#linear-gradient)"/>
        <path id="Trazado_20923" data-name="Trazado 20923" d="M409.2,83.348l-34.615-8.9-.439-2.143" transform="translate(-366.984 -71.258)" fill="#a4d1bb"/>
        <path id="Trazado_20924" data-name="Trazado 20924" d="M373.474,82.162l.044.072,1.453,5.374,34.018-2.485Z" transform="translate(-366.864 -73.031)" fill="#005558"/>
        <path id="Trazado_20925" data-name="Trazado 20925" d="M365.414,77.442l4.939-4.008L407.4,83.493l-31.893-.948Z" transform="translate(-365.414 -71.461)" fill="url(#linear-gradient)"/>
      </g>
      <g id="Grupo_11045" data-name="Grupo 11045" transform="translate(0 1.71)">
        <path id="Trazado_20926" data-name="Trazado 20926" d="M270.121,161.618a25.78,25.78,0,0,0,3.33-1.445.5.5,0,1,1,.463.893,26.861,26.861,0,0,1-3.46,1.5q-.638.225-1.283.417a.5.5,0,1,1-.289-.962Q269.5,161.835,270.121,161.618Z" transform="translate(-260.613 -88.765)" fill="#53b6b9"/>
        <path id="Trazado_20927" data-name="Trazado 20927" d="M352.956,73.751c1.57.2,3.2.459,5,.791a.5.5,0,0,1-.183.989c-1.773-.327-3.389-.583-4.939-.782a.5.5,0,1,1,.127-1Z" transform="translate(-275.7 -73.227)" fill="#53b6b9"/>
        <path id="Trazado_20928" data-name="Trazado 20928" d="M342.808,74.022a.5.5,0,0,1,.3-.907c1.613-.014,3.319.053,5.07.2a.5.5,0,0,1-.084,1c-1.72-.144-3.394-.21-4.977-.2A.5.5,0,0,1,342.808,74.022Z" transform="translate(-273.94 -73.113)" fill="#53b6b9"/>
        <path id="Trazado_20929" data-name="Trazado 20929" d="M281.416,154.523a.5.5,0,0,1,.71.009.5.5,0,0,1-.009.711,28.061,28.061,0,0,1-3.969,3.224.5.5,0,0,1-.579-.014.473.473,0,0,1-.118-.124.5.5,0,0,1,.138-.7A27.176,27.176,0,0,0,281.416,154.523Z" transform="translate(-262.203 -87.732)" fill="#53b6b9"/>
        <path id="Trazado_20930" data-name="Trazado 20930" d="M284.792,151.651a.5.5,0,0,1-.07-.708q.427-.52.827-1.061a26.081,26.081,0,0,0,1.932-3.021.5.5,0,0,1,.681-.2.508.508,0,0,1,.2.682,26.953,26.953,0,0,1-2.007,3.139q-.415.56-.858,1.1a.5.5,0,0,1-.688.085Z" transform="translate(-263.506 -86.333)" fill="#53b6b9"/>
        <path id="Trazado_20931" data-name="Trazado 20931" d="M289.926,143.2a.535.535,0,0,1-.108-.061.5.5,0,0,1-.165-.6,34.346,34.346,0,0,0,1.529-4.707.5.5,0,1,1,.975.245,35,35,0,0,1-1.575,4.844A.5.5,0,0,1,289.926,143.2Z" transform="translate(-264.407 -84.687)" fill="#53b6b9"/>
        <path id="Trazado_20932" data-name="Trazado 20932" d="M305.413,91.95q-.627.768-1.218,1.563c-.593.8-1.159,1.63-1.683,2.464a.5.5,0,0,1-.693.159l-.033-.022a.5.5,0,0,1-.125-.671c.536-.856,1.117-1.707,1.725-2.528q.6-.816,1.25-1.6a.478.478,0,0,1,.708-.07A.5.5,0,0,1,305.413,91.95Z" transform="translate(-266.56 -76.352)" fill="#53b6b9"/>
        <path id="Trazado_20933" data-name="Trazado 20933" d="M300.258,100.03a36.811,36.811,0,0,0-1.994,4.538.5.5,0,0,1-.643.3.516.516,0,0,1-.13-.069.5.5,0,0,1-.173-.574,37.507,37.507,0,0,1,2.048-4.664.5.5,0,1,1,.891.467Z" transform="translate(-265.787 -77.823)" fill="#53b6b9"/>
        <path id="Trazado_20934" data-name="Trazado 20934" d="M312.112,85.1a40.914,40.914,0,0,0-3.641,3.376.5.5,0,0,1-.663.058c-.017-.013-.033-.026-.049-.041a.5.5,0,0,1-.016-.711,42.221,42.221,0,0,1,3.73-3.46.5.5,0,1,1,.639.777Z" transform="translate(-267.643 -75.109)" fill="#53b6b9"/>
        <path id="Trazado_20935" data-name="Trazado 20935" d="M324.252,77.726a.5.5,0,1,1-.408-.919,39.708,39.708,0,0,1,4.777-1.758.5.5,0,1,1,.286.964A38.773,38.773,0,0,0,324.252,77.726Z" transform="translate(-270.511 -73.457)" fill="#53b6b9"/>
        <path id="Trazado_20936" data-name="Trazado 20936" d="M294.094,124.047a.513.513,0,0,1-.242-.1.5.5,0,0,1-.2-.461l.071-.633c.166-1.458.333-2.917.526-4.37a.5.5,0,1,1,1,.132c-.192,1.447-.358,2.9-.523,4.352l-.072.632A.5.5,0,0,1,294.094,124.047Z" transform="translate(-265.133 -81.197)" fill="#53b6b9"/>
        <path id="Trazado_20937" data-name="Trazado 20937" d="M315.818,82.314a.5.5,0,1,1-.58-.822,41.95,41.95,0,0,1,4.329-2.674.5.5,0,0,1,.475.887A40.512,40.512,0,0,0,315.818,82.314Z" transform="translate(-268.978 -74.129)" fill="#53b6b9"/>
        <path id="Trazado_20938" data-name="Trazado 20938" d="M293.614,127.8a.5.5,0,0,1,.435.563c-.247,1.958-.49,3.548-.762,5a.5.5,0,0,1-.99-.186c.27-1.434.51-3,.754-4.943A.5.5,0,0,1,293.614,127.8Z" transform="translate(-264.888 -82.95)" fill="#53b6b9"/>
        <path id="Trazado_20939" data-name="Trazado 20939" d="M264.267,163.3a.5.5,0,1,1,.194.987,40.5,40.5,0,0,1-5.044.652.5.5,0,0,1-.335-.1.5.5,0,0,1,.264-.906A39.818,39.818,0,0,0,264.267,163.3Z" transform="translate(-258.877 -89.336)" fill="#53b6b9"/>
        <path id="Trazado_20940" data-name="Trazado 20940" d="M296.6,108.433a.5.5,0,0,1,.355.617c-.4,1.479-.736,3.071-1.037,4.868a.5.5,0,1,1-.991-.166c.306-1.83.652-3.453,1.058-4.963A.5.5,0,0,1,296.6,108.433Z" transform="translate(-265.361 -79.464)" fill="#53b6b9"/>
        <path id="Trazado_20941" data-name="Trazado 20941" d="M336.54,73.441q.881-.1,1.763-.171a.5.5,0,0,1,.076,1c-.575.043-1.147.1-1.721.166-1.063.126-2.136.3-3.19.527a.5.5,0,1,1-.207-.983C334.344,73.752,335.448,73.571,336.54,73.441Z" transform="translate(-272.187 -73.141)" fill="#53b6b9"/>
      </g>
    </g>
    <g id="Grupo_11049" data-name="Grupo 11049" transform="translate(103.118 102.897)">
      <path id="Trazado_20942" data-name="Trazado 20942" d="M179.28,284.39s-13.454,70.134,29.853,126.443a18.851,18.851,0,0,0,12.188,6.772c10.045,1.356,17.1-2.181,22.541-3.731,8-2.281,11.814-6.372,13.641-9.776,1.56-2.907,1.111-6.377-.95-9.451-8.782-13.083-35.917-58.058-23.563-97.861C209.878,278.124,179.28,284.39,179.28,284.39Z" transform="translate(-127.106 -145.008)" fill="#122043"/>
      <path id="Trazado_20943" data-name="Trazado 20943" d="M256.434,411.786c4.967-2.489,5.939-4.167,7.636-7.33,1.56-2.907,1.111-6.377-.95-9.451-8.782-13.083-35.917-58.057-23.563-97.861a59.784,59.784,0,0,0-25.609-11.785C212.558,329.075,221.929,358.3,256.434,411.786Z" transform="translate(-133.675 -145.364)" fill="#002f4c"/>
      <g id="Grupo_11048" data-name="Grupo 11048" transform="translate(89.932 176.816)">
        <g id="Grupo_11047" data-name="Grupo 11047" transform="translate(0 0.06)">
          <path id="Trazado_20944" data-name="Trazado 20944" d="M226.673,350.8c2.064,10.039,6.932,17.518,10.878,16.709s5.473-9.606,3.414-19.645-6.935-17.519-10.882-16.708S224.61,340.764,226.673,350.8Z" transform="translate(-225.754 -330.469)" fill="#f4872e"/>
          <path id="Trazado_20945" data-name="Trazado 20945" d="M230.075,331.315l4.151-.984-.306,2.088-2.764,1.088Z" transform="translate(-226.531 -330.331)" fill="#f4872e"/>
          <path id="Trazado_20946" data-name="Trazado 20946" d="M238.84,375.132l5.027-.971-5.718-.838Z" transform="translate(-227.984 -338.065)" fill="#f4872e"/>
        </g>
        <path id="Trazado_20947" data-name="Trazado 20947" d="M230.775,349.96c2.063,10.039,6.933,17.52,10.879,16.71s5.474-9.606,3.412-19.645-6.932-17.519-10.879-16.708S228.713,339.922,230.775,349.96Z" transform="translate(-226.492 -330.258)" fill="#ffc630"/>
      </g>
      <path id="Trazado_20948" data-name="Trazado 20948" d="M150.674,212.542h-7.728c-14.768,0-26.851,11.508-26.851,25.577v20.312c0,14.068,12.083,25.577,26.851,25.577h7.728Z" transform="translate(-116.095 -132.265)" fill="#ffc630"/>
      <path id="Trazado_20949" data-name="Trazado 20949" d="M433.731,215.051c0,55.446-12.747,100.4-28.47,100.4S376.79,270.5,376.79,215.051s12.745-100.4,28.471-100.4S433.731,159.6,433.731,215.051Z" transform="translate(-162.993 -114.655)" fill="#122043"/>
      <path id="Trazado_20950" data-name="Trazado 20950" d="M373.351,191.962l22.5,14.639v32.481l-23.2,21.045-8.019-42.236Z" transform="translate(-160.807 -128.562)" fill="#0f787a"/>
      <path id="Trazado_20951" data-name="Trazado 20951" d="M336.49,215.785c0-46.595,9.014-85.664,21.219-96.986-.02-.019-.037-.046-.055-.066-94.3,68.055-204.88,77.648-204.88,77.648v70.868s149.526-8.406,204.88,45.587c.028-.012.053-.03.084-.042C345.519,301.5,336.49,262.415,336.49,215.785Z" transform="translate(-122.693 -115.389)" fill="#f99200"/>
      <path id="Trazado_20952" data-name="Trazado 20952" d="M336.514,233.829q-23.081,7.318-46.594,13.049c-45.065,11.021-90.953,17.389-137.146,21.073v20s149.526-8.406,204.88,45.587c.028-.012.053-.031.084-.042-12.22-11.29-21.248-50.379-21.248-97.009C336.49,235.6,336.507,234.718,336.514,233.829Z" transform="translate(-122.693 -136.094)" fill="#f27d00"/>
      <path id="Trazado_20953" data-name="Trazado 20953" d="M405.1,225.951c0,9.007-1.376,16.311-3.072,16.311s-3.077-7.3-3.077-16.311,1.379-16.31,3.077-16.31S405.1,216.944,405.1,225.951Z" transform="translate(-166.979 -131.743)" fill="#ffc630"/>
    </g>
    <g id="Grupo_11053" data-name="Grupo 11053" transform="translate(380.474 131.996)">
      <g id="Grupo_11050" data-name="Grupo 11050" transform="translate(0 0)">
        <path id="Trazado_20954" data-name="Trazado 20954" d="M454.865,172a1.933,1.933,0,0,0,2.734-.015l18.358-18.558a1.934,1.934,0,0,0-2.75-2.719L454.85,169.268A1.933,1.933,0,0,0,454.865,172Z" transform="translate(-454.291 -150.136)" fill="#f99200"/>
      </g>
      <g id="Grupo_11051" data-name="Grupo 11051" transform="translate(0.457 102.769)">
        <path id="Trazado_20955" data-name="Trazado 20955" d="M455.407,276.023a1.932,1.932,0,0,1,2.735-.015L476.7,294.365a1.933,1.933,0,0,1-2.719,2.749l-18.557-18.357A1.932,1.932,0,0,1,455.407,276.023Z" transform="translate(-454.848 -275.448)" fill="#f99200"/>
      </g>
      <g id="Grupo_11052" data-name="Grupo 11052" transform="translate(7.6 66.324)">
        <path id="Trazado_20956" data-name="Trazado 20956" d="M463.559,233.095a1.933,1.933,0,0,0,1.944,1.923l26.1-.142a1.933,1.933,0,0,0-.021-3.867l-26.1.142A1.932,1.932,0,0,0,463.559,233.095Z" transform="translate(-463.559 -231.009)" fill="#ffc630"/>
      </g>
    </g>
    <g id="Grupo_11066" data-name="Grupo 11066" transform="translate(107.341 215.423)">
      <g id="Grupo_11065" data-name="Grupo 11065" transform="translate(0)">
        <g id="Grupo_11054" data-name="Grupo 11054">
          <path id="Trazado_20957" data-name="Trazado 20957" d="M124.459,411.319l56.459-159.454H177.7L121.244,411.319Z" transform="translate(-121.244 -251.865)" fill="#005558"/>
        </g>
        <g id="Grupo_11055" data-name="Grupo 11055" transform="translate(29.193)">
          <path id="Trazado_20958" data-name="Trazado 20958" d="M160.056,411.319l56.459-159.454H213.3L156.841,411.319Z" transform="translate(-156.841 -251.865)" fill="#005558"/>
        </g>
        <g id="Grupo_11056" data-name="Grupo 11056" transform="translate(41.832 41.393)">
          <path id="Trazado_20959" data-name="Trazado 20959" d="M172.252,302.353v2.377l30.25-.015.517-2.377Z" transform="translate(-172.252 -302.338)" fill="#005558"/>
        </g>
        <g id="Grupo_11057" data-name="Grupo 11057" transform="translate(48.086 25.943)">
          <path id="Trazado_20960" data-name="Trazado 20960" d="M179.878,283.514v2.377l30.25-.015.517-2.377Z" transform="translate(-179.878 -283.498)" fill="#005558"/>
        </g>
        <g id="Grupo_11058" data-name="Grupo 11058" transform="translate(53.257 10.493)">
          <path id="Trazado_20961" data-name="Trazado 20961" d="M186.183,264.674v2.377l30.25-.015.517-2.377Z" transform="translate(-186.183 -264.659)" fill="#005558"/>
        </g>
        <g id="Grupo_11059" data-name="Grupo 11059" transform="translate(36.322 57.042)">
          <path id="Trazado_20962" data-name="Trazado 20962" d="M165.534,321.435v2.377l30.25-.015.517-2.377Z" transform="translate(-165.534 -321.419)" fill="#005558"/>
        </g>
        <g id="Grupo_11060" data-name="Grupo 11060" transform="translate(31.151 72.69)">
          <path id="Trazado_20963" data-name="Trazado 20963" d="M159.229,340.516v2.377l30.25-.015L190,340.5Z" transform="translate(-159.229 -340.5)" fill="#005558"/>
        </g>
        <g id="Grupo_11061" data-name="Grupo 11061" transform="translate(24.58 88.949)">
          <path id="Trazado_20964" data-name="Trazado 20964" d="M152.438,360.34l-1.222,2.378,30.25-.015.517-2.377Z" transform="translate(-151.216 -360.325)" fill="#005558"/>
        </g>
        <g id="Grupo_11062" data-name="Grupo 11062" transform="translate(18.908 105.207)">
          <path id="Trazado_20965" data-name="Trazado 20965" d="M145.522,380.164l-1.222,2.378,30.25-.015.517-2.378Z" transform="translate(-144.3 -380.15)" fill="#005558"/>
        </g>
        <g id="Grupo_11063" data-name="Grupo 11063" transform="translate(13.597 121.103)">
          <path id="Trazado_20966" data-name="Trazado 20966" d="M139.046,399.547l-1.222,2.378,30.25-.015.517-2.377Z" transform="translate(-137.824 -399.533)" fill="#005558"/>
        </g>
        <g id="Grupo_11064" data-name="Grupo 11064" transform="translate(9.196 137.346)">
          <path id="Trazado_20967" data-name="Trazado 20967" d="M133.68,419.353l-1.223,2.378,30.25-.015.517-2.377Z" transform="translate(-132.458 -419.338)" fill="#005558"/>
        </g>
      </g>
    </g>
    <g id="Grupo_11070" data-name="Grupo 11070" transform="translate(201.018 249.777)">
      <path id="Trazado_20968" data-name="Trazado 20968" d="M285.841,319.787s8.285,15.952,7.7,19.461-7.7,9.6-7.7,9.6l-1.151-1.988,3.614-8.172-4.655-13.411Z" transform="translate(-244.137 -298.437)" fill="#f7a57a"/>
      <path id="Trazado_20969" data-name="Trazado 20969" d="M275.495,310.9l.672,4.567h4.06l.414-7.015Z" transform="translate(-242.67 -296.399)" fill="#f18c72"/>
      <path id="Trazado_20970" data-name="Trazado 20970" d="M266.436,332.464V319.591c5.21-3.69,8.891-3.3,8.891-3.3a17.045,17.045,0,0,1,2.323-.094c.033,0,8.723-.645,7.12,13.118-3.468,11.7-1.8,16.863-1.8,16.863s-9.078,3.7-14.148,1.09c1.274-2.923-1.074-10.963-2.35-14.864Z" transform="translate(-241.041 -297.791)" fill="#0f787a"/>
      <path id="Trazado_20971" data-name="Trazado 20971" d="M281.582,314.35s3.449,2.024,3.449,5.227a7.674,7.674,0,0,1-1.673,4.548,6.571,6.571,0,0,0,.17,7.479l.073.1a2.833,2.833,0,0,1,.572,2.405c-.636,3.038-4.818,3.494-6.435.844a15.867,15.867,0,0,1-1.59-3.478,4.1,4.1,0,0,1,.857-4.5,1.843,1.843,0,0,0,.1-2.613c-1.3-1.335-2.592-3.348-.962-5.122a15.791,15.791,0,0,0,3.509-5.756Z" transform="translate(-242.65 -297.302)" fill="#122043"/>
      <path id="Trazado_20972" data-name="Trazado 20972" d="M289.313,430.182l-2.432.422c-.5-3.016-8.067-17.317-8.681-24.745a167.883,167.883,0,0,0-2.6-17.426l8.135-2.419s2.06,0-.2,16.806C288.62,409.5,289.984,424.648,289.313,430.182Z" transform="translate(-242.689 -310.351)" fill="#f18c72"/>
      <g id="Grupo_11068" data-name="Grupo 11068" transform="translate(28.24)">
        <g id="Grupo_11067" data-name="Grupo 11067" transform="translate(0.782 3.374)">
          <path id="Trazado_20973" data-name="Trazado 20973" d="M270.925,298.223l7.5-.355,1.335,5.17c.019.073.027.147.042.221-.117.074-.234.148-.348.23-.018.013-.035.028-.053.042s-.037.023-.055.036a4.856,4.856,0,0,0-1.83,4.319,8.363,8.363,0,0,1-2.86,1.114,3.082,3.082,0,0,1-1.755-.041C270.3,306.492,270.925,298.223,270.925,298.223Z" transform="translate(-270.859 -297.868)" fill="#f7a57a"/>
        </g>
        <path id="Trazado_20974" data-name="Trazado 20974" d="M280.62,309.706c-1.949.223,1.147,0-1.949.223-.088-1.643-5.377-5.92-6.384-6.787a6.34,6.34,0,0,1-2.378-4.885s5.109-5.508,8.418-4.34a6.144,6.144,0,0,1,3.906,4.364C282.6,299.51,283.359,301.606,280.62,309.706Z" transform="translate(-269.905 -293.754)" fill="#122043"/>
      </g>
      <path id="Trazado_20975" data-name="Trazado 20975" d="M282.082,378.562s-1.911,11.5-4.569,23.791c2.776,7.424-1.454,28.142-1.532,28.069-.319-.3-1.78,1.5-1.78,1.5s-3.085-18.285-3.768-26.53-1.725-18.3-1.725-18.3Z" transform="translate(-241.449 -309.011)" fill="#f7a57a"/>
      <path id="Trazado_20976" data-name="Trazado 20976" d="M275.8,440.386a2.712,2.712,0,0,1,.946,2.233c-.212,1.252-.513,4.183-.513,4.183h-1.191l.037-2.734c0-.179-2.554,2.734-2.986,2.734h-6.3s-.418-1.844,3.281-2.436S275.8,440.386,275.8,440.386Z" transform="translate(-240.922 -320.133)" fill="#002f4c"/>
      <rect id="Rectángulo_2307" data-name="Rectángulo 2307" width="3.486" height="1.748" rx="0.874" transform="translate(39.714 17.049) rotate(180)" fill="#ffd159"/>
      <path id="Trazado_20977" data-name="Trazado 20977" d="M269.323,350.658s-2.064,11.607-2.064,17.384c0,3.174,1.466,16.645,1.466,16.645s12.071.351,14.522.351c.313-9.55,3.873-15.844,3.873-23.485,0-5.389-4.749-10.092-4.749-10.092Z" transform="translate(-241.189 -303.991)" fill="#002f4c"/>
      <path id="Trazado_20978" data-name="Trazado 20978" d="M287.135,401.224" transform="translate(-244.764 -313.087)" fill="#ffc630"/>
      <path id="Trazado_20979" data-name="Trazado 20979" d="M240.591,331.74l.543.158a3.365,3.365,0,0,1,2.284,2.264l.129.429a56.784,56.784,0,0,0,10.073,2.322c5.414-15.414,7.246-16.578,7.246-16.578a5.442,5.442,0,0,1,3.493,5.332c0,3.54-2.364,13.567-6.863,16.708a4.241,4.241,0,0,1-4.238.289c-7.23-3.434-12.33-6.369-12.33-6.369l-5.457-3.014,2.411-1.268A3.64,3.64,0,0,1,240.591,331.74Z" transform="translate(-235.47 -298.536)" fill="#f7a57a"/>
      <g id="Grupo_11069" data-name="Grupo 11069" transform="translate(37.454 117.18)">
        <path id="Trazado_20980" data-name="Trazado 20980" d="M288.543,437.628l.168,2.609a2.435,2.435,0,0,1-.43,1.543,9.789,9.789,0,0,1-1.894,1.969c1.826.587,3.488-1.461,4.359-2.822a3.246,3.246,0,0,0,.472-2.236l-.307-2.053Z" transform="translate(-282.084 -436.638)" fill="#f18c72"/>
        <path id="Trazado_20981" data-name="Trazado 20981" d="M290.309,439.594s1.607.144,1.874,1.366,1.026,3.695,1.026,3.695l-.877.7L291.1,442.9a36.418,36.418,0,0,1-3.08,3.758H281.14s0-2.276,4.3-2.379C289.409,444.186,290.309,439.594,290.309,439.594Z" transform="translate(-281.14 -437.17)" fill="#122043"/>
      </g>
    </g>
    <g id="Grupo_11077" data-name="Grupo 11077" transform="translate(43.961 168.683)">
      <g id="Grupo_11071" data-name="Grupo 11071" transform="translate(3.452)">
        <path id="Trazado_20982" data-name="Trazado 20982" d="M51.352,201.764l-3.182,6.259,6.683-1.525,22.863-7.2Z" transform="translate(-48.17 -195.667)" fill="#a4d1bb"/>
        <path id="Trazado_20983" data-name="Trazado 20983" d="M48.17,209.473l11.354-.706-2.782-1.415Z" transform="translate(-48.17 -197.116)" fill="#53b6b9"/>
        <path id="Trazado_20984" data-name="Trazado 20984" d="M51.615,200.969l-1.987-6.1L77.978,198.5Z" transform="translate(-48.432 -194.871)" fill="url(#linear-gradient-3)"/>
        <path id="Trazado_20985" data-name="Trazado 20985" d="M79.182,199.294l-22.863,7.2,3.408,8.789Z" transform="translate(-49.636 -195.667)" fill="url(#linear-gradient-4)"/>
      </g>
      <g id="Grupo_11076" data-name="Grupo 11076" transform="translate(0 16.082)">
        <g id="Grupo_11072" data-name="Grupo 11072" transform="translate(5.666)">
          <path id="Trazado_20986" data-name="Trazado 20986" d="M51.162,217.054a.544.544,0,0,1-.161-.125.535.535,0,0,1,.052-.754,15,15,0,0,1,2.247-1.619.534.534,0,0,1,.54.921,13.943,13.943,0,0,0-2.086,1.5A.534.534,0,0,1,51.162,217.054Z" transform="translate(-50.87 -214.481)" fill="#53b6b9"/>
        </g>
        <g id="Grupo_11074" data-name="Grupo 11074" transform="translate(0 3.93)">
          <g id="Grupo_11073" data-name="Grupo 11073">
            <path id="Trazado_20987" data-name="Trazado 20987" d="M57.527,276.487l-.03-.016a16.07,16.07,0,0,1-4.2-3.635.534.534,0,0,1,.823-.681,15.04,15.04,0,0,0,3.918,3.4.534.534,0,0,1-.513.937Zm-5.891-6.181a.53.53,0,0,1-.221-.212,20.142,20.142,0,0,1-2.046-5.132.534.534,0,0,1,1.037-.257,19.1,19.1,0,0,0,1.937,4.862.535.535,0,0,1-.707.74Zm-2.493-8.19a.533.533,0,0,1-.291-.438l-.016-.258a25.8,25.8,0,0,1,.274-5.238.534.534,0,1,1,1.055.16,24.62,24.62,0,0,0-.262,5.02l.016.24a.534.534,0,0,1-.775.514Zm.915-8.543a.534.534,0,0,1-.274-.613,39.851,39.851,0,0,1,1.781-5.167.534.534,0,1,1,.985.413,38.833,38.833,0,0,0-1.734,5.029.534.534,0,0,1-.653.379A.6.6,0,0,1,50.059,253.573Zm3.1-8.043a.533.533,0,0,1-.237-.711c.057-.117.115-.235.174-.351a17.43,17.43,0,0,1-2.332-1.3.534.534,0,1,1,.594-.888,16.216,16.216,0,0,0,2.224,1.241c.572-1.1,1.2-2.245,1.92-3.476a.534.534,0,0,1,.923.536c-.691,1.189-1.3,2.293-1.856,3.355q.748.288,1.524.5a.534.534,0,1,1-.286,1.029,17.748,17.748,0,0,1-1.726-.576c-.068.134-.134.268-.2.4a.533.533,0,0,1-.714.244Zm-4.827-4.4a.533.533,0,0,1-.14-.1,14.49,14.49,0,0,1-3.057-4.65.534.534,0,0,1,.988-.406,13.389,13.389,0,0,0,2.833,4.311.534.534,0,0,1-.625.849ZM58.891,246a.534.534,0,0,1,.287-1.009,15.6,15.6,0,0,0,5.178-.4.534.534,0,1,1,.262,1.036,16.683,16.683,0,0,1-5.531.431A.521.521,0,0,1,58.891,246ZM44.5,233.549a.531.531,0,0,1-.285-.384,17.27,17.27,0,0,1-.052-5.543.534.534,0,1,1,1.056.157,16.183,16.183,0,0,0,.048,5.2.534.534,0,0,1-.768.568Zm22.771,10.9a.534.534,0,0,1,0-.951,13,13,0,0,0,1.159-.671,10.336,10.336,0,0,0,2.733-2.612.534.534,0,1,1,.867.623,11.419,11.419,0,0,1-3.018,2.884,14.189,14.189,0,0,1-1.255.726A.533.533,0,0,1,67.268,244.445Zm-9.867-6.43-.048-.027a.535.535,0,0,1-.16-.738,20.868,20.868,0,0,1,3.482-4.285.534.534,0,1,1,.715.794,19.8,19.8,0,0,0-3.3,4.069A.534.534,0,0,1,57.4,238.016Zm-12.188-12.98a.535.535,0,0,1-.263-.649,18.311,18.311,0,0,1,.987-2.332,17.42,17.42,0,0,1,1.6-2.569.534.534,0,0,1,.854.642,16.307,16.307,0,0,0-1.5,2.41,17.179,17.179,0,0,0-.928,2.194.534.534,0,0,1-.678.332A.435.435,0,0,1,45.212,225.036ZM72.742,238.1a.534.534,0,0,1-.276-.605,4.818,4.818,0,0,0-.347-3.5,4.327,4.327,0,0,0-.732-1.008.534.534,0,1,1,.765-.745,5.439,5.439,0,0,1,.912,1.256,5.928,5.928,0,0,1,.437,4.258.532.532,0,0,1-.647.389A.517.517,0,0,1,72.742,238.1Zm-9.281-6.066a.534.534,0,0,1,.019-.96,8.618,8.618,0,0,1,5.628-.53.534.534,0,1,1-.262,1.036,7.639,7.639,0,0,0-4.917.463A.535.535,0,0,1,63.461,232.031Z" transform="translate(-43.961 -219.273)" fill="#53b6b9"/>
          </g>
        </g>
        <g id="Grupo_11075" data-name="Grupo 11075" transform="translate(16.287 61.439)">
          <path id="Trazado_20988" data-name="Trazado 20988" d="M64.113,290.407a.534.534,0,0,1,.389-.99,11.48,11.48,0,0,0,2.511.423.534.534,0,0,1-.059,1.066,12.55,12.55,0,0,1-2.745-.461A.617.617,0,0,1,64.113,290.407Z" transform="translate(-63.821 -289.397)" fill="#53b6b9"/>
        </g>
      </g>
    </g>
    <g id="Grupo_11087" data-name="Grupo 11087" transform="translate(56.094 248.198)">
      <g id="Grupo_11080" data-name="Grupo 11080" transform="translate(22.693 120.924)">
        <path id="Trazado_20989" data-name="Trazado 20989" d="M87.387,443.219l9.709-.011c1.289.135,2.73.5,2.971,1.62a6.521,6.521,0,0,1,.141,1.479c-.344.4-13.218-.053-13.218-.053l-.057-.047A2.041,2.041,0,0,1,87.387,443.219Z" transform="translate(-86.426 -439.986)" fill="#002b49"/>
        <path id="Trazado_20990" data-name="Trazado 20990" d="M100.332,446.975l-13.218-.054.114.514h13.123Z" transform="translate(-86.55 -440.654)" fill="#122043"/>
        <g id="Grupo_11078" data-name="Grupo 11078" transform="translate(4.558 3.222)">
          <path id="Trazado_20991" data-name="Trazado 20991" d="M92.23,443.208l.874.006-.272,1.19h-.848Z" transform="translate(-91.985 -443.208)" fill="#fff"/>
        </g>
        <g id="Grupo_11079" data-name="Grupo 11079" transform="translate(6.433 3.222)">
          <path id="Trazado_20992" data-name="Trazado 20992" d="M94.516,443.208l.874.006-.272,1.19h-.848Z" transform="translate(-94.271 -443.208)" fill="#fff"/>
        </g>
        <path id="Trazado_20993" data-name="Trazado 20993" d="M86.786,439.279l.666,3.234h0a3.147,3.147,0,0,0,2.6.062l.148-.065.467-3.23Z" transform="translate(-86.491 -439.279)" fill="#f7a57a"/>
      </g>
      <g id="Grupo_11083" data-name="Grupo 11083" transform="translate(0 120.924)">
        <path id="Trazado_20994" data-name="Trazado 20994" d="M59.716,443.219l9.709-.011c1.289.135,2.73.5,2.971,1.62a6.492,6.492,0,0,1,.14,1.479c-.344.4-13.218-.053-13.218-.053l-.057-.047A2.041,2.041,0,0,1,59.716,443.219Z" transform="translate(-58.755 -439.986)" fill="#122043"/>
        <path id="Trazado_20995" data-name="Trazado 20995" d="M72.661,446.975l-13.218-.054.114.514H72.68Z" transform="translate(-58.879 -440.654)" fill="#122043"/>
        <g id="Grupo_11081" data-name="Grupo 11081" transform="translate(4.558 3.222)">
          <path id="Trazado_20996" data-name="Trazado 20996" d="M64.559,443.208l.874.006-.272,1.19h-.848Z" transform="translate(-64.313 -443.208)" fill="#fff"/>
        </g>
        <g id="Grupo_11082" data-name="Grupo 11082" transform="translate(6.433 3.222)">
          <path id="Trazado_20997" data-name="Trazado 20997" d="M66.845,443.208l.874.006-.272,1.19H66.6Z" transform="translate(-66.6 -443.208)" fill="#fff"/>
        </g>
        <path id="Trazado_20998" data-name="Trazado 20998" d="M60.349,439.279l-.422,3.234h0a3.147,3.147,0,0,0,2.6.062l.148-.065,1.555-3.23Z" transform="translate(-58.966 -439.279)" fill="#f7a57a"/>
      </g>
      <g id="Grupo_11084" data-name="Grupo 11084" transform="translate(7.876 12.162)">
        <path id="Trazado_20999" data-name="Trazado 20999" d="M76.355,306.659l-8,5.213,2.468,6.319c.035.089.082.172.121.259.176-.011.351-.021.529-.021.029,0,.057,0,.086,0s.056,0,.084,0a6.169,6.169,0,0,1,5.1,3.089,10.627,10.627,0,0,0,3.774-.98,3.9,3.9,0,0,0,1.778-1.347C83.152,314.711,76.355,306.659,76.355,306.659Z" transform="translate(-68.359 -306.659)" fill="#f7a57a"/>
      </g>
      <path id="Trazado_21000" data-name="Trazado 21000" d="M90.293,308.293s.978,9.281-.992,15.191c.915.795,4.276,4.4,5.332-.272s-1.186-16.553-1.186-16.553Z" transform="translate(-64.25 -294.497)" fill="#f7a57a"/>
      <g id="Grupo_11086" data-name="Grupo 11086" transform="translate(19.364 0.122)">
        <g id="Grupo_11085" data-name="Grupo 11085" transform="translate(0 13.018)">
          <path id="Trazado_21001" data-name="Trazado 21001" d="M84.248,307.851l-1.881,1.21.671,1.4,2.019-.89Z" transform="translate(-82.367 -307.851)" fill="#122043"/>
          <path id="Trazado_21002" data-name="Trazado 21002" d="M83.14,309.767c.188.43.2.839.03.914s-.464-.212-.652-.641-.2-.838-.03-.914S82.952,309.338,83.14,309.767Z" transform="translate(-82.367 -308.078)" fill="#122043"/>
        </g>
        <path id="Trazado_21003" data-name="Trazado 21003" d="M107.3,298.15c0-.018,0-.034.007-.052a18.775,18.775,0,0,0-1.819-3.265,16.487,16.487,0,0,1-1.748-2.855L84.311,304.692l1.258,2.375,21.73-8.031A6.026,6.026,0,0,1,107.3,298.15Z" transform="translate(-82.717 -291.978)" fill="#005558"/>
      </g>
      <path id="Trazado_21004" data-name="Trazado 21004" d="M75.8,324.567l-.7,4.363h6.182l.445-5.347Z" transform="translate(-61.697 -297.542)" fill="#f18c72"/>
      <path id="Trazado_21005" data-name="Trazado 21005" d="M94.91,330.94s7.3-2.325,9.589-5.452-1.584-20.238-1.584-20.238l.5-3.079a2.867,2.867,0,0,0-2.8-3.326l-1.95-.017a1.116,1.116,0,0,0-1.03,1.57l2.566,5.773s1.926,12.96-.772,13.943a30.384,30.384,0,0,1-6.857,1.423Z" transform="translate(-64.838 -293.088)" fill="#f7a57a"/>
      <path id="Trazado_21006" data-name="Trazado 21006" d="M76.666,320.968,74.788,316.8l1.219-.766a2.3,2.3,0,0,0,.952-2.685l-1.337-3.926s3.8-.466,3.69-4.01c0-1.825-2.512-1.835-2.512-1.835a3.651,3.651,0,0,1-3.081,1.825c-1-.125-3.746.243-5.6,3.476-1.247,2.175-.7,5.582.385,8.139.973,2.291,3.454,3.57,5.914,3.947Z" transform="translate(-60.311 -293.943)" fill="#122043"/>
      <path id="Trazado_21007" data-name="Trazado 21007" d="M67.728,367.451a137.445,137.445,0,0,0,2.309,18.509,16.544,16.544,0,0,1-.57,8.512C65.108,407.424,58.995,426.9,58.995,426.9h5.438s12.32-23.019,15.494-34.437,3.718-15.044,3.718-15.044l-3.777-9.969Z" transform="translate(-58.798 -305.433)" fill="#005558"/>
      <path id="Trazado_21008" data-name="Trazado 21008" d="M75.163,317.193a1.769,1.769,0,0,0,1.011,1.94c.782.415,1.6.22,1.821-.436a1.769,1.769,0,0,0-1.011-1.94C76.2,316.342,75.386,316.537,75.163,317.193Z" transform="translate(-61.697 -296.274)" fill="#f7a57a"/>
      <path id="Trazado_21009" data-name="Trazado 21009" d="M87.373,360.026H69.644V337.282a9.651,9.651,0,0,1,8.754-9.609l12.329-1.493s1.45,2.219,5.49,7.375a41.631,41.631,0,0,1-10.474,4.382Z" transform="translate(-60.714 -298.009)" fill="#53b6b9"/>
      <path id="Trazado_21010" data-name="Trazado 21010" d="M69.644,367.451s2.5,9.063,11.743,19.221a11.875,11.875,0,0,1,3.449,9.235L82.93,426.9h5.514s6.722-25.737,5.272-38.425a58.223,58.223,0,0,0-6.344-21.025Z" transform="translate(-60.714 -305.433)" fill="#0f787a"/>
      <path id="Trazado_21011" data-name="Trazado 21011" d="M108.51,296.016c.953,1.978,2.247,3.331,2.889,3.021s.39-2.164-.563-4.142-2.247-3.331-2.889-3.021S107.557,294.038,108.51,296.016Z" transform="translate(-67.541 -291.829)" fill="#fff"/>
      <path id="Trazado_21012" data-name="Trazado 21012" d="M89.576,303.427l.164.079a2.47,2.47,0,0,0,1.85.116l.109-.036a3.3,3.3,0,0,0,2.1-2.131h0a.613.613,0,0,0-.709-.785l-1.229.258a1.853,1.853,0,0,0-1.165.794Z" transform="translate(-64.3 -293.417)" fill="#f7a57a"/>
    </g>
    <g id="Grupo_11093" data-name="Grupo 11093" transform="translate(289.345 251.089)">
      <path id="Trazado_21013" data-name="Trazado 21013" d="M388.327,309.278a4.059,4.059,0,0,0-.175,2.894l.529,3.756.645.434,2.4.992a2.587,2.587,0,0,1,0-1.5l1.055-3.885s1.64-6.556-2.81-6.275c.022-5.34-1.466-4.458-1.466-4.458l-.1,4.616Z" transform="translate(-351.23 -296.401)" fill="#f7a57a"/>
      <path id="Trazado_21014" data-name="Trazado 21014" d="M374.669,325.412s3.111,11.876,5.765,12.088,5.413-18.813,5.413-18.813l3.609.436s1.4,27.359-6.694,27.857-9.163-5.553-9.163-5.553Z" transform="translate(-348.646 -299.552)" fill="#53b6b9"/>
      <path id="Trazado_21015" data-name="Trazado 21015" d="M369.845,357.881H348.668V325.718c6.05-9.233,13.591-6.718,13.591-6.718s6.856.124,7.925,6.412C370.183,329.963,369.845,357.881,369.845,357.881Z" transform="translate(-344.16 -299.552)" fill="#a4d1bc"/>
      <g id="Grupo_11088" data-name="Grupo 11088" transform="translate(15.309 15.176)">
        <path id="Trazado_21016" data-name="Trazado 21016" d="M362.153,313.859l-.314,4.547.149.142a3.944,3.944,0,0,0,5.357.075h0l.071-3.421Z" transform="translate(-361.839 -313.859)" fill="#f18c72"/>
      </g>
      <g id="Grupo_11089" data-name="Grupo 11089" transform="translate(9.125)">
        <path id="Trazado_21017" data-name="Trazado 21017" d="M360.194,302.275l.383,7.516a1.161,1.161,0,0,1,1.043,1.476,1.38,1.38,0,0,1,.125.554,8.623,8.623,0,0,0,6.7,1.559c4.757-.91,1.886-10.105,1.886-10.105Z" transform="translate(-355.358 -296.599)" fill="#f7a57a"/>
        <path id="Trazado_21018" data-name="Trazado 21018" d="M356.742,306.676a4.6,4.6,0,0,0-1.2-2.081c-2.693-2.33-.285-4.029.57-4.578.945-.608.759-2.322,1.983-3.28,1.869-1.462,3.67.053,4.866-.168s1.94-1.813,3.679-.97,1.548,2.209,2.106,2.785,1.582-1.016,3.279.8c2.582,2.768-2.481,3.952-2.481,3.952a9.187,9.187,0,0,1-6.439-.293,1.2,1.2,0,0,0-1.42.349c-.875,1.2-.886,7.467-.886,7.467l-1.224-1.017A3.4,3.4,0,0,1,356.742,306.676Z" transform="translate(-354.298 -295.354)" fill="#122043"/>
        <path id="Trazado_21019" data-name="Trazado 21019" d="M360.738,309.56a1.154,1.154,0,1,0,.631-1.5A1.155,1.155,0,0,0,360.738,309.56Z" transform="translate(-355.441 -297.623)" fill="#f7a57a"/>
      </g>
      <g id="Grupo_11090" data-name="Grupo 11090" transform="translate(15.776 115.373)">
        <path id="Trazado_21020" data-name="Trazado 21020" d="M367.517,440.428s1.193,1.652,6.819,3.084c1.239.316,2.574.531,2.574,2.574h-5.554l-5.678-.982v.982h-3.066s-.855-5.016.937-5.659Z" transform="translate(-362.409 -436.825)" fill="#122043"/>
        <path id="Trazado_21021" data-name="Trazado 21021" d="M368.059,436.035l-.291,3.6h0a3.47,3.47,0,0,1-3.758.126l-.211-.126v-3.6Z" transform="translate(-362.659 -436.035)" fill="#f7a57a"/>
      </g>
      <g id="Grupo_11091" data-name="Grupo 11091" transform="translate(0 115.373)">
        <path id="Trazado_21022" data-name="Trazado 21022" d="M348.28,440.428s1.193,1.652,6.819,3.084c1.239.316,2.574.531,2.574,2.574H352.12l-5.678-.982v.982h-3.066s-.855-5.016.937-5.659Z" transform="translate(-343.172 -436.825)" fill="#122043"/>
        <path id="Trazado_21023" data-name="Trazado 21023" d="M348.822,436.035l-.291,3.6h0a3.47,3.47,0,0,1-3.758.126l-.21-.126v-3.6Z" transform="translate(-343.422 -436.035)" fill="#f7a57a"/>
      </g>
      <path id="Trazado_21024" data-name="Trazado 21024" d="M348.166,327.26s-6.348,14.649,1.751,22.132,19.094,6.21,19.094,6.21v-4.219s-9.938-.84-13.122-7.483,1.274-12.393,1.274-12.393" transform="translate(-343.645 -301.094)" fill="#a4d1bc"/>
      <path id="Trazado_21025" data-name="Trazado 21025" d="M373.311,359.821l5.07.106c2.058-.113,3.428-3.188,3.769-5.473a.463.463,0,0,0-.613-.5,64.591,64.591,0,0,0-7.29,2.874Z" transform="translate(-348.594 -305.891)" fill="#f7a57a"/>
      <path id="Trazado_21026" data-name="Trazado 21026" d="M371.451,366.479c6.316,17.833-3.556,57.321-3.556,57.321h-5.626s2.654-55.994-4.67-57.321Z" transform="translate(-345.767 -308.149)" fill="#122043"/>
      <path id="Trazado_21027" data-name="Trazado 21027" d="M354.761,342.145a11.412,11.412,0,0,0,1.131,4.432c3.184,6.644,13.64,7.524,13.64,7.524v4.261s-11.512,1.192-19.611-6.292a13.72,13.72,0,0,1-4.1-9.925Z" transform="translate(-343.649 -303.772)" fill="#53b6b9"/>
      <g id="Grupo_11092" data-name="Grupo 11092" transform="translate(10.461 30.058)">
        <path id="Trazado_21028" data-name="Trazado 21028" d="M356.628,340.964c-.222-.1-.445-.2-.666-.3a13.6,13.6,0,0,1,2.527-8.656l.5.4A12.845,12.845,0,0,0,356.628,340.964Z" transform="translate(-355.927 -332.005)" fill="#53b6b9"/>
      </g>
      <path id="Trazado_21029" data-name="Trazado 21029" d="M389.035,310.854s-1.168-.351-1.351-2.482-1.19-1.473-1.19-1.473.524,8.4,1.863,8.72S389.035,310.854,389.035,310.854Z" transform="translate(-350.965 -297.414)" fill="#f7a57a"/>
      <path id="Trazado_21030" data-name="Trazado 21030" d="M362.744,366.479C364.463,388.346,350.5,423.8,350.5,423.8h-6.687s4.544-22.67,4.637-43.948a113.63,113.63,0,0,0-.656-13.373Z" transform="translate(-343.287 -308.149)" fill="#002f4c"/>
    </g>
    <g id="Grupo_11098" data-name="Grupo 11098" transform="translate(343.437 250.124)">
      <g id="Grupo_11094" data-name="Grupo 11094" transform="translate(38.765 84.922)">
        <path id="Trazado_21031" data-name="Trazado 21031" d="M473.2,437.924a2.434,2.434,0,0,1,1.291,1.855c0,1.171.185,3.879.185,3.879l-1.163.211-.412-2.482c-.033-.161-2.086,2.623-3.484,4.02l-5.14.1s-.712-1.6,2.806-2.788S473.2,437.924,473.2,437.924Z" transform="translate(-457.841 -404.959)" fill="#122043"/>
        <path id="Trazado_21032" data-name="Trazado 21032" d="M467.578,410.169a22.22,22.22,0,0,0-.3-3.138,19.311,19.311,0,0,0-2.568-6.451c-1.26-.467-2.467-1.051-3.754-1.56a33.713,33.713,0,0,0-4.554-1.292q.1.26.194.522c7.529,19.865,11.739,28.886,12.4,31.022a2.46,2.46,0,0,1,.157.989c-.109,1.031-.589,3.235-3.607,5.332,3.2.8,6.216-4.9,6.216-4.9S467.737,417.005,467.578,410.169Z" transform="translate(-456.399 -397.728)" fill="#f18c72"/>
      </g>
      <path id="Trazado_21033" data-name="Trazado 21033" d="M451.112,314.267l.341,5.4,5.272-1.09-.633-7.338Z" transform="translate(-416.682 -297.246)" fill="#f18c72"/>
      <path id="Trazado_21034" data-name="Trazado 21034" d="M449.021,312.023a3.109,3.109,0,0,1-1.858-.483c-2.223-3.541.308-13.086.308-13.086l8.063,1.446.258,6.4a5.372,5.372,0,0,1-2.015,4.412h0A8.616,8.616,0,0,1,449.021,312.023Z" transform="translate(-415.808 -294.946)" fill="#f7a57a"/>
      <path id="Trazado_21035" data-name="Trazado 21035" d="M453.851,440.22a2.351,2.351,0,0,1,.906,1.984c-.2,1.112-.492,3.716-.492,3.716h-1.141l.035-2.429c0-.158-2.447,2.429-2.861,2.429h-6.038s-.4-1.639,3.144-2.165S453.851,440.22,453.851,440.22Z" transform="translate(-415.448 -320.45)" fill="#122043"/>
      <g id="Grupo_11095" data-name="Grupo 11095" transform="translate(31.581 83.717)">
        <path id="Trazado_21036" data-name="Trazado 21036" d="M457.523,411.8a22.3,22.3,0,0,0,.8-3.047,33.234,33.234,0,0,0,.235-8.581c-1.02-.875-2.356-.2-3.387-1.126a33.812,33.812,0,0,0-3.823-2.791q0,.277,0,.556c.174,21.244.994,31.166.869,33.4-.019.341-1.025,4.73-4.584,5.651,2.729,1.86,6.822-3.55,6.822-3.55S455.3,418.271,457.523,411.8Z" transform="translate(-447.639 -396.258)" fill="#f7a57a"/>
      </g>
      <path id="Trazado_21037" data-name="Trazado 21037" d="M450.209,319.646l-5.065,8.276a6.474,6.474,0,0,0-.464,4.217L447.9,346.26a12.348,12.348,0,0,1,.307,2.5l.769,37.023h16.171a114.686,114.686,0,0,1-3.078-16.741c-1.026-9.434,1.977-13.538,1.141-17.667a20.34,20.34,0,0,0-3.981-8.06,7.831,7.831,0,0,1-1.676-4.717c-.172-7,7.162-26.335.162-21.631S450.209,319.646,450.209,319.646Z" transform="translate(-415.496 -298.145)" fill="#005558"/>
      <path id="Trazado_21038" data-name="Trazado 21038" d="M448.02,345.928l-.38,1.357a7.656,7.656,0,0,1-1.091,2.05c-1.782,2.974-7.789,10.255-7.789,10.255l-4.854,2.752s.1.7,1.2.5a4.994,4.994,0,0,0,1.9-.8s.2.8-.8,2.4c-.749,1.2-3.149,3.24-1.5,3.6a27.741,27.741,0,0,0,3.344-1.849,3.235,3.235,0,0,0,1.623-2.286l.439-2.571,10.309-8.427a7.8,7.8,0,0,0,2.466-3.582l.034-.1Z" transform="translate(-413.587 -303.487)" fill="#f7a57a"/>
      <path id="Trazado_21039" data-name="Trazado 21039" d="M415.534,335.011a4.56,4.56,0,0,1-2.515-.882c-1.285-.785-3.435-3.248-3.889-1.612.661,1.521,1.252,3.4,1.252,3.4a4.959,4.959,0,0,0,3.1,1.693l3.335.2s1.194-1.208,1.26-1.256l-.349-.606A7.308,7.308,0,0,1,415.534,335.011Z" transform="translate(-409.13 -300.975)" fill="#f7a57a"/>
      <g id="Grupo_11096" data-name="Grupo 11096" transform="translate(34.162 28.392)">
        <path id="Trazado_21040" data-name="Trazado 21040" d="M456.1,346.549l-5.317-3.583,2.024-14.17.5.071-1.979,13.857,4.486,3.023,3.31-11.282.482.141Z" transform="translate(-450.786 -328.797)" fill="#0f787a"/>
      </g>
      <path id="Trazado_21041" data-name="Trazado 21041" d="M452.686,301.484a8.206,8.206,0,0,1-4.352,1.006,5.527,5.527,0,0,1-4.261-2.808c-.566-1.219-.69-2.486,1.19-3.9a2.934,2.934,0,0,1,3.577.263,1.351,1.351,0,0,0,1.792.048,8.286,8.286,0,0,1,5.458-1.913c2.8,0,2.727,2.72,2.3,4.7a2.84,2.84,0,0,0,1.257,3.024c1.665,1.031,3.784,2.711,3.348,4.392a9.946,9.946,0,0,1-1.864,3.5,2.484,2.484,0,0,0-.024,3.03c1.035,1.365,2.246,3.348,1.888,4.783a16.868,16.868,0,0,1-2.167,4.36,2.7,2.7,0,0,0,0,2.927,3.6,3.6,0,0,1,.568,2.722,6.3,6.3,0,0,1-1.023,2.2,1.758,1.758,0,0,1-3.013-.232c-1.837-3.708-5.053-11.3-3.929-17.084.563-2.9,1.33-8.024,1.33-8.024S455.588,300.249,452.686,301.484Z" transform="translate(-415.35 -294.177)" fill="#122043"/>
      <path id="Trazado_21042" data-name="Trazado 21042" d="M443.919,340.256l-6.174,3.2a3.378,3.378,0,0,1-2.5.244l-16.979-5.362v-2.144l16.547,2.009,5.176-2.752Z" transform="translate(-410.774 -301.602)" fill="#f7a57a"/>
      <path id="Trazado_21043" data-name="Trazado 21043" d="M457.949,304.87a1.407,1.407,0,0,0-1.865.183,1.211,1.211,0,0,0-.249,1.745,1.406,1.406,0,0,0,1.865-.182A1.213,1.213,0,0,0,457.949,304.87Z" transform="translate(-417.483 -296.051)" fill="#f7a57a"/>
      <path id="Trazado_21044" data-name="Trazado 21044" d="M449.133,338.251l-1.71-10.558-7.332,8.426,2.01,6.557,6.986-3.614C448.878,338.255,449.088,339.061,449.133,338.251Z" transform="translate(-414.7 -300.206)" fill="#005558"/>
      <g id="Grupo_11097" data-name="Grupo 11097" transform="translate(28.723 21.451)">
        <path id="Trazado_21045" data-name="Trazado 21045" d="M446.819,342.557c.2-.143.2-.143.4-.276l-2.308-9.472a6.2,6.2,0,0,1,.427-3.993l5-8.188c-.162-.116-.112-.1-.192-.244-.018-.034-.224-.042-.277-.05l-5.059,8.2a6.808,6.808,0,0,0-.485,4.412" transform="translate(-444.153 -320.333)" fill="#0f787a"/>
      </g>
      <path id="Trazado_21046" data-name="Trazado 21046" d="M415.655,335.337a1.269,1.269,0,0,1-.248.056c.109.187.206.379.3.573.617.486,1.219.991,1.83,1.484.249-.418.6-1,.633-1.042l-3.327-4.08s-.674.216-.292,1.268A4.987,4.987,0,0,0,415.655,335.337Z" transform="translate(-410.084 -301.04)" fill="#f7a57a"/>
    </g>
    <g id="Grupo_11106" data-name="Grupo 11106" transform="translate(152.492 129.458)">
      <g id="Grupo_11099" data-name="Grupo 11099" transform="translate(21.37 119.203)">
        <path id="Trazado_21047" data-name="Trazado 21047" d="M206.119,295.627s.879,1.216,5.021,2.272c.911.232,1.894.39,1.894,1.9h-4.088l-4.181-.723v.723h-2.259s-.629-3.693.691-4.167Z" transform="translate(-202.357 -292.975)" fill="#122043"/>
        <path id="Trazado_21048" data-name="Trazado 21048" d="M206.518,292.393l-.215,2.652h0a2.553,2.553,0,0,1-2.766.093l-.155-.093v-2.652Z" transform="translate(-202.542 -292.393)" fill="#f7a57a"/>
      </g>
      <g id="Grupo_11100" data-name="Grupo 11100" transform="translate(0.397 119.731)">
        <path id="Trazado_21049" data-name="Trazado 21049" d="M180.545,296.272s.879,1.216,5.021,2.271c.912.232,1.9.391,1.9,1.9h-4.089l-4.181-.723v.723h-2.259s-.628-3.693.691-4.166Z" transform="translate(-176.784 -293.619)" fill="#122043"/>
        <path id="Trazado_21050" data-name="Trazado 21050" d="M180.944,293.037l-.215,2.653h0a2.556,2.556,0,0,1-2.766.093l-.155-.093v-2.653Z" transform="translate(-176.968 -293.037)" fill="#f7a57a"/>
      </g>
      <path id="Trazado_21051" data-name="Trazado 21051" d="M206.627,211.653l-1.018,66.628h-4.855s-7.388-53.793-5.811-66.628S206.627,211.653,206.627,211.653Z" transform="translate(-179.613 -157.639)" fill="#122043"/>
      <path id="Trazado_21052" data-name="Trazado 21052" d="M198.269,212.886s-1.69,20.468-5.572,31.8-10.89,34.845-10.89,34.845h-5.023s8.39-49.14,6.471-66.643h15.014Z" transform="translate(-176.386 -158.887)" fill="#002b49"/>
      <path id="Trazado_21053" data-name="Trazado 21053" d="M207.729,171.533s5.983,13.952,7.5,13.952c1.215,0-.456-11.392-.456-11.392h5.011s6.3,19.525,1.29,23.093-16.018-10.1-16.018-10.1Z" transform="translate(-181.472 -151.447)" fill="url(#linear-gradient-5)"/>
      <path id="Trazado_21054" data-name="Trazado 21054" d="M186.563,214.979l1.813,4.483c.873,1.761,4.082,1.806,6.212,1.247a.442.442,0,0,0,.209-.727,61.484,61.484,0,0,0-5.259-5.308Z" transform="translate(-178.145 -159.208)" fill="#f7a57a"/>
      <path id="Trazado_21055" data-name="Trazado 21055" d="M201.727,168.008s3.125,2.119,3.125,4.548V204.8H186.544V174.655s.375-6.7,6.927-6.7S201.727,168.008,201.727,168.008Z" transform="translate(-178.142 -150.803)" fill="url(#linear-gradient-6)"/>
      <g id="Grupo_11101" data-name="Grupo 11101" transform="translate(26.406 25.053)">
        <path id="Trazado_21056" data-name="Trazado 21056" d="M208.5,206.55V177.59l.607.02v28.94Z" transform="translate(-208.497 -177.59)" fill="#85c6ba"/>
      </g>
      <path id="Trazado_21057" data-name="Trazado 21057" d="M196.966,159.241v7.6a4.647,4.647,0,0,0,3.549,1.736c2.284,0,2.284-1.647,2.284-1.647v-4.874l-3.38-.881Z" transform="translate(-180.017 -149.236)" fill="#f18c72"/>
      <path id="Trazado_21058" data-name="Trazado 21058" d="M203.076,161.724a2.836,2.836,0,0,0,1.7-.441c2.028-3.232-.282-11.946-.282-11.946l-7.36,1.32L196.9,156.5a4.9,4.9,0,0,0,1.839,4.028h0A7.867,7.867,0,0,0,203.076,161.724Z" transform="translate(-180.003 -147.454)" fill="#f7a57a"/>
      <path id="Trazado_21059" data-name="Trazado 21059" d="M200.25,150.4a15.744,15.744,0,0,0,5.013,0c2.57-.457.926-3.289.926-3.289a10.116,10.116,0,0,1-5.283.368c-2.281-.337-2.895-.78-4.357,0-1.987,1.06-1.507,4.652-1.507,4.652l1.1,7.6h.411s.1-4.52.1-6.059c.43-.7.9-.7,1.254-.526a1.151,1.151,0,0,1,.61,1.045v7.892s5.026,2.166,6.3,1.773.424-6.24.424-6.24a2.347,2.347,0,0,0-2.617.64c-1.132,1.268-2.506-.051-2.506-.051Z" transform="translate(-179.662 -147.042)" fill="#122043"/>
      <path id="Trazado_21060" data-name="Trazado 21060" d="M220.355,173.242l-.176-.963A8.012,8.012,0,0,0,215.7,166.8h-2.127l.659,4.544,3,1.894Z" transform="translate(-183.005 -150.597)" fill="#f7a57a"/>
      <path id="Trazado_21061" data-name="Trazado 21061" d="M197.578,154.241a1.284,1.284,0,0,1,1.211,1.208,1.106,1.106,0,0,1-.833,1.377,1.283,1.283,0,0,1-1.211-1.207A1.107,1.107,0,0,1,197.578,154.241Z" transform="translate(-179.974 -148.336)" fill="#f7a57a"/>
      <path id="Trazado_21062" data-name="Trazado 21062" d="M214.813,171.381l4.143,2.4s-2.6-.026-2.642,0l-4.385-3.67s.318-.641,1.311-.1A5.046,5.046,0,0,1,214.813,171.381Z" transform="translate(-182.709 -151.134)" fill="#f7a57a"/>
      <path id="Trazado_21063" data-name="Trazado 21063" d="M186.65,170.412S176.3,181.91,176.3,188.8s8.4,19.038,8.4,19.038l4.15-1.215s-3.745-15.031-3.745-19.03,7.693-9.861,7.693-9.861" transform="translate(-176.299 -151.246)" fill="url(#linear-gradient-7)"/>
      <g id="Grupo_11102" data-name="Grupo 11102" transform="translate(8.503 26.248)">
        <path id="Trazado_21064" data-name="Trazado 21064" d="M187.274,189.149c0,3.443,3.048,16.029,3.763,18.962-.21.055-.3.072-.615.154-.88-3.622-3.755-15.732-3.755-19.116,0-4.1,7.493-9.859,7.812-10.1l.368.483C194.772,179.587,187.274,185.345,187.274,189.149Z" transform="translate(-186.667 -179.047)" fill="#85c6ba"/>
      </g>
      <g id="Grupo_11105" data-name="Grupo 11105" transform="translate(26.019 3.868)">
        <path id="Trazado_21065" data-name="Trazado 21065" d="M212.037,162.538a10.982,10.982,0,0,0,1.9,8.031,1.194,1.194,0,0,0,.774.43,3.038,3.038,0,0,0,1.432-.236,1.332,1.332,0,0,0,.866-.621.575.575,0,0,0-.06-.6c-.558-.832-2.282-3.688-1.5-6.216A4.5,4.5,0,0,0,212.037,162.538Z" transform="translate(-208.724 -153.686)" fill="#f4872e"/>
        <path id="Trazado_21066" data-name="Trazado 21066" d="M216.938,170.63a.878.878,0,0,0,.485-.465.575.575,0,0,0-.06-.6c-.558-.832-2.282-3.688-1.5-6.216a3.8,3.8,0,0,0-1.627-.749C214.151,165.377,214.747,167.233,216.938,170.63Z" transform="translate(-209.141 -153.708)" fill="#fda630"/>
        <g id="Grupo_11104" data-name="Grupo 11104" transform="translate(5.712 11.23)">
          <g id="Grupo_11103" data-name="Grupo 11103" transform="translate(0 0.004)">
            <path id="Trazado_21067" data-name="Trazado 21067" d="M215.048,166.757c.13.638.44,1.113.691,1.061s.348-.61.217-1.247-.44-1.113-.691-1.061S214.917,166.118,215.048,166.757Z" transform="translate(-214.99 -165.465)" fill="#f4872e"/>
            <path id="Trazado_21068" data-name="Trazado 21068" d="M215.264,165.519l.264-.062-.019.133-.176.069Z" transform="translate(-215.039 -165.456)" fill="#f4872e"/>
            <path id="Trazado_21069" data-name="Trazado 21069" d="M215.821,168.3l.319-.062-.363-.053Z" transform="translate(-215.131 -165.947)" fill="#de1d4c"/>
          </g>
          <path id="Trazado_21070" data-name="Trazado 21070" d="M215.308,166.7c.131.638.44,1.113.691,1.062s.348-.61.217-1.248-.44-1.113-.691-1.061S215.177,166.065,215.308,166.7Z" transform="translate(-215.036 -165.451)" fill="#ffc630"/>
        </g>
        <path id="Trazado_21071" data-name="Trazado 21071" d="M210.221,157.975h-.491a1.671,1.671,0,0,0-1.705,1.625v1.29a1.671,1.671,0,0,0,1.705,1.625h.491Z" transform="translate(-208.025 -152.876)" fill="#ffc630"/>
        <path id="Trazado_21072" data-name="Trazado 21072" d="M228.2,158.134c0,3.522-.809,6.376-1.808,6.376s-1.808-2.855-1.808-6.376.809-6.376,1.808-6.376S228.2,154.613,228.2,158.134Z" transform="translate(-211.004 -151.758)" fill="#122043"/>
        <path id="Trazado_21073" data-name="Trazado 21073" d="M224.364,156.668l1.429.93v2.063L224.32,161l-.509-2.683Z" transform="translate(-210.865 -152.641)" fill="#fff"/>
        <path id="Trazado_21074" data-name="Trazado 21074" d="M222.022,158.181c0-2.959.572-5.441,1.348-6.16l0,0a29.148,29.148,0,0,1-13.013,4.931v4.5s9.5-.534,13.013,2.895l.006,0C222.6,163.626,222.022,161.143,222.022,158.181Z" transform="translate(-208.444 -151.805)" fill="#f99200"/>
        <path id="Trazado_21075" data-name="Trazado 21075" d="M226.38,158.827c0,.572-.088,1.036-.2,1.036s-.2-.463-.2-1.036.087-1.036.2-1.036S226.38,158.254,226.38,158.827Z" transform="translate(-211.257 -152.843)" fill="#ffc630"/>
      </g>
      <path id="Trazado_21076" data-name="Trazado 21076" d="M218.086,169.962a4.884,4.884,0,0,1-2.314.377c-1.2,0-1.747-1.481-1.953-2.286-.073-.284-.137-.686.217-.867l1.936-.269Z" transform="translate(-183.039 -150.617)" fill="#f7a57a"/>
    </g>
  </g>
</svg>
