<svg xmlns="http://www.w3.org/2000/svg" width="1056" height="1071.419" viewBox="0 0 1056 1071.419">
  <g id="Grupo_11552" data-name="Grupo 11552" transform="translate(-444 -1399.581)">
    <g id="Rectángulo_2347" data-name="Rectángulo 2347" transform="translate(444 1527)" fill="#fff" stroke="#8de2ed" stroke-width="2">
      <rect width="500" height="101" rx="50.5" stroke="none"/>
      <rect x="1" y="1" width="498" height="99" rx="49.5" fill="none"/>
    </g>
    <path id="Trazado_21554" data-name="Trazado 21554" d="M-179.94,0h3.888V-16.8h-3.888Zm15.456-13.1a5.653,5.653,0,0,0-4.272,1.7v-1.512h-3.576V0h3.744V-6.384c0-2.376,1.3-3.48,3.1-3.48,1.656,0,2.616.96,2.616,3.048V0h3.744V-7.392C-159.132-11.328-161.436-13.1-164.484-13.1Zm15.12,13.3c2.712,0,4.848-1.2,5.784-3.264l-2.9-1.584a3.177,3.177,0,0,1-2.9,1.776,3.3,3.3,0,0,1-3.384-3.576,3.3,3.3,0,0,1,3.384-3.576,3.22,3.22,0,0,1,2.9,1.776l2.9-1.56c-.936-2.112-3.072-3.288-5.784-3.288-4.2,0-7.2,2.76-7.2,6.648S-153.564.192-149.364.192ZM-141.516,0h3.744V-17.808h-3.744Zm16.488-12.912v6.384c0,2.376-1.248,3.48-2.976,3.48-1.656,0-2.616-.96-2.616-3.12v-6.744h-3.744v7.3c0,3.984,2.28,5.808,5.52,5.808a5.224,5.224,0,0,0,4.008-1.728V0h3.552V-12.912ZM-113.46.192c3.864,0,6.1-1.7,6.1-4.1,0-5.088-7.8-2.952-7.8-5.16,0-.672.72-1.2,2.4-1.2a7.415,7.415,0,0,1,3.72.96l1.248-2.664a10.617,10.617,0,0,0-4.968-1.128c-3.768,0-5.976,1.728-5.976,4.176,0,5.16,7.8,3,7.8,5.112,0,.72-.648,1.176-2.376,1.176A8.834,8.834,0,0,1-117.8-3.888L-119.052-1.2A11.084,11.084,0,0,0-113.46.192Zm10.272-14.9a2.153,2.153,0,0,0,2.328-2.16,2.1,2.1,0,0,0-2.328-2.016,2.14,2.14,0,0,0-2.328,2.088A2.14,2.14,0,0,0-103.188-14.712ZM-105.06,0h3.744V-12.912h-3.744Zm11.136-14.568H-91l4.344-3.456h-4.032ZM-91.692.192c4.1,0,7.08-2.76,7.08-6.648s-2.976-6.648-7.08-6.648-7.1,2.76-7.1,6.648S-95.8.192-91.692.192Zm0-3.072A3.276,3.276,0,0,1-95-6.456a3.276,3.276,0,0,1,3.312-3.576A3.259,3.259,0,0,1-88.4-6.456,3.259,3.259,0,0,1-91.692-2.88ZM-74.268-13.1a5.653,5.653,0,0,0-4.272,1.7v-1.512h-3.576V0h3.744V-6.384c0-2.376,1.3-3.48,3.1-3.48,1.656,0,2.616.96,2.616,3.048V0h3.744V-7.392C-68.916-11.328-71.22-13.1-74.268-13.1ZM-54.4.192c3.864,0,6.1-1.7,6.1-4.1,0-5.088-7.8-2.952-7.8-5.16,0-.672.72-1.2,2.4-1.2a7.415,7.415,0,0,1,3.72.96l1.248-2.664A10.617,10.617,0,0,0-53.7-13.1c-3.768,0-5.976,1.728-5.976,4.176,0,5.16,7.8,3,7.8,5.112,0,.72-.648,1.176-2.376,1.176A8.834,8.834,0,0,1-58.74-3.888L-59.988-1.2A11.084,11.084,0,0,0-54.4.192Zm14.544,0c4.1,0,7.08-2.76,7.08-6.648s-2.976-6.648-7.08-6.648-7.1,2.76-7.1,6.648S-43.956.192-39.852.192Zm0-3.072a3.276,3.276,0,0,1-3.312-3.576,3.276,3.276,0,0,1,3.312-3.576,3.259,3.259,0,0,1,3.288,3.576A3.259,3.259,0,0,1-39.852-2.88ZM-24.036.192c2.712,0,4.848-1.2,5.784-3.264l-2.9-1.584a3.177,3.177,0,0,1-2.9,1.776,3.3,3.3,0,0,1-3.384-3.576,3.3,3.3,0,0,1,3.384-3.576,3.22,3.22,0,0,1,2.9,1.776l2.9-1.56c-.936-2.112-3.072-3.288-5.784-3.288-4.2,0-7.2,2.76-7.2,6.648S-28.236.192-24.036.192Zm9.816-14.9a2.153,2.153,0,0,0,2.328-2.16,2.1,2.1,0,0,0-2.328-2.016A2.14,2.14,0,0,0-16.548-16.8,2.14,2.14,0,0,0-14.22-14.712ZM-16.092,0h3.744V-12.912h-3.744ZM-3.66-13.1a9.926,9.926,0,0,0-5.568,1.56l1.344,2.616a6.208,6.208,0,0,1,3.72-1.2c2.016,0,2.976.936,2.976,2.544H-4.164C-8.1-7.584-9.708-6-9.708-3.72c0,2.232,1.8,3.912,4.824,3.912,1.9,0,3.24-.624,3.936-1.8V0h3.5V-7.368C2.556-11.28.276-13.1-3.66-13.1ZM-3.948-2.328c-1.32,0-2.112-.624-2.112-1.56,0-.864.552-1.512,2.3-1.512h2.568v1.32A2.759,2.759,0,0,1-3.948-2.328ZM5.94,0H9.684V-17.808H5.94ZM29.172-12.912l-3.648,8.76L21.9-12.912H18.036L23.628.1l-.048.12c-.5,1.152-1.08,1.608-2.112,1.608a3.319,3.319,0,0,1-2.112-.816L17.988,3.672a5.734,5.734,0,0,0,3.6,1.176c2.328,0,4.1-.936,5.352-4.056l5.832-13.7Zm19.56-.192a5.017,5.017,0,0,0-4.056,1.68v-1.488H41.1V4.656h3.744V-1.368A5.013,5.013,0,0,0,48.732.192a6.271,6.271,0,0,0,6.432-6.648A6.271,6.271,0,0,0,48.732-13.1ZM48.084-2.88A3.259,3.259,0,0,1,44.8-6.456a3.259,3.259,0,0,1,3.288-3.576,3.259,3.259,0,0,1,3.288,3.576A3.259,3.259,0,0,1,48.084-2.88Zm13.152-8.328v-1.7H57.66V0H61.4V-6.1c0-2.472,1.368-3.6,3.432-3.6.288,0,.528.024.84.048V-13.1A5.211,5.211,0,0,0,61.236-11.208Zm12.7,11.4c4.1,0,7.08-2.76,7.08-6.648S78.036-13.1,73.932-13.1s-7.1,2.76-7.1,6.648S69.828.192,73.932.192Zm0-3.072A3.276,3.276,0,0,1,70.62-6.456a3.276,3.276,0,0,1,3.312-3.576A3.259,3.259,0,0,1,77.22-6.456,3.259,3.259,0,0,1,73.932-2.88ZM92.916-17.808v6.264a4.961,4.961,0,0,0-3.864-1.56A6.277,6.277,0,0,0,82.6-6.456,6.277,6.277,0,0,0,89.052.192a4.967,4.967,0,0,0,4.032-1.68V0H96.66V-17.808ZM89.7-2.88a3.276,3.276,0,0,1-3.312-3.576A3.276,3.276,0,0,1,89.7-10.032a3.271,3.271,0,0,1,3.288,3.576A3.271,3.271,0,0,1,89.7-2.88Zm19.68-10.032v6.384c0,2.376-1.248,3.48-2.976,3.48-1.656,0-2.616-.96-2.616-3.12v-6.744h-3.744v7.3c0,3.984,2.28,5.808,5.52,5.808a5.224,5.224,0,0,0,4.008-1.728V0h3.552V-12.912ZM122.844.192c2.712,0,4.848-1.2,5.784-3.264l-2.9-1.584a3.177,3.177,0,0,1-2.9,1.776,3.3,3.3,0,0,1-3.384-3.576,3.3,3.3,0,0,1,3.384-3.576,3.22,3.22,0,0,1,2.9,1.776l2.9-1.56c-.936-2.112-3.072-3.288-5.784-3.288-4.2,0-7.2,2.76-7.2,6.648S118.644.192,122.844.192ZM138.3-3.264a2.523,2.523,0,0,1-1.512.48,1.506,1.506,0,0,1-1.608-1.7V-9.744H138.4v-2.88H135.18v-3.144h-3.744v3.144h-1.992v2.88h1.992v5.3c0,3.072,1.776,4.632,4.824,4.632a5.351,5.351,0,0,0,3.048-.816Zm4.992-11.448a2.153,2.153,0,0,0,2.328-2.16,2.1,2.1,0,0,0-2.328-2.016,2.14,2.14,0,0,0-2.328,2.088A2.14,2.14,0,0,0,143.292-14.712ZM141.42,0h3.744V-12.912H141.42Zm16.44-12.912-3.7,8.784-3.576-8.784h-3.864L152.148,0h3.864l5.448-12.912Zm9.912-.192a9.926,9.926,0,0,0-5.568,1.56l1.344,2.616a6.208,6.208,0,0,1,3.72-1.2c2.016,0,2.976.936,2.976,2.544h-2.976c-3.936,0-5.544,1.584-5.544,3.864,0,2.232,1.8,3.912,4.824,3.912,1.9,0,3.24-.624,3.936-1.8V0h3.5V-7.368C173.988-11.28,171.708-13.1,167.772-13.1Zm-.288,10.776c-1.32,0-2.112-.624-2.112-1.56,0-.864.552-1.512,2.3-1.512h2.568v1.32A2.759,2.759,0,0,1,167.484-2.328Zm11.3,2.52a2.291,2.291,0,0,0,2.328-2.352,2.237,2.237,0,0,0-2.328-2.3,2.237,2.237,0,0,0-2.328,2.3A2.291,2.291,0,0,0,178.788.192Z" transform="translate(693 1586)" fill="#148e9f"/>
    <g id="Rectángulo_2348" data-name="Rectángulo 2348" transform="translate(1000 1527)" fill="#fff" stroke="#8de2ed" stroke-width="2">
      <rect width="500" height="101" rx="50.5" stroke="none"/>
      <rect x="1" y="1" width="498" height="99" rx="49.5" fill="none"/>
    </g>
    <path id="Trazado_21555" data-name="Trazado 21555" d="M-139.356-3.12V-7.008h7.8v-3.024h-7.8V-13.68h8.832V-16.8h-12.7V0h13.008V-3.12Zm21.408-9.792v1.488a4.967,4.967,0,0,0-4.032-1.68,6.277,6.277,0,0,0-6.456,6.648A6.277,6.277,0,0,0-121.98.192a4.961,4.961,0,0,0,3.864-1.56V4.656h3.744V-12.912ZM-121.332-2.88a3.276,3.276,0,0,1-3.312-3.576,3.276,3.276,0,0,1,3.312-3.576,3.271,3.271,0,0,1,3.288,3.576A3.271,3.271,0,0,1-121.332-2.88Zm19.68-10.032v6.384c0,2.376-1.248,3.48-2.976,3.48-1.656,0-2.616-.96-2.616-3.12v-6.744h-3.744v7.3c0,3.984,2.28,5.808,5.52,5.808a5.224,5.224,0,0,0,4.008-1.728V0h3.552V-12.912Zm9.1-1.8a2.153,2.153,0,0,0,2.328-2.16,2.1,2.1,0,0,0-2.328-2.016A2.14,2.14,0,0,0-94.884-16.8,2.14,2.14,0,0,0-92.556-14.712ZM-94.428,0h3.744V-12.912h-3.744ZM-77.8-17.808v6.264A4.961,4.961,0,0,0-81.66-13.1a6.277,6.277,0,0,0-6.456,6.648A6.277,6.277,0,0,0-81.66.192a4.967,4.967,0,0,0,4.032-1.68V0h3.576V-17.808ZM-81.012-2.88a3.276,3.276,0,0,1-3.312-3.576,3.276,3.276,0,0,1,3.312-3.576,3.271,3.271,0,0,1,3.288,3.576A3.271,3.271,0,0,1-81.012-2.88ZM-65.388-13.1a9.926,9.926,0,0,0-5.568,1.56l1.344,2.616a6.208,6.208,0,0,1,3.72-1.2c2.016,0,2.976.936,2.976,2.544h-2.976c-3.936,0-5.544,1.584-5.544,3.864,0,2.232,1.8,3.912,4.824,3.912,1.9,0,3.24-.624,3.936-1.8V0h3.5V-7.368C-59.172-11.28-61.452-13.1-65.388-13.1Zm-.288,10.776c-1.32,0-2.112-.624-2.112-1.56,0-.864.552-1.512,2.3-1.512h2.568v1.32A2.759,2.759,0,0,1-65.676-2.328Zm19.44-15.48v6.264A4.961,4.961,0,0,0-50.1-13.1a6.277,6.277,0,0,0-6.456,6.648A6.277,6.277,0,0,0-50.1.192a4.967,4.967,0,0,0,4.032-1.68V0h3.576V-17.808ZM-49.452-2.88a3.276,3.276,0,0,1-3.312-3.576,3.276,3.276,0,0,1,3.312-3.576,3.271,3.271,0,0,1,3.288,3.576A3.271,3.271,0,0,1-49.452-2.88Zm26.424-10.032-3.648,8.76-3.624-8.76h-3.864L-28.572.1l-.048.12c-.5,1.152-1.08,1.608-2.112,1.608a3.319,3.319,0,0,1-2.112-.816l-1.368,2.664a5.734,5.734,0,0,0,3.6,1.176c2.328,0,4.1-.936,5.352-4.056l5.832-13.7Zm21.336-4.9v6.264A4.961,4.961,0,0,0-5.556-13.1a6.277,6.277,0,0,0-6.456,6.648A6.277,6.277,0,0,0-5.556.192a4.967,4.967,0,0,0,4.032-1.68V0H2.052V-17.808ZM-4.908-2.88A3.276,3.276,0,0,1-8.22-6.456a3.276,3.276,0,0,1,3.312-3.576A3.271,3.271,0,0,1-1.62-6.456,3.271,3.271,0,0,1-4.908-2.88ZM7.38-14.712a2.153,2.153,0,0,0,2.328-2.16A2.1,2.1,0,0,0,7.38-18.888,2.14,2.14,0,0,0,5.052-16.8,2.14,2.14,0,0,0,7.38-14.712ZM5.508,0H9.252V-12.912H5.508ZM17.076.192c3.864,0,6.1-1.7,6.1-4.1,0-5.088-7.8-2.952-7.8-5.16,0-.672.72-1.2,2.4-1.2a7.415,7.415,0,0,1,3.72.96l1.248-2.664A10.617,10.617,0,0,0,17.772-13.1C14-13.1,11.8-11.376,11.8-8.928c0,5.16,7.8,3,7.8,5.112,0,.72-.648,1.176-2.376,1.176a8.834,8.834,0,0,1-4.488-1.248L11.484-1.2A11.084,11.084,0,0,0,17.076.192ZM32.8-3.264a2.523,2.523,0,0,1-1.512.48,1.506,1.506,0,0,1-1.608-1.7V-9.744h3.216v-2.88H29.676v-3.144H25.932v3.144H23.94v2.88h1.992v5.3c0,3.072,1.776,4.632,4.824,4.632A5.351,5.351,0,0,0,33.8-.624Zm6.7-7.944v-1.7H35.916V0H39.66V-6.1c0-2.472,1.368-3.6,3.432-3.6.288,0,.528.024.84.048V-13.1A5.211,5.211,0,0,0,39.492-11.208Zm8.544-3.5a2.153,2.153,0,0,0,2.328-2.16,2.1,2.1,0,0,0-2.328-2.016A2.14,2.14,0,0,0,45.708-16.8,2.14,2.14,0,0,0,48.036-14.712ZM46.164,0h3.744V-12.912H46.164ZM61.02-13.1a5.013,5.013,0,0,0-3.888,1.56v-6.264H53.388V0h3.576V-1.488A5.017,5.017,0,0,0,61.02.192a6.271,6.271,0,0,0,6.432-6.648A6.271,6.271,0,0,0,61.02-13.1ZM60.372-2.88a3.259,3.259,0,0,1-3.288-3.576,3.259,3.259,0,0,1,3.288-3.576A3.259,3.259,0,0,1,63.66-6.456,3.259,3.259,0,0,1,60.372-2.88Zm18.84-10.032v6.384c0,2.376-1.248,3.48-2.976,3.48-1.656,0-2.616-.96-2.616-3.12v-6.744H69.876v7.3c0,3.984,2.28,5.808,5.52,5.808A5.224,5.224,0,0,0,79.4-1.536V0h3.552V-12.912ZM92.676.192c2.712,0,4.848-1.2,5.784-3.264l-2.9-1.584a3.177,3.177,0,0,1-2.9,1.776,3.3,3.3,0,0,1-3.384-3.576,3.3,3.3,0,0,1,3.384-3.576,3.22,3.22,0,0,1,2.9,1.776l2.9-1.56c-.936-2.112-3.072-3.288-5.784-3.288-4.2,0-7.2,2.76-7.2,6.648S88.476.192,92.676.192Zm9.816-14.9a2.153,2.153,0,0,0,2.328-2.16,2.1,2.1,0,0,0-2.328-2.016,2.14,2.14,0,0,0-2.328,2.088A2.14,2.14,0,0,0,102.492-14.712ZM100.62,0h3.744V-12.912H100.62Zm11.136-14.568h2.928l4.344-3.456H115ZM113.988.192c4.1,0,7.08-2.76,7.08-6.648s-2.976-6.648-7.08-6.648-7.1,2.76-7.1,6.648S109.884.192,113.988.192Zm0-3.072a3.276,3.276,0,0,1-3.312-3.576,3.276,3.276,0,0,1,3.312-3.576,3.259,3.259,0,0,1,3.288,3.576A3.259,3.259,0,0,1,113.988-2.88ZM131.412-13.1a5.653,5.653,0,0,0-4.272,1.7v-1.512h-3.576V0h3.744V-6.384c0-2.376,1.3-3.48,3.1-3.48,1.656,0,2.616.96,2.616,3.048V0h3.744V-7.392C136.764-11.328,134.46-13.1,131.412-13.1Zm-221.856,24.3v6.264a4.961,4.961,0,0,0-3.864-1.56,6.277,6.277,0,0,0-6.456,6.648,6.277,6.277,0,0,0,6.456,6.648,4.967,4.967,0,0,0,4.032-1.68V29H-86.7V11.192ZM-93.66,26.12a3.276,3.276,0,0,1-3.312-3.576,3.276,3.276,0,0,1,3.312-3.576,3.271,3.271,0,0,1,3.288,3.576A3.271,3.271,0,0,1-93.66,26.12ZM-70.6,22.592a6.392,6.392,0,0,0-6.72-6.7A6.574,6.574,0,0,0-84.2,22.544c0,3.84,2.9,6.648,7.368,6.648A6.763,6.763,0,0,0-71.508,27.1l-1.992-2.16a4.377,4.377,0,0,1-3.24,1.248,3.443,3.443,0,0,1-3.7-2.592h9.768C-70.644,23.288-70.6,22.88-70.6,22.592Zm-6.7-3.864a3.068,3.068,0,0,1,3.168,2.688h-6.36A3.057,3.057,0,0,1-77.292,18.728ZM-61.308,29h3.744V11.192h-3.744Zm12.432-13.1a9.926,9.926,0,0,0-5.568,1.56l1.344,2.616a6.208,6.208,0,0,1,3.72-1.2c2.016,0,2.976.936,2.976,2.544H-49.38c-3.936,0-5.544,1.584-5.544,3.864,0,2.232,1.8,3.912,4.824,3.912,1.9,0,3.24-.624,3.936-1.8V29h3.5V21.632C-42.66,17.72-44.94,15.9-48.876,15.9Zm-.288,10.776c-1.32,0-2.112-.624-2.112-1.56,0-.864.552-1.512,2.3-1.512H-46.4v1.32A2.759,2.759,0,0,1-49.164,26.672ZM-24.852,15.9a5.017,5.017,0,0,0-4.056,1.68V16.088h-3.576V33.656h3.744V27.632a5.013,5.013,0,0,0,3.888,1.56,6.271,6.271,0,0,0,6.432-6.648A6.271,6.271,0,0,0-24.852,15.9ZM-25.5,26.12a3.259,3.259,0,0,1-3.288-3.576A3.259,3.259,0,0,1-25.5,18.968a3.259,3.259,0,0,1,3.288,3.576A3.259,3.259,0,0,1-25.5,26.12Zm13.152-8.328v-1.7h-3.576V29h3.744V22.9c0-2.472,1.368-3.6,3.432-3.6.288,0,.528.024.84.048V15.9A5.211,5.211,0,0,0-12.348,17.792Zm12.7,11.4c4.1,0,7.08-2.76,7.08-6.648S4.452,15.9.348,15.9s-7.1,2.76-7.1,6.648S-3.756,29.192.348,29.192Zm0-3.072a3.276,3.276,0,0,1-3.312-3.576A3.276,3.276,0,0,1,.348,18.968a3.259,3.259,0,0,1,3.288,3.576A3.259,3.259,0,0,1,.348,26.12ZM17.556,15.9a5.017,5.017,0,0,0-4.056,1.68V16.088H9.924V33.656h3.744V27.632a5.013,5.013,0,0,0,3.888,1.56,6.271,6.271,0,0,0,6.432-6.648A6.271,6.271,0,0,0,17.556,15.9ZM16.908,26.12a3.259,3.259,0,0,1-3.288-3.576,3.3,3.3,0,1,1,6.576,0A3.259,3.259,0,0,1,16.908,26.12ZM28.356,14.288a2.153,2.153,0,0,0,2.328-2.16,2.1,2.1,0,0,0-2.328-2.016,2.1,2.1,0,1,0,0,4.176ZM26.484,29h3.744V16.088H26.484Zm19.872-6.408a6.392,6.392,0,0,0-6.72-6.7,6.573,6.573,0,0,0-6.888,6.648c0,3.84,2.9,6.648,7.368,6.648A6.763,6.763,0,0,0,45.444,27.1l-1.992-2.16a4.377,4.377,0,0,1-3.24,1.248,3.443,3.443,0,0,1-3.7-2.592h9.768C46.308,23.288,46.356,22.88,46.356,22.592Zm-6.7-3.864a3.068,3.068,0,0,1,3.168,2.688h-6.36A3.057,3.057,0,0,1,39.66,18.728Zm18.6-7.536v6.264A4.961,4.961,0,0,0,54.4,15.9a6.277,6.277,0,0,0-6.456,6.648A6.277,6.277,0,0,0,54.4,29.192a4.967,4.967,0,0,0,4.032-1.68V29H62V11.192ZM55.044,26.12a3.276,3.276,0,0,1-3.312-3.576,3.311,3.311,0,1,1,6.6,0A3.271,3.271,0,0,1,55.044,26.12ZM70.668,15.9a9.926,9.926,0,0,0-5.568,1.56l1.344,2.616a6.208,6.208,0,0,1,3.72-1.2c2.016,0,2.976.936,2.976,2.544H70.164c-3.936,0-5.544,1.584-5.544,3.864,0,2.232,1.8,3.912,4.824,3.912,1.9,0,3.24-.624,3.936-1.8V29h3.5V21.632C76.884,17.72,74.6,15.9,70.668,15.9ZM70.38,26.672c-1.32,0-2.112-.624-2.112-1.56,0-.864.552-1.512,2.3-1.512H73.14v1.32A2.759,2.759,0,0,1,70.38,26.672Zm19.44-15.48v6.264a4.961,4.961,0,0,0-3.864-1.56A6.277,6.277,0,0,0,79.5,22.544a6.277,6.277,0,0,0,6.456,6.648,4.967,4.967,0,0,0,4.032-1.68V29h3.576V11.192ZM86.6,26.12a3.276,3.276,0,0,1-3.312-3.576,3.311,3.311,0,1,1,6.6,0A3.271,3.271,0,0,1,86.6,26.12Zm11.832,3.072a2.291,2.291,0,0,0,2.328-2.352,2.328,2.328,0,0,0-4.656,0A2.291,2.291,0,0,0,98.436,29.192Z" transform="translate(1249 1572)" fill="#148e9f"/>
    <g id="Rectángulo_2349" data-name="Rectángulo 2349" transform="translate(444 1798)" fill="#fff" stroke="#8de2ed" stroke-width="2">
      <rect width="500" height="101" rx="50.5" stroke="none"/>
      <rect x="1" y="1" width="498" height="99" rx="49.5" fill="none"/>
    </g>
    <path id="Trazado_21556" data-name="Trazado 21556" d="M-157.824,0l-3.768-5.4a5.462,5.462,0,0,0,3.456-5.3c0-3.768-2.808-6.1-7.3-6.1H-172.7V0h3.888V-4.68h3.576L-162,0Zm-4.248-10.7c0,1.824-1.2,2.928-3.576,2.928h-3.168v-5.856h3.168C-163.272-13.632-162.072-12.552-162.072-10.7Zm19.392,4.3a6.392,6.392,0,0,0-6.72-6.7,6.573,6.573,0,0,0-6.888,6.648c0,3.84,2.9,6.648,7.368,6.648A6.763,6.763,0,0,0-143.592-1.9l-1.992-2.16a4.377,4.377,0,0,1-3.24,1.248,3.443,3.443,0,0,1-3.7-2.592h9.768C-142.728-5.712-142.68-6.12-142.68-6.408Zm-6.7-3.864a3.068,3.068,0,0,1,3.168,2.688h-6.36A3.057,3.057,0,0,1-149.376-10.272ZM-135.84.192c3.864,0,6.1-1.7,6.1-4.1,0-5.088-7.8-2.952-7.8-5.16,0-.672.72-1.2,2.4-1.2a7.415,7.415,0,0,1,3.72.96l1.248-2.664a10.617,10.617,0,0,0-4.968-1.128c-3.768,0-5.976,1.728-5.976,4.176,0,5.16,7.8,3,7.8,5.112,0,.72-.648,1.176-2.376,1.176a8.834,8.834,0,0,1-4.488-1.248L-141.432-1.2A11.085,11.085,0,0,0-135.84.192Zm16.032-13.3a5.017,5.017,0,0,0-4.056,1.68v-1.488h-3.576V4.656h3.744V-1.368a5.013,5.013,0,0,0,3.888,1.56,6.271,6.271,0,0,0,6.432-6.648A6.271,6.271,0,0,0-119.808-13.1Zm-.648,10.224a3.259,3.259,0,0,1-3.288-3.576,3.259,3.259,0,0,1,3.288-3.576,3.259,3.259,0,0,1,3.288,3.576A3.259,3.259,0,0,1-120.456-2.88Zm15.72,3.072c4.1,0,7.08-2.76,7.08-6.648s-2.976-6.648-7.08-6.648-7.1,2.76-7.1,6.648S-108.84.192-104.736.192Zm0-3.072a3.276,3.276,0,0,1-3.312-3.576,3.276,3.276,0,0,1,3.312-3.576,3.259,3.259,0,0,1,3.288,3.576A3.259,3.259,0,0,1-104.736-2.88ZM-87.312-13.1a5.653,5.653,0,0,0-4.272,1.7v-1.512H-95.16V0h3.744V-6.384c0-2.376,1.3-3.48,3.1-3.48,1.656,0,2.616.96,2.616,3.048V0h3.744V-7.392C-81.96-11.328-84.264-13.1-87.312-13.1Zm13.08,13.3c3.864,0,6.1-1.7,6.1-4.1,0-5.088-7.8-2.952-7.8-5.16,0-.672.72-1.2,2.4-1.2a7.415,7.415,0,0,1,3.72.96l1.248-2.664A10.617,10.617,0,0,0-73.536-13.1c-3.768,0-5.976,1.728-5.976,4.176,0,5.16,7.8,3,7.8,5.112,0,.72-.648,1.176-2.376,1.176a8.834,8.834,0,0,1-4.488-1.248L-79.824-1.2A11.084,11.084,0,0,0-74.232.192Zm13.608-13.3a9.926,9.926,0,0,0-5.568,1.56l1.344,2.616a6.208,6.208,0,0,1,3.72-1.2c2.016,0,2.976.936,2.976,2.544h-2.976c-3.936,0-5.544,1.584-5.544,3.864,0,2.232,1.8,3.912,4.824,3.912,1.9,0,3.24-.624,3.936-1.8V0h3.5V-7.368C-54.408-11.28-56.688-13.1-60.624-13.1Zm-.288,10.776c-1.32,0-2.112-.624-2.112-1.56,0-.864.552-1.512,2.3-1.512h2.568v1.32A2.759,2.759,0,0,1-60.912-2.328ZM-43.392-13.1a5.013,5.013,0,0,0-3.888,1.56v-6.264h-3.744V0h3.576V-1.488A5.017,5.017,0,0,0-43.392.192,6.271,6.271,0,0,0-36.96-6.456,6.271,6.271,0,0,0-43.392-13.1ZM-44.04-2.88a3.259,3.259,0,0,1-3.288-3.576,3.259,3.259,0,0,1,3.288-3.576,3.259,3.259,0,0,1,3.288,3.576A3.259,3.259,0,0,1-44.04-2.88Zm11.448-11.832a2.153,2.153,0,0,0,2.328-2.16,2.1,2.1,0,0,0-2.328-2.016A2.14,2.14,0,0,0-34.92-16.8,2.14,2.14,0,0,0-32.592-14.712ZM-34.464,0h3.744V-12.912h-3.744Zm7.224,0H-23.5V-17.808H-27.24Zm9.1-14.712a2.153,2.153,0,0,0,2.328-2.16,2.1,2.1,0,0,0-2.328-2.016A2.14,2.14,0,0,0-20.472-16.8,2.14,2.14,0,0,0-18.144-14.712ZM-20.016,0h3.744V-12.912h-3.744ZM-3.384-17.808v6.264A4.961,4.961,0,0,0-7.248-13.1,6.277,6.277,0,0,0-13.7-6.456,6.277,6.277,0,0,0-7.248.192a4.967,4.967,0,0,0,4.032-1.68V0H.36V-17.808ZM-6.6-2.88A3.276,3.276,0,0,1-9.912-6.456,3.276,3.276,0,0,1-6.6-10.032,3.271,3.271,0,0,1-3.312-6.456,3.271,3.271,0,0,1-6.6-2.88ZM9.024-13.1a9.926,9.926,0,0,0-5.568,1.56L4.8-8.928a6.208,6.208,0,0,1,3.72-1.2c2.016,0,2.976.936,2.976,2.544H8.52C4.584-7.584,2.976-6,2.976-3.72,2.976-1.488,4.776.192,7.8.192c1.9,0,3.24-.624,3.936-1.8V0h3.5V-7.368C15.24-11.28,12.96-13.1,9.024-13.1ZM8.736-2.328c-1.32,0-2.112-.624-2.112-1.56,0-.864.552-1.512,2.3-1.512H11.5v1.32A2.759,2.759,0,0,1,8.736-2.328Zm19.44-15.48v6.264a4.961,4.961,0,0,0-3.864-1.56,6.277,6.277,0,0,0-6.456,6.648A6.277,6.277,0,0,0,24.312.192a4.967,4.967,0,0,0,4.032-1.68V0H31.92V-17.808ZM24.96-2.88a3.276,3.276,0,0,1-3.312-3.576,3.276,3.276,0,0,1,3.312-3.576,3.271,3.271,0,0,1,3.288,3.576A3.271,3.271,0,0,1,24.96-2.88ZM47.376-13.1a9.926,9.926,0,0,0-5.568,1.56l1.344,2.616a6.208,6.208,0,0,1,3.72-1.2c2.016,0,2.976.936,2.976,2.544H46.872c-3.936,0-5.544,1.584-5.544,3.864,0,2.232,1.8,3.912,4.824,3.912,1.9,0,3.24-.624,3.936-1.8V0h3.5V-7.368C53.592-11.28,51.312-13.1,47.376-13.1ZM47.088-2.328c-1.32,0-2.112-.624-2.112-1.56,0-.864.552-1.512,2.3-1.512h2.568v1.32A2.759,2.759,0,0,1,47.088-2.328ZM73.512-13.1a5.806,5.806,0,0,0-4.656,2.112A4.82,4.82,0,0,0,64.608-13.1a5.229,5.229,0,0,0-4.056,1.68v-1.488H56.976V0H60.72V-6.48c0-2.3,1.176-3.384,2.832-3.384,1.56,0,2.448.96,2.448,3.048V0h3.744V-6.48c0-2.3,1.176-3.384,2.856-3.384,1.512,0,2.448.96,2.448,3.048V0h3.744V-7.392C78.792-11.328,76.584-13.1,73.512-13.1Zm16.272,0a5.013,5.013,0,0,0-3.888,1.56v-6.264H82.152V0h3.576V-1.488A5.017,5.017,0,0,0,89.784.192a6.271,6.271,0,0,0,6.432-6.648A6.271,6.271,0,0,0,89.784-13.1ZM89.136-2.88a3.259,3.259,0,0,1-3.288-3.576,3.259,3.259,0,0,1,3.288-3.576,3.259,3.259,0,0,1,3.288,3.576A3.259,3.259,0,0,1,89.136-2.88Zm11.448-11.832a2.153,2.153,0,0,0,2.328-2.16,2.1,2.1,0,0,0-2.328-2.016A2.14,2.14,0,0,0,98.256-16.8,2.14,2.14,0,0,0,100.584-14.712ZM98.712,0h3.744V-12.912H98.712Zm19.872-6.408a6.392,6.392,0,0,0-6.72-6.7,6.574,6.574,0,0,0-6.888,6.648c0,3.84,2.9,6.648,7.368,6.648A6.763,6.763,0,0,0,117.672-1.9l-1.992-2.16a4.377,4.377,0,0,1-3.24,1.248,3.443,3.443,0,0,1-3.7-2.592h9.768C118.536-5.712,118.584-6.12,118.584-6.408Zm-6.7-3.864a3.068,3.068,0,0,1,3.168,2.688H108.7A3.057,3.057,0,0,1,111.888-10.272Zm17.04-2.832a5.653,5.653,0,0,0-4.272,1.7v-1.512H121.08V0h3.744V-6.384c0-2.376,1.3-3.48,3.1-3.48,1.656,0,2.616.96,2.616,3.048V0h3.744V-7.392C134.28-11.328,131.976-13.1,128.928-13.1Zm16.056,9.84a2.523,2.523,0,0,1-1.512.48,1.506,1.506,0,0,1-1.608-1.7V-9.744h3.216v-2.88h-3.216v-3.144H138.12v3.144h-1.992v2.88h1.992v5.3c0,3.072,1.776,4.632,4.824,4.632a5.351,5.351,0,0,0,3.048-.816Zm8.328-9.84a9.926,9.926,0,0,0-5.568,1.56l1.344,2.616a6.208,6.208,0,0,1,3.72-1.2c2.016,0,2.976.936,2.976,2.544h-2.976c-3.936,0-5.544,1.584-5.544,3.864,0,2.232,1.8,3.912,4.824,3.912,1.9,0,3.24-.624,3.936-1.8V0h3.5V-7.368C159.528-11.28,157.248-13.1,153.312-13.1Zm-.288,10.776c-1.32,0-2.112-.624-2.112-1.56,0-.864.552-1.512,2.3-1.512h2.568v1.32A2.759,2.759,0,0,1,153.024-2.328ZM162.912,0h3.744V-17.808h-3.744Zm8.64.192A2.291,2.291,0,0,0,173.88-2.16a2.237,2.237,0,0,0-2.328-2.3,2.237,2.237,0,0,0-2.328,2.3A2.291,2.291,0,0,0,171.552.192Z" transform="translate(693 1857)" fill="#148e9f"/>
    <g id="Rectángulo_2350" data-name="Rectángulo 2350" transform="translate(1000 1785)" fill="#fff" stroke="#8de2ed" stroke-width="2">
      <rect width="500" height="101" rx="50.5" stroke="none"/>
      <rect x="1" y="1" width="498" height="99" rx="49.5" fill="none"/>
    </g>
    <path id="Trazado_21557" data-name="Trazado 21557" d="M-99.288,0H-95.4V-13.632h5.376V-16.8h-14.64v3.168h5.376Zm14.376-11.208v-1.7h-3.576V0h3.744V-6.1c0-2.472,1.368-3.6,3.432-3.6.288,0,.528.024.84.048V-13.1A5.211,5.211,0,0,0-84.912-11.208ZM-73.1-13.1a9.926,9.926,0,0,0-5.568,1.56l1.344,2.616a6.208,6.208,0,0,1,3.72-1.2c2.016,0,2.976.936,2.976,2.544h-2.976c-3.936,0-5.544,1.584-5.544,3.864,0,2.232,1.8,3.912,4.824,3.912,1.9,0,3.24-.624,3.936-1.8V0h3.5V-7.368C-66.888-11.28-69.168-13.1-73.1-13.1Zm-.288,10.776c-1.32,0-2.112-.624-2.112-1.56,0-.864.552-1.512,2.3-1.512h2.568v1.32A2.759,2.759,0,0,1-73.392-2.328ZM-55.872-13.1a5.013,5.013,0,0,0-3.888,1.56v-6.264H-63.5V0h3.576V-1.488A5.017,5.017,0,0,0-55.872.192,6.271,6.271,0,0,0-49.44-6.456,6.271,6.271,0,0,0-55.872-13.1ZM-56.52-2.88a3.259,3.259,0,0,1-3.288-3.576,3.259,3.259,0,0,1,3.288-3.576,3.259,3.259,0,0,1,3.288,3.576A3.259,3.259,0,0,1-56.52-2.88ZM-41.952-13.1a9.926,9.926,0,0,0-5.568,1.56l1.344,2.616a6.208,6.208,0,0,1,3.72-1.2c2.016,0,2.976.936,2.976,2.544h-2.976C-46.392-7.584-48-6-48-3.72-48-1.488-46.2.192-43.176.192c1.9,0,3.24-.624,3.936-1.8V0h3.5V-7.368C-35.736-11.28-38.016-13.1-41.952-13.1ZM-42.24-2.328c-1.32,0-2.112-.624-2.112-1.56,0-.864.552-1.512,2.3-1.512h2.568v1.32A2.759,2.759,0,0,1-42.24-2.328Zm11.928-12.384a2.153,2.153,0,0,0,2.328-2.16,2.1,2.1,0,0,0-2.328-2.016A2.14,2.14,0,0,0-32.64-16.8,2.14,2.14,0,0,0-30.312-14.712Zm-3,19.56A4.479,4.479,0,0,0-28.44-.024V-12.912h-3.744V0c0,1.272-.6,1.872-1.536,1.872A2.746,2.746,0,0,1-35.3,1.416l-1.008,2.712A5.452,5.452,0,0,0-33.312,4.848ZM-18.84.192c4.1,0,7.08-2.76,7.08-6.648S-14.736-13.1-18.84-13.1s-7.1,2.76-7.1,6.648S-22.944.192-18.84.192Zm0-3.072a3.276,3.276,0,0,1-3.312-3.576,3.276,3.276,0,0,1,3.312-3.576,3.259,3.259,0,0,1,3.288,3.576A3.259,3.259,0,0,1-18.84-2.88ZM6.936-17.808v6.264A4.961,4.961,0,0,0,3.072-13.1,6.277,6.277,0,0,0-3.384-6.456,6.277,6.277,0,0,0,3.072.192,4.967,4.967,0,0,0,7.1-1.488V0H10.68V-17.808ZM3.72-2.88A3.276,3.276,0,0,1,.408-6.456,3.276,3.276,0,0,1,3.72-10.032,3.271,3.271,0,0,1,7.008-6.456,3.271,3.271,0,0,1,3.72-2.88ZM26.784-6.408a6.392,6.392,0,0,0-6.72-6.7,6.573,6.573,0,0,0-6.888,6.648c0,3.84,2.9,6.648,7.368,6.648A6.763,6.763,0,0,0,25.872-1.9L23.88-4.056a4.377,4.377,0,0,1-3.24,1.248,3.443,3.443,0,0,1-3.7-2.592h9.768C26.736-5.712,26.784-6.12,26.784-6.408Zm-6.7-3.864a3.068,3.068,0,0,1,3.168,2.688H16.9A3.057,3.057,0,0,1,20.088-10.272ZM35.52.192c2.712,0,4.848-1.2,5.784-3.264L38.4-4.656A3.177,3.177,0,0,1,35.5-2.88a3.3,3.3,0,0,1-3.384-3.576A3.3,3.3,0,0,1,35.5-10.032a3.22,3.22,0,0,1,2.9,1.776l2.9-1.56c-.936-2.112-3.072-3.288-5.784-3.288-4.2,0-7.2,2.76-7.2,6.648S31.32.192,35.52.192Zm20.424-6.6a6.392,6.392,0,0,0-6.72-6.7,6.573,6.573,0,0,0-6.888,6.648c0,3.84,2.9,6.648,7.368,6.648A6.763,6.763,0,0,0,55.032-1.9L53.04-4.056A4.377,4.377,0,0,1,49.8-2.808,3.443,3.443,0,0,1,46.1-5.4h9.768C55.9-5.712,55.944-6.12,55.944-6.408Zm-6.7-3.864a3.068,3.068,0,0,1,3.168,2.688h-6.36A3.057,3.057,0,0,1,49.248-10.272ZM66.288-13.1a5.653,5.653,0,0,0-4.272,1.7v-1.512H58.44V0h3.744V-6.384c0-2.376,1.3-3.48,3.1-3.48,1.656,0,2.616.96,2.616,3.048V0H71.64V-7.392C71.64-11.328,69.336-13.1,66.288-13.1Zm16.056,9.84a2.523,2.523,0,0,1-1.512.48,1.506,1.506,0,0,1-1.608-1.7V-9.744H82.44v-2.88H79.224v-3.144H75.48v3.144H73.488v2.88H75.48v5.3C75.48-1.368,77.256.192,80.3.192a5.351,5.351,0,0,0,3.048-.816ZM97.7-6.408a6.392,6.392,0,0,0-6.72-6.7A6.574,6.574,0,0,0,84.1-6.456c0,3.84,2.9,6.648,7.368,6.648A6.763,6.763,0,0,0,96.792-1.9L94.8-4.056a4.377,4.377,0,0,1-3.24,1.248,3.443,3.443,0,0,1-3.7-2.592h9.768C97.656-5.712,97.7-6.12,97.7-6.408Zm-6.7-3.864a3.068,3.068,0,0,1,3.168,2.688h-6.36A3.057,3.057,0,0,1,91.008-10.272ZM101.616.192a2.291,2.291,0,0,0,2.328-2.352,2.237,2.237,0,0,0-2.328-2.3,2.237,2.237,0,0,0-2.328,2.3A2.291,2.291,0,0,0,101.616.192Z" transform="translate(1249 1844)" fill="#148e9f"/>
    <g id="Rectángulo_2351" data-name="Rectángulo 2351" transform="translate(444 2078)" fill="#fff" stroke="#8de2ed" stroke-width="2">
      <rect width="500" height="101" rx="50.5" stroke="none"/>
      <rect x="1" y="1" width="498" height="99" rx="49.5" fill="none"/>
    </g>
    <path id="Trazado_21558" data-name="Trazado 21558" d="M-155-13.68V-16.8h-12.7V0h3.888V-6.12h7.776V-9.24h-7.776v-4.44ZM-146.82.192c4.1,0,7.08-2.76,7.08-6.648s-2.976-6.648-7.08-6.648-7.1,2.76-7.1,6.648S-150.924.192-146.82.192Zm0-3.072a3.276,3.276,0,0,1-3.312-3.576,3.276,3.276,0,0,1,3.312-3.576,3.259,3.259,0,0,1,3.288,3.576A3.259,3.259,0,0,1-146.82-2.88Zm13.152-8.328v-1.7h-3.576V0h3.744V-6.1c0-2.472,1.368-3.6,3.432-3.6.288,0,.528.024.84.048V-13.1A5.211,5.211,0,0,0-133.668-11.208Zm23.208-1.9a5.806,5.806,0,0,0-4.656,2.112,4.82,4.82,0,0,0-4.248-2.112,5.229,5.229,0,0,0-4.056,1.68v-1.488H-127V0h3.744V-6.48c0-2.3,1.176-3.384,2.832-3.384,1.56,0,2.448.96,2.448,3.048V0h3.744V-6.48c0-2.3,1.176-3.384,2.856-3.384,1.512,0,2.448.96,2.448,3.048V0h3.744V-7.392C-105.18-11.328-107.388-13.1-110.46-13.1Zm13.848,0a9.926,9.926,0,0,0-5.568,1.56l1.344,2.616a6.208,6.208,0,0,1,3.72-1.2c2.016,0,2.976.936,2.976,2.544h-2.976c-3.936,0-5.544,1.584-5.544,3.864,0,2.232,1.8,3.912,4.824,3.912,1.9,0,3.24-.624,3.936-1.8V0h3.5V-7.368C-90.4-11.28-92.676-13.1-96.612-13.1ZM-96.9-2.328c-1.32,0-2.112-.624-2.112-1.56,0-.864.552-1.512,2.3-1.512h2.568v1.32A2.759,2.759,0,0,1-96.9-2.328ZM-87.012,0h3.744V-17.808h-3.744Zm9.1-14.712a2.153,2.153,0,0,0,2.328-2.16,2.1,2.1,0,0,0-2.328-2.016A2.14,2.14,0,0,0-80.244-16.8,2.14,2.14,0,0,0-77.916-14.712ZM-79.788,0h3.744V-12.912h-3.744Zm11.064-2.88,6.576-7.776v-2.256H-73.284v2.88h6.408l-6.576,7.776V0h11.52V-2.88Zm14.4-10.224a9.926,9.926,0,0,0-5.568,1.56l1.344,2.616a6.208,6.208,0,0,1,3.72-1.2c2.016,0,2.976.936,2.976,2.544h-2.976c-3.936,0-5.544,1.584-5.544,3.864,0,2.232,1.8,3.912,4.824,3.912,1.9,0,3.24-.624,3.936-1.8V0h3.5V-7.368C-48.108-11.28-50.388-13.1-54.324-13.1Zm-.288,10.776c-1.32,0-2.112-.624-2.112-1.56,0-.864.552-1.512,2.3-1.512h2.568v1.32A2.759,2.759,0,0,1-54.612-2.328ZM-38.34.192c2.712,0,4.848-1.2,5.784-3.264l-2.9-1.584a3.177,3.177,0,0,1-2.9,1.776,3.3,3.3,0,0,1-3.384-3.576,3.3,3.3,0,0,1,3.384-3.576,3.22,3.22,0,0,1,2.9,1.776l2.9-1.56c-.936-2.112-3.072-3.288-5.784-3.288-4.2,0-7.2,2.76-7.2,6.648S-42.54.192-38.34.192Zm9.816-14.9a2.153,2.153,0,0,0,2.328-2.16,2.1,2.1,0,0,0-2.328-2.016A2.14,2.14,0,0,0-30.852-16.8,2.14,2.14,0,0,0-28.524-14.712ZM-30.4,0h3.744V-12.912H-30.4ZM-19.26-14.568h2.928l4.344-3.456H-16.02ZM-17.028.192c4.1,0,7.08-2.76,7.08-6.648s-2.976-6.648-7.08-6.648-7.1,2.76-7.1,6.648S-21.132.192-17.028.192Zm0-3.072A3.276,3.276,0,0,1-20.34-6.456a3.276,3.276,0,0,1,3.312-3.576A3.259,3.259,0,0,1-13.74-6.456,3.259,3.259,0,0,1-17.028-2.88ZM.4-13.1a5.653,5.653,0,0,0-4.272,1.7v-1.512H-7.452V0h3.744V-6.384c0-2.376,1.3-3.48,3.1-3.48C1.044-9.864,2-8.9,2-6.816V0H5.748V-7.392C5.748-11.328,3.444-13.1.4-13.1Zm28.176,6.7a6.392,6.392,0,0,0-6.72-6.7,6.573,6.573,0,0,0-6.888,6.648c0,3.84,2.9,6.648,7.368,6.648A6.763,6.763,0,0,0,27.66-1.9l-1.992-2.16a4.377,4.377,0,0,1-3.24,1.248,3.443,3.443,0,0,1-3.7-2.592H28.5C28.524-5.712,28.572-6.12,28.572-6.408Zm-6.7-3.864a3.068,3.068,0,0,1,3.168,2.688h-6.36A3.057,3.057,0,0,1,21.876-10.272ZM47.6-13.1a5.806,5.806,0,0,0-4.656,2.112A4.82,4.82,0,0,0,38.7-13.1a5.229,5.229,0,0,0-4.056,1.68v-1.488H31.068V0h3.744V-6.48c0-2.3,1.176-3.384,2.832-3.384,1.56,0,2.448.96,2.448,3.048V0h3.744V-6.48c0-2.3,1.176-3.384,2.856-3.384,1.512,0,2.448.96,2.448,3.048V0h3.744V-7.392C52.884-11.328,50.676-13.1,47.6-13.1Zm16.272,0a5.017,5.017,0,0,0-4.056,1.68v-1.488H56.244V4.656h3.744V-1.368A5.013,5.013,0,0,0,63.876.192a6.271,6.271,0,0,0,6.432-6.648A6.271,6.271,0,0,0,63.876-13.1ZM63.228-2.88A3.259,3.259,0,0,1,59.94-6.456a3.259,3.259,0,0,1,3.288-3.576,3.259,3.259,0,0,1,3.288,3.576A3.259,3.259,0,0,1,63.228-2.88ZM76.38-11.208v-1.7H72.8V0h3.744V-6.1c0-2.472,1.368-3.6,3.432-3.6.288,0,.528.024.84.048V-13.1A5.211,5.211,0,0,0,76.38-11.208Zm19.2,4.8a6.392,6.392,0,0,0-6.72-6.7,6.574,6.574,0,0,0-6.888,6.648c0,3.84,2.9,6.648,7.368,6.648A6.763,6.763,0,0,0,94.668-1.9l-1.992-2.16a4.377,4.377,0,0,1-3.24,1.248A3.443,3.443,0,0,1,85.74-5.4h9.768C95.532-5.712,95.58-6.12,95.58-6.408Zm-6.7-3.864a3.068,3.068,0,0,1,3.168,2.688h-6.36A3.057,3.057,0,0,1,88.884-10.272ZM102.42.192c3.864,0,6.1-1.7,6.1-4.1,0-5.088-7.8-2.952-7.8-5.16,0-.672.72-1.2,2.4-1.2a7.415,7.415,0,0,1,3.72.96l1.248-2.664a10.617,10.617,0,0,0-4.968-1.128c-3.768,0-5.976,1.728-5.976,4.176,0,5.16,7.8,3,7.8,5.112,0,.72-.648,1.176-2.376,1.176a8.834,8.834,0,0,1-4.488-1.248L96.828-1.2A11.084,11.084,0,0,0,102.42.192Zm13.608-13.3a9.926,9.926,0,0,0-5.568,1.56L111.8-8.928a6.208,6.208,0,0,1,3.72-1.2c2.016,0,2.976.936,2.976,2.544h-2.976c-3.936,0-5.544,1.584-5.544,3.864,0,2.232,1.8,3.912,4.824,3.912,1.9,0,3.24-.624,3.936-1.8V0h3.5V-7.368C122.244-11.28,119.964-13.1,116.028-13.1ZM115.74-2.328c-1.32,0-2.112-.624-2.112-1.56,0-.864.552-1.512,2.3-1.512H118.5v1.32A2.759,2.759,0,0,1,115.74-2.328Zm13.464-8.88v-1.7h-3.576V0h3.744V-6.1c0-2.472,1.368-3.6,3.432-3.6.288,0,.528.024.84.048V-13.1A5.211,5.211,0,0,0,129.2-11.208Zm8.544-3.5a2.153,2.153,0,0,0,2.328-2.16,2.1,2.1,0,0,0-2.328-2.016A2.14,2.14,0,0,0,135.42-16.8,2.14,2.14,0,0,0,137.748-14.712ZM135.876,0h3.744V-12.912h-3.744Zm12.432-13.1a9.926,9.926,0,0,0-5.568,1.56l1.344,2.616a6.208,6.208,0,0,1,3.72-1.2c2.016,0,2.976.936,2.976,2.544H147.8c-3.936,0-5.544,1.584-5.544,3.864,0,2.232,1.8,3.912,4.824,3.912,1.9,0,3.24-.624,3.936-1.8V0h3.5V-7.368C154.524-11.28,152.244-13.1,148.308-13.1ZM148.02-2.328c-1.32,0-2.112-.624-2.112-1.56,0-.864.552-1.512,2.3-1.512h2.568v1.32A2.759,2.759,0,0,1,148.02-2.328ZM157.908,0h3.744V-17.808h-3.744Zm8.64.192a2.291,2.291,0,0,0,2.328-2.352,2.237,2.237,0,0,0-2.328-2.3,2.237,2.237,0,0,0-2.328,2.3A2.291,2.291,0,0,0,166.548.192Z" transform="translate(693 2137)" fill="#148e9f"/>
    <g id="Rectángulo_2352" data-name="Rectángulo 2352" transform="translate(1000 2078)" fill="#fff" stroke="#8de2ed" stroke-width="2">
      <rect width="500" height="101" rx="50.5" stroke="none"/>
      <rect x="1" y="1" width="498" height="99" rx="49.5" fill="none"/>
    </g>
    <path id="Trazado_21559" data-name="Trazado 21559" d="M-106.272-13.68V-16.8h-12.7V0h3.888V-6.12h7.776V-9.24h-7.776v-4.44ZM-98.088.192c4.1,0,7.08-2.76,7.08-6.648s-2.976-6.648-7.08-6.648-7.1,2.76-7.1,6.648S-102.192.192-98.088.192Zm0-3.072A3.276,3.276,0,0,1-101.4-6.456a3.276,3.276,0,0,1,3.312-3.576A3.259,3.259,0,0,1-94.8-6.456,3.259,3.259,0,0,1-98.088-2.88Zm13.152-8.328v-1.7h-3.576V0h3.744V-6.1c0-2.472,1.368-3.6,3.432-3.6.288,0,.528.024.84.048V-13.1A5.211,5.211,0,0,0-84.936-11.208Zm23.208-1.9a5.806,5.806,0,0,0-4.656,2.112A4.82,4.82,0,0,0-70.632-13.1a5.229,5.229,0,0,0-4.056,1.68v-1.488h-3.576V0h3.744V-6.48c0-2.3,1.176-3.384,2.832-3.384,1.56,0,2.448.96,2.448,3.048V0H-65.5V-6.48c0-2.3,1.176-3.384,2.856-3.384,1.512,0,2.448.96,2.448,3.048V0h3.744V-7.392C-56.448-11.328-58.656-13.1-61.728-13.1Zm13.848,0a9.926,9.926,0,0,0-5.568,1.56L-52.1-8.928a6.208,6.208,0,0,1,3.72-1.2c2.016,0,2.976.936,2.976,2.544h-2.976c-3.936,0-5.544,1.584-5.544,3.864,0,2.232,1.8,3.912,4.824,3.912,1.9,0,3.24-.624,3.936-1.8V0h3.5V-7.368C-41.664-11.28-43.944-13.1-47.88-13.1Zm-.288,10.776c-1.32,0-2.112-.624-2.112-1.56,0-.864.552-1.512,2.3-1.512h2.568v1.32A2.759,2.759,0,0,1-48.168-2.328ZM-31.9.192c2.712,0,4.848-1.2,5.784-3.264l-2.9-1.584a3.177,3.177,0,0,1-2.9,1.776A3.3,3.3,0,0,1-35.3-6.456a3.3,3.3,0,0,1,3.384-3.576,3.22,3.22,0,0,1,2.9,1.776l2.9-1.56c-.936-2.112-3.072-3.288-5.784-3.288-4.2,0-7.2,2.76-7.2,6.648S-36.1.192-31.9.192Zm9.816-14.9a2.153,2.153,0,0,0,2.328-2.16,2.1,2.1,0,0,0-2.328-2.016A2.14,2.14,0,0,0-24.408-16.8,2.14,2.14,0,0,0-22.08-14.712ZM-23.952,0h3.744V-12.912h-3.744Zm11.136-14.568h2.928l4.344-3.456H-9.576ZM-10.584.192c4.1,0,7.08-2.76,7.08-6.648S-6.48-13.1-10.584-13.1s-7.1,2.76-7.1,6.648S-14.688.192-10.584.192Zm0-3.072A3.276,3.276,0,0,1-13.9-6.456a3.276,3.276,0,0,1,3.312-3.576A3.259,3.259,0,0,1-7.3-6.456,3.259,3.259,0,0,1-10.584-2.88ZM6.84-13.1a5.653,5.653,0,0,0-4.272,1.7v-1.512H-1.008V0H2.736V-6.384c0-2.376,1.3-3.48,3.1-3.48,1.656,0,2.616.96,2.616,3.048V0h3.744V-7.392C12.192-11.328,9.888-13.1,6.84-13.1ZM30-13.1a5.017,5.017,0,0,0-4.056,1.68v-1.488H22.368V4.656h3.744V-1.368A5.013,5.013,0,0,0,30,.192a6.271,6.271,0,0,0,6.432-6.648A6.271,6.271,0,0,0,30-13.1ZM29.352-2.88a3.259,3.259,0,0,1-3.288-3.576,3.259,3.259,0,0,1,3.288-3.576A3.259,3.259,0,0,1,32.64-6.456,3.259,3.259,0,0,1,29.352-2.88ZM45.072.192c4.1,0,7.08-2.76,7.08-6.648S49.176-13.1,45.072-13.1s-7.1,2.76-7.1,6.648S40.968.192,45.072.192Zm0-3.072A3.276,3.276,0,0,1,41.76-6.456a3.276,3.276,0,0,1,3.312-3.576A3.259,3.259,0,0,1,48.36-6.456,3.259,3.259,0,0,1,45.072-2.88ZM54.648,0h3.744V-17.808H54.648ZM61.9-18.168h2.928l4.344-3.456H65.136ZM62.136,0h3.888V-16.8H62.136ZM77.064-3.264a2.523,2.523,0,0,1-1.512.48,1.506,1.506,0,0,1-1.608-1.7V-9.744H77.16v-2.88H73.944v-3.144H70.2v3.144H68.208v2.88H70.2v5.3c0,3.072,1.776,4.632,4.824,4.632a5.351,5.351,0,0,0,3.048-.816Zm4.992-11.448a2.153,2.153,0,0,0,2.328-2.16,2.1,2.1,0,0,0-2.328-2.016A2.14,2.14,0,0,0,79.728-16.8,2.14,2.14,0,0,0,82.056-14.712ZM80.184,0h3.744V-12.912H80.184ZM93.648.192c2.712,0,4.848-1.2,5.784-3.264l-2.9-1.584a3.177,3.177,0,0,1-2.9,1.776A3.3,3.3,0,0,1,90.24-6.456a3.3,3.3,0,0,1,3.384-3.576,3.22,3.22,0,0,1,2.9,1.776l2.9-1.56C98.5-11.928,96.36-13.1,93.648-13.1c-4.2,0-7.2,2.76-7.2,6.648S89.448.192,93.648.192ZM106.8-13.1a9.926,9.926,0,0,0-5.568,1.56l1.344,2.616a6.208,6.208,0,0,1,3.72-1.2c2.016,0,2.976.936,2.976,2.544H106.3c-3.936,0-5.544,1.584-5.544,3.864,0,2.232,1.8,3.912,4.824,3.912,1.9,0,3.24-.624,3.936-1.8V0h3.5V-7.368C113.016-11.28,110.736-13.1,106.8-13.1Zm-.288,10.776c-1.32,0-2.112-.624-2.112-1.56,0-.864.552-1.512,2.3-1.512h2.568v1.32A2.759,2.759,0,0,1,106.512-2.328Zm11.3,2.52a2.291,2.291,0,0,0,2.328-2.352,2.237,2.237,0,0,0-2.328-2.3,2.237,2.237,0,0,0-2.328,2.3A2.291,2.291,0,0,0,117.816.192Z" transform="translate(1249 2132)" fill="#148e9f"/>
    <g id="Rectángulo_2353" data-name="Rectángulo 2353" transform="translate(444 2370)" fill="#fff" stroke="#8de2ed" stroke-width="2">
      <rect width="500" height="101" rx="50.5" stroke="none"/>
      <rect x="1" y="1" width="498" height="99" rx="49.5" fill="none"/>
    </g>
    <path id="Trazado_21560" data-name="Trazado 21560" d="M-121.872-3.12V-7.008h7.8v-3.024h-7.8V-13.68h8.832V-16.8h-12.7V0h13.008V-3.12ZM-109.9,0h3.744V-17.808H-109.9Zm26.664-6.408a6.392,6.392,0,0,0-6.72-6.7A6.574,6.574,0,0,0-96.84-6.456c0,3.84,2.9,6.648,7.368,6.648A6.763,6.763,0,0,0-84.144-1.9l-1.992-2.16a4.377,4.377,0,0,1-3.24,1.248,3.443,3.443,0,0,1-3.7-2.592H-83.3C-83.28-5.712-83.232-6.12-83.232-6.408Zm-6.7-3.864A3.068,3.068,0,0,1-86.76-7.584h-6.36A3.057,3.057,0,0,1-89.928-10.272ZM-64.2-13.1a5.806,5.806,0,0,0-4.656,2.112A4.82,4.82,0,0,0-73.1-13.1a5.229,5.229,0,0,0-4.056,1.68v-1.488h-3.576V0h3.744V-6.48c0-2.3,1.176-3.384,2.832-3.384,1.56,0,2.448.96,2.448,3.048V0h3.744V-6.48c0-2.3,1.176-3.384,2.856-3.384,1.512,0,2.448.96,2.448,3.048V0h3.744V-7.392C-58.92-11.328-61.128-13.1-64.2-13.1Zm16.272,0a5.017,5.017,0,0,0-4.056,1.68v-1.488H-55.56V4.656h3.744V-1.368A5.013,5.013,0,0,0-47.928.192,6.271,6.271,0,0,0-41.5-6.456,6.271,6.271,0,0,0-47.928-13.1ZM-48.576-2.88a3.259,3.259,0,0,1-3.288-3.576,3.259,3.259,0,0,1,3.288-3.576,3.259,3.259,0,0,1,3.288,3.576A3.259,3.259,0,0,1-48.576-2.88ZM-32.856.192c4.1,0,7.08-2.76,7.08-6.648s-2.976-6.648-7.08-6.648-7.1,2.76-7.1,6.648S-36.96.192-32.856.192Zm0-3.072a3.276,3.276,0,0,1-3.312-3.576,3.276,3.276,0,0,1,3.312-3.576,3.259,3.259,0,0,1,3.288,3.576A3.259,3.259,0,0,1-32.856-2.88Zm18.984-14.928v6.264a4.961,4.961,0,0,0-3.864-1.56,6.277,6.277,0,0,0-6.456,6.648A6.277,6.277,0,0,0-17.736.192,4.967,4.967,0,0,0-13.7-1.488V0h3.576V-17.808ZM-17.088-2.88A3.276,3.276,0,0,1-20.4-6.456a3.276,3.276,0,0,1,3.312-3.576A3.271,3.271,0,0,1-13.8-6.456,3.271,3.271,0,0,1-17.088-2.88ZM5.976-6.408a6.392,6.392,0,0,0-6.72-6.7A6.574,6.574,0,0,0-7.632-6.456c0,3.84,2.9,6.648,7.368,6.648A6.763,6.763,0,0,0,5.064-1.9L3.072-4.056A4.377,4.377,0,0,1-.168-2.808,3.443,3.443,0,0,1-3.864-5.4H5.9C5.928-5.712,5.976-6.12,5.976-6.408Zm-6.7-3.864A3.068,3.068,0,0,1,2.448-7.584h-6.36A3.057,3.057,0,0,1-.72-10.272Zm12.768-.936v-1.7H8.472V0h3.744V-6.1c0-2.472,1.368-3.6,3.432-3.6.288,0,.528.024.84.048V-13.1A5.211,5.211,0,0,0,12.048-11.208Zm11.808-1.9a9.926,9.926,0,0,0-5.568,1.56l1.344,2.616a6.208,6.208,0,0,1,3.72-1.2c2.016,0,2.976.936,2.976,2.544H23.352c-3.936,0-5.544,1.584-5.544,3.864,0,2.232,1.8,3.912,4.824,3.912,1.9,0,3.24-.624,3.936-1.8V0h3.5V-7.368C30.072-11.28,27.792-13.1,23.856-13.1ZM23.568-2.328c-1.32,0-2.112-.624-2.112-1.56,0-.864.552-1.512,2.3-1.512h2.568v1.32A2.759,2.759,0,0,1,23.568-2.328ZM49.992-13.1a5.806,5.806,0,0,0-4.656,2.112A4.82,4.82,0,0,0,41.088-13.1a5.229,5.229,0,0,0-4.056,1.68v-1.488H33.456V0H37.2V-6.48c0-2.3,1.176-3.384,2.832-3.384,1.56,0,2.448.96,2.448,3.048V0h3.744V-6.48c0-2.3,1.176-3.384,2.856-3.384,1.512,0,2.448.96,2.448,3.048V0h3.744V-7.392C55.272-11.328,53.064-13.1,49.992-13.1ZM60.5-14.712a2.153,2.153,0,0,0,2.328-2.16A2.1,2.1,0,0,0,60.5-18.888,2.14,2.14,0,0,0,58.176-16.8,2.14,2.14,0,0,0,60.5-14.712ZM58.632,0h3.744V-12.912H58.632ZM78.5-6.408a6.392,6.392,0,0,0-6.72-6.7A6.574,6.574,0,0,0,64.9-6.456c0,3.84,2.9,6.648,7.368,6.648A6.763,6.763,0,0,0,77.592-1.9L75.6-4.056a4.377,4.377,0,0,1-3.24,1.248,3.443,3.443,0,0,1-3.7-2.592h9.768C78.456-5.712,78.5-6.12,78.5-6.408Zm-6.7-3.864a3.068,3.068,0,0,1,3.168,2.688h-6.36A3.057,3.057,0,0,1,71.808-10.272ZM88.848-13.1a5.653,5.653,0,0,0-4.272,1.7v-1.512H81V0h3.744V-6.384c0-2.376,1.3-3.48,3.1-3.48,1.656,0,2.616.96,2.616,3.048V0H94.2V-7.392C94.2-11.328,91.9-13.1,88.848-13.1ZM104.9-3.264a2.523,2.523,0,0,1-1.512.48,1.506,1.506,0,0,1-1.608-1.7V-9.744H105v-2.88h-3.216v-3.144H98.04v3.144H96.048v2.88H98.04v5.3c0,3.072,1.776,4.632,4.824,4.632a5.351,5.351,0,0,0,3.048-.816ZM113.76.192c4.1,0,7.08-2.76,7.08-6.648s-2.976-6.648-7.08-6.648-7.1,2.76-7.1,6.648S109.656.192,113.76.192Zm0-3.072a3.276,3.276,0,0,1-3.312-3.576,3.276,3.276,0,0,1,3.312-3.576,3.259,3.259,0,0,1,3.288,3.576A3.259,3.259,0,0,1,113.76-2.88ZM124.584.192a2.291,2.291,0,0,0,2.328-2.352,2.237,2.237,0,0,0-2.328-2.3,2.237,2.237,0,0,0-2.328,2.3A2.291,2.291,0,0,0,124.584.192Z" transform="translate(693 2429)" fill="#148e9f"/>
    <g id="Grupo_11327" data-name="Grupo 11327" transform="translate(648.069 1416.611)">
      <circle id="Elipse_576" data-name="Elipse 576" cx="46" cy="46" r="46" transform="translate(-0.069 0.389)" fill="#b4f0e0"/>
    </g>
    <path id="Trazado_21477" data-name="Trazado 21477" d="M565,297.015v2.008a4.014,4.014,0,0,0,4.015,4.015H599.13l4.015,4.015-2.008,4.015,18.069,18.069c4.015,4.015,10.038,4.015,10.038,4.015H641.29V313.076s-6.023,0-10.038-4.015l-12.046-12.046C615.191,293,609.168,293,609.168,293H569.015A4.014,4.014,0,0,0,565,297.015Z" transform="translate(107.16 1115.581)" fill="#f7f7f7"/>
    <g id="Grupo_11329" data-name="Grupo 11329" transform="translate(750.458 1426.649)">
      <rect id="Rectángulo_2354" data-name="Rectángulo 2354" width="8" height="28" transform="translate(-0.458 0.351)" fill="#fed147"/>
    </g>
    <path id="Trazado_21478" data-name="Trazado 21478" d="M622.153,330.122H612.114c-.281,0-6.906-.052-11.458-4.6L582,306.862v-.831A8.039,8.039,0,0,1,590.03,298h.831l16.649,16.649-2.839,2.839-15.4-15.4a4.026,4.026,0,0,0-3.184,3.184L603.5,322.68c3.387,3.387,8.567,3.427,8.619,3.427h10.038Z" transform="translate(124.29 1120.619)" fill="#2d2d2e"/>
    <path id="Trazado_21479" data-name="Trazado 21479" d="M644.305,340.183H640.29V315.921a16.858,16.858,0,0,1-9.45-4.433l-12.046-12.046c-3.389-3.387-8.567-3.427-8.619-3.427H570.023a2.011,2.011,0,0,0-2.008,2.008v2.008a2.011,2.011,0,0,0,2.008,2.008h30.114v4.015H570.023A6.03,6.03,0,0,1,564,300.03v-2.008A6.03,6.03,0,0,1,570.023,292h40.153c.281,0,6.906.052,11.457,4.6l12.046,12.046c3.387,3.387,8.567,3.427,8.619,3.427h2.008Z" transform="translate(106.152 1114.573)" fill="#2d2d2e"/>
    <g id="Grupo_11338" data-name="Grupo 11338" transform="translate(672.16 1436.687)">
      <g id="Grupo_11334" data-name="Grupo 11334" transform="translate(2.008 24.092)">
        <path id="Trazado_21480" data-name="Trazado 21480" d="M580.053,319,566,327.031v4.015a6.023,6.023,0,0,0,6.023,6.023H600.13a6.023,6.023,0,0,0,6.023-6.023v-4.015L592.1,319Z" transform="translate(-566 -319)" fill="#fed147"/>
      </g>
      <g id="Grupo_11335" data-name="Grupo 11335" transform="translate(0 22.349)">
        <path id="Trazado_21481" data-name="Trazado 21481" d="M601.137,339.951H573.03A8.039,8.039,0,0,1,565,331.92v-5.18l15.065-8.609,1.991,3.485-13.042,7.452v2.851a4.019,4.019,0,0,0,4.015,4.015h28.107a4.019,4.019,0,0,0,4.015-4.015V329.07l-13.042-7.452,1.991-3.485,15.065,8.609v5.18A8.039,8.039,0,0,1,601.137,339.951Z" transform="translate(-565 -318.132)" fill="#2d2d2e"/>
      </g>
      <g id="Grupo_11336" data-name="Grupo 11336" transform="translate(12.046 2.008)">
        <path id="Trazado_21482" data-name="Trazado 21482" d="M591.076,318.038c0-4.015-2.008-10.038-10.038-10.038S571,314.023,571,318.038v2.008c0,6.023,4.015,12.046,10.038,12.046s10.038-6.023,10.038-12.046Z" transform="translate(-571 -308)" fill="#fff"/>
      </g>
      <g id="Grupo_11337" data-name="Grupo 11337" transform="translate(10.038)">
        <path id="Trazado_21483" data-name="Trazado 21483" d="M582.046,335.107c-7.44,0-12.046-7.294-12.046-14.053v-2.008c0-5.557,3.154-12.046,12.046-12.046s12.046,6.489,12.046,12.046v2.008C594.091,327.813,589.486,335.107,582.046,335.107Zm0-24.091c-7.247,0-8.03,5.615-8.03,8.03v2.008c0,4.828,3.07,10.038,8.03,10.038s8.031-5.21,8.031-10.038v-2.008C590.076,316.631,589.293,311.015,582.046,311.015Z" transform="translate(-570 -307)" fill="#2d2d2e"/>
      </g>
    </g>
    <g id="Grupo_11339" data-name="Grupo 11339" transform="translate(640.038 1476.84)">
      <path id="Trazado_21484" data-name="Trazado 21484" d="M625.29,363.137V361.13a4.014,4.014,0,0,0-4.015-4.015H591.16l-4.015-4.015,2.008-4.015-18.069-18.069C567.069,327,561.046,327,561.046,327H549v20.076s6.023,0,10.038,4.015l12.046,12.046c4.015,4.015,10.038,4.015,10.038,4.015h40.153A4.014,4.014,0,0,0,625.29,363.137Z" transform="translate(-549 -327)" fill="#f7f7f7"/>
    </g>
    <g id="Grupo_11341" data-name="Grupo 11341" transform="translate(630 1470.817)">
      <g id="Grupo_11340" data-name="Grupo 11340">
        <rect id="Rectángulo_2355" data-name="Rectángulo 2355" width="8" height="28" transform="translate(0 0.183)" fill="#fed147"/>
      </g>
    </g>
    <g id="Grupo_11342" data-name="Grupo 11342" transform="translate(642.046 1474.832)">
      <path id="Trazado_21485" data-name="Trazado 21485" d="M582.122,358.122h-.831l-16.649-16.649,2.839-2.839,15.4,15.4a4.029,4.029,0,0,0,3.184-3.184l-17.408-17.408c-3.389-3.387-8.567-3.427-8.619-3.427H550V326h10.038c.281,0,6.906.052,11.458,4.6l18.657,18.657v.831A8.039,8.039,0,0,1,582.122,358.122Z" transform="translate(-550 -326)" fill="#2d2d2e"/>
    </g>
    <g id="Grupo_11343" data-name="Grupo 11343" transform="translate(638.031 1470.817)">
      <path id="Trazado_21486" data-name="Trazado 21486" d="M622.282,372.183H582.13c-.281,0-6.906-.052-11.457-4.6l-12.046-12.046c-3.389-3.387-8.567-3.427-8.619-3.427H548V324h4.015v24.262a16.858,16.858,0,0,1,9.45,4.433l12.046,12.046c3.387,3.387,8.567,3.427,8.619,3.427h40.153a2.011,2.011,0,0,0,2.008-2.008v-2.008a2.011,2.011,0,0,0-2.008-2.008H592.168V358.13h30.114a6.03,6.03,0,0,1,6.023,6.023v2.008A6.03,6.03,0,0,1,622.282,372.183Z" transform="translate(-548 -324)" fill="#2d2d2e"/>
    </g>
    <g id="Grupo_11353" data-name="Grupo 11353" transform="translate(1031 983.581)">
      <g id="Grupo_11346" data-name="Grupo 11346" transform="translate(160 416)">
        <g id="Grupo_11344" data-name="Grupo 11344" transform="translate(16.653)">
          <path id="Trazado_21487" data-name="Trazado 21487" d="M254.114,458.557a42.557,42.557,0,0,0-85.114,0c0,38.856,42.557,72.162,42.557,72.162S254.114,497.413,254.114,458.557Z" transform="translate(-169 -416)" fill="#fed147"/>
        </g>
        <g id="Grupo_11345" data-name="Grupo 11345" transform="translate(0 114.719)">
          <rect id="Rectángulo_2356" data-name="Rectángulo 2356" width="118" height="4" transform="translate(0 -0.299)" fill="#2d2d2e"/>
        </g>
      </g>
      <g id="Grupo_11347" data-name="Grupo 11347" transform="translate(184.054 423.401)">
        <circle id="Elipse_577" data-name="Elipse 577" cx="35" cy="35" r="35" transform="translate(-0.054 0.018)" fill="#fff"/>
      </g>
      <g id="Grupo_11348" data-name="Grupo 11348" transform="translate(187.755 427.102)">
        <circle id="Elipse_578" data-name="Elipse 578" cx="31.5" cy="31.5" r="31.5" transform="translate(0.246 0.318)" fill="#b4f0e0"/>
      </g>
      <g id="Grupo_11352" data-name="Grupo 11352" transform="translate(204.949 444.297)">
        <g id="Grupo_11349" data-name="Grupo 11349">
          <rect id="Rectángulo_2357" data-name="Rectángulo 2357" width="36.634" height="3.7" transform="translate(0 25.904) rotate(-45)" fill="#2d2d2e"/>
        </g>
        <g id="Grupo_11350" data-name="Grupo 11350" transform="translate(1.308 1.308)">
          <path id="Trazado_21488" data-name="Trazado 21488" d="M190.551,443.1a5.551,5.551,0,1,1,5.551-5.551A5.558,5.558,0,0,1,190.551,443.1Zm0-7.4a1.85,1.85,0,1,0,1.85,1.85A1.853,1.853,0,0,0,190.551,435.7Z" transform="translate(-185 -432)" fill="#2d2d2e"/>
        </g>
        <g id="Grupo_11351" data-name="Grupo 11351" transform="translate(16.111 16.111)">
          <path id="Trazado_21489" data-name="Trazado 21489" d="M198.551,451.1a5.551,5.551,0,1,1,5.551-5.551A5.558,5.558,0,0,1,198.551,451.1Zm0-7.4a1.85,1.85,0,1,0,1.85,1.85A1.853,1.853,0,0,0,198.551,443.7Z" transform="translate(-193 -440)" fill="#2d2d2e"/>
        </g>
      </g>
    </g>
    <g id="Grupo_11364" data-name="Grupo 11364" transform="translate(571 1096)">
      <g id="Grupo_11354" data-name="Grupo 11354" transform="translate(89.813 576)">
        <path id="Trazado_21490" data-name="Trazado 21490" d="M125.188,635s33.188-22.125,33.188-42.406A16.594,16.594,0,0,0,141.781,576c-9.164,0-16.594,7.375-16.594,12.906,0-5.531-7.429-12.906-16.594-12.906A16.594,16.594,0,0,0,92,592.594C92,612.875,125.188,635,125.188,635Z" transform="translate(-92 -576)" fill="#fed147"/>
      </g>
      <g id="Grupo_11355" data-name="Grupo 11355" transform="translate(121.156 612.875)">
        <rect id="Rectángulo_2358" data-name="Rectángulo 2358" width="4" height="79" transform="translate(-0.156 0.125)" fill="#2d2d2e"/>
      </g>
      <g id="Grupo_11356" data-name="Grupo 11356" transform="translate(128.531 633.156)">
        <path id="Trazado_21491" data-name="Trazado 21491" d="M146.906,638a12.906,12.906,0,1,0,12.906,12.906V638Z" transform="translate(-134 -638)" fill="#b4f0e0"/>
      </g>
      <g id="Grupo_11357" data-name="Grupo 11357" transform="translate(91.656 642.375)">
        <path id="Trazado_21492" data-name="Trazado 21492" d="M106.906,648A12.906,12.906,0,1,1,94,660.906V648Z" transform="translate(-94 -648)" fill="#b4f0e0"/>
      </g>
      <g id="Grupo_11358" data-name="Grupo 11358" transform="translate(121.156 598.125)">
        <rect id="Rectángulo_2359" data-name="Rectángulo 2359" width="4" height="4" transform="translate(-0.156 -0.125)" fill="#2d2d2e"/>
      </g>
      <g id="Grupo_11359" data-name="Grupo 11359" transform="translate(121.156 605.5)">
        <rect id="Rectángulo_2360" data-name="Rectángulo 2360" width="4" height="4" transform="translate(-0.156 -0.5)" fill="#2d2d2e"/>
      </g>
      <g id="Grupo_11360" data-name="Grupo 11360" transform="translate(121.156 644.759)">
        <path id="Trazado_21493" data-name="Trazado 21493" d="M129.688,675.858H126a15.936,15.936,0,0,1,4.228-10.522l14.75-14.75,2.607,2.607-14.75,14.75A12.376,12.376,0,0,0,129.688,675.858Z" transform="translate(-126 -650.586)" fill="#2d2d2e"/>
      </g>
      <g id="Grupo_11361" data-name="Grupo 11361" transform="translate(103.259 653.978)">
        <path id="Trazado_21494" data-name="Trazado 21494" d="M128.171,685.858h-3.687a12.183,12.183,0,0,0-3.147-7.915l-14.75-14.75,2.607-2.607,14.75,14.75A15.936,15.936,0,0,1,128.171,685.858Z" transform="translate(-106.586 -660.586)" fill="#2d2d2e"/>
      </g>
      <g id="Grupo_11362" data-name="Grupo 11362" transform="translate(86.125 679.25)">
        <path id="Trazado_21495" data-name="Trazado 21495" d="M88,699.063S108.583,688,124.875,688s36.875,11.063,36.875,11.063Z" transform="translate(-88 -688)" fill="#595857"/>
      </g>
      <g id="Grupo_11363" data-name="Grupo 11363" transform="translate(64 690.313)">
        <rect id="Rectángulo_2361" data-name="Rectángulo 2361" width="118" height="4" transform="translate(0 -0.312)" fill="#2d2d2e"/>
      </g>
    </g>
    <g id="Grupo_11428" data-name="Grupo 11428" transform="translate(54 2168)">
      <g id="Grupo_11366" data-name="Grupo 11366">
        <g id="Grupo_11365" data-name="Grupo 11365">
          <rect id="Rectángulo_2362" data-name="Rectángulo 2362" width="60" height="32" transform="translate(576 152)" fill="#a8a7a5"/>
        </g>
      </g>
      <g id="Grupo_11380" data-name="Grupo 11380">
        <g id="Grupo_11368" data-name="Grupo 11368">
          <g id="Grupo_11367" data-name="Grupo 11367">
            <rect id="Rectángulo_2363" data-name="Rectángulo 2363" width="32" height="60" transform="translate(616 124) rotate(180)" fill="#fed147"/>
          </g>
        </g>
        <g id="Grupo_11379" data-name="Grupo 11379">
          <g id="Grupo_11370" data-name="Grupo 11370">
            <g id="Grupo_11369" data-name="Grupo 11369">
              <path id="Trazado_21496" data-name="Trazado 21496" d="M586,182h4a4,4,0,0,0,4,3.995l4,.005a4,4,0,0,0,8,0,4,4,0,0,0,4.672,3.945A4.148,4.148,0,0,0,614,185.786V150h12v-4.343a4,4,0,0,0-1.172-2.829L614,132v-6H586l-4,26v26A4,4,0,0,0,586,182Z" fill="#fff"/>
            </g>
          </g>
          <g id="Grupo_11372" data-name="Grupo 11372">
            <g id="Grupo_11371" data-name="Grupo 11371">
              <path id="Trazado_21497" data-name="Trazado 21497" d="M602,192a6.006,6.006,0,0,1-6-6h4a2,2,0,0,0,4,0h4A6.006,6.006,0,0,1,602,192Z" fill="#2d2d2e"/>
            </g>
          </g>
          <g id="Grupo_11374" data-name="Grupo 11374">
            <g id="Grupo_11373" data-name="Grupo 11373">
              <path id="Trazado_21498" data-name="Trazado 21498" d="M598,187.995h-4A6,6,0,0,1,588,182V172h4v10a2,2,0,0,0,2,1.995h4Z" fill="#2d2d2e"/>
            </g>
          </g>
          <g id="Grupo_11376" data-name="Grupo 11376">
            <g id="Grupo_11375" data-name="Grupo 11375">
              <rect id="Rectángulo_2364" data-name="Rectángulo 2364" width="4" height="10" transform="translate(596 176)" fill="#2d2d2e"/>
            </g>
          </g>
          <g id="Grupo_11378" data-name="Grupo 11378">
            <g id="Grupo_11377" data-name="Grupo 11377">
              <path id="Trazado_21499" data-name="Trazado 21499" d="M609.99,192a6.052,6.052,0,0,1-.983-.08A6.167,6.167,0,0,1,604,185.786V176h4v9.786a2.172,2.172,0,0,0,1.649,2.186,2.021,2.021,0,0,0,1.646-.448A2,2,0,0,0,612,186V148h12v-2.343a1.989,1.989,0,0,0-.586-1.415L612,132.828V128H587.716L584,152.153V178a2,2,0,0,0,2,2h4v4h-4a6.006,6.006,0,0,1-6-6l.023-26.3,4.261-27.7H616v7.172l10.242,10.242A5.96,5.96,0,0,1,628,145.657V152H616v34a6,6,0,0,1-6.01,6Z" fill="#2d2d2e"/>
            </g>
          </g>
        </g>
      </g>
      <g id="Grupo_11394" data-name="Grupo 11394">
        <g id="Grupo_11382" data-name="Grupo 11382">
          <g id="Grupo_11381" data-name="Grupo 11381">
            <rect id="Rectángulo_2365" data-name="Rectángulo 2365" width="60" height="32" transform="translate(644 72)" fill="#a8a7a5"/>
          </g>
        </g>
        <g id="Grupo_11393" data-name="Grupo 11393">
          <g id="Grupo_11384" data-name="Grupo 11384">
            <g id="Grupo_11383" data-name="Grupo 11383">
              <path id="Trazado_21500" data-name="Trazado 21500" d="M586,74v4a4,4,0,0,0-3.995,4L582,86a4,4,0,0,0,0,8,4,4,0,0,0-3.945,4.672A4.148,4.148,0,0,0,582.214,102H618v12h4.343a4,4,0,0,0,2.829-1.172L636,102h6V74l-26-4H590A4,4,0,0,0,586,74Z" fill="#fff"/>
            </g>
          </g>
          <g id="Grupo_11386" data-name="Grupo 11386">
            <g id="Grupo_11385" data-name="Grupo 11385">
              <path id="Trazado_21501" data-name="Trazado 21501" d="M582,96a6,6,0,0,1,0-12v4a2,2,0,0,0,0,4Z" fill="#2d2d2e"/>
            </g>
          </g>
          <g id="Grupo_11388" data-name="Grupo 11388">
            <g id="Grupo_11387" data-name="Grupo 11387">
              <path id="Trazado_21502" data-name="Trazado 21502" d="M584.005,86h-4V82A6,6,0,0,1,586,76h10v4H586a2,2,0,0,0-1.995,2Z" fill="#2d2d2e"/>
            </g>
          </g>
          <g id="Grupo_11390" data-name="Grupo 11390">
            <g id="Grupo_11389" data-name="Grupo 11389">
              <rect id="Rectángulo_2366" data-name="Rectángulo 2366" width="10" height="4" transform="translate(582 84)" fill="#2d2d2e"/>
            </g>
          </g>
          <g id="Grupo_11392" data-name="Grupo 11392">
            <g id="Grupo_11391" data-name="Grupo 11391">
              <path id="Trazado_21503" data-name="Trazado 21503" d="M622.343,116H616V104H582a6,6,0,0,1-5.919-6.993A6.167,6.167,0,0,1,582.214,92H592v4h-9.786a2.172,2.172,0,0,0-2.186,1.649A2,2,0,0,0,582,100h38v12h2.343a1.989,1.989,0,0,0,1.415-.586L635.172,100H640V75.716L615.847,72H590a2,2,0,0,0-2,2v4h-4V74a6.006,6.006,0,0,1,6-6l26.3.023L644,72.284V104h-7.172l-10.242,10.242A5.96,5.96,0,0,1,622.343,116Z" fill="#2d2d2e"/>
            </g>
          </g>
        </g>
      </g>
      <g id="Grupo_11408" data-name="Grupo 11408">
        <g id="Grupo_11396" data-name="Grupo 11396">
          <g id="Grupo_11395" data-name="Grupo 11395">
            <rect id="Rectángulo_2367" data-name="Rectángulo 2367" width="32" height="60" transform="translate(664 132)" fill="#fed147"/>
          </g>
        </g>
        <g id="Grupo_11407" data-name="Grupo 11407">
          <g id="Grupo_11398" data-name="Grupo 11398">
            <g id="Grupo_11397" data-name="Grupo 11397">
              <path id="Trazado_21504" data-name="Trazado 21504" d="M694,74h-4a4,4,0,0,0-4-4l-4,0a4,4,0,0,0-8,0,4,4,0,0,0-4.672-3.945A4.148,4.148,0,0,0,666,70.214V106H654v4.343a4,4,0,0,0,1.172,2.829L666,124v6h28l4-26V78A4,4,0,0,0,694,74Z" fill="#fff"/>
            </g>
          </g>
          <g id="Grupo_11400" data-name="Grupo 11400">
            <g id="Grupo_11399" data-name="Grupo 11399">
              <path id="Trazado_21505" data-name="Trazado 21505" d="M684,70h-4a2,2,0,0,0-4,0h-4a6,6,0,0,1,12,0Z" fill="#2d2d2e"/>
            </g>
          </g>
          <g id="Grupo_11402" data-name="Grupo 11402">
            <g id="Grupo_11401" data-name="Grupo 11401">
              <path id="Trazado_21506" data-name="Trazado 21506" d="M692,84h-4V74a2,2,0,0,0-2-2h-4V68h4a6,6,0,0,1,6,6Z" fill="#2d2d2e"/>
            </g>
          </g>
          <g id="Grupo_11404" data-name="Grupo 11404">
            <g id="Grupo_11403" data-name="Grupo 11403">
              <rect id="Rectángulo_2368" data-name="Rectángulo 2368" width="4" height="10" transform="translate(680 70)" fill="#2d2d2e"/>
            </g>
          </g>
          <g id="Grupo_11406" data-name="Grupo 11406">
            <g id="Grupo_11405" data-name="Grupo 11405">
              <path id="Trazado_21507" data-name="Trazado 21507" d="M695.716,132H664v-7.172l-10.242-10.242A5.96,5.96,0,0,1,652,110.343V104h12V70a6,6,0,0,1,6.993-5.919A6.167,6.167,0,0,1,676,70.214V80h-4V70.214a2.172,2.172,0,0,0-1.649-2.186A2,2,0,0,0,668,70v38H656v2.343a1.989,1.989,0,0,0,.586,1.415L668,123.172V128h24.284L696,103.847V78a2,2,0,0,0-2-2h-4V72h4a6.006,6.006,0,0,1,6,6l-.023,26.3Z" fill="#2d2d2e"/>
            </g>
          </g>
        </g>
      </g>
      <g id="Grupo_11419" data-name="Grupo 11419">
        <g id="Grupo_11410" data-name="Grupo 11410">
          <g id="Grupo_11409" data-name="Grupo 11409">
            <path id="Trazado_21508" data-name="Trazado 21508" d="M694,182v-4a4,4,0,0,0,3.995-4l.005-4a4,4,0,0,0,0-8,4,4,0,0,0,3.945-4.672A4.148,4.148,0,0,0,697.786,154H662V142h-4.343a4,4,0,0,0-2.829,1.172L644,154h-6v28l26,4h26A4,4,0,0,0,694,182Z" fill="#fff"/>
          </g>
        </g>
        <g id="Grupo_11412" data-name="Grupo 11412">
          <g id="Grupo_11411" data-name="Grupo 11411">
            <path id="Trazado_21509" data-name="Trazado 21509" d="M698,172v-4a2,2,0,0,0,0-4v-4a6,6,0,0,1,0,12Z" fill="#2d2d2e"/>
          </g>
        </g>
        <g id="Grupo_11414" data-name="Grupo 11414">
          <g id="Grupo_11413" data-name="Grupo 11413">
            <path id="Trazado_21510" data-name="Trazado 21510" d="M694,180H684v-4h10a2,2,0,0,0,1.995-2v-4h4v4A6,6,0,0,1,694,180Z" fill="#2d2d2e"/>
          </g>
        </g>
        <g id="Grupo_11416" data-name="Grupo 11416">
          <g id="Grupo_11415" data-name="Grupo 11415">
            <rect id="Rectángulo_2369" data-name="Rectángulo 2369" width="10" height="4" transform="translate(688 168)" fill="#2d2d2e"/>
          </g>
        </g>
        <g id="Grupo_11418" data-name="Grupo 11418">
          <g id="Grupo_11417" data-name="Grupo 11417">
            <path id="Trazado_21511" data-name="Trazado 21511" d="M690,188l-26.3-.023L636,183.716V152h7.172l10.242-10.242A5.96,5.96,0,0,1,657.657,140H664v12h34a6,6,0,0,1,5.919,6.993A6.167,6.167,0,0,1,697.786,164H688v-4h9.786a2.172,2.172,0,0,0,2.186-1.649A2,2,0,0,0,698,156H660V144h-2.343a1.989,1.989,0,0,0-1.415.586L644.828,156H640v24.284L664.153,184H690a2,2,0,0,0,2-2v-4h4v4A6.006,6.006,0,0,1,690,188Z" fill="#2d2d2e"/>
          </g>
        </g>
      </g>
      <g id="Grupo_11421" data-name="Grupo 11421">
        <g id="Grupo_11420" data-name="Grupo 11420">
          <rect id="Rectángulo_2370" data-name="Rectángulo 2370" width="4" height="4" transform="translate(668 136)" fill="#2d2d2e"/>
        </g>
      </g>
      <g id="Grupo_11423" data-name="Grupo 11423">
        <g id="Grupo_11422" data-name="Grupo 11422">
          <rect id="Rectángulo_2371" data-name="Rectángulo 2371" width="4" height="4" transform="translate(628 156)" fill="#2d2d2e"/>
        </g>
      </g>
      <g id="Grupo_11425" data-name="Grupo 11425">
        <g id="Grupo_11424" data-name="Grupo 11424">
          <rect id="Rectángulo_2372" data-name="Rectángulo 2372" width="4" height="4" transform="translate(608 116)" fill="#2d2d2e"/>
        </g>
      </g>
      <g id="Grupo_11427" data-name="Grupo 11427">
        <g id="Grupo_11426" data-name="Grupo 11426">
          <rect id="Rectángulo_2373" data-name="Rectángulo 2373" width="4" height="4" transform="translate(648 96)" fill="#2d2d2e"/>
        </g>
      </g>
    </g>
    <g id="Grupo_11482" data-name="Grupo 11482" transform="translate(310 1879)">
      <g id="Grupo_11430" data-name="Grupo 11430">
        <g id="Grupo_11429" data-name="Grupo 11429">
          <path id="Trazado_21512" data-name="Trazado 21512" d="M422,190H330V66h80l12,12Z" fill="#fff"/>
        </g>
      </g>
      <g id="Grupo_11432" data-name="Grupo 11432">
        <g id="Grupo_11431" data-name="Grupo 11431">
          <path id="Trazado_21513" data-name="Trazado 21513" d="M416,184H336V72h68V84h12Z" fill="#b4f0e0"/>
        </g>
      </g>
      <g id="Grupo_11434" data-name="Grupo 11434">
        <g id="Grupo_11433" data-name="Grupo 11433">
          <path id="Trazado_21514" data-name="Trazado 21514" d="M424,136h-4V78.828L409.172,68H332v68h-4V64h82.828L424,77.172Z" fill="#2d2d2e"/>
        </g>
      </g>
      <g id="Grupo_11436" data-name="Grupo 11436">
        <g id="Grupo_11435" data-name="Grupo 11435">
          <path id="Trazado_21515" data-name="Trazado 21515" d="M424,192H328V156h4v32h88V156h4Z" fill="#2d2d2e"/>
        </g>
      </g>
      <g id="Grupo_11438" data-name="Grupo 11438">
        <g id="Grupo_11437" data-name="Grupo 11437">
          <path id="Trazado_21516" data-name="Trazado 21516" d="M422,80H408V66h4V76h10Z" fill="#2d2d2e"/>
        </g>
      </g>
      <g id="Grupo_11440" data-name="Grupo 11440">
        <g id="Grupo_11439" data-name="Grupo 11439">
          <rect id="Rectángulo_2374" data-name="Rectángulo 2374" width="4" height="4" transform="translate(344 80)" fill="#2d2d2e"/>
        </g>
      </g>
      <g id="Grupo_11442" data-name="Grupo 11442">
        <g id="Grupo_11441" data-name="Grupo 11441">
          <rect id="Rectángulo_2375" data-name="Rectángulo 2375" width="4" height="4" transform="translate(352 80)" fill="#2d2d2e"/>
        </g>
      </g>
      <g id="Grupo_11444" data-name="Grupo 11444">
        <g id="Grupo_11443" data-name="Grupo 11443">
          <rect id="Rectángulo_2376" data-name="Rectángulo 2376" width="4" height="4" transform="translate(360 80)" fill="#2d2d2e"/>
        </g>
      </g>
      <g id="Grupo_11446" data-name="Grupo 11446">
        <g id="Grupo_11445" data-name="Grupo 11445">
          <rect id="Rectángulo_2377" data-name="Rectángulo 2377" width="64" height="4" transform="translate(344 96)" fill="#2d2d2e"/>
        </g>
      </g>
      <g id="Grupo_11448" data-name="Grupo 11448">
        <g id="Grupo_11447" data-name="Grupo 11447">
          <rect id="Rectángulo_2378" data-name="Rectángulo 2378" width="64" height="4" transform="translate(344 104)" fill="#2d2d2e"/>
        </g>
      </g>
      <g id="Grupo_11450" data-name="Grupo 11450">
        <g id="Grupo_11449" data-name="Grupo 11449">
          <rect id="Rectángulo_2379" data-name="Rectángulo 2379" width="64" height="4" transform="translate(344 112)" fill="#2d2d2e"/>
        </g>
      </g>
      <g id="Grupo_11452" data-name="Grupo 11452">
        <g id="Grupo_11451" data-name="Grupo 11451">
          <rect id="Rectángulo_2380" data-name="Rectángulo 2380" width="64" height="4" transform="translate(344 120)" fill="#2d2d2e"/>
        </g>
      </g>
      <g id="Grupo_11454" data-name="Grupo 11454">
        <g id="Grupo_11453" data-name="Grupo 11453">
          <rect id="Rectángulo_2381" data-name="Rectángulo 2381" width="32" height="4" transform="translate(344 128)" fill="#2d2d2e"/>
        </g>
      </g>
      <g id="Grupo_11456" data-name="Grupo 11456">
        <g id="Grupo_11455" data-name="Grupo 11455">
          <path id="Trazado_21517" data-name="Trazado 21517" d="M384,168a7.124,7.124,0,0,1-5.415-2.587c-.98-.979-1.459-1.413-2.585-1.413s-1.605.434-2.585,1.413a6.961,6.961,0,0,1-10.829,0C361.6,164.434,361.124,164,360,164s-1.6.434-2.587,1.415a6.96,6.96,0,0,1-10.826,0C345.6,164.434,345.123,164,344,164v-4a7.133,7.133,0,0,1,5.413,2.585c.983.981,1.464,1.415,2.587,1.415s1.6-.434,2.587-1.415a6.961,6.961,0,0,1,10.827,0c.982.981,1.462,1.415,2.586,1.415s1.605-.434,2.585-1.413a6.961,6.961,0,0,1,10.83,0c.98.979,1.459,1.413,2.585,1.413Z" fill="#2d2d2e"/>
        </g>
      </g>
      <g id="Grupo_11458" data-name="Grupo 11458">
        <g id="Grupo_11457" data-name="Grupo 11457">
          <rect id="Rectángulo_2382" data-name="Rectángulo 2382" width="40" height="4" transform="translate(344 172)" fill="#2d2d2e"/>
        </g>
      </g>
      <g id="Grupo_11460" data-name="Grupo 11460">
        <g id="Grupo_11459" data-name="Grupo 11459">
          <rect id="Rectángulo_2383" data-name="Rectángulo 2383" width="4" height="4" transform="translate(428 132)" fill="#2d2d2e"/>
        </g>
      </g>
      <g id="Grupo_11462" data-name="Grupo 11462">
        <g id="Grupo_11461" data-name="Grupo 11461">
          <rect id="Rectángulo_2384" data-name="Rectángulo 2384" width="4" height="4" transform="translate(436 132)" fill="#2d2d2e"/>
        </g>
      </g>
      <g id="Grupo_11481" data-name="Grupo 11481">
        <g id="Grupo_11464" data-name="Grupo 11464">
          <g id="Grupo_11463" data-name="Grupo 11463">
            <rect id="Rectángulo_2385" data-name="Rectángulo 2385" width="4" height="4" transform="translate(324 144)" fill="#e8e6e4"/>
          </g>
        </g>
        <g id="Grupo_11466" data-name="Grupo 11466">
          <g id="Grupo_11465" data-name="Grupo 11465">
            <path id="Trazado_21518" data-name="Trazado 21518" d="M330,142v8H438l8-4-8-4Z" fill="#fed147"/>
          </g>
        </g>
        <g id="Grupo_11468" data-name="Grupo 11468">
          <g id="Grupo_11467" data-name="Grupo 11467">
            <rect id="Rectángulo_2386" data-name="Rectángulo 2386" width="4" height="4" transform="translate(412 144)" fill="#e8e6e4"/>
          </g>
        </g>
        <g id="Grupo_11470" data-name="Grupo 11470">
          <g id="Grupo_11469" data-name="Grupo 11469">
            <rect id="Rectángulo_2387" data-name="Rectángulo 2387" width="4" height="4" transform="translate(420 144)" fill="#e8e6e4"/>
          </g>
        </g>
        <g id="Grupo_11472" data-name="Grupo 11472">
          <g id="Grupo_11471" data-name="Grupo 11471">
            <path id="Trazado_21519" data-name="Trazado 21519" d="M438,152H322a2,2,0,0,1-2-2v-8a2,2,0,0,1,2-2H438a2,2,0,0,1,.895.211l8,4a2,2,0,0,1,0,3.578l-8,4A2,2,0,0,1,438,152Zm-114-4H437.528l4-2-4-2H324Z" fill="#2d2d2e"/>
          </g>
        </g>
        <g id="Grupo_11474" data-name="Grupo 11474">
          <g id="Grupo_11473" data-name="Grupo 11473">
            <rect id="Rectángulo_2388" data-name="Rectángulo 2388" width="4" height="4" transform="translate(424 144)" fill="#2d2d2e"/>
          </g>
        </g>
        <g id="Grupo_11476" data-name="Grupo 11476">
          <g id="Grupo_11475" data-name="Grupo 11475">
            <rect id="Rectángulo_2389" data-name="Rectángulo 2389" width="4" height="4" transform="translate(416 144)" fill="#2d2d2e"/>
          </g>
        </g>
        <g id="Grupo_11478" data-name="Grupo 11478">
          <g id="Grupo_11477" data-name="Grupo 11477">
            <rect id="Rectángulo_2390" data-name="Rectángulo 2390" width="4" height="4" transform="translate(408 144)" fill="#2d2d2e"/>
          </g>
        </g>
        <g id="Grupo_11480" data-name="Grupo 11480">
          <g id="Grupo_11479" data-name="Grupo 11479">
            <rect id="Rectángulo_2391" data-name="Rectángulo 2391" width="4" height="4" transform="translate(328 144)" fill="#2d2d2e"/>
          </g>
        </g>
      </g>
    </g>
    <g id="Grupo_11524" data-name="Grupo 11524" transform="translate(610 1367)">
      <g id="Grupo_11507" data-name="Grupo 11507">
        <g id="Grupo_11484" data-name="Grupo 11484">
          <g id="Grupo_11483" data-name="Grupo 11483">
            <path id="Trazado_21520" data-name="Trazado 21520" d="M638,624l-10,4-10-4v-8h20Z" fill="#a8a7a5"/>
          </g>
        </g>
        <g id="Grupo_11486" data-name="Grupo 11486">
          <g id="Grupo_11485" data-name="Grupo 11485">
            <path id="Trazado_21521" data-name="Trazado 21521" d="M646,632l-2-2-8,8-8-6-8,6-8-8-2,2c-16,10-26,11.61-26,24v12h88V656C672,643.61,662,642,646,632Z" fill="#fed147"/>
          </g>
        </g>
        <g id="Grupo_11488" data-name="Grupo 11488">
          <g id="Grupo_11487" data-name="Grupo 11487">
            <path id="Trazado_21522" data-name="Trazado 21522" d="M612,594a2,2,0,0,0-2,2v6a2,2,0,0,0,4,0v-6A2,2,0,0,0,612,594Z" fill="#a8a7a5"/>
          </g>
        </g>
        <g id="Grupo_11490" data-name="Grupo 11490">
          <g id="Grupo_11489" data-name="Grupo 11489">
            <path id="Trazado_21523" data-name="Trazado 21523" d="M644,594a2,2,0,0,0-2,2v6a2,2,0,0,0,4,0v-6A2,2,0,0,0,644,594Z" fill="#a8a7a5"/>
          </g>
        </g>
        <g id="Grupo_11492" data-name="Grupo 11492">
          <g id="Grupo_11491" data-name="Grupo 11491">
            <path id="Trazado_21524" data-name="Trazado 21524" d="M644,596v4c0,6-2.775,11.55-6,18-2,4-10,4-10,4s-8,0-10-4c-3.225-6.45-6-12-6-18v-4h0c4,0,6-10,6-10s4,6,10,6h10C642,592,644,596,644,596Z" fill="#e8e6e4"/>
          </g>
        </g>
        <g id="Grupo_11494" data-name="Grupo 11494">
          <g id="Grupo_11493" data-name="Grupo 11493">
            <rect id="Rectángulo_2392" data-name="Rectángulo 2392" width="4" height="4" transform="translate(626 652)" fill="#2d2d2e"/>
          </g>
        </g>
        <g id="Grupo_11496" data-name="Grupo 11496">
          <g id="Grupo_11495" data-name="Grupo 11495">
            <rect id="Rectángulo_2393" data-name="Rectángulo 2393" width="4" height="4" transform="translate(626 644)" fill="#2d2d2e"/>
          </g>
        </g>
        <g id="Grupo_11498" data-name="Grupo 11498">
          <g id="Grupo_11497" data-name="Grupo 11497">
            <path id="Trazado_21525" data-name="Trazado 21525" d="M612,590v6h0c4,0,6-10,6-10s4,6,10,6h10c4,0,6,4,6,4v-6c0-8-6-14-16-14a8.76,8.76,0,0,0-6,2S612,578,612,590Z" fill="#595857"/>
          </g>
        </g>
        <g id="Grupo_11500" data-name="Grupo 11500">
          <g id="Grupo_11499" data-name="Grupo 11499">
            <rect id="Rectángulo_2394" data-name="Rectángulo 2394" width="4" height="8" transform="translate(600 660)" fill="#2d2d2e"/>
          </g>
        </g>
        <g id="Grupo_11502" data-name="Grupo 11502">
          <g id="Grupo_11501" data-name="Grupo 11501">
            <rect id="Rectángulo_2395" data-name="Rectángulo 2395" width="4" height="8" transform="translate(652 660)" fill="#2d2d2e"/>
          </g>
        </g>
        <g id="Grupo_11504" data-name="Grupo 11504">
          <g id="Grupo_11503" data-name="Grupo 11503">
            <path id="Trazado_21526" data-name="Trazado 21526" d="M636,638l-8-6-8,6-8-8,6-6,10,4,10-4,6,6Z" fill="#e8e6e4"/>
          </g>
        </g>
        <g id="Grupo_11506" data-name="Grupo 11506">
          <g id="Grupo_11505" data-name="Grupo 11505">
            <path id="Trazado_21527" data-name="Trazado 21527" d="M636.188,640.641,628,634.5l-8.187,6.141-9.227-9.227,2.828-2.828,6.773,6.773L628,629.5l7.813,5.859,6.773-6.773,2.828,2.828Z" fill="#2d2d2e"/>
          </g>
        </g>
      </g>
      <g id="Grupo_11509" data-name="Grupo 11509">
        <g id="Grupo_11508" data-name="Grupo 11508">
          <rect id="Rectángulo_2396" data-name="Rectángulo 2396" width="128" height="12" transform="translate(576 668)" fill="#595857"/>
        </g>
      </g>
      <g id="Grupo_11511" data-name="Grupo 11511">
        <g id="Grupo_11510" data-name="Grupo 11510">
          <rect id="Rectángulo_2397" data-name="Rectángulo 2397" width="104" height="20" transform="translate(588 684)" fill="#b4f0e0"/>
        </g>
      </g>
      <g id="Grupo_11513" data-name="Grupo 11513">
        <g id="Grupo_11512" data-name="Grupo 11512">
          <path id="Trazado_21528" data-name="Trazado 21528" d="M696,704h-4V684H588v20h-4V680H696Z" fill="#2d2d2e"/>
        </g>
      </g>
      <g id="Grupo_11515" data-name="Grupo 11515">
        <g id="Grupo_11514" data-name="Grupo 11514">
          <rect id="Rectángulo_2398" data-name="Rectángulo 2398" width="4" height="4" transform="translate(656 610)" fill="#2d2d2e"/>
        </g>
      </g>
      <g id="Grupo_11517" data-name="Grupo 11517">
        <g id="Grupo_11516" data-name="Grupo 11516">
          <rect id="Rectángulo_2399" data-name="Rectángulo 2399" width="4" height="4" transform="translate(666 614)" fill="#2d2d2e"/>
        </g>
      </g>
      <g id="Grupo_11519" data-name="Grupo 11519">
        <g id="Grupo_11518" data-name="Grupo 11518">
          <rect id="Rectángulo_2400" data-name="Rectángulo 2400" width="4" height="4" transform="translate(646 616)" fill="#2d2d2e"/>
        </g>
      </g>
      <g id="Grupo_11521" data-name="Grupo 11521">
        <g id="Grupo_11520" data-name="Grupo 11520">
          <path id="Trazado_21529" data-name="Trazado 21529" d="M660,620a6,6,0,0,0-6,6l10,10a6,6,0,0,0,6-6Z" fill="#a8a7a5"/>
        </g>
      </g>
      <g id="Grupo_11523" data-name="Grupo 11523">
        <g id="Grupo_11522" data-name="Grupo 11522">
          <path id="Trazado_21530" data-name="Trazado 21530" d="M696,668H676v-4h16v-9.172l-20.985-20.984A8.01,8.01,0,0,1,664,638h-.828L652,626.828V626a8.009,8.009,0,0,1,8-8h.828L696,653.172Zm-39.928-42.757,8.685,8.685a4.011,4.011,0,0,0,3.171-3.171l-8.685-8.685A4.011,4.011,0,0,0,656.072,625.243Z" fill="#2d2d2e"/>
        </g>
      </g>
    </g>
    <g id="Grupo_11549" data-name="Grupo 11549" transform="translate(909 1265.375)">
      <g id="Grupo_11525" data-name="Grupo 11525" transform="translate(288 459.125)">
        <rect id="Rectángulo_2401" data-name="Rectángulo 2401" width="30" height="3" transform="translate(0 0.5)" fill="#fff"/>
      </g>
      <g id="Grupo_11526" data-name="Grupo 11526" transform="translate(288 462.469)">
        <rect id="Rectángulo_2402" data-name="Rectángulo 2402" width="30" height="47" transform="translate(0 0.156)" fill="#fed147"/>
      </g>
      <g id="Grupo_11527" data-name="Grupo 11527" transform="translate(321.438 420.672)">
        <path id="Trazado_21531" data-name="Trazado 21531" d="M308,456.781h6.688l18.391-16.719L344.781,420h0c5.016,0,6.688,5.016,6.688,8.359a30.217,30.217,0,0,1-1.672,8.359l-8.359,18.391,1.672,1.672h26.75a6.688,6.688,0,0,1,0,13.375H373.2a6.688,6.688,0,0,1,0,13.375h-3.344a6.688,6.688,0,0,1,0,13.375h-3.344a6.688,6.688,0,0,1,0,13.375H323.047l-6.687-3.344H308Z" transform="translate(-308 -420)" fill="#e8e6e4"/>
      </g>
      <g id="Grupo_11528" data-name="Grupo 11528" transform="translate(359.891 484.203)">
        <path id="Trazado_21532" data-name="Trazado 21532" d="M337.688,458a6.688,6.688,0,0,0,0,13.375h16.719a6.688,6.688,0,0,0,0-13.375Z" transform="translate(-331 -458)" fill="#e8e6e4"/>
      </g>
      <g id="Grupo_11529" data-name="Grupo 11529" transform="translate(363.234 497.578)">
        <path id="Trazado_21533" data-name="Trazado 21533" d="M339.688,466a6.688,6.688,0,0,0,0,13.375h10.031a6.688,6.688,0,0,0,0-13.375Z" transform="translate(-333 -466)" fill="#e8e6e4"/>
      </g>
      <g id="Grupo_11530" data-name="Grupo 11530" transform="translate(358.219 470.828)">
        <path id="Trazado_21534" data-name="Trazado 21534" d="M336.688,450a6.688,6.688,0,0,0,0,13.375h21.734a6.688,6.688,0,0,0,0-13.375Z" transform="translate(-330 -450)" fill="#e8e6e4"/>
      </g>
      <g id="Grupo_11531" data-name="Grupo 11531" transform="translate(361.563 457.453)">
        <path id="Trazado_21535" data-name="Trazado 21535" d="M338.688,442a6.688,6.688,0,0,0,0,13.375h15.047a6.688,6.688,0,0,0,0-13.375Z" transform="translate(-332 -442)" fill="#e8e6e4"/>
      </g>
      <g id="Grupo_11532" data-name="Grupo 11532" transform="translate(361.563 457.453)">
        <path id="Trazado_21536" data-name="Trazado 21536" d="M343.7,448.688c0,3.693-1.322,6.688-5.016,6.688a6.688,6.688,0,0,1,0-13.375C342.381,442,343.7,444.994,343.7,448.688Z" transform="translate(-332 -442)" fill="#fff"/>
      </g>
      <g id="Grupo_11533" data-name="Grupo 11533" transform="translate(358.219 470.828)">
        <path id="Trazado_21537" data-name="Trazado 21537" d="M341.7,456.688c0,3.693-1.322,6.688-5.016,6.688a6.688,6.688,0,0,1,0-13.375C340.381,450,341.7,452.994,341.7,456.688Z" transform="translate(-330 -450)" fill="#fff"/>
      </g>
      <g id="Grupo_11534" data-name="Grupo 11534" transform="translate(359.891 484.203)">
        <path id="Trazado_21538" data-name="Trazado 21538" d="M342.7,464.688c0,3.693-1.322,6.688-5.016,6.688a6.688,6.688,0,0,1,0-13.375C341.381,458,342.7,460.994,342.7,464.688Z" transform="translate(-331 -458)" fill="#fff"/>
      </g>
      <g id="Grupo_11535" data-name="Grupo 11535" transform="translate(363.234 497.578)">
        <path id="Trazado_21539" data-name="Trazado 21539" d="M344.7,472.688c0,3.693-1.322,6.688-5.016,6.688a6.688,6.688,0,0,1,0-13.375C343.381,466,344.7,468.994,344.7,472.688Z" transform="translate(-333 -466)" fill="#fff"/>
      </g>
      <g id="Grupo_11536" data-name="Grupo 11536" transform="translate(288 455.781)">
        <path id="Trazado_21540" data-name="Trazado 21540" d="M321.438,497.844H288V494.5h30.094V444.344H288V441h33.438Z" transform="translate(-288 -441)" fill="#2d2d2e"/>
      </g>
      <g id="Grupo_11537" data-name="Grupo 11537" transform="translate(331.469 460.797)">
        <path id="Trazado_21541" data-name="Trazado 21541" d="M314,444" transform="translate(-314 -444)" fill="none" stroke="#2d2d2e" stroke-miterlimit="10" stroke-width="2"/>
      </g>
      <g id="Grupo_11538" data-name="Grupo 11538" transform="translate(319.766 419)">
        <path id="Trazado_21542" data-name="Trazado 21542" d="M367.188,512.625H323.324l-6.687-3.344h-4.621v-3.344h5.41l6.688,3.344h43.074a5.016,5.016,0,0,0,0-10.031v-3.344h3.344a5.016,5.016,0,0,0,0-10.031v-3.344h3.344a5.016,5.016,0,0,0,0-10.031h-3.344v-3.344a5.016,5.016,0,0,0,0-10.031H343.089l-2.981-2.981,8.838-19.444h0a28.883,28.883,0,0,0,1.523-7.669c0-2.125-.884-5.99-4.1-6.6l-11.489,19.544-18.869,17.153H307v-3.344h7.712l17.724-16.112L344.493,419h.96c5.489,0,8.359,5.047,8.359,10.031a31.559,31.559,0,0,1-1.771,8.923l-7.931,17.464.363.363h26.058a8.355,8.355,0,0,1,6.256,13.9,8.36,8.36,0,0,1,0,15.672,8.355,8.355,0,0,1-3.344,13.375,8.355,8.355,0,0,1-6.256,13.9Z" transform="translate(-307 -419)" fill="#2d2d2e"/>
      </g>
      <g id="Grupo_11539" data-name="Grupo 11539" transform="translate(311.406 499.25)">
        <rect id="Rectángulo_2403" data-name="Rectángulo 2403" width="4" height="3" transform="translate(-0.406 0.375)" fill="#2d2d2e"/>
      </g>
      <g id="Grupo_11540" data-name="Grupo 11540" transform="translate(304.719 499.25)">
        <rect id="Rectángulo_2404" data-name="Rectángulo 2404" width="3" height="3" transform="translate(0.281 0.375)" fill="#2d2d2e"/>
      </g>
      <g id="Grupo_11541" data-name="Grupo 11541" transform="translate(294.688 459.125)">
        <rect id="Rectángulo_2405" data-name="Rectángulo 2405" width="3" height="51" transform="translate(0.313 0.5)" fill="#2d2d2e"/>
      </g>
      <g id="Grupo_11542" data-name="Grupo 11542" transform="translate(364.906 469.156)">
        <rect id="Rectángulo_2406" data-name="Rectángulo 2406" width="18" height="3" transform="translate(0.094 0.469)" fill="#2d2d2e"/>
      </g>
      <g id="Grupo_11543" data-name="Grupo 11543" transform="translate(364.906 482.531)">
        <rect id="Rectángulo_2407" data-name="Rectángulo 2407" width="18" height="3" transform="translate(0.094 0.094)" fill="#2d2d2e"/>
      </g>
      <g id="Grupo_11544" data-name="Grupo 11544" transform="translate(366.578 495.906)">
        <rect id="Rectángulo_2408" data-name="Rectángulo 2408" width="13" height="4" transform="translate(0.422 -0.281)" fill="#2d2d2e"/>
      </g>
      <g id="Grupo_11545" data-name="Grupo 11545" transform="translate(359.891 455.781)">
        <path id="Trazado_21543" data-name="Trazado 21543" d="M339.359,457.719a8.359,8.359,0,0,1,0-16.719v3.344a5.016,5.016,0,0,0,0,10.031Z" transform="translate(-331 -441)" fill="#2d2d2e"/>
      </g>
      <g id="Grupo_11546" data-name="Grupo 11546" transform="translate(356.547 469.156)">
        <path id="Trazado_21544" data-name="Trazado 21544" d="M337.359,465.719a8.359,8.359,0,0,1,0-16.719v3.344a5.016,5.016,0,0,0,0,10.031Z" transform="translate(-329 -449)" fill="#2d2d2e"/>
      </g>
      <g id="Grupo_11547" data-name="Grupo 11547" transform="translate(358.219 482.531)">
        <path id="Trazado_21545" data-name="Trazado 21545" d="M338.359,473.719a8.359,8.359,0,0,1,0-16.719v3.344a5.016,5.016,0,0,0,0,10.031Z" transform="translate(-330 -457)" fill="#2d2d2e"/>
      </g>
      <g id="Grupo_11548" data-name="Grupo 11548" transform="translate(361.563 495.906)">
        <path id="Trazado_21546" data-name="Trazado 21546" d="M340.359,481.719a8.359,8.359,0,0,1,0-16.719v3.344a5.016,5.016,0,0,0,0,10.031Z" transform="translate(-332 -465)" fill="#2d2d2e"/>
      </g>
    </g>
  </g>
</svg>
